<svg xmlns="http://www.w3.org/2000/svg" width="96" height="65" fill="none" viewBox="0 0 96 65"><path fill="#8CD9F8" d="M72.9 22L81.7165 30.2058L62.9285 47.6925L47.5285 33.3592L19 59.9475L24.4285 65L47.5285 43.5L62.9285 57.8333L87.1835 35.2942L96 43.5V22H72.9Z"/><path fill="#8CD9F8" d="M22.74 5.40393C22.74 2.43177 25.1478 0 28.0906 0C31.0335 0 33.4412 2.43177 33.4412 5.40393C33.4412 8.37609 31.0335 10.8079 28.0906 10.8079C25.1478 10.8079 22.74 8.37609 22.74 5.40393ZM6.20669 47.3654L3.15685 43.3935L0 45.9334L6.36721 54.1473C7.73162 55.9036 9.47056 57.2546 11.3968 57.9571C12.1459 58.2273 12.8147 58.0652 13.323 57.6599C14.1256 57.0384 14.4466 55.7685 13.644 54.7688C13.43 54.4986 13.109 54.3095 12.8147 54.1744C11.6643 53.688 10.6209 52.9585 9.76484 51.9317L9.55082 51.6615L18.7271 45.1228L21.1081 36.4225L26.753 41.8264L26.4167 54.0393L26.753 57.6599L26.4167 60.9968L31.7558 58.0922C31.7558 58.0922 32.2909 56.2684 34.0298 55.1876C29.6691 52.5938 33.4412 54.5257 33.4412 53.8502C33.4412 52.8235 37.9892 52.6883 36.7319 52.6883C36.3841 52.6883 36.0363 52.7964 35.742 52.9585C34.6719 53.5799 33.4145 53.9582 32.1036 54.0393V37.7734L26.4587 32.3695L28.0639 24.2636C31.5418 28.3166 36.9191 31.0726 42.8048 31.0726V25.6687C37.7217 25.6687 33.4145 22.9126 31.2742 19.1299L28.5989 14.8608C27.5288 13.2396 25.9236 12.1588 24.0509 12.1588C22.0445 12.1588 20.2788 13.0775 8.0259 18.3193V31.0726H13.3765V21.8319L18.1653 19.9405L13.9116 41.8804L6.20669 47.3654Z"/></svg>