<svg xmlns="http://www.w3.org/2000/svg" width="92" height="76" fill="none" viewBox="0 0 92 76"><path fill="#8CD9F8" d="M83.6364 0H8.36364C3.76364 0 0 3.76364 0 8.36364V58.5454C0 63.1454 3.76364 66.9091 8.36364 66.9091H29.2727V75.2727H62.7273V66.9091H83.6364C88.2364 66.9091 91.9582 63.1454 91.9582 58.5454L92 8.36364C92 3.76364 88.2364 0 83.6364 0ZM83.6364 58.5454H8.36364V8.36364H83.6364V58.5454ZM75.2727 20.9091H29.2727V29.2727H75.2727V20.9091ZM75.2727 37.6364H29.2727V46H75.2727V37.6364ZM25.0909 20.9091H16.7273V29.2727H25.0909V20.9091ZM25.0909 37.6364H16.7273V46H25.0909V37.6364Z"/></svg>