<svg xmlns="http://www.w3.org/2000/svg" width="658" height="378" fill="none" viewBox="0 0 658 378"><path fill="#DBDBDB" d="M553 356.359H24V375.359H553V356.359Z" opacity=".1"/><path fill="#EBEBEB" d="M394.915 375.17H545.343V32.4763H394.915V375.17Z" opacity=".1"/><path fill="#DBDBDB" d="M545.343 375.17H553.46V24.3594L545.343 32.4766V375.17Z" opacity=".1"/><path fill="#fff" d="M414.588 212.068H525.672V52.7463H414.588V212.068Z" opacity=".1"/><path fill="#C7C7C7" d="M524.637 276.641C525.194 295.669 525.423 317.016 525.486 336.054C525.486 342.957 525.578 349.86 525.532 356.762H524.619L506.75 356.68C489.575 356.616 470.31 356.351 453.135 355.868C470.31 355.375 489.575 355.119 506.75 355.046L524.619 354.973L523.706 355.886C523.706 349.284 523.706 342.683 523.761 336.081C523.825 317.044 524.053 295.696 524.601 276.668L524.637 276.641Z" opacity=".1"/><path fill="#C7C7C7" d="M415.621 318.623C414.891 289.158 414.799 256.909 414.708 227.38V226.467H415.621C444.392 226.558 475.756 226.659 504.463 227.38C483.124 227.891 459.184 228.147 437.809 228.211L415.594 228.293L416.507 227.38L416.434 250.207C416.37 272.12 416.123 296.718 415.594 318.641L415.621 318.623Z" opacity=".1"/><path fill="#C7C7C7" d="M394.92 32.4766H545.34L553.457 24.3594H394.92V32.4766Z" opacity=".1"/><path fill="#DBDBDB" d="M525.666 223.592H506.656V259.375H525.666V223.592Z" opacity=".1"/><path fill="#C7C7C7" d="M511.188 231.435V239.552L525.678 238.383V231.435H511.188Z" opacity=".1"/><path fill="#DBDBDB" d="M536.389 227.381H511.188V235.498H536.389V227.381Z" opacity=".1"/><path fill="#DBDBDB" d="M363.117 33.855H188.41V154.755H363.117V33.855Z" opacity=".1"/><path fill="#EBEBEB" d="M355.962 40.9961H195.536V147.679H355.962V40.9961Z" opacity=".1"/><path fill="#fff" d="M239.521 61.7587H206.358V101.057H239.521V61.7587Z" opacity=".1"/><path fill="#455A64" d="M224.132 64.4332C224.132 64.6698 224.062 64.901 223.93 65.0977C223.799 65.2944 223.612 65.4477 223.394 65.5383C223.175 65.6288 222.935 65.6525 222.703 65.6063C222.47 65.5602 222.257 65.4463 222.09 65.279C221.923 65.1117 221.809 64.8986 221.763 64.6665C221.717 64.4345 221.74 64.194 221.831 63.9754C221.921 63.7569 222.075 63.5701 222.271 63.4386C222.468 63.3072 222.699 63.2371 222.936 63.2371C223.253 63.2371 223.557 63.3631 223.782 63.5874C224.006 63.8117 224.132 64.116 224.132 64.4332Z"/><path fill="#EBEBEB" d="M212.667 69.6296C216.027 69.3739 219.378 69.3556 222.711 69.3191C226.043 69.2826 229.422 69.3739 232.755 69.6296C229.404 69.8944 226.043 69.9035 222.711 69.94C219.378 69.9765 216.027 69.8852 212.667 69.6296Z"/><path fill="#EBEBEB" d="M212.667 72.734C214.485 72.5167 216.315 72.413 218.145 72.4235C219.976 72.4079 221.806 72.5116 223.624 72.734C219.983 73.1493 216.307 73.1493 212.667 72.734Z"/><path fill="#EBEBEB" d="M212.667 75.8386C215.004 75.6012 217.333 75.5464 219.661 75.5281C221.989 75.5099 224.318 75.6012 226.646 75.8386C224.325 76.0605 221.993 76.1641 219.661 76.149C217.326 76.1639 214.992 76.0603 212.667 75.8386Z"/><path fill="#EBEBEB" d="M212.667 78.9425C215.589 78.7051 218.502 78.6503 221.414 78.632C224.327 78.6138 227.24 78.7051 230.161 78.9425C227.24 79.189 224.327 79.2438 221.414 79.262C218.502 79.2803 215.589 79.189 212.667 78.9425Z"/><path fill="#EBEBEB" d="M212.667 82.0567C215.205 81.8102 217.735 81.7554 220.264 81.7371C222.793 81.7189 225.331 81.8102 227.86 82.0567C225.331 82.2941 222.802 82.358 220.264 82.3671C217.725 82.3763 215.205 82.2941 212.667 82.0567Z"/><path fill="#EBEBEB" d="M212.667 85.1607C215.908 84.8959 219.15 84.8868 222.391 84.8503C225.633 84.8138 228.874 84.8503 232.115 85.1607C228.874 85.4164 225.633 85.4346 222.391 85.4712C219.15 85.5077 215.908 85.4164 212.667 85.1607Z"/><path fill="#EBEBEB" d="M212.667 88.2657C214.753 88.0441 216.851 87.9405 218.949 87.9553C221.047 87.9403 223.144 88.044 225.231 88.2657C223.144 88.4874 221.047 88.5911 218.949 88.5762C216.851 88.5864 214.754 88.4827 212.667 88.2657Z"/><path fill="#EBEBEB" d="M212.667 91.3703C216.027 91.1146 219.378 91.0964 222.711 91.0598C226.043 91.0233 229.422 91.1146 232.755 91.3703C229.404 91.6259 226.043 91.6442 222.711 91.6807C219.378 91.7173 216.027 91.6533 212.667 91.3703Z"/><path fill="#EBEBEB" d="M212.667 94.4742C216.027 94.2185 219.378 94.2003 222.711 94.1637C226.043 94.1272 229.422 94.2185 232.755 94.4742C229.404 94.739 226.043 94.7481 222.711 94.7846C219.378 94.8211 216.027 94.7298 212.667 94.4742Z"/><path fill="#fff" d="M303.906 81.6731H264.662V128.176H303.906V81.6731Z" opacity=".1"/><path fill="#455A64" d="M285.487 87.9451C285.489 88.182 285.42 88.4141 285.29 88.612C285.16 88.8099 284.974 88.9647 284.755 89.0566C284.537 89.1485 284.296 89.1735 284.063 89.1284C283.831 89.0833 283.617 88.9701 283.449 88.8032C283.28 88.6363 283.166 88.4232 283.119 88.1909C283.072 87.9586 283.095 87.7177 283.185 87.4986C283.275 87.2795 283.429 87.0921 283.626 86.9603C283.822 86.8285 284.054 86.7581 284.291 86.7581C284.607 86.758 284.91 86.8828 285.134 87.1052C285.358 87.3275 285.485 87.6294 285.487 87.9451Z"/><path fill="#EBEBEB" d="M270.164 93.2775C273.048 92.8514 275.98 92.8514 278.865 93.2775C277.427 93.494 275.974 93.5978 274.519 93.5879C273.061 93.5936 271.606 93.4898 270.164 93.2775Z"/><path fill="#EBEBEB" d="M270.164 96.7842C273.907 96.3581 277.687 96.3581 281.431 96.7842C279.561 97.0014 277.68 97.1051 275.797 97.0946C273.915 97.1005 272.034 96.9968 270.164 96.7842Z"/><path fill="#EBEBEB" d="M270.164 100.291C273.629 99.8647 277.134 99.8647 280.6 100.291C278.871 100.508 277.129 100.612 275.386 100.601C273.641 100.607 271.896 100.504 270.164 100.291Z"/><path fill="#EBEBEB" d="M270.164 103.796C273.629 103.37 277.134 103.37 280.6 103.796C278.871 104.013 277.129 104.117 275.386 104.107C273.641 104.113 271.896 104.009 270.164 103.796Z"/><path fill="#EBEBEB" d="M270.164 107.303C273.171 106.877 276.223 106.877 279.23 107.303C276.222 107.717 273.172 107.717 270.164 107.303Z"/><path fill="#EBEBEB" d="M270.164 110.827C274.02 110.401 277.912 110.401 281.769 110.827C277.911 111.241 274.021 111.241 270.164 110.827Z"/><path fill="#EBEBEB" d="M270.164 114.315C273.342 113.889 276.563 113.889 279.742 114.315C276.562 114.729 273.343 114.729 270.164 114.315Z"/><path fill="#EBEBEB" d="M270.164 117.812C274.155 117.398 278.179 117.398 282.17 117.812C278.179 118.239 274.155 118.239 270.164 117.812Z"/><path fill="#EBEBEB" d="M270.164 121.318C274.155 120.904 278.179 120.904 282.17 121.318C278.179 121.744 274.155 121.744 270.164 121.318Z"/><path fill="#EBEBEB" d="M287.304 93.2775C291.093 92.8514 294.919 92.8514 298.708 93.2775C296.817 93.4947 294.914 93.5983 293.011 93.5879C291.104 93.594 289.199 93.4903 287.304 93.2775Z"/><path fill="#EBEBEB" d="M287.304 96.7841C289.785 96.3581 292.32 96.3581 294.8 96.7841C293.564 97.0004 292.311 97.1043 291.057 97.0946C289.799 97.1001 288.543 96.9962 287.304 96.7841Z"/><path fill="#EBEBEB" d="M287.304 100.291C290.867 99.8647 294.469 99.8647 298.033 100.291C296.254 100.508 294.464 100.611 292.673 100.601C290.879 100.607 289.086 100.503 287.304 100.291Z"/><path fill="#EBEBEB" d="M287.304 103.796C290.77 103.37 294.275 103.37 297.74 103.796C296.011 104.013 294.27 104.117 292.527 104.107C290.781 104.112 289.037 104.009 287.304 103.796Z"/><path fill="#EBEBEB" d="M287.304 107.303C291.093 106.877 294.919 106.877 298.708 107.303C294.918 107.717 291.094 107.717 287.304 107.303Z"/><path fill="#EBEBEB" d="M287.304 110.827C290.311 110.401 293.364 110.401 296.371 110.827C293.363 111.241 290.312 111.241 287.304 110.827Z"/><path fill="#EBEBEB" d="M287.304 114.315C290.867 113.889 294.469 113.889 298.033 114.315C294.468 114.729 290.868 114.729 287.304 114.315Z"/><path fill="#EBEBEB" d="M287.304 117.812C290.055 117.398 292.853 117.398 295.604 117.812C292.854 118.238 290.054 118.238 287.304 117.812Z"/><path fill="#EBEBEB" d="M287.304 121.318C289.942 120.904 292.628 120.904 295.266 121.318C292.629 121.744 289.941 121.744 287.304 121.318Z"/><path fill="#DBDBDB" d="M256.426 50.9573H236.475V70.9079H256.426V50.9573Z" opacity=".1"/><path fill="#455A64" d="M247.644 52.9846C247.644 53.2211 247.574 53.4524 247.442 53.6491C247.311 53.8458 247.124 53.9991 246.905 54.0897C246.687 54.1802 246.446 54.2039 246.214 54.1577C245.982 54.1116 245.769 53.9976 245.602 53.8304C245.435 53.6631 245.321 53.45 245.274 53.2179C245.228 52.9859 245.252 52.7454 245.343 52.5268C245.433 52.3083 245.586 52.1215 245.783 51.99C245.98 51.8586 246.211 51.7885 246.448 51.7885C246.605 51.7885 246.76 51.8194 246.905 51.8795C247.05 51.9396 247.182 52.0277 247.293 52.1388C247.404 52.2499 247.493 52.3817 247.553 52.5268C247.613 52.672 247.644 52.8275 247.644 52.9846Z"/><path fill="#C7C7C7" d="M355.885 40.9961H353.191V147.798H355.885V40.9961Z" opacity=".1"/><path fill="#263238" d="M7.77966 375.572C125.812 375.015 258.207 375.006 376.24 375.572C258.207 376.138 125.812 376.129 7.77966 375.572Z"/><path fill="#FEB3B1" d="M54.9759 294.099C54.9759 294.099 46.6395 281.316 27.9673 283.79C10.2263 286.155 -0.812712 317.236 16.3804 322.715C33.5735 328.193 33.2631 298.427 40.1202 294.026C45.1695 290.803 51.844 292.236 54.9759 294.099Z"/><path fill="#263238" d="M12.2144 299.842C13.5037 298.913 14.8518 298.068 16.2501 297.313C17.5717 296.575 18.9879 296.022 20.4594 295.669C21.2613 294.662 22.1438 293.721 23.0982 292.857C24.8716 291.272 26.8759 289.967 29.0423 288.985C28.8596 288.985 28.677 288.912 28.5035 288.894C27.5375 288.762 26.5654 288.68 25.5909 288.648C23.6308 288.588 21.676 288.881 19.8203 289.515C19.8003 289.517 19.7802 289.513 19.763 289.502C19.7458 289.492 19.7326 289.476 19.7253 289.457C19.718 289.439 19.7171 289.418 19.7227 289.399C19.7283 289.379 19.7402 289.363 19.7563 289.351C21.638 288.742 23.5835 288.353 25.5543 288.191C26.5111 288.104 27.4737 288.104 28.4305 288.191C28.9418 288.237 29.4531 288.328 29.9553 288.419L30.2475 288.474C32.0127 287.786 33.8508 287.302 35.7259 287.031L35.2237 286.849C34.3521 286.564 33.465 286.33 32.5667 286.146C30.7662 285.771 28.9252 285.626 27.0883 285.717C26.9787 285.717 26.9605 285.543 27.0883 285.543C28.9436 285.494 30.7998 285.592 32.6398 285.835C34.1916 286.03 35.7206 286.375 37.2051 286.867C38.3256 286.773 39.4511 286.751 40.5743 286.803C46.9658 287.141 53.686 290.182 57.11 295.788C60.534 301.394 60.6436 308.461 60.7623 314.853C61 323.766 60.3886 332.681 58.9362 341.478C58.8449 341.998 58.1235 341.834 58.1509 341.332C58.6257 333.799 59.064 326.266 59.064 318.715C59.064 315.218 59.064 311.703 58.7718 308.215C58.6298 305.22 58.0547 302.261 57.0644 299.431C55.9642 296.535 54.0368 294.027 51.522 292.218C48.9894 290.433 46.0923 289.232 43.0396 288.702C40.3212 288.225 37.5404 288.225 34.822 288.702C34.8629 289.247 34.826 289.794 34.7124 290.328C34.594 291 34.3947 291.657 34.1189 292.282C33.8671 292.877 33.5615 293.449 33.2059 293.989C32.8132 294.583 32.2928 295.103 31.9002 295.669C31.8271 295.751 31.681 295.669 31.7632 295.55C32.6155 294.549 33.2193 293.36 33.5254 292.081C33.6926 291.48 33.8237 290.871 33.9181 290.255C33.982 289.78 33.9911 289.342 34.055 288.839C31.0723 289.454 28.2319 290.625 25.6822 292.291C25.1982 292.61 24.7691 292.939 24.2852 293.286C24.8314 293.907 25.292 294.598 25.6548 295.34C26.1501 296.325 26.5565 297.352 26.8691 298.408C27.5207 300.52 27.8891 302.71 27.9648 304.919C27.9648 304.943 27.9552 304.966 27.9381 304.983C27.921 305 27.8977 305.01 27.8735 305.01C27.8493 305.01 27.8261 305 27.809 304.983C27.7918 304.966 27.7822 304.943 27.7822 304.919C27.6476 302.774 27.1377 300.669 26.2757 298.7C25.8833 297.729 25.4289 296.783 24.9152 295.87C24.6413 295.404 24.3673 294.957 24.0752 294.482C23.9199 294.236 23.7465 293.989 23.6004 293.733C21.2519 295.634 19.2608 297.937 17.7202 300.536C18.4868 301.533 19.1022 302.637 19.5463 303.814C20.0864 305.056 20.5409 306.335 20.9068 307.639C21.5607 310.156 22.0518 312.712 22.3768 315.291C22.3768 315.401 22.2216 315.419 22.2034 315.291C21.9059 312.71 21.2863 310.176 20.359 307.749C19.9207 306.553 19.4459 305.375 18.9437 304.206C18.4137 303.112 17.9413 301.99 17.5284 300.846C16.0613 303.397 15.0828 306.2 14.6431 309.109C14.6431 309.219 14.4514 309.192 14.4697 309.109C15.2478 304.553 17.0732 300.24 19.802 296.509C18.6424 296.874 17.4828 297.23 16.3506 297.705C14.9091 298.305 13.5474 299.081 12.2966 300.015C12.2235 300.061 12.1413 299.915 12.2144 299.842Z"/><path fill="#263238" d="M25.5471 301.788C25.9214 303.614 26.4601 305.44 26.7706 307.33C27.1071 309.135 27.2053 310.977 27.0628 312.808C27.0628 312.854 26.9806 312.854 26.9806 312.808C26.8297 309.11 26.2911 305.438 25.3736 301.852C25.3371 301.705 25.5197 301.669 25.5471 301.788Z"/><path fill="#263238" d="M14.3967 296.217C15.184 295.61 16.0541 295.118 16.9807 294.756C17.9235 294.433 18.8917 294.189 19.8751 294.026C19.9847 294.026 20.0121 294.19 19.8751 294.209C18.907 294.365 17.9642 294.651 17.072 295.058C16.1699 295.426 15.2943 295.856 14.4515 296.345C14.4059 296.345 14.3419 296.263 14.3967 296.217Z"/><path fill="#FEB3B1" d="M45.9242 279.234C45.9242 279.234 44.1711 257.759 28.2106 250.801C14.8798 244.994 7.2739 259.977 16.7059 269.19C24.3209 276.559 36.5469 273.217 45.9242 279.234Z"/><path fill="#263238" d="M19.647 254.966C22.0746 255.949 24.4434 257.07 26.7416 258.326C28.6404 259.431 30.4699 260.651 32.22 261.978C31.9552 261.44 31.7178 260.864 31.453 260.335C31.033 259.513 30.5947 258.701 30.1017 257.915C29.1203 256.289 27.9394 254.792 26.5864 253.459C26.5042 253.386 26.5864 253.259 26.7051 253.341C28.0565 254.674 29.2964 256.115 30.4121 257.65C30.976 258.423 31.4943 259.228 31.9643 260.061C32.4385 260.83 32.7984 261.663 33.0326 262.535L33.2152 262.663C36.003 264.885 38.5575 267.384 40.8394 270.123C40.8394 269.904 40.7481 269.694 40.6933 269.502C40.392 268.452 40.0724 267.42 39.7254 266.379C39.0423 264.177 38.0722 262.074 36.8401 260.125C36.7762 260.024 36.9406 259.942 36.9954 260.034C38.2496 261.99 39.3662 264.031 40.3372 266.142C40.7774 267.175 41.1465 268.236 41.442 269.32C41.6698 270.024 41.8438 270.744 41.9624 271.474C42.6564 272.387 43.3412 273.246 43.9803 274.159C50.8375 283.92 54.2706 295.716 55.1015 307.522C55.3419 311.041 55.3998 314.571 55.275 318.096C55.2546 321.654 54.9493 325.205 54.3619 328.715C54.3619 328.934 53.9693 328.87 53.9785 328.651C54.0515 325.546 54.3711 322.46 54.435 319.356C54.4934 316.254 54.3929 313.152 54.1337 310.061C53.6294 303.867 52.4632 297.745 50.6549 291.799C48.7983 285.71 46.0638 279.924 42.5377 274.624C41.862 274.497 41.1955 274.314 40.5381 274.141C39.7437 273.931 38.9402 273.73 38.1458 273.511C36.6134 273.114 35.1239 272.566 33.6992 271.876C33.5987 271.83 33.6992 271.666 33.7905 271.73C35.197 272.495 36.7216 273.02 38.301 273.282C39.5519 273.538 40.8485 273.693 42.0994 273.985C40.9496 272.296 39.7123 270.669 38.3923 269.11C35.347 269.385 32.277 269.153 29.3073 268.425C27.7277 268.048 26.1751 267.566 24.6598 266.982C23.0619 266.361 21.5462 265.576 19.9757 264.909C19.857 264.864 19.9757 264.69 20.0396 264.754C22.9014 266.311 26.0237 267.332 29.2525 267.767C32.1003 268.224 34.9787 268.462 37.8628 268.479C36.7214 267.183 35.5527 265.914 34.3018 264.718C30.1108 260.728 25.1711 257.057 19.6105 255.149C19.5863 255.144 19.565 255.13 19.5513 255.109C19.5376 255.088 19.5326 255.063 19.5375 255.039C19.5423 255.015 19.5566 254.994 19.5771 254.98C19.5977 254.966 19.6228 254.961 19.647 254.966Z"/><path fill="#263238" d="M32.6338 255.038C33.3521 255.945 34.008 256.9 34.5969 257.896C35.1885 258.951 35.6601 260.069 36.0031 261.229C36.0031 261.229 36.0031 261.283 35.9391 261.229C35.4004 260.178 34.953 259.083 34.4143 258.042C33.8903 257.005 33.2501 256.031 32.506 255.138C32.433 255.065 32.5699 254.947 32.6338 255.038Z"/><path fill="#263238" d="M17.7942 262.177C18.8307 262.752 19.9268 263.211 21.063 263.547C22.1557 263.914 23.2684 264.219 24.3957 264.46C24.4505 264.46 24.3957 264.561 24.3957 264.551C23.2248 264.426 22.0707 264.175 20.9534 263.803C19.8477 263.384 18.7683 262.9 17.7212 262.351C17.6116 262.278 17.6938 262.123 17.7942 262.177Z"/><path fill="#FEB3B1" d="M57.48 276.075C57.5804 276.988 59.8905 268.278 73.3857 260.553C85.6482 253.522 100.276 235.225 88.2596 223.674C78.5536 214.324 52.9968 234.658 57.48 276.075Z"/><path fill="#263238" d="M48.1864 326.084C48.3852 317.005 49.1016 307.945 50.3321 298.947C51.4007 290.682 53.3098 282.547 56.0297 274.669C57.0341 271.838 58.1845 269.044 59.4263 266.296C59.3575 265.225 59.3758 264.15 59.4811 263.082C59.545 261.703 59.6728 260.343 59.8007 258.964C59.9285 257.585 60.0654 256.225 60.2298 254.855C60.3941 253.486 60.6863 252.116 60.7411 250.765C60.7411 250.637 60.942 250.664 60.9146 250.765C60.6403 252.199 60.4754 253.652 60.4215 255.111C60.3241 256.438 60.2511 257.762 60.2024 259.083C60.2024 260.416 60.2024 261.74 60.2024 263.073C60.2024 263.548 60.2024 264.059 60.2024 264.57C61.4716 261.886 62.832 259.247 64.3112 256.672C63.3982 251.075 64.576 245.231 65.7265 239.762C65.7265 239.653 65.9182 239.698 65.8908 239.808C65.3222 242.665 65.0166 245.569 64.9778 248.482C64.923 250.783 65.0326 253.047 65.0417 255.376C65.3613 254.828 65.6808 254.271 66.0187 253.732C67.7626 250.874 69.6709 248.071 71.6249 245.35C71.4618 244.025 71.5049 242.682 71.7527 241.369C71.973 239.893 72.2996 238.434 72.7297 237.005C73.1558 235.58 73.655 234.177 74.2272 232.795C74.8115 231.38 75.5876 230.056 76.1537 228.614C76.1537 228.495 76.382 228.568 76.309 228.678C75.5956 230.025 75.0293 231.445 74.6198 232.914C74.1789 234.294 73.8102 235.696 73.515 237.114C73.2319 238.539 73.0037 239.954 72.8028 241.397C72.6658 242.31 72.5836 243.323 72.4193 244.291C75.3082 240.407 78.466 236.731 81.8696 233.289C81.9517 233.206 82.0613 233.334 81.9883 233.416C76.8517 239.197 72.2665 245.446 68.2922 252.08C68.137 252.335 68 252.582 67.8539 252.837C68.5935 252.372 69.4518 251.997 70.1549 251.605C71.4606 250.883 72.7663 250.162 74.0902 249.45L77.9068 247.359C78.5642 246.994 79.2125 246.619 79.8791 246.272C80.6743 245.914 81.4379 245.49 82.1617 245.003C82.2622 244.93 82.3717 245.085 82.2622 245.149C80.9656 245.862 79.8152 246.921 78.6099 247.724C77.4046 248.528 76.0624 249.304 74.7567 250.034C72.3554 251.376 69.7531 252.335 67.3883 253.687C65.7508 256.554 64.229 259.488 62.8229 262.489C64.2564 261.575 65.7173 260.662 67.2057 259.868C68.1187 259.329 69.1231 258.8 70.091 258.288C71.0629 257.845 71.9818 257.294 72.8302 256.645C72.9123 256.572 73.031 256.7 72.9489 256.773C71.3781 258.188 69.6357 259.399 67.7626 260.379C66.0278 261.393 64.2747 262.379 62.4759 263.255C61.0333 266.421 59.7307 269.641 58.568 272.916C52.8887 289.004 50.7978 306.078 49.8025 323.034C49.5012 328.093 49.3551 333.142 49.2912 338.209C49.2273 343.277 49.4921 348.317 49.483 353.366C49.483 353.522 49.2364 353.558 49.2182 353.366C48.6064 348.883 48.506 344.318 48.3051 339.807C48.1042 335.297 48.086 330.677 48.1864 326.084Z"/><path fill="#263238" d="M72.7043 253.258C75.168 252.172 77.5619 250.934 79.8719 249.551C82.2167 248.232 84.4904 246.79 86.6834 245.232C86.6834 245.232 86.7655 245.232 86.6834 245.296C84.6142 246.97 82.4296 248.495 80.1458 249.861C77.756 251.202 75.2825 252.389 72.7408 253.413C72.686 253.459 72.5947 253.304 72.7043 253.258Z"/><path fill="#263238" d="M68.7927 235.078C68.9936 234.293 69.2401 233.526 69.5049 232.759C69.4988 232.753 69.494 232.746 69.4907 232.738C69.4874 232.73 69.4857 232.722 69.4857 232.713C69.4857 232.705 69.4874 232.697 69.4907 232.689C69.494 232.681 69.4988 232.674 69.5049 232.668C69.6692 232.23 69.8518 231.8 70.0253 231.371L70.0892 231.216C70.0892 231.134 70.1623 231.052 70.1897 230.97C70.2171 230.887 70.2445 230.97 70.1897 230.97C70.1349 230.97 70.1075 231.271 70.0619 231.417C70.0417 231.5 70.0173 231.583 69.9888 231.663C69.0966 234.653 68.4282 237.705 67.9892 240.794C67.9892 240.885 67.8248 240.895 67.8248 240.794C67.9712 238.863 68.2952 236.95 68.7927 235.078Z"/><path fill="#FEB3B1" d="M55.0548 299.323C59.7571 284.713 70.3852 276.039 84.0539 278.048C97.7226 280.057 102.315 298.044 93.2303 304.061C84.1452 310.078 72.3849 297.989 66.8243 295.953C61.2637 293.917 55.0548 299.323 55.0548 299.323Z"/><path fill="#263238" d="M53.793 336.621C53.5921 334.968 53.4278 333.315 53.2452 331.653C52.8982 328.348 52.533 325.043 52.186 321.738C51.556 315.693 51.3642 309.694 53.0991 303.796C54.5797 298.443 57.6526 293.666 61.9102 290.1C63.4923 288.806 65.2432 287.734 67.1147 286.913C68.6282 284.877 70.6991 283.323 73.077 282.439C76.0276 281.389 79.14 280.867 82.2717 280.896C82.3812 280.896 82.3995 281.06 82.2717 281.069C79.2995 281.097 76.3628 281.717 73.634 282.896C72.4649 283.404 71.3512 284.031 70.3104 284.767C69.6629 285.247 69.0524 285.775 68.4843 286.347C71.052 285.419 73.7892 285.055 76.5102 285.279C77.491 285.37 78.4623 285.544 79.4137 285.799C80.1095 285.538 80.8374 285.372 81.5777 285.306C82.5394 285.196 83.5104 285.196 84.4721 285.306C86.4471 285.566 88.3766 286.098 90.2062 286.886C90.3067 286.931 90.2062 287.087 90.1332 287.05C88.3497 286.381 86.4809 285.966 84.5817 285.817C83.6701 285.745 82.7542 285.745 81.8425 285.817C81.336 285.861 80.8328 285.938 80.3359 286.046C84.3183 287.236 87.7504 289.798 90.0236 293.277C90.0784 293.378 89.9414 293.478 89.8775 293.387C88.5373 291.37 86.7589 289.682 84.6752 288.449C82.5914 287.216 80.256 286.469 77.8433 286.265C77.542 286.265 77.2406 286.265 76.9302 286.265C77.0644 286.693 77.1741 287.129 77.2589 287.57C77.4415 288.219 77.6515 288.867 77.8707 289.506C78.3392 290.82 78.888 292.104 79.5142 293.35C80.1404 294.616 80.8543 295.836 81.6508 297.002C82.4219 298.253 83.3416 299.406 84.39 300.436C84.4024 300.443 84.4129 300.453 84.4208 300.465C84.4286 300.477 84.4335 300.49 84.4352 300.504C84.4368 300.519 84.435 300.533 84.4301 300.546C84.4251 300.56 84.417 300.572 84.4066 300.582C84.3961 300.591 84.3835 300.599 84.3697 300.603C84.356 300.606 84.3415 300.607 84.3274 300.604C84.3134 300.602 84.3002 300.596 84.2888 300.587C84.2775 300.578 84.2683 300.567 84.2621 300.554C83.2943 299.431 82.2169 298.427 81.3221 297.249C80.458 296.122 79.6797 294.932 78.9937 293.688C78.3057 292.425 77.7195 291.109 77.2406 289.753C76.9941 289.041 76.775 288.31 76.5832 287.58C76.4327 287.146 76.3405 286.695 76.3093 286.237C74.7329 286.22 73.1611 286.41 71.6344 286.804C72.6844 289.981 73.7892 293.286 76.0263 295.861C76.0993 295.943 75.9532 296.062 75.8802 295.971C74.8115 294.59 73.8383 293.138 72.9675 291.625C72.138 290.155 71.5231 288.575 71.1413 286.931C68.4969 287.675 66.018 288.914 63.8368 290.584C59.7289 293.827 56.7117 298.249 55.19 303.257C53.5962 308.639 53.0842 314.284 53.6834 319.866C54.2404 326.915 55.1535 333.954 55.4457 341.022C55.4457 341.478 54.7609 341.734 54.6056 341.232C54.1906 339.723 53.9185 338.18 53.793 336.621Z"/><path fill="#263238" d="M62.6677 288.903C63.0306 288.31 63.473 287.769 63.9825 287.296C64.4568 286.761 64.9597 286.252 65.4891 285.771C66.5257 284.813 67.7174 284.038 69.0136 283.479C69.114 283.479 69.187 283.598 69.0775 283.644C67.7664 284.177 66.5837 284.983 65.6078 286.009C65.1147 286.493 64.6399 287.004 64.1925 287.533C63.7944 288.08 63.345 288.588 62.8503 289.049C62.759 289.113 62.6129 289.013 62.6677 288.903Z"/><path fill="#263238" d="M84.5909 290.831C85.8847 291.95 87.1046 293.152 88.2432 294.428C89.3518 295.718 90.3276 297.116 91.1559 298.601C91.1559 298.647 91.1102 298.683 91.0828 298.647C89.1347 295.888 86.9339 293.318 84.5087 290.968C84.3992 290.895 84.5087 290.758 84.5909 290.831Z"/><path fill="#263238" d="M70.107 291.516C70.3694 292.338 70.741 293.121 71.2118 293.844C71.6834 294.556 72.2084 295.23 72.7823 295.862C72.7823 295.862 72.7823 295.962 72.7184 295.926C71.3997 294.765 70.4479 293.245 69.9792 291.552C69.9061 291.479 70.0705 291.415 70.107 291.516Z"/><path fill="#455A64" d="M33.921 329.343L34.8889 340.757L37.8381 375.572H69.412L72.3613 340.757L73.3291 329.343H33.921Z"/><path fill="#263238" d="M33.921 329.343L34.8889 340.757H72.3613L73.3291 329.343H33.921Z"/><path fill="#455A64" d="M30.8233 335.717H76.422V324.769H30.8233V335.717Z"/><path fill="#fff" d="M195.149 36.2572C194.783 39.7702 193.447 43.1123 191.291 45.9102C189.135 48.7081 186.244 50.8518 182.941 52.1019C179.637 53.3521 176.052 53.6595 172.583 52.9899C169.115 52.3202 165.902 50.6999 163.301 48.3097L153.769 49.7159L158.535 41.4982C157.44 38.8143 156.972 35.916 157.166 33.0239C157.359 30.1318 158.21 27.3219 159.653 24.8079C161.096 22.2939 163.093 20.142 165.492 18.5159C167.892 16.8898 170.631 15.8322 173.5 15.4235C176.37 15.0149 179.295 15.266 182.053 16.1578C184.811 17.0495 187.33 18.5584 189.417 20.5697C191.504 22.581 193.105 25.0418 194.099 27.7649C195.092 30.488 195.451 33.4018 195.149 36.2846V36.2572Z"/><path fill="#263238" d="M195.151 36.2574C194.781 39.7694 193.451 43.1116 191.307 45.9177C190.251 47.3173 188.989 48.5487 187.564 49.5699C184.73 51.7052 181.362 53.0165 177.83 53.3592C176.949 53.4232 176.064 53.4232 175.182 53.3592C174.297 53.3408 173.414 53.2491 172.544 53.0853C169.03 52.441 165.767 50.8282 163.121 48.4286L163.34 48.5016L153.816 50.0539L153.123 50.1634L153.479 49.5517L158.217 41.334V41.6627C157.1 38.9297 156.624 35.9766 156.826 33.0307C157.029 30.0849 157.905 27.2248 159.386 24.6705C160.869 22.1169 162.911 19.9319 165.358 18.279C167.8 16.664 170.575 15.6222 173.477 15.2316C176.378 14.8411 179.33 15.1119 182.113 16.0237C184.852 16.9672 187.347 18.5079 189.417 20.5343C191.499 22.5512 193.097 25.0139 194.09 27.7372C195.083 30.4606 195.446 33.3736 195.151 36.2574ZM195.151 36.2574C195.595 31.9228 194.53 27.5678 192.137 23.9269C189.743 20.2859 186.167 17.5817 182.012 16.2703C179.276 15.4249 176.384 15.2084 173.552 15.6369C170.721 16.0653 168.023 17.1277 165.659 18.7447C163.334 20.3825 161.39 22.5036 159.961 24.9627C158.554 27.4351 157.726 30.1951 157.542 33.0342C157.363 35.8664 157.821 38.7027 158.884 41.334L158.948 41.5075L158.857 41.6627L154.063 49.8804L153.716 49.3782L163.267 48.0451H163.395L163.486 48.1273C166.032 50.5154 169.194 52.1441 172.617 52.8296C173.468 53.0045 174.332 53.1114 175.201 53.1492C176.07 53.2131 176.943 53.2131 177.812 53.1492C179.552 53.018 181.264 52.6398 182.898 52.0261C184.533 51.431 186.072 50.5972 187.463 49.5517C188.167 49.0344 188.838 48.4732 189.472 47.8716C190.093 47.2535 190.673 46.5946 191.207 45.8994C193.39 43.1129 194.755 39.7748 195.151 36.2574Z"/><path fill="#FFC727" d="M173.956 45.1421L165.821 36.9062L168.551 34.2035L173.308 39.0154L183.187 23.5206L186.429 25.5933L173.956 45.1421Z"/><path fill="#E8F3FF" d="M501.086 371.556C500.693 371.556 500.291 371.502 499.907 371.381C498.403 370.918 497.707 369.666 498.354 368.586L560.729 264.88C561.381 263.8 563.126 263.303 564.639 263.766C566.148 264.229 566.844 265.481 566.193 266.561L503.817 370.267C503.331 371.072 502.237 371.556 501.086 371.556Z"/><path fill="#002955" d="M650.041 300.671C651.346 302.59 656.5 346.071 657.308 362.131C657.363 363.219 656.495 364.124 655.406 364.124C654.467 364.124 653.669 363.44 653.524 362.514L644.088 302.056L650.041 300.671Z"/><path fill="#002955" d="M608.566 300.673C607.267 302.592 602.112 346.073 601.303 362.132C601.246 363.221 602.117 364.126 603.206 364.126C604.143 364.126 604.942 363.442 605.084 362.516L614.521 302.058L608.566 300.673Z"/><path fill="#002955" d="M657.886 297.281L657.891 297.757C657.926 301.169 654.983 303.968 651.307 304.03L607.694 304.768C604.068 304.831 601.045 302.212 600.869 298.854L600.849 298.42C600.663 294.916 603.641 291.967 607.418 291.896L651.046 291.116C654.777 291.049 657.856 293.823 657.886 297.281Z"/><path fill="#E8F3FF" d="M113.966 372.587C113.573 372.587 113.175 372.529 112.792 372.412C111.283 371.941 110.585 370.681 111.235 369.588L173.613 264.889C174.261 263.801 176.01 263.296 177.52 263.767C179.029 264.234 179.726 265.498 179.077 266.587L116.699 371.286C116.215 372.099 115.118 372.587 113.966 372.587Z"/><path fill="#7D97F4" d="M184.236 372.587C183.083 372.587 181.986 372.099 181.502 371.286L119.124 266.587C118.475 265.498 119.172 264.234 120.681 263.767C122.189 263.296 123.939 263.801 124.589 264.889L186.966 369.588C187.615 370.681 186.919 371.941 185.409 372.412C185.026 372.529 184.628 372.587 184.236 372.587Z"/><path fill="#002955" d="M454.32 364.153H449.415V311.066H454.32V364.153Z"/><path fill="#002955" d="M473.348 365.18H430.35V364.951C430.35 363.312 431.681 361.985 433.316 361.985H470.153C471.917 361.985 473.348 363.416 473.348 365.18Z"/><path fill="#002955" d="M479.727 309.23C479.727 312.133 477.354 314.511 474.45 314.511H430.952C428.045 314.511 425.672 312.133 425.672 309.23V304.458C425.672 301.555 428.045 299.177 430.952 299.177H474.45C477.354 299.177 479.727 301.555 479.727 304.458V309.23Z"/><path fill="url(#paint0_linear_468_13258)" d="M415.621 275.673C415.621 275.673 408.326 276.804 400.125 282.289C398.836 283.148 398.127 284.654 398.323 286.193C399.303 293.973 403.341 319.15 416.656 343.74C417.357 345.037 417.561 346.547 417.252 347.991L414.937 358.757L410.649 362.778H421.699L429.053 342.868L425.908 341.871C423.467 341.1 421.795 338.86 421.753 336.298L421.382 314.942C421.699 305.427 415.546 298.861 415.546 298.861L433.195 298.006L415.621 275.673Z"/><path fill="#1684F8" d="M406.319 364.717C405.313 366.035 417.152 367.774 423.129 364.892C423.129 364.892 431.421 350.468 431.421 343.043C431.421 343.043 430.762 341.529 425.894 341.871C425.894 341.871 423.112 358.952 420.172 360.862C417.235 362.777 411.95 361.059 411.95 361.059C411.95 361.059 407.804 362.777 406.319 364.717Z"/><path fill="url(#paint1_linear_468_13258)" d="M430.963 299.174C430.867 299.011 411.963 296.9 411.963 296.9C411.963 296.9 412.58 302.648 410.649 310.561C408.714 318.474 380.958 352.758 380.958 352.758L383.865 361.985C374.868 365.121 366.016 365.622 357.307 363.582L375.343 352.758C375.343 352.758 392.225 295.232 402.565 284.97L421.515 278.413L430.963 299.174Z"/><path fill="url(#paint2_linear_468_13258)" d="M473.362 265.704C473.362 265.704 484.253 281.905 485.146 289.297C486.038 296.684 482.163 299.687 470.734 300.184C459.305 300.676 428.796 300.672 428.796 300.672L402.755 278.414C402.755 278.414 421.734 271.644 426.664 269.729C431.599 267.815 473.362 265.704 473.362 265.704Z"/><path fill="#1684F8" d="M382.754 358.876C382.754 358.876 385.886 361.913 383.767 365.287C383.767 365.287 358.948 369.688 352.208 367.69C352.208 367.69 353.609 364.499 361.197 360.862L360.638 361.291C359.929 361.838 360.346 362.968 361.234 362.918C366.235 362.634 376.584 361.717 382.754 358.876Z"/><path fill="#002955" d="M241.26 362.81H247.304V297.442H241.26V362.81Z"/><path fill="#002955" d="M217.812 364.075H270.755V361.334C270.755 360.675 270.221 360.141 269.562 360.141H219.096C218.387 360.141 217.812 360.717 217.812 361.426V364.075Z"/><path fill="#002955" d="M207.777 295.036C207.777 298.836 210.885 301.944 214.685 301.944H271.61C275.41 301.944 278.518 298.836 278.518 295.036V288.788C278.518 284.992 275.41 281.88 271.61 281.88H214.685C210.885 281.88 207.777 284.992 207.777 288.788V295.036Z"/><path fill="#002955" d="M104.005 360.744H108.375V313.484H104.005V360.744Z"/><path fill="#002955" d="M87.0458 361.653H125.322C125.322 360.085 124.048 358.809 122.477 358.809H89.8902C88.3193 358.809 87.0458 360.085 87.0458 361.653Z"/><path fill="#002955" d="M81.3694 311.836C81.3694 314.423 83.4842 316.537 86.0692 316.537H124.795C127.38 316.537 129.495 314.423 129.495 311.836V307.59C129.495 305.004 127.38 302.889 124.795 302.889H86.0692C83.4842 302.889 81.3694 305.004 81.3694 307.59V311.836Z"/><path fill="url(#paint3_linear_468_13258)" d="M138.435 281.964C138.435 281.964 144.929 282.974 152.231 287.854C153.379 288.622 154.01 289.961 153.837 291.333C152.962 298.257 149.368 320.67 137.514 342.565C136.889 343.716 136.71 345.059 136.985 346.344L139.045 355.929L142.864 359.508H133.027L126.477 341.785L129.278 340.9C131.449 340.212 132.939 338.214 132.979 335.936L133.307 316.924C133.027 308.452 138.501 302.608 138.501 302.608L122.792 301.845L138.435 281.964Z"/><path fill="#0065CF" d="M146.704 361.244C147.6 362.416 137.063 363.964 131.738 361.398C131.738 361.398 124.358 348.559 124.358 341.948C124.358 341.948 124.944 340.596 129.277 340.905C129.277 340.905 131.755 356.109 134.372 357.811C136.989 359.513 141.693 357.982 141.693 357.982C141.693 357.982 145.383 359.513 146.704 361.244Z"/><path fill="url(#paint4_linear_468_13258)" d="M124.778 302.89C124.862 302.744 141.692 300.867 141.692 300.867C141.692 300.867 141.141 305.985 142.863 313.026C144.584 320.072 169.295 350.593 169.295 350.593L166.704 358.806C174.715 361.597 182.595 362.043 190.35 360.228L174.292 350.593C174.292 350.593 159.264 299.382 150.06 290.247L133.189 284.407L124.778 302.89Z"/><path fill="#0065CF" d="M167.693 356.043C167.693 356.043 164.903 358.745 166.788 361.749C166.788 361.749 188.885 365.67 194.885 363.889C194.885 363.889 193.639 361.048 186.883 357.811L187.382 358.195C188.013 358.679 187.643 359.688 186.848 359.642C182.397 359.388 173.184 358.57 167.693 356.043Z"/><path fill="#0065CF" d="M128.605 276.673C127.32 276.177 123.229 275.664 118.086 275.184H118.087C123.536 267.342 126.75 258.203 128.412 248.158L102.458 247.591C100.029 256.542 86.4067 274.024 85.459 275.526C85.4586 275.526 77.1361 289.187 76.5425 294.092C75.7471 300.67 79.1988 303.344 89.3734 303.786C99.5479 304.228 126.709 304.22 126.709 304.22L149.892 284.407C149.892 284.407 132.997 278.379 128.605 276.673Z"/><path fill="#0065CF" d="M267.65 352.033C267.65 352.033 284.381 364.096 281.473 372.197C281.473 372.197 263.17 364.297 260.955 358.077C258.744 351.854 261.33 349.109 261.33 349.109L267.65 352.033Z"/><path fill="url(#paint5_linear_468_13258)" d="M265.113 341.931L262.377 349.84C261.964 351.033 262.377 352.389 263.445 353.064C263.979 353.402 264.709 353.715 265.71 353.94C267.12 354.261 268.571 353.611 269.251 352.334L272.521 346.173L265.113 341.931Z"/><path fill="#0065CF" d="M238.508 270.743C238.508 270.743 272.874 276.696 287.615 290.315C302.356 303.934 274.083 347.369 274.083 347.369C274.083 347.369 269.453 347.344 263.839 342.531C263.839 342.531 280.603 309.861 266.154 300.334C249.913 289.622 231.196 287.211 231.196 287.211L238.176 271.79L238.508 270.743Z"/><path fill="#1684F8" d="M278.577 367.71C274.898 366.004 264.478 358.713 262.722 358.392C260.966 358.071 257.921 360.135 257.921 360.135C257.921 360.135 257.183 361.466 257.971 363.79C260.42 366.751 265.847 372.391 273.146 374.493C278.515 376.036 282.273 374.597 284.609 372.912C283.324 370.952 281.03 368.845 278.577 367.71Z"/><path fill="#0065CF" d="M273.13 374.499C265.831 372.397 260.404 366.757 257.955 363.796C258.493 365.368 259.728 367.391 262.369 369.761C268.909 375.642 281.41 377.765 284.072 377.356C286.203 377.027 286.003 375.058 284.593 372.918C282.257 374.603 278.499 376.042 273.13 374.499Z"/><path fill="url(#paint6_linear_468_13258)" d="M254.785 354.993C254.827 356.007 256.9 359.481 258.11 361.433C258.685 362.359 259.695 362.927 260.783 362.931C261.476 362.931 262.273 362.873 262.994 362.664C264.079 362.351 264.688 361.196 264.371 360.115L262.006 352.031L254.785 354.993Z"/><path fill="#0065CF" d="M205.434 260.424C205.434 260.424 197.802 280.83 205.434 287.037C213.066 293.243 231.272 300.23 235.339 312.59C239.406 324.949 246.309 348.972 255.545 357.481C255.545 357.481 262.034 356.851 264.462 354.265C264.462 354.265 259.202 318.404 255.733 309.203C252.729 301.231 248.302 289.731 239.818 283.303C237.39 281.464 237.813 278.548 238.939 275.716L240.989 270.56L205.434 260.424Z"/><path fill="url(#paint7_linear_468_13258)" d="M285.032 244.428C272.234 245.2 276.222 224.757 276.451 223.943L257.03 237.663C257.03 237.663 258.06 248.595 274.207 254.331C278.291 255.783 282.028 255.845 285.328 255.136C283.918 251.031 284.206 247.348 285.032 244.428Z"/><path fill="url(#paint8_linear_468_13258)" d="M309.779 238.278C305.011 234.962 299.609 238.278 299.609 238.278C293.231 242.449 288.513 244.222 285.035 244.431C284.209 247.35 283.921 251.034 285.331 255.138C292.472 253.603 297.582 248.435 299.805 245.782C300.602 244.827 302.02 244.66 302.996 245.432C303.989 246.216 304.952 247.288 304.777 248.418C304.435 250.646 307.021 251.355 307.213 250.546C307.409 249.741 306.329 244.948 306.329 244.948C306.329 244.948 311.501 250.149 313.52 252.147C315.539 254.145 318.079 252.147 318.079 252.147C318.079 252.147 314.546 241.594 309.779 238.278Z"/><path fill="url(#paint9_linear_468_13258)" d="M231.385 271.781C224.712 271.781 215.311 270.195 205.647 263.388L244.025 264.039C242.611 266.379 241.55 268.581 240.981 270.562C240.981 270.562 237.229 271.781 231.385 271.781ZM212.435 233.063C217.197 223.611 230.671 211.531 230.671 211.531L230.425 210.646C230.777 210.321 230.981 210.137 231.001 210.121C231.214 209.929 231.232 209.599 231.041 209.387C230.938 209.274 230.797 209.216 230.655 209.216C230.532 209.216 230.409 209.261 230.311 209.349C230.275 209.378 230.209 209.441 230.114 209.524L225.354 192.372C225.354 192.372 227.54 191.5 231.806 191.5C239.992 191.5 255.84 194.72 278.615 213.525C278.615 213.525 281.51 219.514 278.352 224.845C278.269 224.987 278.169 225.142 278.048 225.313C269.868 227.356 264.324 231.098 263.494 231.682C262.339 230.873 252.123 223.986 238.382 223.986C233.098 223.986 227.295 225.004 221.283 227.774L212.435 233.063Z"/><path fill="url(#paint10_linear_468_13258)" d="M262.168 185.718L253.006 196.827C252.096 197.932 251.895 199.463 252.525 200.748C253.797 203.342 256.817 207.121 263.507 206.6C265.501 206.446 267.262 205.24 268.133 203.442L274.54 190.198L262.168 185.718Z"/><path fill="url(#paint11_linear_468_13258)" d="M192.314 252.783C191.518 251.715 190.791 250.509 190.143 249.15C178.097 223.842 225.366 192.374 225.366 192.374L230.126 209.527C228.129 211.341 213.516 224.831 210.732 234.091L191.655 245.491C191.468 245.604 191.558 245.879 191.757 245.879C191.772 245.879 191.788 245.879 191.805 245.875C191.976 245.838 192.162 245.8 192.364 245.758C192.339 245.771 192.316 245.779 192.291 245.792C192.291 245.792 193.223 249.266 192.314 252.783ZM212.069 233.29C215.284 224.981 227.614 213.26 230.437 210.649L230.683 211.533C230.683 211.533 217.209 223.613 212.447 233.065L212.069 233.29Z"/><path fill="url(#paint12_linear_468_13258)" d="M210.718 234.088C213.502 224.827 228.114 211.338 230.111 209.523C230.206 209.44 230.273 209.377 230.308 209.348C230.407 209.26 230.53 209.214 230.653 209.214C230.795 209.214 230.936 209.273 231.039 209.385C231.23 209.598 231.211 209.928 230.999 210.12C230.979 210.136 230.774 210.32 230.422 210.645C227.6 213.256 215.27 224.978 212.055 233.287L210.718 234.088Z"/><path fill="url(#paint13_linear_468_13258)" d="M244.111 239.203C244.111 239.203 218.157 249.28 211.822 241.701C211.392 241.184 211.112 240.6 210.955 239.958C206.696 242.072 200.631 246.773 196.824 257.018C210.474 265.74 233.807 252.167 240.116 248.163C241.154 247.508 242.399 247.274 243.602 247.524C246.035 248.029 250.239 248.772 252.506 248.421C253.978 248.196 255.734 250.373 257.701 252.551C260.171 255.279 262.97 258.007 265.961 256C265.961 256 261.36 235.665 244.111 239.203Z"/><path fill="url(#paint14_linear_468_13258)" d="M285.03 172.939C285.03 172.939 285.189 185.035 283.237 190.529C281.28 196.023 280.976 199.994 274.314 198.467C267.653 196.944 263.719 191.655 263.131 185.119C263.131 185.119 262.155 175.016 264.566 172.059C266.977 169.101 285.03 172.939 285.03 172.939Z"/><path fill="#003D7D" d="M266.855 182.164L267.64 182.494C267.64 182.494 267.189 174.502 270.522 174.531C273.851 174.556 286.068 176.988 290.173 174.014C294.131 171.148 294.131 165.296 291.591 162.593C291.428 162.422 291.157 162.417 290.978 162.568L290.511 162.947C290.194 163.21 289.718 162.951 289.768 162.543C289.814 162.155 289.38 161.883 289.059 162.109C287.816 162.993 284.988 164.09 279.173 162.818C270.918 161.016 264.553 161.992 262.209 167.231C262.058 167.565 261.625 167.598 261.408 167.302C260.991 166.722 260.152 166.18 258.517 166.689C255.67 167.573 254.605 172.524 257.633 178.231C257.775 178.502 257.629 178.844 257.328 178.898C256.263 179.094 254.474 179.866 256.978 182.944C259.539 186.098 261.575 186.723 262.392 186.844C262.609 186.878 262.822 186.753 262.893 186.544L264.574 181.73C264.661 181.48 264.941 181.359 265.183 181.459L266.855 182.164Z"/><path fill="url(#paint15_linear_468_13258)" d="M266.615 183.223C266.615 183.223 267.662 175.978 263.962 176.578C260.262 177.183 262.411 184.537 264.663 185.772L266.615 183.223Z"/><path fill="#E8F3FF" d="M571.356 371.556C570.205 371.556 569.109 371.072 568.626 370.267L506.246 266.561C505.596 265.48 506.291 264.229 507.803 263.766C509.314 263.303 511.061 263.799 511.71 264.879L574.09 368.586C574.74 369.666 574.041 370.918 572.534 371.381C572.15 371.502 571.748 371.556 571.356 371.556Z"/><path fill="#002955" d="M577.564 260.998C577.822 260.076 577.469 259.125 576.599 258.399C575.729 257.678 574.434 257.261 573.07 257.261H110.177C108.38 257.261 106.706 257.887 105.738 258.925C104.77 259.968 104.64 261.274 105.394 262.391L110.41 269.841C111.558 271.551 114.048 272.64 116.786 272.64H569.89C572.44 272.64 574.628 271.402 575.113 269.687L577.564 260.998Z"/><path fill="url(#paint16_linear_468_13258)" d="M263.618 264.37H263.509L263.618 264.366V264.37ZM263.401 264.366L244.04 264.037L205.663 263.386L189.578 263.115C188.584 263.098 187.786 262.285 187.786 261.292V260.462C187.786 259.782 188.165 259.16 188.768 258.847L191.693 257.325C191.942 257.304 192.208 257.287 192.493 257.267L190.634 259.085C190.368 259.344 190.555 259.79 190.918 259.79C190.927 259.79 190.935 259.79 190.944 259.79C193.634 259.636 201.046 259.269 210.954 259.269C225.417 259.269 245.203 260.049 263.401 263.407V264.366Z"/><path fill="#7D97F4" d="M199.791 250.137L190.632 259.089C190.36 259.355 190.562 259.814 190.942 259.793C197.574 259.414 232.901 257.745 263.616 263.452V234.107L199.791 250.137Z"/><path fill="#91B3FA" d="M190.682 257.399C198.939 256.778 245.148 253.791 263.601 263.452V234.107C263.601 234.107 211.515 236.322 192.277 245.791C192.277 245.791 194.056 252.423 190.302 256.636C190.027 256.944 190.27 257.433 190.682 257.399Z"/><path fill="#BDD0FB" d="M192.65 248.06L191.053 249.607C190.866 249.787 191.002 250.104 191.263 250.091C196.818 249.791 231.9 248.569 263.614 263.452C263.614 263.452 237.798 245.378 192.65 248.06Z"/><path fill="#7D97F4" d="M263.603 231.762C263.603 231.762 243.907 217.342 221.283 227.775L191.643 245.49C191.441 245.611 191.562 245.924 191.793 245.874C198.982 244.318 234.614 238.253 263.603 263.089V231.762Z"/><path fill="#BDD0FB" d="M263.608 232.278C263.608 232.278 244.299 217.583 221.676 228.019L194.261 244.475C194.059 244.596 194.18 244.909 194.411 244.854C201.6 243.303 234.62 236.566 263.608 261.402V232.278Z"/><path fill="url(#paint17_linear_468_13258)" d="M255.448 250.006C255.861 250.006 256.257 249.731 256.356 249.276L259.451 235.177C259.618 234.43 259.309 233.663 258.679 233.225C251.225 228.061 242.727 226.789 236.198 226.78H236.047C236.072 226.78 236.096 226.78 236.121 226.78C242.659 226.78 251.197 228.04 258.679 233.225C259.309 233.663 259.618 234.43 259.451 235.177L256.357 249.276C256.257 249.731 255.862 250.006 255.448 250.006ZM205.605 240.099H205.604C205.617 240.099 205.631 240.099 205.645 240.095C210.283 239.307 214.634 238.969 218.687 238.969C214.634 238.969 210.283 239.307 205.645 240.095C205.631 240.099 205.618 240.099 205.605 240.099Z"/><path fill="#fff" d="M218.712 238.503C238.568 238.503 251.272 246.562 255.179 249.453C255.308 249.549 255.468 249.57 255.616 249.515C255.766 249.457 255.871 249.336 255.905 249.178L259 235.079C259.125 234.52 258.896 233.94 258.421 233.61C245.356 224.563 229.146 227.579 226.029 228.275C225.816 228.321 225.613 228.405 225.427 228.513L206.894 239.425C211.074 238.779 215.017 238.503 218.712 238.503ZM255.453 250.475C255.16 250.475 254.87 250.383 254.625 250.2C249.989 246.775 232.761 235.946 205.727 240.556C205.398 240.614 205.088 240.435 204.973 240.122C204.859 239.809 204.979 239.471 205.267 239.3L224.955 227.708C225.225 227.55 225.518 227.437 225.825 227.366C229.008 226.657 245.567 223.574 258.95 232.847C259.739 233.394 260.114 234.349 259.91 235.279L256.815 249.378C256.714 249.845 256.388 250.22 255.944 250.387C255.784 250.446 255.618 250.475 255.453 250.475Z"/><path fill="url(#paint18_linear_468_13258)" d="M194.114 250.874C199.831 250.545 205.516 250.599 211.208 250.862C216.894 251.133 222.569 251.658 228.201 252.489C233.833 253.31 239.425 254.445 244.911 255.972C247.658 256.722 250.362 257.623 253.04 258.587C255.712 259.576 258.332 260.702 260.902 261.924C261.035 261.991 261.093 262.149 261.031 262.287C260.964 262.42 260.806 262.479 260.672 262.416L260.668 262.412C258.098 261.227 255.488 260.134 252.823 259.188C250.152 258.257 247.457 257.39 244.718 256.676C239.251 255.217 233.681 254.153 228.073 253.394C222.465 252.63 216.816 252.172 211.161 251.963C205.511 251.763 199.827 251.775 194.213 252.159H194.194C193.839 252.184 193.532 251.913 193.508 251.558C193.483 251.204 193.752 250.895 194.107 250.874H194.114Z"/><path fill="url(#paint19_linear_468_13258)" d="M194.458 246.725C197.325 246.391 200.162 246.258 203.017 246.203C205.868 246.157 208.719 246.212 211.564 246.374C217.253 246.695 222.919 247.417 228.499 248.56C234.076 249.715 239.57 251.292 244.871 253.374L245.867 253.757L246.85 254.175L248.814 255.013C250.099 255.622 251.408 256.185 252.664 256.857C255.22 258.112 257.664 259.581 260.079 261.078C260.179 261.141 260.212 261.274 260.15 261.374C260.087 261.474 259.954 261.508 259.854 261.445L259.85 261.441C257.43 259.977 254.986 258.542 252.433 257.32C251.177 256.665 249.869 256.123 248.587 255.526L246.627 254.717L245.646 254.312L244.652 253.941C239.364 251.93 233.892 250.425 228.344 249.336C222.792 248.26 217.161 247.601 211.515 247.342C208.691 247.213 205.864 247.188 203.041 247.263C200.223 247.346 197.385 247.513 194.617 247.868H194.598C194.283 247.909 193.995 247.684 193.955 247.371C193.914 247.054 194.137 246.766 194.452 246.729L194.458 246.725Z"/><path fill="url(#paint20_linear_468_13258)" d="M193.696 255.433C199.287 255.2 204.857 255.196 210.435 255.321C216.009 255.454 221.579 255.75 227.136 256.213C232.692 256.697 238.227 257.394 243.731 258.295C249.223 259.267 254.67 260.501 260.013 262.116C260.126 262.153 260.188 262.27 260.155 262.387C260.121 262.499 260 262.562 259.888 262.529H259.884C254.549 260.981 249.111 259.817 243.629 258.912C238.135 258.078 232.612 257.452 227.07 257.031C221.527 256.639 215.973 256.405 210.417 256.338C204.864 256.28 199.295 256.351 193.766 256.647H193.754C193.419 256.664 193.133 256.405 193.115 256.072C193.097 255.738 193.354 255.45 193.689 255.433H193.696Z"/><path fill="#fff" d="M234.808 239.305L234.679 239.23C232.726 238.058 230.661 237.04 228.544 236.21L228.016 236.002L243.017 230.537C243.129 230.496 243.251 230.554 243.292 230.667C243.333 230.775 243.276 230.9 243.164 230.942L229.224 236.018C231.134 236.798 232.997 237.729 234.772 238.784C238.013 236.177 241.207 233.428 244.275 230.608C238.467 229.991 231.947 229.336 225.61 230.358L227.356 234.3C227.403 234.408 227.355 234.533 227.246 234.584C227.137 234.629 227.011 234.584 226.963 234.475L224.993 230.024L225.266 229.978C231.918 228.856 238.757 229.586 244.791 230.233L245.262 230.283L244.914 230.604C241.697 233.574 238.336 236.473 234.924 239.214L234.808 239.305Z"/><path fill="#fff" d="M227.252 234.32C227.158 234.32 227.072 234.261 227.045 234.165C227.013 234.053 227.079 233.932 227.193 233.899C230.515 232.956 233.958 232.301 237.288 231.671L242.228 230.733C242.346 230.712 242.457 230.787 242.479 230.904C242.501 231.02 242.425 231.133 242.308 231.154L237.368 232.092C234.047 232.722 230.614 233.377 227.311 234.311L227.252 234.32Z"/><path fill="#fff" d="M228.934 238.546L226.825 234.884C226.765 234.779 226.801 234.646 226.903 234.587C227.006 234.529 227.137 234.567 227.197 234.667L228.936 237.691C229.178 237.341 229.481 237.028 229.825 236.782C229.921 236.711 230.055 236.732 230.125 236.827C230.195 236.923 230.173 237.057 230.077 237.128C229.684 237.411 229.352 237.787 229.118 238.212L228.934 238.546Z"/><path fill="#fff" d="M245.774 232.296L241.01 239.313C242.525 238.904 244.03 238.412 245.495 237.848L245.774 232.296ZM240.014 240.017L245.614 231.767C245.676 231.675 245.796 231.646 245.892 231.696C245.929 231.671 245.976 231.658 246.021 231.662C246.139 231.667 246.231 231.767 246.225 231.888L245.91 238.149L245.78 238.199C244.081 238.858 242.326 239.421 240.564 239.876L240.014 240.017Z"/><path fill="#fff" d="M246.449 232.282C246.973 233.85 247.586 235.406 248.272 236.912L251.538 235.927C251.726 235.869 251.743 235.823 251.743 235.823C251.744 235.823 251.746 235.786 251.615 235.677C250.028 234.351 248.293 233.212 246.449 232.282ZM248.038 237.429L247.96 237.262C247.192 235.594 246.514 233.867 245.944 232.123L245.937 232.015C245.872 231.952 245.85 231.852 245.892 231.769C245.944 231.66 246.071 231.614 246.179 231.669C248.225 232.653 250.146 233.892 251.89 235.348C251.983 235.423 252.201 235.606 252.17 235.873C252.132 236.199 251.778 236.303 251.662 236.34L248.038 237.429Z"/><path fill="#fff" d="M247.281 239.884C247.212 239.884 247.119 239.859 247.034 239.746L245.754 238.086C245.682 237.99 245.7 237.857 245.794 237.781C245.888 237.711 246.023 237.727 246.095 237.823L247.219 239.283L247.889 237.177C247.925 237.06 248.046 237.001 248.159 237.035C248.272 237.072 248.334 237.193 248.298 237.306L247.548 239.667C247.516 239.771 247.458 239.838 247.375 239.867C247.357 239.875 247.324 239.884 247.281 239.884Z"/><path fill="#fff" d="M247.12 239.169C247.017 239.169 246.926 239.094 246.908 238.99L246.057 233.963C246.038 233.846 246.116 233.734 246.233 233.713C246.352 233.696 246.461 233.775 246.481 233.892L247.332 238.919C247.352 239.035 247.273 239.148 247.155 239.165L247.12 239.169Z"/><path fill="url(#paint21_linear_468_13258)" d="M263.394 264.37V251.514V263.448C281.651 260.057 301.536 259.269 316.056 259.269C325.963 259.269 333.375 259.636 336.066 259.79C336.074 259.79 336.082 259.79 336.091 259.79C336.454 259.79 336.641 259.344 336.374 259.085L334.518 257.267C334.802 257.287 335.069 257.304 335.315 257.325L338.243 258.847C338.844 259.16 339.223 259.782 339.223 260.462V261.292C339.223 262.285 338.427 263.098 337.43 263.115L263.611 264.366L263.502 264.37H263.394Z"/><path fill="#7D97F4" d="M327.22 250.137L336.376 259.089C336.651 259.355 336.447 259.814 336.067 259.793C329.435 259.414 294.108 257.745 263.395 263.452V234.107L327.22 250.137Z"/><path fill="#91B3FA" d="M336.313 257.399C328.054 256.778 281.845 253.791 263.395 263.452V234.107C263.395 234.107 315.478 236.322 334.715 245.791C334.715 245.791 332.938 252.423 336.693 256.636C336.968 256.944 336.722 257.433 336.313 257.399Z"/><path fill="#7D97F4" d="M334.357 248.06L335.954 249.607C336.142 249.787 336.004 250.104 335.746 250.091C330.19 249.791 295.105 248.569 263.395 263.452C263.395 263.452 289.207 245.378 334.357 248.06Z"/><path fill="#7D97F4" d="M263.395 231.762C263.395 231.762 283.088 217.342 305.713 227.775L335.354 245.49C335.554 245.611 335.433 245.924 335.203 245.874C328.012 244.318 292.381 238.253 263.395 263.089V231.762Z"/><path fill="#BDD0FB" d="M263.395 232.278C263.395 232.278 282.704 217.583 305.325 228.019L332.738 244.475C332.943 244.596 332.822 244.909 332.588 244.854C325.401 243.303 292.381 236.566 263.395 261.402V232.278Z"/><path fill="url(#paint22_linear_468_13258)" d="M321.597 239.885C321.597 239.814 321.563 239.748 321.492 239.706L301.804 228.114C301.574 227.976 301.328 227.88 301.066 227.822C299.852 227.551 296.002 226.792 290.942 226.783H290.792C284.264 226.792 275.763 228.064 268.309 233.228C267.795 233.587 267.495 234.167 267.495 234.776V234.784C267.491 234.171 267.791 233.587 268.309 233.228C275.792 228.043 284.33 226.783 290.871 226.783C295.964 226.783 299.843 227.551 301.066 227.822C301.328 227.88 301.574 227.976 301.804 228.114L321.492 239.706C321.563 239.748 321.597 239.814 321.597 239.885Z"/><path fill="#fff" d="M320.096 239.425L301.563 228.513C301.379 228.405 301.175 228.321 300.962 228.275C297.846 227.579 281.632 224.563 268.572 233.61C268.092 233.94 267.867 234.52 267.988 235.079L271.083 249.178C271.121 249.336 271.225 249.457 271.375 249.515C271.521 249.57 271.684 249.549 271.813 249.453C275.718 246.562 288.423 238.503 308.278 238.503C311.974 238.503 315.916 238.779 320.096 239.425ZM271.046 250.387C270.604 250.22 270.278 249.845 270.174 249.378L267.079 235.279C266.874 234.349 267.254 233.394 268.042 232.847C281.424 223.574 297.984 226.657 301.166 227.366C301.475 227.437 301.767 227.55 302.034 227.708L321.722 239.3C322.01 239.471 322.131 239.809 322.019 240.122C321.902 240.435 321.593 240.614 321.264 240.556C294.23 235.946 277.002 246.775 272.364 250.2C272.122 250.383 271.83 250.475 271.538 250.475C271.371 250.475 271.208 250.446 271.046 250.387Z"/><path fill="#BDD0FB" d="M332.786 252.157C327.171 251.774 321.49 251.761 315.838 251.961C310.181 252.17 304.534 252.629 298.927 253.392C293.317 254.151 287.748 255.215 282.28 256.675C279.543 257.388 276.849 258.256 274.175 259.186C271.51 260.133 268.898 261.226 266.333 262.41L266.329 262.415C266.191 262.477 266.033 262.419 265.97 262.281C265.908 262.148 265.962 261.989 266.099 261.922C268.669 260.7 271.289 259.574 273.958 258.585C276.636 257.622 279.343 256.721 282.088 255.97C287.573 254.443 293.167 253.309 298.798 252.487C304.429 251.657 310.106 251.131 315.792 250.86C321.481 250.597 327.167 250.543 332.886 250.873C333.24 250.889 333.511 251.194 333.491 251.553C333.47 251.907 333.165 252.178 332.811 252.157H332.806H332.786Z"/><path fill="url(#paint23_linear_468_13258)" d="M332.371 247.868C329.606 247.513 326.765 247.346 323.95 247.263C321.126 247.188 318.298 247.213 315.474 247.342C309.826 247.601 304.199 248.26 298.647 249.336C293.095 250.425 287.626 251.93 282.337 253.941L281.344 254.312L280.364 254.717L278.404 255.526C277.119 256.123 275.813 256.665 274.558 257.32C272.001 258.542 269.56 259.977 267.141 261.441L267.133 261.445C267.033 261.508 266.899 261.474 266.841 261.374C266.778 261.274 266.807 261.141 266.907 261.078C269.327 259.581 271.767 258.112 274.324 256.857C275.58 256.185 276.889 255.622 278.174 255.013L280.139 254.175L281.123 253.757L282.116 253.374C287.418 251.292 292.911 249.715 298.488 248.56C304.069 247.417 309.734 246.695 315.424 246.374C318.268 246.212 321.122 246.157 323.97 246.203C326.828 246.258 329.664 246.391 332.53 246.725C332.847 246.762 333.072 247.05 333.035 247.363C332.997 247.68 332.713 247.905 332.396 247.868H332.392H332.371Z"/><path fill="url(#paint24_linear_468_13258)" d="M333.206 256.642C327.679 256.346 322.111 256.275 316.559 256.333C310.999 256.4 305.447 256.633 299.903 257.026C294.364 257.447 288.837 258.073 283.343 258.907C277.862 259.812 272.423 260.976 267.088 262.523H267.083C266.971 262.557 266.85 262.49 266.816 262.377C266.783 262.265 266.85 262.148 266.962 262.11C272.302 260.496 277.749 259.261 283.243 258.289C288.745 257.388 294.28 256.692 299.836 256.208C305.392 255.745 310.965 255.449 316.538 255.315C322.115 255.19 327.688 255.194 333.277 255.428C333.611 255.44 333.874 255.724 333.857 256.058C333.845 256.396 333.561 256.654 333.227 256.642H333.223H333.206Z"/><path fill="#fff" d="M292.204 239.305L292.087 239.214C288.675 236.473 285.313 233.574 282.093 230.604L281.746 230.283L282.218 230.233C288.254 229.586 295.09 228.856 301.743 229.978L302.015 230.024L300.046 234.475C300 234.584 299.871 234.634 299.762 234.584C299.654 234.533 299.604 234.408 299.654 234.3L301.397 230.358C295.061 229.336 288.541 229.991 282.735 230.608C285.801 233.428 288.996 236.177 292.237 238.784C294.014 237.729 295.874 236.798 297.785 236.018L283.844 230.942C283.736 230.9 283.678 230.775 283.715 230.667C283.757 230.554 283.882 230.496 283.99 230.537L298.995 236.002L298.465 236.21C296.35 237.04 294.285 238.058 292.329 239.23L292.204 239.305Z"/><path fill="#fff" d="M299.747 234.32L299.688 234.311C296.38 233.377 292.948 232.722 289.627 232.092L284.688 231.154C284.572 231.133 284.497 231.02 284.517 230.904C284.538 230.787 284.651 230.708 284.768 230.733L289.711 231.671C293.039 232.301 296.481 232.956 299.805 233.899C299.918 233.932 299.984 234.053 299.951 234.165C299.926 234.261 299.838 234.32 299.747 234.32Z"/><path fill="#fff" d="M298.068 238.546L297.884 238.212C297.651 237.787 297.317 237.411 296.925 237.128C296.829 237.057 296.808 236.923 296.875 236.827C296.946 236.732 297.079 236.711 297.175 236.782C297.522 237.028 297.822 237.341 298.064 237.691L299.803 234.667C299.866 234.562 299.995 234.529 300.099 234.587C300.2 234.646 300.237 234.779 300.179 234.884L298.068 238.546Z"/><path fill="#fff" d="M281.512 237.848C282.98 238.412 284.482 238.904 285.996 239.313L281.232 232.296L281.512 237.848ZM286.993 240.017L286.442 239.876C284.682 239.421 282.926 238.858 281.228 238.199L281.099 238.149L280.782 231.888C280.778 231.767 280.869 231.667 280.986 231.662C281.032 231.654 281.078 231.671 281.116 231.696C281.212 231.646 281.332 231.675 281.395 231.767L286.993 240.017Z"/><path fill="#fff" d="M280.544 232.282C278.7 233.212 276.965 234.351 275.38 235.677C275.246 235.786 275.25 235.823 275.25 235.823C275.25 235.823 275.267 235.869 275.455 235.927L278.721 236.912C279.405 235.406 280.018 233.85 280.544 232.282ZM278.955 237.429L275.33 236.34C275.213 236.303 274.863 236.199 274.825 235.873C274.792 235.606 275.009 235.423 275.104 235.348C276.844 233.892 278.767 232.653 280.815 231.669C280.923 231.614 281.049 231.66 281.103 231.769C281.14 231.852 281.119 231.952 281.057 232.015L281.049 232.123C280.477 233.867 279.801 235.594 279.034 237.262L278.955 237.429Z"/><path fill="#fff" d="M279.72 239.884C279.674 239.884 279.641 239.875 279.624 239.867C279.499 239.821 279.462 239.704 279.449 239.667L278.702 237.306C278.665 237.193 278.727 237.072 278.84 237.035C278.953 237.001 279.074 237.064 279.111 237.177L279.779 239.283L280.905 237.823C280.976 237.727 281.109 237.711 281.205 237.781C281.301 237.857 281.318 237.99 281.243 238.086L279.966 239.746C279.879 239.859 279.787 239.884 279.72 239.884Z"/><path fill="#fff" d="M279.883 239.169L279.85 239.165C279.733 239.148 279.654 239.035 279.67 238.919L280.521 233.892C280.542 233.775 280.655 233.696 280.771 233.713C280.888 233.734 280.967 233.846 280.947 233.963L280.096 238.99C280.079 239.094 279.987 239.169 279.883 239.169Z"/><path fill="url(#paint25_linear_468_13258)" d="M449.696 259.883C449.654 259.887 449.612 259.887 449.571 259.887L395.515 259.829C394.176 259.829 393.096 258.74 393.096 257.405C393.096 256.07 394.185 254.965 395.519 254.99L449.579 255.048C450.914 255.048 451.994 256.133 451.994 257.468C451.994 258.765 450.976 259.82 449.696 259.883Z"/><path fill="#002955" d="M346.915 210.8H391.935C395.26 210.8 398.28 212.714 399.698 215.717L420.508 259.849H364.563C362.423 259.849 360.5 258.544 359.712 256.554L343.573 215.713C342.639 213.356 344.378 210.8 346.915 210.8Z"/><path fill="#BEDDFF" d="M378.632 233.423C379.608 236.456 378.886 239.401 377.022 240.001C375.157 240.598 372.855 238.629 371.879 235.596C370.903 232.568 371.624 229.623 373.489 229.023C375.353 228.422 377.656 230.395 378.632 233.423Z"/><path fill="#003D7D" d="M450.821 165.888C452.469 166.402 458.401 168.529 457.637 172.346C457.533 172.85 458.013 173.28 458.509 173.146C461.066 172.458 466.714 171.591 470.214 175.975C473.305 179.85 470.994 183.504 469.112 185.51C468.658 185.994 469.037 186.782 469.696 186.699C474.397 186.102 484.609 185.961 486.281 195.53C487.837 204.448 481.63 206.963 477.947 207.672C477.322 207.793 477.18 208.615 477.714 208.953C479.549 210.116 481.681 212.527 480.821 217.279C479.47 224.728 464.866 224.119 463.16 224.024C463.052 224.015 462.947 223.986 462.856 223.932L439.463 210.588C439.28 210.484 439.15 210.304 439.117 210.1L434.395 182.824C434.357 182.603 434.424 182.378 434.579 182.215L450.112 166.072C450.296 165.88 450.567 165.809 450.821 165.888Z"/><path fill="url(#paint26_linear_468_13258)" d="M443.362 254.754C443.362 254.754 430.677 242.678 424.433 234.677C421.059 230.352 419.999 224.658 421.559 219.402C424.408 209.796 429.476 199.852 429.939 198.304C430.644 195.931 444.868 196.031 444.868 196.031C444.868 196.031 472.853 214.192 483.849 244.96L471.502 248.806C471.502 248.806 464.194 236.546 456.973 228.75C456.973 228.75 469.466 245.256 469.908 252.009L443.362 254.754Z"/><path fill="url(#paint27_linear_468_13258)" d="M428.236 185.044C428.386 185.536 432.098 197.842 432.39 198.096C432.678 198.35 440.528 198.776 444.224 196.248L437.955 183.125L428.236 185.044Z"/><path fill="url(#paint28_linear_468_13258)" d="M434.321 159.193C434.321 159.193 427.622 162.021 423.062 171.707C418.507 181.388 421.911 185.86 426.182 186.473C430.458 187.091 436.848 186.995 443.61 180.742C450.372 174.485 443.034 155.839 434.321 159.193Z"/><path fill="#003D7D" d="M439.076 175.565C439.076 175.565 444.131 161.399 431.568 161.233L428.614 163.297C428.614 163.297 424.005 155.443 431.568 151.693C439.134 147.943 447.986 151.042 451.206 161.233C454.426 171.423 454.973 178.243 449.621 183.119C444.265 187.996 442.058 182.469 442.058 182.469C442.058 182.469 444.974 177.905 443.785 175.465C442.596 173.029 439.86 175.97 439.86 175.97L439.076 175.565Z"/><path fill="url(#paint29_linear_468_13258)" d="M439.365 177.426C439.365 177.426 441.922 170.126 445.33 173.033C448.742 175.941 442.56 179.774 440.137 181.017L439.365 177.426Z"/><path fill="url(#paint30_linear_468_13258)" d="M417.536 255.646L426.854 246.665L439.748 252.109C439.748 252.109 452.579 254.098 459.924 252.109C467.266 250.123 467.266 250.123 467.266 250.123L483.863 244.955L486.47 252.321C487.134 254.19 486.466 256.267 484.852 257.419C483.413 258.436 481.732 259.559 480.66 260.03C478.474 260.985 426.779 259.367 426.779 259.367L417.536 255.646Z"/><path fill="#002955" d="M564.662 256.656C564.622 256.66 564.586 256.66 564.546 256.66L513.273 256.61C512.01 256.605 510.984 255.579 510.984 254.316C510.984 253.052 512.019 252.005 513.282 252.025L564.551 252.08C565.818 252.08 566.845 253.106 566.841 254.37C566.841 255.596 565.872 256.597 564.662 256.656Z"/><path fill="#002955" d="M493.415 206.446L493.469 206.554L515.043 253.064C515.573 254.211 515.076 255.575 513.929 256.109C512.782 256.643 511.397 256.147 510.884 254.991L489.314 208.481C488.781 207.33 489.277 205.966 490.424 205.436C491.538 204.919 492.852 205.374 493.415 206.446Z"/><path fill="#0065CF" d="M571.021 359.888C579.186 359.888 582.797 359.187 584.411 358.549C584.1 359.888 582.907 360.947 581.394 360.947H552.511C551.538 360.947 550.925 360.017 551.158 359.174C554.45 359.437 561.444 359.888 571.021 359.888Z"/><path fill="#1684F8" d="M551.156 359.178C551.202 359.007 551.271 358.84 551.394 358.686C553.593 355.879 558.014 351.465 564.022 351.548C572.828 351.674 575.9 352.629 582.744 351.603L584.358 356.955C584.527 357.501 584.527 358.048 584.408 358.552C582.795 359.19 579.183 359.891 571.017 359.891C561.443 359.891 554.448 359.441 551.156 359.178Z"/><path fill="url(#paint31_linear_468_13258)" d="M580.741 345.835L582.721 352.576C582.721 352.576 578.333 354.574 574.47 352.968L573.712 347.128L580.741 345.835Z"/><path fill="#0065CF" d="M520.898 355.652C527.262 360.766 530.514 362.484 532.171 363.002C531.092 363.844 529.498 363.919 528.32 362.972L505.807 344.882C505.05 344.273 505.148 343.167 505.858 342.658C508.26 344.928 513.429 349.653 520.898 355.652Z"/><path fill="#1684F8" d="M505.868 342.651C506.009 342.551 506.167 342.463 506.359 342.418C509.822 341.617 516.021 340.962 520.654 344.795C527.442 350.406 529.24 353.071 535.213 356.562L533.134 361.726C532.925 362.252 532.587 362.677 532.182 362.994C530.525 362.477 527.272 360.758 520.906 355.644C513.438 349.646 508.272 344.92 505.868 342.651Z"/><path fill="#0065CF" d="M623.144 269.043C623.144 269.043 574.266 273.035 564.24 277.753C554.21 282.475 572.422 348.631 572.422 348.631C572.422 348.631 575.152 349.945 581.226 348.056C581.226 348.056 574.996 299.235 579.629 288.648L632.557 279.993L623.144 269.043Z"/><path fill="url(#paint32_linear_468_13258)" d="M540.063 347.272C539.608 347.684 535.205 356.565 535.205 356.565C535.205 356.565 530.304 355.505 529.306 352.402L533.713 344.389L540.063 347.272Z"/><path fill="#0065CF" d="M652.618 268.635C652.618 268.635 654.213 272.468 654.148 277.561C654.058 284.602 648.394 290.321 641.36 290.672L583.577 293.308C582.357 293.362 581.322 294.205 581.017 295.39C579.662 300.641 573.018 316.771 540.577 348.953C539.717 349.808 538.367 349.954 537.342 349.307L532.723 346.387C532.243 346.083 532.088 345.444 532.373 344.953L566.019 287.497C567.784 284.581 570.623 282.475 573.928 281.632L623.177 269.044L652.618 268.635Z"/><path fill="url(#paint33_linear_468_13258)" d="M585.577 180.168C585.577 180.168 601.855 189.824 608.167 195.126L595.124 202.405C595.124 202.405 588.072 194.263 581.36 190.871L585.577 180.168Z"/><path fill="url(#paint34_linear_468_13258)" d="M653.679 269.041C653.679 269.041 638.081 272.841 623.192 269.041C623.192 269.041 602.358 241.031 594.299 233.41C594.299 233.41 581.439 253.699 552.821 256.573L551.222 253.006C551.222 253.006 574.01 242.503 581.019 226.364C588.034 210.23 590.852 203.347 597.232 199.135C601.209 196.515 603.587 194.721 604.816 193.745C605.485 193.207 606.42 193.149 607.154 193.595C613.924 197.725 645.785 219.545 653.679 269.041Z"/><path fill="url(#paint35_linear_468_13258)" d="M602.831 218.346C602.831 218.346 600.058 225.575 595.121 232.012L602.831 218.346Z"/><path fill="url(#paint36_linear_468_13258)" d="M554.53 251.137L551.309 250.282L541.528 248.017C540.352 247.742 539.115 247.95 538.092 248.592L529.681 253.886L552.906 253.844L554.53 251.137Z"/><path fill="url(#paint37_linear_468_13258)" d="M563.546 178.285C563.546 178.285 568.538 189.11 572.611 193.164C576.683 197.219 578.638 200.614 583.916 196.43C589.189 192.246 590.44 185.877 588.186 179.816C588.186 179.816 584.767 170.418 581.367 168.816C577.966 167.21 563.546 178.285 563.546 178.285Z"/><path fill="#003D7D" d="M583.596 178.775L583.221 178.946C582.739 179.163 582.175 178.933 581.99 178.445C581.263 176.543 579.384 172.43 577.093 173.544C574.385 174.866 569.567 177.206 567.9 179.717C567.234 180.718 566.664 181.861 565.628 182.466C564.378 183.2 562.786 182.942 561.402 182.491C557.847 181.328 554.797 177.177 554.769 173.423C554.751 171.337 555.662 169.569 557.417 168.418C558.916 167.437 563.452 167.458 563.855 165.886C564.285 164.167 565.572 162.753 567.09 161.844C568.608 160.93 570.353 160.475 572.103 160.167C574.038 159.825 576.065 159.658 577.954 160.212C579.939 160.801 581.416 161.389 583.485 161.485C584.79 161.543 585.706 161.393 586.864 162.127C589.692 163.917 590.247 168.363 590.122 171.362C590.113 171.667 590.386 171.909 590.677 171.825C594.491 170.787 592.052 176.218 592.376 177.799C592.612 178.975 595.061 183.609 592.603 184.031C591.802 184.164 591.043 183.722 590.358 183.296C587.771 181.686 587.104 179.851 585.429 177.536C585.262 177.302 584.92 177.285 584.73 177.498L583.596 178.775Z"/><path fill="url(#paint38_linear_468_13258)" d="M584.236 179.635C584.236 179.635 580.228 173.637 583.772 172.602C587.317 171.564 588.534 179.018 587.055 181.07L584.236 179.635Z"/><path fill="#1684F8" d="M123.429 253.037L165.335 252.52C166.665 252.503 167.964 252.958 169.04 253.817L183.911 265.705C185.079 266.639 184.492 268.667 183.048 268.692L137.117 269.397C136.004 269.413 134.925 268.975 134.091 268.166L122.214 256.628C120.933 255.385 121.72 253.058 123.429 253.037Z"/><path fill="#E8F3FF" d="M124.513 252.983L163.911 252.495C165.161 252.482 166.382 252.908 167.393 253.717L181.374 264.892C182.472 265.768 181.92 267.678 180.563 267.699L137.383 268.362C136.336 268.379 135.321 267.966 134.537 267.203L123.371 256.357C122.167 255.189 122.907 253.004 124.513 252.983Z"/><path fill="#003D7D" d="M143.867 183.607C143.867 184.95 131.764 234.709 131.764 234.709L97.28 244.85C90.6301 246.806 83.4902 244.107 79.7969 238.242C70.6201 223.668 75.0037 204.413 89.5852 195.249L94.469 192.179C104.881 185.634 113.869 177.058 120.899 166.972L122.738 164.332L143.867 183.607Z"/><path fill="#BDD0FB" d="M85.1267 231.65L85.0712 231.637C80.8837 229.118 80.4816 223.449 80.5028 221.126C80.5454 216.562 81.7584 212.053 84.0104 208.082C88.0507 200.962 95.0184 196.136 101.756 191.472C102.221 191.147 102.685 190.826 103.147 190.504C109.98 185.753 117.527 179.98 120.588 171.65C120.609 171.596 120.67 171.567 120.726 171.588C120.782 171.609 120.81 171.671 120.79 171.725C117.707 180.114 110.13 185.908 103.269 190.684C102.807 191.005 102.344 191.326 101.878 191.647C95.1602 196.298 88.2134 201.112 84.1973 208.191C81.9628 212.124 80.7598 216.6 80.7176 221.126C80.6964 223.412 81.0893 228.993 85.1821 231.454C85.233 231.483 85.2493 231.55 85.2189 231.6L85.1267 231.65Z"/><path fill="#BDD0FB" d="M87.9223 224.251C87.8722 224.251 87.8276 224.214 87.8172 224.164C86.902 219.509 87.0401 215.346 88.2276 211.792C90.375 205.372 96.0554 200.713 100.764 197.372C101.706 196.704 102.678 196.033 103.618 195.386C107.944 192.412 112.416 189.334 115.652 185.15C115.689 185.104 115.756 185.096 115.803 185.133C115.85 185.167 115.858 185.237 115.822 185.283C112.566 189.492 108.079 192.579 103.74 195.566C102.801 196.212 101.829 196.879 100.888 197.547C96.2064 200.867 90.5594 205.497 88.4316 211.863C87.2553 215.379 87.1197 219.504 88.0278 224.122C88.0395 224.18 88.0015 224.239 87.9436 224.247L87.9223 224.251Z"/><path fill="url(#paint39_linear_468_13258)" d="M126.099 250.034C126.099 250.034 137.391 239.281 142.95 232.161C145.954 228.31 146.898 223.242 145.508 218.562C142.971 210.011 138.461 201.155 138.049 199.779C137.419 197.664 124.758 197.752 124.758 197.752C124.758 197.752 99.843 213.924 90.0538 241.312L101.048 244.737C101.048 244.737 107.553 233.821 113.981 226.884C113.981 226.884 102.858 241.575 102.467 247.59L126.099 250.034Z"/><path fill="url(#paint40_linear_468_13258)" d="M141.445 185.076C141.313 185.514 136.137 199.371 135.878 199.596C135.619 199.826 128.63 200.201 125.341 197.953L133.501 181.993L141.445 185.076Z"/><path fill="url(#paint41_linear_468_13258)" d="M140.104 162.159C140.104 162.159 146.089 165.095 149.756 174.197C153.423 183.295 150.077 187.211 146.133 187.549C142.19 187.887 136.345 187.47 130.483 181.397C124.62 175.319 132.306 158.638 140.104 162.159Z"/><path fill="#003D7D" d="M134.924 176.898C134.924 176.898 131.033 163.67 142.537 164.167L145.134 166.211C145.134 166.211 149.76 159.266 143.033 155.441C136.305 151.616 125.802 154.085 122.326 163.241C118.851 172.401 120.233 178.52 124.881 183.263C129.529 188.002 131.836 183.059 131.836 183.059C131.836 183.059 129.403 178.733 130.617 176.56C131.83 174.391 134.183 177.227 134.183 177.227L134.924 176.898Z"/><path fill="url(#paint42_linear_468_13258)" d="M134.864 179.213C134.864 179.213 129.508 173.515 127.548 177.598C125.588 181.686 132.875 182.692 135.621 182.85L134.864 179.213Z"/><path fill="#1684F8" d="M107.187 211.41L147.716 251.792L141.796 257.777L100.791 217.646C99.9204 216.791 99.789 215.439 100.475 214.43C101.18 213.395 102.446 212.123 104.714 211.001C105.54 210.592 106.534 210.759 107.187 211.41Z"/><path fill="url(#paint43_linear_468_13258)" d="M156.758 265.959L152.724 259.635C151.803 260.086 150.751 260.958 149.868 262.639L156.249 266.485C156.588 266.685 156.97 266.293 156.758 265.959Z"/><path fill="url(#paint44_linear_468_13258)" d="M147.704 251.788C143.077 253.619 141.784 257.774 141.784 257.774L149.848 262.633C150.731 260.952 151.783 260.081 152.705 259.63L147.704 251.788Z"/><path fill="#7D97F4" d="M105.277 213.06C105.249 213.001 105.259 212.931 105.308 212.88C105.37 212.818 105.47 212.818 105.532 212.88L144.203 251.569C144.265 251.627 144.265 251.728 144.203 251.79C144.141 251.853 144.041 251.853 143.979 251.79L105.308 213.106L105.277 213.06Z"/><path fill="#7D97F4" d="M102.854 215.203C102.826 215.145 102.836 215.07 102.885 215.024C102.947 214.961 103.047 214.961 103.109 215.024L141.78 253.708C141.842 253.771 141.842 253.871 141.78 253.933C141.719 253.996 141.618 253.996 141.556 253.933L102.885 215.245L102.854 215.203Z"/><path fill="url(#paint45_linear_468_13258)" d="M149.1 250.834L140.804 242.838L129.327 247.685C129.327 247.685 117.903 249.458 111.365 247.685C104.826 245.916 104.826 245.916 104.826 245.916L90.0506 241.315L87.7301 247.877C87.1407 249.541 87.733 251.389 89.1725 252.411C90.4506 253.32 91.9493 254.317 92.9041 254.734C94.85 255.585 140.87 254.146 140.87 254.146L149.1 250.834Z"/><path fill="#E7EEFE" d="M215.125 128.816C215.11 128.816 215.096 128.815 215.081 128.813C214.792 128.775 214.505 128.731 214.218 128.682C214.032 128.649 213.906 128.471 213.939 128.284C213.959 128.169 214.034 128.078 214.133 128.032C214.177 128.011 214.226 128 214.277 128C214.296 128 214.316 128.002 214.336 128.005C214.613 128.053 214.89 128.096 215.17 128.132C215.358 128.157 215.49 128.329 215.465 128.517C215.443 128.69 215.295 128.816 215.125 128.816Z"/><defs><linearGradient id="paint0_linear_468_13258" x1="412.943" x2="401.681" y1="318.954" y2="393.62" gradientUnits="userSpaceOnUse"><stop stop-color="#FF928E"/><stop offset="1" stop-color="#FEB3B1"/></linearGradient><linearGradient id="paint1_linear_468_13258" x1="448.9" x2="427.626" y1="271.072" y2="291.094" gradientUnits="userSpaceOnUse"><stop stop-color="#FF928E"/><stop offset="1" stop-color="#FEB3B1"/></linearGradient><linearGradient id="paint2_linear_468_13258" x1="402.755" x2="485.269" y1="283.186" y2="283.186" gradientUnits="userSpaceOnUse"><stop stop-color="#FE7062"/><stop offset="1" stop-color="#FF928E"/></linearGradient><linearGradient id="paint3_linear_468_13258" x1="143.007" x2="103.519" y1="318.68" y2="353.162" gradientUnits="userSpaceOnUse"><stop stop-color="#FF928E"/><stop offset="1" stop-color="#FEB3B1"/></linearGradient><linearGradient id="paint4_linear_468_13258" x1="164.244" x2="161.463" y1="253.402" y2="285.938" gradientUnits="userSpaceOnUse"><stop stop-color="#FF928E"/><stop offset="1" stop-color="#FEB3B1"/></linearGradient><linearGradient id="paint5_linear_468_13258" x1="262.218" x2="272.522" y1="347.975" y2="347.975" gradientUnits="userSpaceOnUse"><stop stop-color="#F9B776"/><stop offset="1" stop-color="#F47960"/></linearGradient><linearGradient id="paint6_linear_468_13258" x1="254.785" x2="264.455" y1="357.483" y2="357.483" gradientUnits="userSpaceOnUse"><stop stop-color="#F9B776"/><stop offset="1" stop-color="#F47960"/></linearGradient><linearGradient id="paint7_linear_468_13258" x1="292.027" x2="268.238" y1="271.487" y2="234.253" gradientUnits="userSpaceOnUse"><stop stop-color="#FDF53F"/><stop offset="1" stop-color="#D93C65"/></linearGradient><linearGradient id="paint8_linear_468_13258" x1="284.346" x2="318.079" y1="245.97" y2="245.97" gradientUnits="userSpaceOnUse"><stop stop-color="#F9B776"/><stop offset="1" stop-color="#F47960"/></linearGradient><linearGradient id="paint9_linear_468_13258" x1="301.073" x2="181.87" y1="205.407" y2="251.156" gradientUnits="userSpaceOnUse"><stop stop-color="#FE7062"/><stop offset="1" stop-color="#FF928E"/></linearGradient><linearGradient id="paint10_linear_468_13258" x1="280.28" x2="253.167" y1="178.231" y2="207.847" gradientUnits="userSpaceOnUse"><stop stop-color="#FF928E"/><stop offset="1" stop-color="#FEB3B1"/></linearGradient><linearGradient id="paint11_linear_468_13258" x1="295.984" x2="176.78" y1="192.116" y2="237.864" gradientUnits="userSpaceOnUse"><stop stop-color="#FE7062"/><stop offset="1" stop-color="#FF928E"/></linearGradient><linearGradient id="paint12_linear_468_13258" x1="205.924" x2="220.1" y1="154.358" y2="220.726" gradientUnits="userSpaceOnUse"><stop stop-color="#E1473D"/><stop offset="1" stop-color="#E9605A"/></linearGradient><linearGradient id="paint13_linear_468_13258" x1="236.898" x2="151.211" y1="246.381" y2="395.28" gradientUnits="userSpaceOnUse"><stop stop-color="#F9B776"/><stop offset="1" stop-color="#F47960"/></linearGradient><linearGradient id="paint14_linear_468_13258" x1="137.194" x2="148.297" y1="480.783" y2="456.492" gradientUnits="userSpaceOnUse"><stop stop-color="#FF928E"/><stop offset="1" stop-color="#FEB3B1"/></linearGradient><linearGradient id="paint15_linear_468_13258" x1="128.934" x2="140.037" y1="477.023" y2="452.732" gradientUnits="userSpaceOnUse"><stop stop-color="#FF928E"/><stop offset="1" stop-color="#FEB3B1"/></linearGradient><linearGradient id="paint16_linear_468_13258" x1="187.787" x2="263.617" y1="248.323" y2="248.323" gradientUnits="userSpaceOnUse"><stop stop-color="#4042E2"/><stop offset="1" stop-color="#4F52FF"/></linearGradient><linearGradient id="paint17_linear_468_13258" x1="219.05" x2="295.345" y1="232.27" y2="251.274" gradientUnits="userSpaceOnUse"><stop stop-color="#ECF1FE"/><stop offset="1" stop-color="#ECF1FE"/></linearGradient><linearGradient id="paint18_linear_468_13258" x1="193.506" x2="261.056" y1="256.543" y2="256.543" gradientUnits="userSpaceOnUse"><stop stop-color="#DAE3FE"/><stop offset="1" stop-color="#E9EFFD"/></linearGradient><linearGradient id="paint19_linear_468_13258" x1="193.95" x2="260.181" y1="253.833" y2="253.833" gradientUnits="userSpaceOnUse"><stop stop-color="#DAE3FE"/><stop offset="1" stop-color="#E9EFFD"/></linearGradient><linearGradient id="paint20_linear_468_13258" x1="193.114" x2="260.164" y1="258.887" y2="258.887" gradientUnits="userSpaceOnUse"><stop stop-color="#DAE3FE"/><stop offset="1" stop-color="#E9EFFD"/></linearGradient><linearGradient id="paint21_linear_468_13258" x1="339.223" x2="263.393" y1="248.323" y2="248.323" gradientUnits="userSpaceOnUse"><stop stop-color="#4042E2"/><stop offset="1" stop-color="#4F52FF"/></linearGradient><linearGradient id="paint22_linear_468_13258" x1="307.94" x2="231.645" y1="232.273" y2="251.277" gradientUnits="userSpaceOnUse"><stop stop-color="#ECF1FE"/><stop offset="1" stop-color="#ECF1FE"/></linearGradient><linearGradient id="paint23_linear_468_13258" x1="266.807" x2="333.038" y1="253.833" y2="253.833" gradientUnits="userSpaceOnUse"><stop stop-color="#DAE3FE"/><stop offset="1" stop-color="#E9EFFD"/></linearGradient><linearGradient id="paint24_linear_468_13258" x1="266.808" x2="333.858" y1="258.882" y2="258.882" gradientUnits="userSpaceOnUse"><stop stop-color="#DAE3FE"/><stop offset="1" stop-color="#E9EFFD"/></linearGradient><linearGradient id="paint25_linear_468_13258" x1="422.775" x2="419.716" y1="255.386" y2="283.056" gradientUnits="userSpaceOnUse"><stop stop-color="#09005D"/><stop offset="1" stop-color="#1A0F91"/></linearGradient><linearGradient id="paint26_linear_468_13258" x1="438.553" x2="477.69" y1="206.058" y2="291.239" gradientUnits="userSpaceOnUse"><stop stop-color="#FE7062"/><stop offset="1" stop-color="#FF928E"/></linearGradient><linearGradient id="paint27_linear_468_13258" x1="434.251" x2="440.508" y1="175.596" y2="223.149" gradientUnits="userSpaceOnUse"><stop stop-color="#FF928E"/><stop offset="1" stop-color="#FEB3B1"/></linearGradient><linearGradient id="paint28_linear_468_13258" x1="455.965" x2="436.36" y1="153.512" y2="171.865" gradientUnits="userSpaceOnUse"><stop stop-color="#FF928E"/><stop offset="1" stop-color="#FEB3B1"/></linearGradient><linearGradient id="paint29_linear_468_13258" x1="460.305" x2="440.7" y1="159.61" y2="177.964" gradientUnits="userSpaceOnUse"><stop stop-color="#FF928E"/><stop offset="1" stop-color="#FEB3B1"/></linearGradient><linearGradient id="paint30_linear_468_13258" x1="460.325" x2="454.485" y1="196.351" y2="238.064" gradientUnits="userSpaceOnUse"><stop stop-color="#FF928E"/><stop offset="1" stop-color="#FEB3B1"/></linearGradient><linearGradient id="paint31_linear_468_13258" x1="652.22" x2="642.367" y1="343.125" y2="343.125" gradientUnits="userSpaceOnUse"><stop stop-color="#FF928E"/><stop offset="1" stop-color="#FEB3B1"/></linearGradient><linearGradient id="paint32_linear_468_13258" x1="561.586" x2="550.498" y1="348.333" y2="348.333" gradientUnits="userSpaceOnUse"><stop stop-color="#FF928E"/><stop offset="1" stop-color="#FEB3B1"/></linearGradient><linearGradient id="paint33_linear_468_13258" x1="689.253" x2="697.43" y1="181.065" y2="147.731" gradientUnits="userSpaceOnUse"><stop stop-color="#FF928E"/><stop offset="1" stop-color="#FEB3B1"/></linearGradient><linearGradient id="paint34_linear_468_13258" x1="785.293" x2="694.224" y1="192.031" y2="290.818" gradientUnits="userSpaceOnUse"><stop stop-color="#FE7062"/><stop offset="1" stop-color="#FF928E"/></linearGradient><linearGradient id="paint35_linear_468_13258" x1="740.566" x2="649.869" y1="162.777" y2="235.141" gradientUnits="userSpaceOnUse"><stop stop-color="#E1473D"/><stop offset="1" stop-color="#E9605A"/></linearGradient><linearGradient id="paint36_linear_468_13258" x1="591.687" x2="565.548" y1="242.095" y2="242.095" gradientUnits="userSpaceOnUse"><stop stop-color="#FF928E"/><stop offset="1" stop-color="#FEB3B1"/></linearGradient><linearGradient id="paint37_linear_468_13258" x1="978.128" x2="948.724" y1="337.955" y2="321.62" gradientUnits="userSpaceOnUse"><stop stop-color="#FF928E"/><stop offset="1" stop-color="#FEB3B1"/></linearGradient><linearGradient id="paint38_linear_468_13258" x1="980.417" x2="951.074" y1="329.66" y2="313.359" gradientUnits="userSpaceOnUse"><stop stop-color="#FF928E"/><stop offset="1" stop-color="#FEB3B1"/></linearGradient><linearGradient id="paint39_linear_468_13258" x1="111.394" x2="88.869" y1="241.6" y2="273.58" gradientUnits="userSpaceOnUse"><stop stop-color="#FE7062"/><stop offset="1" stop-color="#FF928E"/></linearGradient><linearGradient id="paint40_linear_468_13258" x1="138.61" x2="126.374" y1="176.813" y2="211.295" gradientUnits="userSpaceOnUse"><stop stop-color="#FF928E"/><stop offset="1" stop-color="#FEB3B1"/></linearGradient><linearGradient id="paint41_linear_468_13258" x1="231.517" x2="222.56" y1="-30.996" y2="-10.614" gradientUnits="userSpaceOnUse"><stop stop-color="#FF928E"/><stop offset="1" stop-color="#FEB3B1"/></linearGradient><linearGradient id="paint42_linear_468_13258" x1="128.174" x2="129.517" y1="127.194" y2="149.415" gradientUnits="userSpaceOnUse"><stop stop-color="#FF928E"/><stop offset="1" stop-color="#FEB3B1"/></linearGradient><linearGradient id="paint43_linear_468_13258" x1="143.456" x2="155.973" y1="258.271" y2="263.708" gradientUnits="userSpaceOnUse"><stop stop-color="#2B3582"/><stop offset="1" stop-color="#150E42"/></linearGradient><linearGradient id="paint44_linear_468_13258" x1="163.367" x2="156.414" y1="221.918" y2="237.768" gradientUnits="userSpaceOnUse"><stop stop-color="#FF928E"/><stop offset="1" stop-color="#FEB3B1"/></linearGradient><linearGradient id="paint45_linear_468_13258" x1="80.275" x2="174.835" y1="239.497" y2="263.52" gradientUnits="userSpaceOnUse"><stop stop-color="#FF928E"/><stop offset="1" stop-color="#FEB3B1"/></linearGradient></defs></svg>