<svg xmlns="http://www.w3.org/2000/svg" width="100" height="100" fill="none" viewBox="0 0 32 32"><path stroke="#000" stroke-linecap="round" stroke-linejoin="round" stroke-width="3" d="M9.25 13.5C11.5972 13.5 13.5 11.5972 13.5 9.25C13.5 6.90279 11.5972 5 9.25 5C6.90279 5 5 6.90279 5 9.25C5 11.5972 6.90279 13.5 9.25 13.5Z"/><path stroke="#000" stroke-linecap="round" stroke-linejoin="round" stroke-width="3" d="M22.75 13.5C25.0972 13.5 27 11.5972 27 9.25C27 6.90279 25.0972 5 22.75 5C20.4028 5 18.5 6.90279 18.5 9.25C18.5 11.5972 20.4028 13.5 22.75 13.5Z"/><path stroke="#000" stroke-linecap="round" stroke-linejoin="round" stroke-width="3" d="M9.25 27C11.5972 27 13.5 25.0972 13.5 22.75C13.5 20.4028 11.5972 18.5 9.25 18.5C6.90279 18.5 5 20.4028 5 22.75C5 25.0972 6.90279 27 9.25 27Z"/><path stroke="#000" stroke-linecap="round" stroke-linejoin="round" stroke-width="3" d="M22.75 27C25.0972 27 27 25.0972 27 22.75C27 20.4028 25.0972 18.5 22.75 18.5C20.4028 18.5 18.5 20.4028 18.5 22.75C18.5 25.0972 20.4028 27 22.75 27Z"/></svg>