<svg xmlns="http://www.w3.org/2000/svg" width="100" height="100" fill="none" viewBox="0 0 33 32"><path fill="#041A39" d="M11.375 0.953125C9.22012 0.953125 7.15349 1.83384 5.62976 3.40153C4.10602 4.96922 3.25 7.09546 3.25 9.3125C3.25 11.5295 4.10602 13.6558 5.62976 15.2235C7.15349 16.7912 9.22012 17.6719 11.375 17.6719C13.5299 17.6719 15.5965 16.7912 17.1202 15.2235C18.644 13.6558 19.5 11.5295 19.5 9.3125C19.5 7.09546 18.644 4.96922 17.1202 3.40153C15.5965 1.83384 13.5299 0.953125 11.375 0.953125ZM6.5 9.3125C6.5 7.98227 7.01361 6.70653 7.92785 5.76592C8.84209 4.82531 10.0821 4.29688 11.375 4.29688C12.6679 4.29688 13.9079 4.82531 14.8221 5.76592C15.7364 6.70653 16.25 7.98227 16.25 9.3125C16.25 10.6427 15.7364 11.9185 14.8221 12.8591C13.9079 13.7997 12.6679 14.3281 11.375 14.3281C10.0821 14.3281 8.84209 13.7997 7.92785 12.8591C7.01361 11.9185 6.5 10.6427 6.5 9.3125Z"/><path fill="#041A39" d="M24.2246 9.67697C23.7676 9.4374 23.262 9.3125 22.7491 9.3125V5.96875C23.7753 5.96882 24.7869 6.21889 25.7012 6.69848C26.6154 7.17807 27.4063 7.87357 28.0091 8.72805C28.6119 9.58253 29.0095 10.5717 29.1693 11.6147C29.3291 12.6576 29.2467 13.7247 28.9287 14.7285C28.6107 15.7324 28.0662 16.6445 27.3397 17.3903C26.6133 18.136 25.7255 18.6942 24.7491 19.0191C23.7727 19.3441 22.7354 19.4266 21.722 19.2598C20.7087 19.0931 19.7481 18.6818 18.9189 18.0598L20.8332 15.358C21.1956 15.6294 21.6087 15.8207 22.0464 15.9199C22.4841 16.0191 22.9371 16.0241 23.3768 15.9346C23.8165 15.845 24.2334 15.6628 24.6014 15.3995C24.9694 15.1362 25.2804 14.7974 25.515 14.4044C25.7496 14.0115 25.9026 13.5728 25.9645 13.1161C26.0264 12.6593 25.9958 12.1944 25.8746 11.7504C25.7534 11.3064 25.5443 10.893 25.2603 10.5362C24.9763 10.1794 24.6237 9.88682 24.2246 9.67697Z"/><path fill="#041A39" d="M29.2467 31.0469C29.2463 29.2743 28.5617 27.5744 27.3434 26.321C26.1251 25.0675 24.4729 24.3632 22.75 24.3627V21.0156C25.3357 21.0161 27.8154 22.0731 29.6438 23.9542C31.4722 25.8353 32.4996 28.3866 32.5 31.0469H29.2467Z"/><path fill="#041A39" d="M22.75 31.0469H19.5C19.5 28.8298 18.644 26.7036 17.1202 25.1359C15.5965 23.5682 13.5299 22.6875 11.375 22.6875C9.22012 22.6875 7.15349 23.5682 5.62976 25.1359C4.10602 26.7036 3.25 28.8298 3.25 31.0469H0C0 27.943 1.19843 24.9663 3.33166 22.7715C5.46489 20.5768 8.35816 19.3438 11.375 19.3438C14.3918 19.3438 17.2851 20.5768 19.4183 22.7715C21.5516 24.9663 22.75 27.943 22.75 31.0469Z"/></svg>