<svg xmlns="http://www.w3.org/2000/svg" width="580" height="482" fill="none" viewBox="0 0 580 482"><path fill="#1684F8" d="M175.828 91.4191C221.044 90.5299 264.615 71.6048 301.205 45.5512C464.803 -90.6001 700.382 106.995 506.744 276.165C411.674 364.122 321.746 308.28 216.168 303.39C2.61184 302.397 8.68806 155.56 37.8686 115.487C67.5383 76.2286 132.257 93.3161 175.828 91.4191Z"/><path fill="#fff" d="M175.828 91.4191C221.044 90.5299 264.615 71.6048 301.205 45.5512C464.803 -90.6001 700.382 106.995 506.744 276.165C411.674 364.122 321.746 308.28 216.168 303.39C2.61184 302.397 8.68806 155.56 37.8686 115.487C67.5383 76.2286 132.257 93.3161 175.828 91.4191Z" opacity=".9"/><path fill="#F5F5F5" d="M288 481.644C446.697 481.644 575.345 474.133 575.345 464.868C575.345 455.603 446.697 448.092 288 448.092C129.304 448.092 0.655273 455.603 0.655273 464.868C0.655273 474.133 129.304 481.644 288 481.644Z"/><path fill="#1684F8" d="M17.9478 380.902H380.875L406.958 155.119H44.0458L17.9478 380.902Z"/><path fill="#fff" d="M17.9478 380.902H380.875L406.958 155.119H44.0458L17.9478 380.902Z" opacity=".4"/><path fill="#1684F8" d="M452.159 389.364H89.2316L44.0454 155.119H406.958L452.159 389.364Z"/><path fill="#fff" d="M452.159 389.364H89.2316L44.0454 155.119H406.958L452.159 389.364Z" opacity=".6"/><path fill="#fff" d="M438.258 376.797H98.2727L61.771 187.531H401.757L438.258 376.797Z"/><g opacity=".5"><path fill="#1684F8" d="M124.74 233.427H89.1869L82.3252 197.859H117.878L124.74 233.427Z" opacity=".5"/><path fill="#1684F8" d="M392.047 233.427H356.479L349.632 197.859H385.185L392.047 233.427Z" opacity=".5"/><path fill="#1684F8" d="M347.486 233.427H311.933L305.071 197.859H340.639L347.486 233.427Z" opacity=".5"/><path fill="#1684F8" d="M302.935 233.427H267.382L260.521 197.859H296.089L302.935 233.427Z" opacity=".5"/><path fill="#1684F8" d="M258.387 233.427H222.834L215.972 197.859H251.525L258.387 233.427Z" opacity=".5"/><path fill="#1684F8" d="M213.837 233.427H178.284L171.422 197.859H206.975L213.837 233.427Z" opacity=".5"/><path fill="#1684F8" d="M169.291 233.427H133.738L126.876 197.859H162.429L169.291 233.427Z" opacity=".5"/><path fill="#1684F8" d="M133.291 277.77H97.7376L90.876 242.217H126.429L133.291 277.77Z" opacity=".5"/><path fill="#1684F8" d="M400.6 277.77H365.047L358.185 242.217H393.738L400.6 277.77Z" opacity=".5"/><path fill="#1684F8" d="M356.052 277.77H320.499L313.637 242.217H349.19L356.052 277.77Z" opacity=".5"/><path fill="#1684F8" d="M311.501 277.77H275.933L269.086 242.217H304.64L311.501 277.77Z" opacity=".5"/><path fill="#1684F8" d="M266.936 277.77H231.383L224.521 242.217H260.089L266.936 277.77Z" opacity=".5"/><path fill="#1684F8" d="M222.39 277.77H186.837L179.975 242.217H215.528L222.39 277.77Z" opacity=".5"/><path fill="#1684F8" d="M177.839 277.77H142.286L135.424 242.217H170.977L177.839 277.77Z" opacity=".5"/><path fill="#1684F8" d="M141.842 322.108H106.288L99.4268 286.555H134.98L141.842 322.108Z" opacity=".5"/><path fill="#1684F8" d="M409.151 322.108H373.598L366.736 286.555H402.289L409.151 322.108Z" opacity=".5"/><path fill="#1684F8" d="M364.6 322.108H329.047L322.186 286.555H357.739L364.6 322.108Z" opacity=".5"/><path fill="#1684F8" d="M320.052 322.108H284.499L277.637 286.555H313.19L320.052 322.108Z" opacity=".5"/><path fill="#1684F8" d="M275.504 322.108H239.936L233.089 286.555H268.642L275.504 322.108Z" opacity=".5"/><path fill="#1684F8" d="M230.941 322.108H195.388L188.526 286.555H224.094L230.941 322.108Z" opacity=".5"/><path fill="#1684F8" d="M186.39 322.108H150.837L143.975 286.555H179.528L186.39 322.108Z" opacity=".5"/><path fill="#1684F8" d="M150.395 366.464H114.842L107.98 330.896H143.548L150.395 366.464Z" opacity=".5"/><path fill="#1684F8" d="M417.702 366.464H382.149L375.287 330.896H410.84L417.702 366.464Z" opacity=".5"/><path fill="#1684F8" d="M373.151 366.464H337.598L330.736 330.896H366.289L373.151 366.464Z" opacity=".5"/><path fill="#1684F8" d="M328.605 366.464H293.052L286.19 330.896H321.744L328.605 366.464Z" opacity=".5"/><path fill="#1684F8" d="M284.054 366.464H248.501L241.64 330.896H277.193L284.054 366.464Z" opacity=".5"/><path fill="#1684F8" d="M239.507 366.464H203.939L197.092 330.896H232.645L239.507 366.464Z" opacity=".5"/><path fill="#1684F8" d="M194.958 366.464H159.39L152.543 330.896H188.097L194.958 366.464Z" opacity=".5"/></g><path fill="#263238" d="M88.8023 171.198L88.3429 168.842C92.537 168.842 94.8786 162.558 93.441 155.119C92.0035 147.679 87.2463 141.381 83.067 141.381C78.8878 141.381 76.5314 147.679 77.9541 155.119H75.6126C73.8638 146.093 76.9464 139.039 82.6076 139.039C88.2688 139.039 94.0783 146.093 95.8122 155.119C97.5461 164.144 94.4636 171.198 88.8023 171.198Z"/><path fill="#263238" d="M123.895 171.198L123.436 168.842C127.63 168.842 129.971 162.558 128.534 155.119C127.096 147.679 122.339 141.381 118.16 141.381C113.981 141.381 111.624 147.679 113.047 155.119H110.705C108.957 146.093 112.039 139.039 117.7 139.039C123.362 139.039 129.171 146.093 130.905 155.119C132.639 164.144 129.556 171.198 123.895 171.198Z"/><path fill="#263238" d="M159.065 171.198L158.606 168.842C162.8 168.842 165.142 162.558 163.704 155.119C162.266 147.679 157.509 141.381 153.33 141.381C149.151 141.381 146.78 147.679 148.217 155.119H145.727C143.979 146.093 147.061 139.039 152.722 139.039C158.384 139.039 164.193 146.093 165.927 155.119C167.661 164.144 164.652 171.198 159.065 171.198Z"/><path fill="#263238" d="M194.07 171.198L193.625 168.842C197.819 168.842 200.161 162.558 198.723 155.119C197.286 147.679 192.528 141.381 188.349 141.381C184.17 141.381 181.814 147.679 183.251 155.119H180.895C179.161 146.093 182.243 139.039 187.905 139.039C193.566 139.039 199.36 146.093 201.109 155.119C202.858 164.144 199.746 171.198 194.07 171.198Z"/><path fill="#263238" d="M229.163 171.198L228.718 168.842C232.912 168.842 235.254 162.558 233.816 155.119C232.379 147.679 227.622 141.381 223.442 141.381C219.263 141.381 216.907 147.679 218.344 155.119H215.988C214.254 146.093 217.337 139.039 222.998 139.039C228.659 139.039 234.454 146.093 236.202 155.119C237.951 164.144 234.839 171.198 229.163 171.198Z"/><path fill="#263238" d="M264.287 171.198L263.842 168.842C268.036 168.842 270.378 162.558 268.94 155.119C267.503 147.679 262.746 141.381 258.566 141.381C254.387 141.381 252.031 147.679 253.468 155.119H251.112C249.378 146.093 252.446 139.039 258.122 139.039C263.798 139.039 269.578 146.093 271.326 155.119C273.075 164.144 269.933 171.198 264.287 171.198Z"/><path fill="#263238" d="M299.35 171.198L298.906 168.842C303.1 168.842 305.441 162.558 304.004 155.119C302.566 147.679 297.809 141.381 293.63 141.381C289.451 141.381 287.094 147.679 288.532 155.119H286.175C284.441 146.093 287.509 139.039 293.185 139.039C298.861 139.039 304.641 146.093 306.39 155.119C308.139 164.144 305.026 171.198 299.35 171.198Z"/><path fill="#263238" d="M334.444 171.198L333.999 168.842C338.193 168.842 340.535 162.558 339.097 155.119C337.659 147.679 332.902 141.381 328.723 141.381C324.544 141.381 322.187 147.679 323.625 155.119H321.269C319.535 146.093 322.602 139.039 328.278 139.039C333.954 139.039 339.734 146.093 341.483 155.119C343.232 164.144 340.105 171.198 334.444 171.198Z"/><path fill="#263238" d="M369.507 171.198L369.062 168.842C373.257 168.842 375.598 162.558 374.161 155.119C372.723 147.679 367.966 141.381 363.787 141.381C359.607 141.381 357.251 147.679 358.688 155.119H356.332C354.598 146.093 357.666 139.039 363.342 139.039C369.018 139.039 374.798 146.093 376.532 155.119C378.266 164.144 375.198 171.198 369.507 171.198Z"/><path fill="#1684F8" d="M217.885 228.418H93.2191L86.3574 192.865H211.023L217.885 228.418Z"/><path fill="#1684F8" d="M271.014 272.775H235.446L228.6 237.207H264.153L271.014 272.775Z"/><path fill="#1684F8" d="M382.253 318.301L380.326 316.627C376.372 313.164 371.971 310.248 367.24 307.957L368.47 304.326C372.877 306.458 377.024 309.088 380.83 312.166C387.394 302.432 395.989 294.236 406.024 288.143L408.677 291.759C398.462 297.965 389.811 306.439 383.394 316.523L382.253 318.301Z"/><path fill="#fff" d="M257.973 243.092H254.757L249.378 252.829L240.263 243.092H237.047L248.192 254.992L241.627 266.878H244.858L250.222 257.156L259.337 266.878H262.567L251.408 254.992L257.973 243.092Z"/><path fill="#1684F8" d="M323.877 328.261L329.805 359.101H298.979L293.051 328.261H323.892H323.877ZM325.803 325.904H290.235L297.097 361.472H332.665L325.818 325.904H325.803Z"/><path fill="#263238" d="M234.986 317.118H154.884L148.022 281.564H228.125L234.986 317.118Z"/><path fill="#fff" d="M179.81 295.744C180.023 296.57 180.04 297.434 179.86 298.268C179.68 299.102 179.307 299.882 178.771 300.546C178.235 301.21 177.552 301.739 176.775 302.092C175.998 302.444 175.149 302.61 174.297 302.576C172.372 302.504 170.527 301.794 169.051 300.557C167.575 299.319 166.553 297.626 166.146 295.744C165.936 294.918 165.921 294.055 166.103 293.222C166.284 292.39 166.658 291.611 167.193 290.948C167.728 290.285 168.41 289.756 169.185 289.402C169.96 289.049 170.807 288.881 171.659 288.912C173.583 288.986 175.427 289.697 176.903 290.934C178.378 292.171 179.401 293.863 179.81 295.744Z"/><path fill="#fff" d="M181.459 302.207C180.705 303.255 179.706 304.101 178.548 304.672C177.39 305.243 176.11 305.522 174.82 305.482C171.878 305.411 169.068 304.249 166.936 302.222C165.616 302.935 164.556 304.047 163.906 305.4C163.257 306.752 163.052 308.275 163.32 309.75H187.98C187.534 308.082 186.715 306.536 185.586 305.23C184.456 303.923 183.046 302.89 181.459 302.207Z"/><path fill="#fff" d="M221.632 297.123H194.363L193.607 293.195H220.876L221.632 297.123Z"/><path fill="#fff" d="M214.12 305.468H195.98L195.224 301.541H213.364L214.12 305.468Z"/><path fill="#263238" d="M357.295 196.185C364.32 196.185 374.264 197.207 381.778 202.113C383.143 202.918 384.333 203.988 385.277 205.261C386.222 206.534 386.901 207.983 387.276 209.523C388.595 215.347 385.498 221.705 382.074 225.158C376.665 230.611 368.247 234.05 358.362 234.731C357.236 234.82 356.08 234.865 354.939 234.865C347.978 234.804 341.091 233.436 334.635 230.834C328.278 228.3 321.535 224.906 319.638 218.296C319.142 216.773 318.991 215.159 319.193 213.571C319.395 211.982 319.947 210.458 320.808 209.108C321.928 207.394 323.41 205.947 325.151 204.869C333.362 199.791 342.719 196.86 352.36 196.348C354.005 196.244 355.665 196.185 357.295 196.185ZM356.851 193.902C355.087 193.902 353.383 193.902 351.782 194.08C341.806 194.605 332.123 197.632 323.624 202.883C321.67 204.099 320.006 205.728 318.748 207.655C317.743 209.257 317.102 211.06 316.869 212.937C316.636 214.814 316.817 216.719 317.4 218.518C319.623 226.195 327.225 230.182 334.132 232.923C340.882 235.652 348.088 237.08 355.369 237.132C356.569 237.132 357.755 237.132 358.94 237.014C368.336 236.332 377.702 233.131 383.867 226.906C390.033 220.682 393.96 207.477 382.771 200.23C375.227 195.355 365.357 193.902 356.836 193.902H356.851Z"/><path fill="#B55B52" d="M491.062 454.372L501.673 451.556L496.501 426.6L485.89 429.43L491.062 454.372Z"/><path fill="#263238" d="M502.017 449.603L490.294 453.457C490.094 453.512 489.924 453.644 489.821 453.825C489.718 454.006 489.691 454.219 489.746 454.42L492.236 463.89C492.392 464.378 492.736 464.785 493.191 465.021C493.646 465.257 494.177 465.303 494.666 465.15C498.727 463.668 500.594 462.852 505.751 461.163C508.923 460.111 516.6 457.754 520.972 456.317C525.343 454.879 523.817 450.596 521.831 450.804C512.939 451.782 507.737 450.996 504.047 449.663C503.397 449.411 502.68 449.39 502.017 449.603Z"/><path fill="#000" d="M485.89 429.43L496.501 426.6L499.169 439.463L488.543 442.294L485.89 429.43Z" opacity=".2"/><path fill="#263238" d="M458.684 175.107C458.684 175.107 473.504 264.546 477.95 295.742C482.766 329.902 500.802 432.664 500.802 432.664L483.018 439.392C483.018 439.392 454.638 338.365 446.798 305.153C438.277 269.096 419.515 175.107 419.515 175.107H458.684Z"/><path fill="#000" d="M434.866 211.785C442.454 230.74 443.313 262.959 440.231 276.163C435.577 254.482 430.242 228.547 426.137 208.377C427.604 203.204 430.272 200.255 434.866 211.785Z" opacity=".3"/><path fill="#263238" d="M482.218 441.912L502.862 435.717L502.269 427.27L477.698 434.457L482.218 441.912Z"/><path fill="#1684F8" d="M506.312 450.212C505.346 450.496 504.352 450.674 503.348 450.746C503.299 450.75 503.25 450.741 503.206 450.72C503.162 450.699 503.124 450.667 503.096 450.627C503.071 450.585 503.058 450.536 503.058 450.487C503.058 450.437 503.071 450.389 503.096 450.346C503.348 450.005 505.645 447.011 507.082 447.085C507.245 447.097 507.402 447.15 507.539 447.238C507.676 447.326 507.789 447.446 507.868 447.589C508.028 447.798 508.125 448.049 508.149 448.311C508.173 448.573 508.121 448.837 508.001 449.071C507.591 449.639 506.992 450.044 506.312 450.212ZM503.955 450.212C505.956 449.96 507.305 449.457 507.631 448.819C507.696 448.668 507.721 448.502 507.703 448.339C507.684 448.175 507.624 448.019 507.527 447.886C507.489 447.814 507.434 447.754 507.367 447.71C507.3 447.666 507.222 447.639 507.142 447.634C506.371 447.56 504.919 449.012 503.955 450.183V450.212Z"/><path fill="#1684F8" d="M503.468 450.727C503.43 450.742 503.387 450.742 503.349 450.727C503.307 450.721 503.267 450.704 503.234 450.678C503.2 450.652 503.173 450.618 503.156 450.579C503.156 450.446 501.882 447.526 502.593 446.133C502.687 445.959 502.818 445.808 502.977 445.69C503.136 445.572 503.318 445.491 503.512 445.451C503.724 445.389 503.951 445.401 504.155 445.485C504.36 445.568 504.53 445.718 504.638 445.911C505.261 446.963 504.416 449.66 503.586 450.609C503.542 450.697 503.512 450.727 503.468 450.727ZM503.468 446.029C503.277 446.098 503.118 446.235 503.023 446.415C502.774 447.608 502.914 448.849 503.423 449.956C504.146 448.849 504.411 447.506 504.164 446.207C504.09 446.074 503.957 445.925 503.586 446L503.468 446.029Z"/><path fill="#263238" d="M456.428 83.0296C456.858 83.7261 457.45 84.7042 457.999 85.549L459.688 88.2166C460.859 89.9802 462.015 91.7438 463.245 93.4777C465.661 96.9308 468.21 100.28 470.848 103.466C473.421 106.582 476.204 109.518 479.177 112.255C481.864 114.766 484.85 116.936 488.069 118.716L485.727 118.049C488.022 118.521 490.373 118.655 492.707 118.449C493.982 118.331 495.286 118.168 496.62 117.931C497.954 117.694 499.302 117.368 500.666 116.997C503.472 116.233 506.228 115.297 508.92 114.196C510.299 113.633 511.677 113.055 513.055 112.432C514.433 111.81 515.841 111.113 517.042 110.55L517.442 110.358C518.592 109.807 519.913 109.736 521.116 110.158C522.319 110.58 523.305 111.462 523.859 112.61C524.274 113.495 524.412 114.485 524.257 115.45C524.101 116.415 523.657 117.31 522.985 118.02C521.636 119.413 520.45 120.524 519.117 121.695C517.783 122.866 516.449 123.903 515.041 124.941C512.175 127.034 509.141 128.888 505.971 130.483C502.626 132.164 499.101 133.462 495.464 134.351C493.511 134.8 491.53 135.122 489.536 135.315C487.44 135.492 485.333 135.492 483.237 135.315C482.642 135.256 482.058 135.111 481.503 134.885L480.911 134.633C476.013 132.513 471.438 129.714 467.321 126.319C463.416 123.17 459.783 119.7 456.458 115.945C453.21 112.348 450.171 108.568 447.358 104.622C445.965 102.646 444.621 100.67 443.327 98.6943C442.69 97.6718 442.052 96.664 441.43 95.6118C440.808 94.5596 440.244 93.5814 439.563 92.3069C438.301 90.0882 437.972 87.459 438.649 84.998C439.326 82.5369 440.953 80.4455 443.171 79.1838C445.39 77.9221 448.019 77.5935 450.48 78.2703C452.941 78.947 455.033 80.5737 456.294 82.7925L456.428 83.0296Z"/><path fill="#000" d="M465.558 110.136C459.778 98.2795 449.923 98.9612 445.951 102.622L447.078 104.267C449.768 108.08 452.667 111.741 455.762 115.234C458.931 118.824 462.359 122.177 466.017 125.267C467.173 126.215 468.374 127.149 469.589 128.038C469.424 121.865 468.054 115.784 465.558 110.136Z" opacity=".3"/><path fill="#B55B52" d="M520.334 108.83L527.744 102.65L532.19 112.239C532.19 112.239 521.149 120.138 518.615 117.352L518.318 113.78C518.235 112.854 518.374 111.922 518.725 111.06C519.076 110.199 519.627 109.435 520.334 108.83Z"/><path fill="#B55B52" d="M537.628 103.823L539.955 111.233L532.13 112.196L527.713 102.607L537.628 103.823Z"/><path fill="#B55B52" d="M398.231 454.02H409.213L410.635 428.574H399.654L398.231 454.02Z"/><path fill="#263238" d="M409.792 452.745H397.447C397.344 452.741 397.241 452.757 397.144 452.793C397.047 452.829 396.959 452.883 396.883 452.954C396.807 453.024 396.746 453.108 396.703 453.202C396.66 453.296 396.636 453.397 396.632 453.501L396.024 463.267C396.024 463.781 396.226 464.274 396.587 464.64C396.947 465.006 397.437 465.215 397.951 465.223C402.249 465.149 404.309 464.897 409.733 464.897C413.067 464.897 422.271 465.238 426.88 465.238C431.489 465.238 431.326 460.673 429.414 460.258C420.64 458.421 414.787 455.812 411.63 453.426C411.112 452.997 410.464 452.757 409.792 452.745Z"/><path fill="#000" d="M399.655 428.586H410.637L409.896 441.702H398.914L399.655 428.586Z" opacity=".2"/><path fill="#263238" d="M437.222 175.107C437.222 175.107 436.274 270.563 434.495 302.026C432.539 336.468 414.607 438.533 414.607 438.533H394.481C394.481 438.533 403.255 339.239 402.04 305.153C400.721 268.103 399.92 175.107 399.92 175.107H437.222Z"/><path fill="#263238" d="M392.867 438.533H417.409L418.61 430.9L391.83 432.086L392.867 438.533Z"/><path fill="#1684F8" d="M413.675 454.655C412.677 454.632 411.683 454.503 410.711 454.27C410.662 454.26 410.616 454.236 410.581 454.2C410.545 454.165 410.521 454.119 410.511 454.07C410.502 454.021 410.507 453.969 410.527 453.923C410.547 453.877 410.58 453.837 410.623 453.81C410.978 453.558 414.076 451.439 415.424 451.973C415.576 452.031 415.71 452.126 415.813 452.251C415.917 452.375 415.987 452.524 416.017 452.684C416.087 452.923 416.095 453.177 416.04 453.42C415.986 453.664 415.871 453.89 415.706 454.077C415.123 454.512 414.4 454.718 413.675 454.655ZM411.452 453.899C413.424 454.284 414.876 454.225 415.38 453.721C415.492 453.6 415.568 453.45 415.602 453.288C415.636 453.127 415.626 452.959 415.572 452.802C415.56 452.722 415.526 452.646 415.474 452.583C415.422 452.52 415.353 452.473 415.276 452.447C414.565 452.165 412.727 453.084 411.452 453.899Z"/><path fill="#1684F8" d="M410.814 454.273C410.776 454.288 410.733 454.288 410.695 454.273C410.656 454.254 410.623 454.225 410.599 454.188C410.576 454.151 410.563 454.109 410.562 454.066C410.562 453.932 410.295 450.775 411.406 449.708C411.549 449.572 411.72 449.469 411.907 449.408C412.094 449.346 412.293 449.327 412.488 449.353C412.707 449.36 412.917 449.44 413.086 449.579C413.255 449.719 413.373 449.91 413.422 450.123C413.674 451.324 412.029 453.621 410.947 454.273C410.904 454.287 410.857 454.287 410.814 454.273ZM412.296 449.827C412.091 449.827 411.894 449.907 411.747 450.049C411.137 451.102 410.883 452.323 411.021 453.532C411.984 452.732 413.066 450.983 412.903 450.197C412.903 450.049 412.785 449.871 412.414 449.827H412.296Z"/><path fill="#E6E6E6" d="M454.06 85.8457C453.506 83.9925 452.459 82.3245 451.032 81.0195C449.604 79.7145 447.849 78.8215 445.953 78.4357C443.244 77.7952 440.497 77.325 437.728 77.0278C429.411 76.5532 421.074 76.5532 412.757 77.0278C408.4 77.2353 403.954 77.7688 400.412 78.2875H400.278C399.347 78.4185 398.452 78.7356 397.646 79.2198C396.839 79.704 396.139 80.3455 395.586 81.106C395.033 81.8665 394.638 82.7306 394.426 83.6467C394.214 84.5628 394.188 85.5122 394.35 86.4385C397.141 101.178 398.968 116.084 399.819 131.062C400.678 152.802 399.508 169.875 399.923 175.121H458.684C462.256 122.051 457.646 97.9388 454.06 85.8457Z"/><path fill="#263238" d="M414.415 76.0508C419.039 94.8129 423.307 142.355 423.233 179.524H398.395C397.95 173.981 399.195 155.99 398.291 133.063C397.401 117.302 395.495 101.615 392.585 86.0987C392.417 85.1263 392.443 84.13 392.665 83.1682C392.886 82.2063 393.298 81.2984 393.875 80.4977C394.452 79.697 395.183 79.0197 396.025 78.5054C396.868 77.9912 397.804 77.6504 398.78 77.5031H398.914C402.648 76.9548 407.331 76.3916 411.926 76.1693L414.415 76.0508Z"/><path fill="#263238" d="M457.082 86.1104C456.45 84.0621 455.299 82.2119 453.741 80.7396C452.183 79.2673 450.271 78.2228 448.19 77.7074C444.263 77.09 440.305 76.6843 436.334 76.4922C441.032 92.7942 450.25 142.456 447.508 179.521H463.188C466.908 123.901 460.58 96.2769 457.082 86.1104Z"/><path fill="#1684F8" d="M548.668 137.493L431.753 187.526L417.704 154.862L534.633 104.83L548.668 137.493Z"/><path fill="#fff" d="M449.997 156.477C450.528 157.718 450.68 159.09 450.433 160.418C450.185 161.746 449.55 162.97 448.606 163.937C447.663 164.904 446.454 165.569 445.133 165.85C443.812 166.13 442.437 166.012 441.183 165.511C439.928 165.01 438.85 164.148 438.085 163.035C437.321 161.922 436.903 160.607 436.885 159.256C436.867 157.906 437.25 156.58 437.985 155.447C438.72 154.314 439.775 153.424 441.016 152.89C441.841 152.535 442.728 152.346 443.626 152.335C444.524 152.323 445.416 152.488 446.25 152.821C447.084 153.154 447.845 153.649 448.487 154.276C449.13 154.903 449.643 155.651 449.997 156.477Z"/><path fill="#fff" d="M452.948 162.258C452.513 163.557 451.808 164.75 450.88 165.758C449.951 166.766 448.82 167.567 447.561 168.107C446.301 168.647 444.942 168.915 443.572 168.893C442.202 168.871 440.851 168.559 439.61 167.978C438.558 169.173 437.847 170.629 437.549 172.193C437.252 173.757 437.38 175.373 437.921 176.87L460.595 167.178C459.881 165.746 458.794 164.532 457.448 163.666C456.102 162.8 454.548 162.314 452.948 162.258Z"/><path fill="#fff" d="M532.04 122.882L463.705 152.122L462.164 148.506L530.499 119.266L532.04 122.882Z"/><path fill="#fff" d="M526.959 134.13L467.012 159.783L465.456 156.167L525.403 130.514L526.959 134.13Z"/><path fill="#000" d="M406.07 105.126C405.655 92.6622 396.452 87.905 393.859 91.2543C393.744 91.3897 393.64 91.5334 393.547 91.6841C395.163 101.287 397.134 114.507 397.993 127.534C402.365 125.014 406.456 116.967 406.07 105.126Z" opacity=".3"/><path fill="#B55B52" d="M436.541 76.9971C429.279 75.2779 428.005 70.7875 428.494 65.8524C428.609 64.6164 428.802 63.3888 429.072 62.1771L419.972 54.6189L413.289 49.0762C415.141 57.1234 417.231 71.7804 411.807 77.1453C411.807 77.1453 416.253 84.5553 428.746 83.9032C439.164 83.3252 436.541 76.9971 436.541 76.9971Z"/><path fill="#fff" d="M423.75 90.5288C424.609 88.0592 426.006 85.8115 427.841 83.9488C422.263 82.1186 417.188 79.0131 413.021 74.8789L409.212 76.3609C409.212 76.3609 410.561 86.0384 423.75 90.5288Z"/><path fill="#fff" d="M433.918 88.8668C432.269 86.8102 430.196 85.1322 427.842 83.9466C431.502 82.9092 432.925 75.4844 432.925 75.4844L436.497 76.2254C436.497 76.2254 443.092 85.9028 433.918 88.8668Z"/><path fill="#000" d="M429.073 62.1773C428.803 63.3891 428.61 64.6166 428.495 65.8527C425.101 65.171 420.566 61.5549 420.092 58.087C419.925 56.9389 419.885 55.7759 419.973 54.6191L429.073 62.1773Z" opacity=".2"/><path fill="#263238" d="M433.309 22.6545C437.889 21.8246 443.224 26.6263 440.719 36.3778C438.215 46.1294 426.314 23.9142 433.309 22.6545Z"/><path fill="#B55B52" d="M410.53 37.5028C412.856 48.1881 413.671 54.5458 419.985 59.4216C422.019 61.0265 424.453 62.0447 427.024 62.3663C429.595 62.6878 432.205 62.3004 434.572 61.246C436.938 60.1916 438.972 58.5102 440.452 56.3838C441.933 54.2573 442.803 51.7666 442.971 49.181C443.8 39.2368 439.873 23.4386 428.625 20.4154C426.208 19.6951 423.645 19.6231 421.192 20.2067C418.739 20.7902 416.482 22.0088 414.649 23.74C412.815 25.4712 411.47 27.6543 410.747 30.07C410.024 32.4857 409.949 35.049 410.53 37.5028Z"/><path fill="#263238" d="M414.83 49.077C416.401 45.372 417.794 35.0573 416.52 30.7744C421.633 30.6113 432.377 29.6629 436.853 24.6833C443.729 17.0362 434.659 7.99601 423.248 15.1985C415.838 19.8372 399.847 18.9184 402.5 24.0905C394.705 32.6713 403.463 42.3636 414.83 49.077Z"/><path fill="#263238" d="M402.485 24.4775C402.431 24.4771 402.378 24.4649 402.33 24.4419C402.281 24.4188 402.238 24.3855 402.204 24.3441C401.255 23.1733 400.959 22.1952 401.285 21.3801C402.07 19.4239 406.146 18.8904 410.844 18.2976C415.29 17.7344 420.21 17.0971 421.781 15.0964C421.852 15.0319 421.944 14.9961 422.04 14.9961C422.136 14.9961 422.229 15.0319 422.3 15.0964C422.335 15.1297 422.363 15.1699 422.383 15.2145C422.402 15.2591 422.412 15.3072 422.412 15.3558C422.412 15.4044 422.402 15.4525 422.383 15.4971C422.363 15.5417 422.335 15.5819 422.3 15.6151C420.536 17.853 415.631 18.4754 410.888 19.083C406.783 19.6165 402.545 20.1501 401.996 21.721C401.774 22.2841 401.996 23.04 402.782 23.9736C402.85 24.0429 402.887 24.136 402.887 24.233C402.887 24.33 402.85 24.4231 402.782 24.4923C402.684 24.5215 402.579 24.5162 402.485 24.4775Z"/><path fill="#B55B52" d="M408.887 46.1286C410.163 48.124 412.09 49.6164 414.341 50.3523C417.202 51.2119 418.18 48.574 417.024 45.7878C415.971 43.2684 413.215 39.7857 410.532 40.1562C407.85 40.5267 407.272 43.6241 408.887 46.1286Z"/><path fill="#263238" d="M425.827 38.5676C425.96 39.442 426.538 40.0496 427.116 40.0496C427.694 40.0496 428.035 39.2197 427.901 38.3453C427.768 37.4709 427.19 36.8633 426.612 36.8633C426.034 36.8633 425.693 37.6932 425.827 38.5676Z"/><path fill="#263238" d="M435.771 37.3851C435.905 38.2595 436.483 38.8671 437.061 38.8671C437.639 38.8671 437.994 38.0224 437.846 37.148C437.698 36.2736 437.135 35.666 436.572 35.666C436.009 35.666 435.638 36.5108 435.771 37.3851Z"/><path fill="#A02724" d="M434.243 38.1973C435.713 40.7565 437.517 43.1088 439.608 45.1923C439.062 45.6923 438.412 46.0657 437.705 46.2859C436.998 46.5062 436.251 46.568 435.518 46.4668L434.243 38.1973Z"/><path fill="#263238" d="M432.287 49.2724C431.259 49.2863 430.239 49.0912 429.288 48.6989C428.338 48.3065 427.478 47.7252 426.759 46.9902C426.737 46.9649 426.719 46.9354 426.708 46.9035C426.697 46.8715 426.693 46.8377 426.695 46.804C426.697 46.7703 426.706 46.7373 426.72 46.7069C426.735 46.6766 426.756 46.6494 426.781 46.627C426.806 46.6047 426.836 46.5875 426.868 46.5765C426.9 46.5655 426.934 46.5609 426.967 46.563C427.001 46.565 427.034 46.5737 427.064 46.5885C427.095 46.6033 427.122 46.624 427.144 46.6493C427.943 47.4276 428.906 48.0157 429.963 48.3698C431.021 48.7239 432.144 48.8349 433.25 48.6944C433.284 48.6881 433.319 48.689 433.353 48.6969C433.387 48.7049 433.419 48.7198 433.447 48.7406C433.475 48.7615 433.498 48.788 433.515 48.8183C433.532 48.8486 433.543 48.8821 433.546 48.9168C433.551 48.9499 433.548 48.9835 433.539 49.0156C433.53 49.0478 433.515 49.0778 433.494 49.104C433.474 49.1302 433.448 49.1521 433.419 49.1682C433.389 49.1844 433.357 49.1946 433.324 49.1983C432.98 49.2441 432.634 49.2688 432.287 49.2724Z"/><path fill="#263238" d="M422.582 35.7376C422.494 35.7316 422.408 35.7063 422.331 35.6635C422.271 35.6297 422.219 35.5844 422.177 35.5302C422.135 35.4761 422.104 35.4141 422.086 35.348C422.068 35.2819 422.063 35.2128 422.072 35.1449C422.081 35.0769 422.104 35.0114 422.138 34.9522C422.52 34.2299 423.074 33.6128 423.751 33.1553C424.429 32.6979 425.208 32.4141 426.021 32.329C426.089 32.325 426.157 32.3345 426.222 32.3569C426.286 32.3794 426.346 32.4143 426.396 32.4597C426.447 32.5052 426.489 32.5602 426.518 32.6217C426.548 32.6832 426.565 32.7499 426.569 32.8181C426.573 32.8862 426.564 32.9545 426.541 33.019C426.519 33.0834 426.484 33.1428 426.438 33.1938C426.393 33.2447 426.338 33.2862 426.276 33.3158C426.215 33.3454 426.148 33.3626 426.08 33.3664C425.44 33.4422 424.829 33.6737 424.299 34.0406C423.769 34.4074 423.338 34.8985 423.042 35.4709C422.996 35.5526 422.93 35.6206 422.849 35.6675C422.768 35.7145 422.676 35.7387 422.582 35.7376Z"/><path fill="#263238" d="M440.231 33.4713C440.145 33.4717 440.06 33.4502 439.985 33.4086C439.91 33.3671 439.846 33.3071 439.801 33.2342C439.441 32.6737 438.957 32.2032 438.387 31.859C437.816 31.5147 437.175 31.3058 436.511 31.2483C436.373 31.2483 436.241 31.1937 436.144 31.0964C436.047 30.9991 435.992 30.8672 435.992 30.7296C435.992 30.5921 436.047 30.4601 436.144 30.3629C436.241 30.2656 436.373 30.2109 436.511 30.2109C437.345 30.2692 438.154 30.5204 438.874 30.9448C439.594 31.3691 440.206 31.955 440.661 32.6562C440.735 32.7729 440.761 32.9138 440.733 33.0493C440.705 33.1847 440.626 33.3042 440.512 33.3824C440.429 33.4387 440.331 33.4696 440.231 33.4713Z"/><path fill="#263238" d="M407.42 93.6383C407.494 93.5494 407.42 93.6383 407.42 93.6383L407.316 93.8013L407.064 94.2163L406.531 95.1499C406.16 95.8168 405.804 96.4985 405.449 97.2099C404.767 98.6919 404.1 100.174 403.507 101.656C402.324 104.76 401.382 107.951 400.692 111.2C399.315 117.91 398.911 124.782 399.491 131.607C399.571 133.043 399.764 134.47 400.069 135.875C400.407 137.295 400.878 138.679 401.477 140.01C402.851 143.05 404.535 145.94 406.501 148.635C410.829 154.488 415.669 159.944 420.965 164.937L421.173 165.145C421.997 165.946 422.507 167.016 422.609 168.161C422.712 169.306 422.4 170.449 421.731 171.384C421.062 172.318 420.08 172.982 418.963 173.254C417.846 173.526 416.669 173.388 415.645 172.866C411.928 170.966 408.369 168.771 405.004 166.301C401.581 163.828 398.356 161.093 395.356 158.12C392.175 154.956 389.388 151.418 387.057 147.583C385.778 145.496 384.711 143.287 383.871 140.988C383.052 138.663 382.452 136.267 382.078 133.83C381.31 129.54 380.913 125.191 380.892 120.833C380.824 116.42 381.156 112.011 381.885 107.658C382.619 103.24 383.775 98.9024 385.338 94.7053C386.135 92.5663 387.05 90.4735 388.08 88.4365C388.613 87.3991 389.162 86.3765 389.784 85.3539C390.095 84.8352 390.421 84.3165 390.762 83.783L391.31 82.9827L392.051 81.9601C393.62 80.0079 395.888 78.7435 398.373 78.4348C400.858 78.1261 403.366 78.7975 405.365 80.3067C407.364 81.8158 408.696 84.044 409.08 86.5189C409.463 88.9938 408.868 91.5208 407.42 93.5642V93.6383Z"/><path fill="#B55B52" d="M424.108 165.06L430.228 164.734L423.13 176.59C423.13 176.59 413.23 175.331 414.238 170.277L415.616 168.795C417.87 166.518 420.906 165.183 424.108 165.06Z"/><path fill="#B55B52" d="M436.571 168.988L431.236 181.585L423.129 176.635L430.228 164.734L436.571 168.988Z"/></svg>