<svg xmlns="http://www.w3.org/2000/svg" width="100" height="100" fill="none" viewBox="0 0 31 34"><path stroke="#041A39" stroke-linejoin="round" stroke-width="3" d="M5.11538 1.6543H19.1948L29 10.0438V29.9235C29 30.5662 28.6718 31.1825 28.0875 31.6369C27.5033 32.0913 26.7109 32.3466 25.8846 32.3466H5.11538C4.28913 32.3466 3.49672 32.0913 2.91247 31.6369C2.32823 31.1825 2 30.5662 2 29.9235V4.07737C2 3.43473 2.32823 2.81841 2.91247 2.364C3.49672 1.90958 4.28913 1.6543 5.11538 1.6543V1.6543Z"/><path stroke="#041A39" stroke-linecap="round" stroke-width="3" d="M6.15576 27.502H18.6173"/><path stroke="#041A39" stroke-linecap="round" stroke-linejoin="round" stroke-width="3" d="M6 19.748L11.5 7.74805L17 19.748H6Z"/><path stroke="#041A39" stroke-linecap="round" stroke-width="3" d="M22.1172 12.748V17.5942"/><path stroke="#041A39" stroke-linecap="round" stroke-width="3" d="M19 15.1719H25.2308"/></svg>