<svg xmlns="http://www.w3.org/2000/svg" width="100" height="100" fill="none" viewBox="0 0 31 32"><g clip-path="url(#clip0_904:12588)"><path stroke="#041A39" stroke-width="3" d="M8.39567 18.584C18.0832 18.584 24.5415 9.54232 24.5415 9.54232L22.604 12.7715L24.5415 14.709C19.3748 23.7507 15.4998 21.8132 15.4998 25.0423V30.209H1.2915V25.0423C1.2915 19.8757 5.81234 18.584 8.39567 18.584ZM8.39567 18.584C9.59467 18.584 10.7446 18.1077 11.5924 17.2599C12.4402 16.412 12.9165 15.2622 12.9165 14.0632C12.9165 12.8642 12.4402 11.7143 11.5924 10.8664C10.7446 10.0186 9.59467 9.54232 8.39567 9.54232C7.19667 9.54232 6.04678 10.0186 5.19896 10.8664C4.35114 11.7143 3.87484 12.8642 3.87484 14.0632C3.87484 15.2622 4.35114 16.412 5.19896 17.2599C6.04678 18.1077 7.19667 18.584 8.39567 18.584ZM3.87484 6.95898V3.08398H29.7082V21.1673H25.8332"/></g><defs><clipPath id="clip0_904:12588"><rect width="31" height="31" fill="#fff" transform="translate(0 0.5)"/></clipPath></defs></svg>