<svg xmlns="http://www.w3.org/2000/svg" width="360" height="255" fill="none" viewBox="0 0 360 255"><rect width="360" height="254.835" fill="#F2F6FE"/><path fill="#31D0AA" d="M37.0526 109.735C37.0526 107.175 35.6446 105.383 33.3086 104.519C34.3646 103.527 34.8766 102.247 34.8766 100.711C34.8766 97.2554 32.0926 94.8234 28.1886 94.8234H20.7006V115.943H30.1086C34.1726 115.943 37.0526 113.383 37.0526 109.735ZM27.8366 98.5354C29.5966 98.5354 30.5886 99.4314 30.5886 100.935C30.5886 102.439 29.5966 103.367 27.8366 103.367H24.8606V98.5354H27.8366ZM32.7966 109.575C32.7966 111.239 31.6766 112.231 29.7886 112.231H24.8606V106.919H29.7886C31.6766 106.919 32.7966 107.943 32.7966 109.575ZM40.2876 115.943H44.6076V91.9434H40.2876V115.943ZM47.9853 108.007C47.8893 112.519 51.7933 116.391 56.4333 116.295C61.0733 116.391 65.0733 112.519 64.9773 108.007C65.0733 103.495 61.1053 99.6874 56.4653 99.7514C51.8253 99.6554 47.8893 103.495 47.9853 108.007ZM60.5613 108.039C60.5613 110.503 58.8013 112.327 56.4653 112.327C54.0653 112.327 52.3693 110.503 52.3693 108.039C52.3693 105.511 54.0653 103.687 56.4653 103.687C58.8013 103.687 60.5613 105.575 60.5613 108.039ZM67.4541 108.007C67.3901 112.583 71.2941 116.423 75.9341 116.327C79.0061 116.327 81.4381 114.823 82.8141 112.391L79.8061 110.087C78.7821 111.527 77.6301 112.359 75.9981 112.359C73.5661 112.359 71.8381 110.535 71.8381 108.007C71.8381 105.543 73.5661 103.687 75.9981 103.687C77.6621 103.687 78.8141 104.551 79.8061 105.991L82.8141 103.655C81.4381 101.223 79.0381 99.7514 75.9341 99.7514C71.2301 99.7514 67.4541 103.367 67.4541 108.007ZM101.622 115.943L95.1903 107.111L101.142 100.103H96.0223L90.3263 106.855V91.9434H86.0063V115.943H90.3263V107.175L96.6943 115.943H101.622ZM102.392 108.007C102.328 112.583 106.232 116.423 110.872 116.327C113.944 116.327 116.376 114.823 117.752 112.391L114.744 110.087C113.72 111.527 112.568 112.359 110.936 112.359C108.504 112.359 106.776 110.535 106.776 108.007C106.776 105.543 108.504 103.687 110.936 103.687C112.6 103.687 113.752 104.551 114.744 105.991L117.752 103.655C116.376 101.223 113.976 99.7514 110.872 99.7514C106.168 99.7514 102.392 103.367 102.392 108.007ZM135.504 106.119C135.504 102.279 133.2 99.7514 129.616 99.7514C127.856 99.7514 126.32 100.391 125.264 101.447V91.9434H120.944V115.943H125.264V106.727C125.264 104.903 126.512 103.655 128.272 103.655C130.032 103.655 131.216 104.903 131.216 106.727V115.943H135.504V106.119ZM152.943 106.535C152.943 102.151 150.287 99.7514 146.159 99.7514C143.375 99.7514 141.071 100.839 139.247 103.015L141.487 105.671C142.895 104.167 144.047 103.495 145.679 103.495C147.599 103.495 148.623 104.519 148.623 106.279V106.983H144.655C140.975 106.983 138.671 108.743 138.671 111.591C138.671 114.375 140.783 116.327 144.143 116.327C146.159 116.327 147.823 115.591 148.975 114.407V115.943H152.943V106.535ZM148.623 110.023C148.623 111.847 147.183 113.159 145.295 113.159C143.919 113.159 143.023 112.487 143.023 111.431C143.023 110.375 143.823 109.831 145.231 109.831H148.623V110.023ZM157.1 115.943H161.42V100.103H157.1V115.943ZM156.492 94.3434C156.492 95.8474 157.708 96.9994 159.244 96.9994C160.78 96.9994 162.028 95.8474 162.028 94.3434C162.028 92.8074 160.78 91.6554 159.244 91.6554C157.708 91.6554 156.492 92.8074 156.492 94.3434ZM180.254 106.119C180.254 102.279 177.982 99.7514 174.302 99.7514C172.414 99.7514 170.782 100.423 169.662 101.543V100.103H165.694V115.943H170.014V106.695C170.014 104.871 171.262 103.623 173.022 103.623C174.782 103.623 175.966 104.871 175.966 106.695V115.943H180.254V106.119ZM19.2286 151.655C20.8606 154.503 23.8046 156.327 27.3886 156.327C31.6126 156.327 34.7806 153.863 34.7806 149.991C34.7806 147.143 33.1166 145.383 29.5646 143.815L27.1646 142.759C25.3726 141.959 24.7006 141.447 24.7006 140.327C24.7006 139.015 25.8206 138.279 27.3246 138.279C28.9246 138.279 30.2686 139.079 31.3566 140.711L34.3006 138.439C32.9886 136.007 30.5566 134.439 27.3246 134.439C23.3246 134.439 20.3166 136.807 20.3166 140.423C20.3166 143.239 22.2046 145.063 25.4366 146.503L27.7086 147.527C29.7246 148.455 30.3966 148.903 30.3966 150.151C30.3966 151.591 29.2766 152.487 27.3886 152.487C25.0846 152.487 23.5806 151.303 22.2046 149.415L19.2286 151.655ZM38.2876 155.943H42.6076V140.103H38.2876V155.943ZM37.6796 134.343C37.6796 135.847 38.8956 136.999 40.4316 136.999C41.9676 136.999 43.2156 135.847 43.2156 134.343C43.2156 132.807 41.9676 131.655 40.4316 131.655C38.8956 131.655 37.6796 132.807 37.6796 134.343ZM71.2973 146.119C71.2973 142.279 69.0253 139.751 65.3133 139.751C63.1373 139.751 61.2813 140.615 60.0333 142.023C58.9773 140.519 57.4093 139.751 55.3293 139.751C53.5053 139.751 51.9053 140.391 50.8493 141.511V140.103H46.8813V155.943H51.2013V146.727C51.2013 144.839 52.3533 143.655 54.1133 143.655C55.8093 143.655 56.9293 144.839 56.9293 146.727V155.943H61.2493V146.631C61.2493 144.871 62.4653 143.655 64.1613 143.655C65.8573 143.655 66.9773 144.839 66.9773 146.727V155.943H71.2973V146.119ZM92.1486 148.007C92.1486 143.271 88.8846 139.751 84.4686 139.751C82.2926 139.751 80.4366 140.583 79.3806 142.087V140.103H75.4126V161.703H79.7326V154.407C80.8846 155.655 82.5486 156.327 84.4686 156.327C88.8846 156.327 92.1486 152.743 92.1486 148.007ZM87.7646 148.039C87.7646 150.631 85.9726 152.391 83.6686 152.391C81.4606 152.391 79.6686 150.823 79.6686 148.007C79.6686 145.159 81.4926 143.655 83.6686 143.655C86.0046 143.655 87.7646 145.383 87.7646 148.039ZM95.5376 155.943H99.8576V131.943H95.5376V155.943ZM104.131 155.943H108.451V140.103H104.131V155.943ZM103.523 134.343C103.523 135.847 104.739 136.999 106.275 136.999C107.811 136.999 109.059 135.847 109.059 134.343C109.059 132.807 107.811 131.655 106.275 131.655C104.739 131.655 103.523 132.807 103.523 134.343ZM117.781 137.895C117.781 136.103 118.709 135.431 120.661 135.431C121.045 135.431 121.461 135.463 121.941 135.527V131.911C121.205 131.687 120.405 131.559 119.573 131.559C115.765 131.559 113.461 133.543 113.461 137.511V140.103H111.221V143.751H113.461V155.943H117.781V143.751H121.269V140.103H117.781V137.895ZM124.149 155.943H128.469V140.103H124.149V155.943ZM123.541 134.343C123.541 135.847 124.757 136.999 126.293 136.999C127.829 136.999 129.077 135.847 129.077 134.343C129.077 132.807 127.829 131.655 126.293 131.655C124.757 131.655 123.541 132.807 123.541 134.343ZM147.316 149.479C147.508 148.679 147.604 147.879 147.604 147.111C147.604 142.983 144.532 139.751 140.148 139.751C135.572 139.655 131.764 143.463 131.86 148.039C131.764 152.615 135.636 156.423 140.532 156.327C142.868 156.327 144.98 155.527 146.868 153.959L145.076 151.015C143.7 152.071 142.228 152.615 140.66 152.615C138.356 152.615 136.724 151.495 136.212 149.479H147.316ZM136.212 146.439C136.692 144.487 138.164 143.239 139.988 143.239C141.876 143.239 143.38 144.487 143.412 146.439H136.212ZM162.495 131.943V141.639C161.343 140.391 159.775 139.751 157.759 139.751C153.343 139.751 150.079 143.271 150.079 148.039C150.079 152.807 153.343 156.327 157.759 156.327C159.935 156.327 161.791 155.495 162.847 153.991V155.943H166.815V131.943H162.495ZM162.559 148.039C162.559 150.887 160.735 152.391 158.559 152.391C156.223 152.391 154.463 150.663 154.463 148.007C154.463 145.415 156.255 143.655 158.559 143.655C160.735 143.655 162.559 145.223 162.559 148.039Z"/><rect width="88.119" height="82.946" x="254.687" y="25.982"/><path fill="#000" d="M20.0926 197.887H25.2766C30.2926 197.959 33.9886 194.503 33.9166 189.919C33.9886 185.239 30.2926 181.999 25.2766 182.047H20.0926V197.887ZM23.3326 194.959V184.975H25.2526C28.4926 184.975 30.5806 186.847 30.5806 189.919C30.5806 192.967 28.4446 194.959 25.2526 194.959H23.3326ZM43.7429 186.007C43.4309 185.911 43.0949 185.863 42.6869 185.863C41.3669 185.863 40.2149 186.439 39.4229 187.423V186.007H36.4469V197.887H39.6869V191.959C39.6869 189.919 40.9349 188.863 42.8789 188.863H43.7429V186.007ZM50.5516 197.887C51.3196 198.079 52.0876 198.175 52.8316 198.175C55.9276 198.175 57.6556 196.663 57.6556 193.663V182.047H54.4156V193.327C54.4156 194.695 53.6956 195.223 52.1356 195.223C51.9436 195.223 51.4156 195.199 50.5516 195.127V197.887ZM60.2905 191.935C60.2185 195.319 63.1465 198.223 66.6265 198.151C70.1065 198.223 73.1065 195.319 73.0345 191.935C73.1065 188.551 70.1305 185.695 66.6505 185.743C63.1705 185.671 60.2185 188.551 60.2905 191.935ZM69.7225 191.959C69.7225 193.807 68.4025 195.175 66.6505 195.175C64.8505 195.175 63.5785 193.807 63.5785 191.959C63.5785 190.063 64.8505 188.695 66.6505 188.695C68.4025 188.695 69.7225 190.111 69.7225 191.959ZM86.4841 190.519C86.4841 187.639 84.7561 185.743 82.0681 185.743C80.7481 185.743 79.5961 186.223 78.8041 187.015V179.887H75.5641V197.887H78.8041V190.975C78.8041 189.607 79.7401 188.671 81.0601 188.671C82.3801 188.671 83.2681 189.607 83.2681 190.975V197.887H86.4841V190.519ZM100.523 190.519C100.523 187.639 98.8191 185.743 96.0591 185.743C94.6431 185.743 93.4191 186.247 92.5791 187.087V186.007H89.6031V197.887H92.8431V190.951C92.8431 189.583 93.7791 188.647 95.0991 188.647C96.4191 188.647 97.3071 189.583 97.3071 190.951V197.887H100.523V190.519ZM110.585 197.887H115.769C120.785 197.959 124.481 194.503 124.409 189.919C124.481 185.239 120.785 181.999 115.769 182.047H110.585V197.887ZM113.825 194.959V184.975H115.745C118.985 184.975 121.073 186.847 121.073 189.919C121.073 192.967 118.937 194.959 115.745 194.959H113.825ZM126.267 191.935C126.195 195.319 129.123 198.223 132.603 198.151C136.083 198.223 139.083 195.319 139.011 191.935C139.083 188.551 136.107 185.695 132.627 185.743C129.147 185.671 126.195 188.551 126.267 191.935ZM135.699 191.959C135.699 193.807 134.379 195.175 132.627 195.175C130.827 195.175 129.555 193.807 129.555 191.959C129.555 190.063 130.827 188.695 132.627 188.695C134.379 188.695 135.699 190.111 135.699 191.959ZM152.461 193.039C152.605 192.439 152.677 191.839 152.677 191.263C152.677 188.167 150.373 185.743 147.085 185.743C143.653 185.671 140.797 188.527 140.869 191.959C140.797 195.391 143.701 198.247 147.373 198.175C149.125 198.175 150.709 197.575 152.125 196.399L150.781 194.191C149.749 194.983 148.645 195.391 147.469 195.391C145.741 195.391 144.517 194.551 144.133 193.039H152.461ZM144.133 190.759C144.493 189.295 145.597 188.359 146.965 188.359C148.381 188.359 149.509 189.295 149.533 190.759H144.133Z"/><path fill="#000" d="M19.0426 218.925C18.9706 222.327 21.9046 225.117 25.2886 225.063C27.5026 225.063 29.3746 224.001 30.3826 222.327L28.9426 221.265C28.0966 222.579 26.8726 223.317 25.3066 223.317C22.8766 223.317 21.0226 221.445 21.0226 218.925C21.0226 216.405 22.8766 214.533 25.3066 214.533C26.8726 214.533 28.0966 215.271 28.9426 216.585L30.3826 215.523C29.3566 213.849 27.4666 212.787 25.2886 212.787C21.9046 212.733 18.9706 215.523 19.0426 218.925ZM39.471 219.519C39.471 217.143 38.031 215.829 35.853 215.829C34.323 215.829 33.009 216.441 32.127 217.719L33.225 218.835C33.963 217.953 34.683 217.521 35.673 217.521C36.879 217.521 37.563 218.187 37.563 219.411V219.987H35.061C33.063 219.987 31.803 220.977 31.803 222.507C31.803 224.037 33.027 225.063 34.881 225.063C36.087 225.063 37.059 224.649 37.707 223.875V224.865H39.471V219.519ZM37.563 221.517C37.563 222.723 36.555 223.605 35.277 223.605C34.359 223.605 33.729 223.173 33.729 222.435C33.729 221.715 34.287 221.355 35.295 221.355H37.563V221.517ZM47.1594 216.027C46.9434 215.973 46.7094 215.937 46.4394 215.937C45.4314 215.937 44.4954 216.387 43.8654 217.179V216.027H42.1014V224.865H43.9914V220.149C43.9914 218.583 45.0894 217.701 46.5834 217.701H47.1594V216.027ZM56.5734 219.339C56.5734 217.233 55.3314 215.829 53.2614 215.829C52.1634 215.829 51.2814 216.189 50.6154 216.891V216.027H48.8514V224.865H50.7414V219.591C50.7414 218.385 51.5874 217.539 52.7574 217.539C53.9094 217.539 54.6834 218.367 54.6834 219.591V224.865H56.5734V219.339ZM67.1609 221.067C67.2509 220.653 67.3049 220.257 67.3049 219.879C67.3049 217.575 65.5589 215.829 63.2189 215.829C60.7169 215.775 58.5929 217.917 58.6469 220.455C58.6469 223.065 60.6989 225.063 63.3989 225.063C64.7489 225.063 65.9189 224.595 66.9269 223.641L66.0269 222.345C65.2349 223.047 64.3709 223.389 63.4529 223.389C61.9409 223.389 60.8069 222.507 60.5729 221.067H67.1609ZM60.6089 219.591C60.8969 218.277 61.9049 217.431 63.1469 217.431C64.3889 217.431 65.3969 218.241 65.4149 219.591H60.6089ZM76.4005 216.027V217.287C75.7525 216.369 74.6185 215.829 73.2685 215.829C70.8205 215.829 68.9665 217.683 68.9665 220.257C68.9665 222.831 70.8025 224.685 73.2685 224.685C74.4925 224.685 75.5905 224.235 76.2565 223.425V224.055C76.2565 225.711 75.2125 226.575 73.6105 226.575C72.4045 226.575 71.5045 226.107 70.5145 225.315L69.4705 226.629C70.5325 227.619 71.9725 228.303 73.7185 228.303C76.4005 228.303 78.1465 226.737 78.1465 223.947V216.027H76.4005ZM76.2745 220.239C76.2745 221.139 76.0045 221.823 75.4825 222.309C74.9605 222.795 74.3485 223.029 73.6105 223.029C72.8365 223.029 72.2065 222.777 71.6845 222.273C71.1625 221.751 70.9105 221.085 70.9105 220.257C70.9105 219.447 71.1625 218.781 71.6845 218.277C72.2065 217.773 72.8365 217.521 73.6105 217.521C75.0685 217.521 76.2745 218.439 76.2745 220.239ZM80.8787 224.865H82.7687V216.027H80.8787V224.865ZM80.5367 212.733C80.5367 213.435 81.1127 213.975 81.8327 213.975C82.5347 213.975 83.1107 213.435 83.1107 212.733C83.1107 212.031 82.5347 211.473 81.8327 211.473C81.1127 211.473 80.5367 212.031 80.5367 212.733ZM93.4578 221.067C93.5478 220.653 93.6018 220.257 93.6018 219.879C93.6018 217.575 91.8558 215.829 89.5158 215.829C87.0138 215.775 84.8898 217.917 84.9438 220.455C84.9438 223.065 86.9958 225.063 89.6958 225.063C91.0458 225.063 92.2158 224.595 93.2238 223.641L92.3238 222.345C91.5318 223.047 90.6678 223.389 89.7498 223.389C88.2378 223.389 87.1038 222.507 86.8698 221.067H93.4578ZM86.9058 219.591C87.1938 218.277 88.2018 217.431 89.4438 217.431C90.6858 217.431 91.6938 218.241 91.7118 219.591H86.9058ZM111.576 212.787L106.59 219.429L101.604 212.787H100.938V224.865H102.846V217.395L106.266 221.877H106.914L110.316 217.413V224.865H112.224V212.787H111.576ZM122.954 221.067C123.044 220.653 123.098 220.257 123.098 219.879C123.098 217.575 121.352 215.829 119.012 215.829C116.51 215.775 114.386 217.917 114.44 220.455C114.44 223.065 116.492 225.063 119.192 225.063C120.542 225.063 121.712 224.595 122.72 223.641L121.82 222.345C121.028 223.047 120.164 223.389 119.246 223.389C117.734 223.389 116.6 222.507 116.366 221.067H122.954ZM116.402 219.591C116.69 218.277 117.698 217.431 118.94 217.431C120.182 217.431 121.19 218.241 121.208 219.591H116.402ZM125.264 224.865H127.154V211.365H125.264V224.865ZM129.887 224.865H131.777V211.365H129.887V224.865ZM133.952 220.437C133.898 222.939 136.076 225.117 138.614 225.063C141.188 225.117 143.366 222.939 143.312 220.437C143.366 217.935 141.188 215.775 138.614 215.829C136.076 215.793 133.898 217.899 133.952 220.437ZM141.368 220.455C141.368 222.057 140.18 223.317 138.614 223.317C137.066 223.317 135.878 222.093 135.878 220.455C135.878 218.817 137.066 217.557 138.632 217.557C140.162 217.557 141.368 218.817 141.368 220.455ZM153.2 219.339C153.2 217.233 151.958 215.829 149.888 215.829C148.79 215.829 147.908 216.189 147.242 216.891V216.027H145.478V224.865H147.368V219.591C147.368 218.385 148.214 217.539 149.384 217.539C150.536 217.539 151.31 218.367 151.31 219.591V224.865H153.2V219.339ZM160.877 220.059C160.877 223.191 162.929 225.063 165.773 225.063C168.563 225.063 170.633 223.191 170.633 220.059V212.985H168.725V220.185C168.725 222.201 167.501 223.317 165.773 223.317C164.027 223.317 162.785 222.201 162.785 220.185V212.985H160.877V220.059ZM181.009 219.339C181.009 217.233 179.767 215.829 177.697 215.829C176.599 215.829 175.717 216.189 175.051 216.891V216.027H173.287V224.865H175.177V219.591C175.177 218.385 176.023 217.539 177.193 217.539C178.345 217.539 179.119 218.367 179.119 219.591V224.865H181.009V219.339ZM183.64 224.865H185.53V216.027H183.64V224.865ZM183.298 212.733C183.298 213.435 183.874 213.975 184.594 213.975C185.296 213.975 185.872 213.435 185.872 212.733C185.872 212.031 185.296 211.473 184.594 211.473C183.874 211.473 183.298 212.031 183.298 212.733ZM194.42 216.027L191.846 221.877L189.254 216.027H187.238L191.522 225.063H192.17L196.436 216.027H194.42ZM205.747 221.067C205.837 220.653 205.891 220.257 205.891 219.879C205.891 217.575 204.145 215.829 201.805 215.829C199.303 215.775 197.179 217.917 197.233 220.455C197.233 223.065 199.285 225.063 201.985 225.063C203.335 225.063 204.505 224.595 205.513 223.641L204.613 222.345C203.821 223.047 202.957 223.389 202.039 223.389C200.527 223.389 199.393 222.507 199.159 221.067H205.747ZM199.195 219.591C199.483 218.277 200.491 217.431 201.733 217.431C202.975 217.431 203.983 218.241 204.001 219.591H199.195ZM213.114 216.027C212.898 215.973 212.664 215.937 212.394 215.937C211.386 215.937 210.45 216.387 209.82 217.179V216.027H208.056V224.865H209.946V220.149C209.946 218.583 211.044 217.701 212.538 217.701H213.114V216.027ZM213.978 223.353C214.77 224.379 216.03 225.063 217.542 225.063C218.478 225.063 219.252 224.829 219.882 224.361C220.512 223.875 220.818 223.209 220.818 222.363C220.818 221.121 220.08 220.401 218.406 219.699L217.56 219.357C216.696 218.997 216.39 218.763 216.39 218.313C216.39 217.755 216.858 217.467 217.596 217.467C218.37 217.467 219.108 217.791 219.666 218.367L220.692 217.197C219.918 216.279 218.91 215.829 217.632 215.829C215.832 215.829 214.518 216.801 214.518 218.385C214.518 219.627 215.256 220.311 216.822 220.959L217.722 221.337C218.586 221.697 218.964 221.913 218.964 222.435C218.964 223.083 218.352 223.425 217.542 223.425C216.606 223.425 215.832 222.975 215.058 222.165L213.978 223.353ZM222.998 224.865H224.888V216.027H222.998V224.865ZM222.656 212.733C222.656 213.435 223.232 213.975 223.952 213.975C224.654 213.975 225.23 213.435 225.23 212.733C225.23 212.031 224.654 211.473 223.952 211.473C223.232 211.473 222.656 212.031 222.656 212.733ZM232.877 223.263C232.355 223.317 231.977 223.353 231.707 223.353C230.555 223.353 229.961 222.957 229.961 221.823V217.665H232.589V216.027H229.961V213.705H228.053V216.027H226.613V217.665H228.053V221.985C228.053 224.055 229.277 225.063 231.311 225.063C231.761 225.063 232.283 224.991 232.877 224.865V223.263ZM240.949 216.027L238.339 222.453L235.801 216.027H233.767L237.295 224.469L236.935 225.297C236.503 226.287 235.891 226.593 235.009 226.593C234.865 226.593 234.523 226.575 233.965 226.521V228.123C234.451 228.249 234.937 228.303 235.423 228.303C236.935 228.303 237.925 227.547 238.663 225.873L242.965 216.027H240.949Z"/><ellipse cx="339.045" cy="175.387" fill="#31D0AA" rx="2.498" ry="2.687" transform="rotate(90 339.045 175.387)"/><ellipse cx="339.045" cy="186.379" fill="#31D0AA" rx="2.498" ry="2.687" transform="rotate(90 339.045 186.379)"/><ellipse cx="327.224" cy="175.387" fill="#31D0AA" rx="2.498" ry="2.687" transform="rotate(90 327.224 175.387)"/><ellipse cx="327.224" cy="186.379" fill="#31D0AA" rx="2.498" ry="2.687" transform="rotate(90 327.224 186.379)"/><ellipse cx="315.403" cy="175.387" fill="#31D0AA" rx="2.498" ry="2.687" transform="rotate(90 315.403 175.387)"/><ellipse cx="315.403" cy="186.379" fill="#31D0AA" rx="2.498" ry="2.687" transform="rotate(90 315.403 186.379)"/><ellipse cx="304.657" cy="175.387" fill="#31D0AA" rx="2.498" ry="2.687" transform="rotate(90 304.657 175.387)"/><ellipse cx="304.657" cy="186.379" fill="#31D0AA" rx="2.498" ry="2.687" transform="rotate(90 304.657 186.379)"/><ellipse cx="339.045" cy="196.373" fill="#31D0AA" rx="2.498" ry="2.687" transform="rotate(90 339.045 196.373)"/><ellipse cx="339.045" cy="206.368" fill="#31D0AA" rx="2.498" ry="2.687" transform="rotate(90 339.045 206.368)"/><ellipse cx="327.224" cy="196.373" fill="#31D0AA" rx="2.498" ry="2.687" transform="rotate(90 327.224 196.373)"/><ellipse cx="327.224" cy="206.368" fill="#31D0AA" rx="2.498" ry="2.687" transform="rotate(90 327.224 206.368)"/><ellipse cx="315.403" cy="196.373" fill="#31D0AA" rx="2.498" ry="2.687" transform="rotate(90 315.403 196.373)"/><ellipse cx="315.403" cy="206.368" fill="#31D0AA" rx="2.498" ry="2.687" transform="rotate(90 315.403 206.368)"/><ellipse cx="304.657" cy="196.373" fill="#31D0AA" rx="2.498" ry="2.687" transform="rotate(90 304.657 196.373)"/><ellipse cx="304.657" cy="206.368" fill="#31D0AA" rx="2.498" ry="2.687" transform="rotate(90 304.657 206.368)"/><ellipse cx="339.045" cy="216.36" fill="#31D0AA" rx="2.498" ry="2.687" transform="rotate(90 339.045 216.36)"/><ellipse cx="339.045" cy="227.354" fill="#31D0AA" rx="2.498" ry="2.687" transform="rotate(90 339.045 227.354)"/><ellipse cx="327.224" cy="216.36" fill="#31D0AA" rx="2.498" ry="2.687" transform="rotate(90 327.224 216.36)"/><ellipse cx="327.224" cy="227.354" fill="#31D0AA" rx="2.498" ry="2.687" transform="rotate(90 327.224 227.354)"/><ellipse cx="315.403" cy="216.36" fill="#31D0AA" rx="2.498" ry="2.687" transform="rotate(90 315.403 216.36)"/><ellipse cx="315.403" cy="227.354" fill="#31D0AA" rx="2.498" ry="2.687" transform="rotate(90 315.403 227.354)"/><ellipse cx="304.657" cy="216.36" fill="#31D0AA" rx="2.498" ry="2.687" transform="rotate(90 304.657 216.36)"/><ellipse cx="304.657" cy="227.354" fill="#31D0AA" rx="2.498" ry="2.687" transform="rotate(90 304.657 227.354)"/><ellipse cx="54.269" cy="18.489" fill="#31D0AA" rx="2.498" ry="2.687" transform="rotate(90 54.2688 18.4886)"/><ellipse cx="54.269" cy="28.483" fill="#31D0AA" rx="2.498" ry="2.687" transform="rotate(90 54.2688 28.4828)"/><ellipse cx="43.522" cy="18.489" fill="#31D0AA" rx="2.498" ry="2.687" transform="rotate(90 43.5224 18.4886)"/><ellipse cx="43.522" cy="28.483" fill="#31D0AA" rx="2.498" ry="2.687" transform="rotate(90 43.5224 28.4828)"/><ellipse cx="31.702" cy="18.489" fill="#31D0AA" rx="2.498" ry="2.687" transform="rotate(90 31.7016 18.4886)"/><ellipse cx="31.702" cy="28.483" fill="#31D0AA" rx="2.498" ry="2.687" transform="rotate(90 31.7016 28.4828)"/><ellipse cx="20.955" cy="18.489" fill="#31D0AA" rx="2.498" ry="2.687" transform="rotate(90 20.9553 18.4886)"/><ellipse cx="20.955" cy="28.483" fill="#31D0AA" rx="2.498" ry="2.687" transform="rotate(90 20.9553 28.4828)"/><ellipse cx="54.269" cy="39.475" fill="#31D0AA" rx="2.498" ry="2.687" transform="rotate(90 54.2688 39.4749)"/><ellipse cx="54.269" cy="49.469" fill="#31D0AA" rx="2.498" ry="2.687" transform="rotate(90 54.2688 49.4691)"/><ellipse cx="43.522" cy="39.475" fill="#31D0AA" rx="2.498" ry="2.687" transform="rotate(90 43.5224 39.4749)"/><ellipse cx="43.522" cy="49.469" fill="#31D0AA" rx="2.498" ry="2.687" transform="rotate(90 43.5224 49.4691)"/><ellipse cx="31.702" cy="39.475" fill="#31D0AA" rx="2.498" ry="2.687" transform="rotate(90 31.7016 39.4749)"/><ellipse cx="31.702" cy="49.469" fill="#31D0AA" rx="2.498" ry="2.687" transform="rotate(90 31.7016 49.4691)"/><ellipse cx="20.955" cy="39.475" fill="#31D0AA" rx="2.498" ry="2.687" transform="rotate(90 20.9553 39.4749)"/><ellipse cx="20.955" cy="49.469" fill="#31D0AA" rx="2.498" ry="2.687" transform="rotate(90 20.9553 49.4691)"/><ellipse cx="54.269" cy="59.461" fill="#31D0AA" rx="2.498" ry="2.687" transform="rotate(90 54.2688 59.4613)"/><ellipse cx="54.269" cy="70.455" fill="#31D0AA" rx="2.498" ry="2.687" transform="rotate(90 54.2688 70.4554)"/><ellipse cx="43.522" cy="59.461" fill="#31D0AA" rx="2.498" ry="2.687" transform="rotate(90 43.5224 59.4613)"/><ellipse cx="43.522" cy="70.455" fill="#31D0AA" rx="2.498" ry="2.687" transform="rotate(90 43.5224 70.4554)"/><ellipse cx="31.702" cy="59.461" fill="#31D0AA" rx="2.498" ry="2.687" transform="rotate(90 31.7016 59.4613)"/><ellipse cx="31.702" cy="70.455" fill="#31D0AA" rx="2.498" ry="2.687" transform="rotate(90 31.7016 70.4554)"/><ellipse cx="20.955" cy="59.461" fill="#31D0AA" rx="2.498" ry="2.687" transform="rotate(90 20.9553 59.4613)"/><ellipse cx="20.955" cy="70.455" fill="#31D0AA" rx="2.498" ry="2.687" transform="rotate(90 20.9553 70.4554)"/></svg>