<svg width="586" height="560" viewBox="0 0 586 560" fill="none" xmlns="http://www.w3.org/2000/svg">
<path d="M67.4546 434.176H132.184V434.456H67.4546V434.176Z" fill="#E8FFF9"/>
<path d="M207.391 428.307H217.576V428.587H207.391V428.307Z" fill="#E8FFF9"/>
<path d="M135.712 423.783H158.202V424.063H135.712V423.783Z" fill="#E8FFF9"/>
<path d="M482.636 425.664H533.254V425.944H482.636V425.664Z" fill="#E8FFF9"/>
<path d="M288.787 432.898H342.371V433.178H288.787V432.898Z" fill="#E8FFF9"/>
<path d="M320.325 428.16H430.118V428.44H320.325V428.16Z" fill="#E8FFF9"/>
<path d="M114.897 416.154H143.084C143.084 414.632 142.452 413.172 141.327 412.095C140.202 411.018 138.676 410.411 137.083 410.408H120.898C119.305 410.411 117.779 411.018 116.654 412.095C115.529 413.172 114.897 414.632 114.897 416.154Z" fill="#F0F0F0"/>
<path d="M305.195 295.117C305.914 295.117 306.628 295.14 307.339 295.184C311.853 295.489 316.24 296.744 320.185 298.859C324.131 300.974 327.539 303.898 330.163 307.419C332.788 310.941 334.565 314.974 335.366 319.23C336.168 323.485 335.974 327.857 334.799 332.032C331.45 344.495 329.835 357.325 329.994 370.191V407.666C329.994 408.97 329.452 410.221 328.487 411.143C327.522 412.065 326.214 412.583 324.849 412.583H240.465V295.117H305.195Z" fill="#F0F0F0"/>
<path d="M515.006 88.4766H540.697V416.155H515.006V88.4766Z" fill="#E6E6E6"/>
<path d="M515.018 416.154H289.56L289.56 88.4759H515.018V416.154Z" fill="#F5F5F5"/>
<path d="M293.768 416.156V93.3047L510.799 93.3047V416.156H293.768Z" fill="#E6E6E6"/>
<path d="M492.633 416.156V93.3047H510.799V416.156H492.633Z" fill="#E0E0E0"/>
<path d="M291.482 358.599V353.783H510.799V358.599H291.482Z" fill="#F5F5F5"/>
<path d="M291.482 290.951V286.135H510.799V290.951H291.482Z" fill="#F5F5F5"/>
<path d="M291.482 223.314V218.486H510.799V223.314H291.482Z" fill="#F5F5F5"/>
<path d="M291.482 155.654V150.838H510.799V155.654H291.482Z" fill="#F5F5F5"/>
<path d="M491.461 150.85H458.844V104.896H491.461V150.85Z" fill="#FAFAFA"/>
<path d="M455.375 104.885H461.633C462.617 104.885 463.415 105.647 463.415 106.587V149.136C463.415 150.076 462.617 150.838 461.633 150.838H455.375C454.391 150.838 453.594 150.076 453.594 149.136V106.587C453.594 105.647 454.391 104.885 455.375 104.885Z" fill="#F0F0F0"/>
<path d="M502.454 150.85H469.837V104.896H502.454V150.85Z" fill="#FAFAFA"/>
<path d="M466.345 104.885H472.603C473.587 104.885 474.385 105.647 474.385 106.587V149.136C474.385 150.076 473.587 150.838 472.603 150.838H466.345C465.361 150.838 464.563 150.076 464.563 149.136V106.587C464.563 105.647 465.361 104.885 466.345 104.885Z" fill="#E6E6E6"/>
<path d="M510.799 104.885H482.647L484.886 150.85H510.799V104.885Z" fill="#FAFAFA"/>
<path d="M479.014 104.885H485.589C486.068 104.93 486.511 105.147 486.828 105.492C487.146 105.837 487.314 106.285 487.3 106.744L489.363 148.99C489.394 149.209 489.379 149.432 489.318 149.645C489.257 149.859 489.151 150.058 489.008 150.231C488.865 150.405 488.687 150.549 488.484 150.655C488.281 150.761 488.058 150.828 487.828 150.85H481.253C480.776 150.799 480.337 150.581 480.02 150.237C479.704 149.893 479.533 149.448 479.542 148.99L477.479 106.744C477.446 106.525 477.46 106.301 477.521 106.088C477.581 105.874 477.686 105.674 477.83 105.5C477.973 105.326 478.152 105.182 478.356 105.076C478.56 104.97 478.783 104.905 479.014 104.885Z" fill="#F0F0F0"/>
<path d="M340.624 150.838H315.895V112.041H340.624V150.838Z" fill="#FAFAFA"/>
<path d="M313.328 112.053H317.934C318.718 112.053 319.352 112.659 319.352 113.408V149.494C319.352 150.243 318.718 150.85 317.934 150.85H313.328C312.545 150.85 311.91 150.243 311.91 149.494V113.408C311.91 112.659 312.545 112.053 313.328 112.053Z" fill="#F0F0F0"/>
<path d="M348.957 150.838H324.228V112.041H348.957V150.838Z" fill="#FAFAFA"/>
<path d="M321.65 112.053H326.256C327.039 112.053 327.674 112.659 327.674 113.408V149.494C327.674 150.243 327.039 150.85 326.256 150.85H321.65C320.866 150.85 320.231 150.243 320.231 149.494V113.408C320.231 112.659 320.866 112.053 321.65 112.053Z" fill="#E6E6E6"/>
<path d="M355.286 112.053H333.944L335.643 150.85H355.286V112.053Z" fill="#FAFAFA"/>
<path d="M331.19 112.053H336.171C336.85 112.053 337.425 112.758 337.472 113.621L339.03 149.282C339.03 150.144 338.55 150.85 337.858 150.85H332.866C332.186 150.85 331.612 150.144 331.576 149.282L330.006 113.621C329.983 112.758 330.51 112.053 331.19 112.053Z" fill="#F0F0F0"/>
<path d="M372.514 150.838H347.785V112.041H372.514V150.838Z" fill="#FAFAFA"/>
<path d="M345.219 112.053H349.825C350.608 112.053 351.243 112.659 351.243 113.408V149.494C351.243 150.243 350.608 150.85 349.825 150.85H345.219C344.436 150.85 343.801 150.243 343.801 149.494V113.408C343.801 112.659 344.436 112.053 345.219 112.053Z" fill="#F0F0F0"/>
<path d="M380.836 150.838H356.107V112.041H380.836V150.838Z" fill="#FAFAFA"/>
<path d="M353.54 112.053H358.146C358.929 112.053 359.564 112.659 359.564 113.408V149.494C359.564 150.243 358.929 150.85 358.146 150.85H353.54C352.756 150.85 352.122 150.243 352.122 149.494V113.408C352.122 112.659 352.756 112.053 353.54 112.053Z" fill="#E6E6E6"/>
<path d="M387.165 112.053H365.834L367.522 150.85H387.165V112.053Z" fill="#FAFAFA"/>
<path d="M363.068 112.053H368.061C368.741 112.053 369.315 112.758 369.35 113.621L370.885 149.282C370.885 150.144 370.393 150.85 369.713 150.85H364.732C364.053 150.85 363.478 150.144 363.431 149.282L361.873 113.621C361.873 112.758 362.388 112.053 363.068 112.053Z" fill="#F0F0F0"/>
<path d="M419.102 150.85H401.861V109.152H419.102V150.85Z" fill="#FAFAFA"/>
<path d="M400.303 109.141H403.033C403.713 109.141 404.264 109.667 404.264 110.317V149.662C404.264 150.312 403.713 150.838 403.033 150.838H400.303C399.623 150.838 399.072 150.312 399.072 149.662V110.317C399.072 109.667 399.623 109.141 400.303 109.141Z" fill="#F0F0F0"/>
<path d="M433.459 150.85H414.46V104.896H433.459V150.85Z" fill="#FAFAFA"/>
<path d="M412.749 104.885H415.75C416.5 104.885 417.109 105.466 417.109 106.184V149.539C417.109 150.257 416.5 150.838 415.75 150.838H412.749C411.998 150.838 411.39 150.257 411.39 149.539V106.184C411.39 105.466 411.998 104.885 412.749 104.885Z" fill="#F5F5F5"/>
<path d="M438.322 104.885H421.926L423.227 150.85H438.322V104.885Z" fill="#FAFAFA"/>
<path d="M419.805 104.885H423.625C424.141 104.885 424.598 105.714 424.622 106.744L425.794 148.99C425.794 150.01 425.43 150.85 424.903 150.85H421.07C420.555 150.85 420.109 150.01 420.074 148.99L418.902 106.744C418.937 105.714 419.289 104.885 419.805 104.885Z" fill="#F0F0F0"/>
<path d="M404.627 218.498H372.01V172.544H404.627V218.498Z" fill="#FAFAFA"/>
<path d="M368.53 172.533H374.788C375.772 172.533 376.57 173.295 376.57 174.236V216.784C376.57 217.725 375.772 218.487 374.788 218.487H368.53C367.546 218.487 366.748 217.725 366.748 216.784V174.236C366.748 173.295 367.546 172.533 368.53 172.533Z" fill="#F0F0F0"/>
<path d="M415.597 218.498H382.98V172.544H415.597V218.498Z" fill="#FAFAFA"/>
<path d="M379.511 172.533H385.77C386.754 172.533 387.551 173.295 387.551 174.236V216.784C387.551 217.725 386.754 218.487 385.77 218.487H379.511C378.528 218.487 377.73 217.725 377.73 216.784V174.236C377.73 173.295 378.528 172.533 379.511 172.533Z" fill="#E6E6E6"/>
<path d="M423.953 172.533H395.814L398.052 218.498H423.953V172.533Z" fill="#FAFAFA"/>
<path d="M392.169 172.533H398.744C399.222 172.578 399.665 172.795 399.983 173.141C400.3 173.486 400.469 173.933 400.455 174.392L402.529 216.639C402.562 216.858 402.548 217.081 402.488 217.295C402.427 217.509 402.322 217.709 402.179 217.883C402.035 218.057 401.856 218.201 401.652 218.307C401.449 218.412 401.225 218.477 400.994 218.498H394.419C393.943 218.448 393.503 218.229 393.187 217.885C392.87 217.541 392.699 217.097 392.708 216.639L390.657 174.392C390.623 174.175 390.635 173.952 390.693 173.739C390.751 173.526 390.854 173.327 390.995 173.153C391.137 172.979 391.314 172.834 391.516 172.728C391.717 172.621 391.94 172.555 392.169 172.533Z" fill="#F0F0F0"/>
<path d="M354.63 218.486H334.647V179.69H354.63V218.486Z" fill="#FAFAFA"/>
<path d="M332.702 179.701H336.159C336.865 179.701 337.436 180.248 337.436 180.922V217.277C337.436 217.951 336.865 218.498 336.159 218.498H332.702C331.996 218.498 331.424 217.951 331.424 217.277V180.922C331.424 180.248 331.996 179.701 332.702 179.701Z" fill="#F0F0F0"/>
<path d="M361.357 218.486H341.374V179.69H361.357V218.486Z" fill="#FAFAFA"/>
<path d="M339.429 179.701H342.886C343.592 179.701 344.164 180.248 344.164 180.922V217.277C344.164 217.951 343.592 218.498 342.886 218.498H339.429C338.724 218.498 338.152 217.951 338.152 217.277V180.922C338.152 180.248 338.724 179.701 339.429 179.701Z" fill="#E6E6E6"/>
<path d="M366.479 179.701H349.227L350.598 218.498H366.479V179.701Z" fill="#FAFAFA"/>
<path d="M347 179.701H351.032C351.583 179.701 352.051 180.407 352.075 181.269L353.305 216.93C353.305 217.792 352.919 218.498 352.368 218.498H348.336C347.785 218.498 347.317 217.792 347.293 216.93L346.027 181.269C346.027 180.407 346.449 179.701 347 179.701Z" fill="#F0F0F0"/>
<path d="M321.286 218.498H304.738V186.365H321.286V218.498Z" fill="#FAFAFA"/>
<path d="M303.132 186.354H306.003C306.586 186.354 307.058 186.805 307.058 187.362V217.478C307.058 218.035 306.586 218.486 306.003 218.486H303.132C302.55 218.486 302.077 218.035 302.077 217.478V187.362C302.077 186.805 302.55 186.354 303.132 186.354Z" fill="#F0F0F0"/>
<path d="M326.865 218.498H310.316V186.365H326.865V218.498Z" fill="#FAFAFA"/>
<path d="M308.699 186.354H311.571C312.153 186.354 312.625 186.805 312.625 187.362V217.478C312.625 218.035 312.153 218.486 311.571 218.486H308.699C308.117 218.486 307.644 218.035 307.644 217.478V187.362C307.644 186.805 308.117 186.354 308.699 186.354Z" fill="#E6E6E6"/>
<path d="M331.108 186.354H316.821L317.958 218.498H331.108V186.354Z" fill="#FAFAFA"/>
<path d="M314.969 186.354H318.309C318.767 186.354 319.153 186.936 319.177 187.653L320.22 217.198C320.22 217.915 319.903 218.498 319.446 218.498H316.106C315.661 218.498 315.262 217.915 315.239 217.198L314.196 187.653C314.172 186.936 314.524 186.354 314.969 186.354Z" fill="#F0F0F0"/>
<path d="M456.91 218.486H432.181V179.69H456.91V218.486Z" fill="#FAFAFA"/>
<path d="M429.603 179.701H434.209C434.992 179.701 435.627 180.308 435.627 181.056V217.143C435.627 217.891 434.992 218.498 434.209 218.498H429.603C428.82 218.498 428.185 217.891 428.185 217.143V181.056C428.185 180.308 428.82 179.701 429.603 179.701Z" fill="#F0F0F0"/>
<path d="M465.22 218.486H440.491V179.69H465.22V218.486Z" fill="#FAFAFA"/>
<path d="M437.936 179.701H442.542C443.325 179.701 443.96 180.308 443.96 181.056V217.143C443.96 217.891 443.325 218.498 442.542 218.498H437.936C437.152 218.498 436.517 217.891 436.517 217.143V181.056C436.517 180.308 437.152 179.701 437.936 179.701Z" fill="#E6E6E6"/>
<path d="M471.56 179.701H450.218L451.917 218.498H471.56V179.701Z" fill="#FAFAFA"/>
<path d="M447.464 179.701H452.445C452.827 179.762 453.171 179.956 453.412 180.245C453.652 180.535 453.771 180.9 453.746 181.269L455.269 216.93C455.269 217.792 454.789 218.498 454.097 218.498H449.116C448.735 218.438 448.39 218.244 448.149 217.954C447.909 217.664 447.79 217.299 447.815 216.93L446.257 181.269C446.257 180.407 446.784 179.701 447.464 179.701Z" fill="#F0F0F0"/>
<path d="M491.578 218.498H474.338V176.8H491.578V218.498Z" fill="#FAFAFA"/>
<path d="M472.791 176.789H475.522C476.201 176.789 476.752 177.316 476.752 177.965V217.311C476.752 217.96 476.201 218.487 475.522 218.487H472.791C472.111 218.487 471.56 217.96 471.56 217.311V177.965C471.56 177.316 472.111 176.789 472.791 176.789Z" fill="#F0F0F0"/>
<path d="M505.935 218.498H486.937V172.544H505.935V218.498Z" fill="#FAFAFA"/>
<path d="M485.237 172.533H488.238C488.989 172.533 489.597 173.115 489.597 173.832V217.188C489.597 217.905 488.989 218.487 488.238 218.487H485.237C484.487 218.487 483.878 217.905 483.878 217.188V173.832C483.878 173.115 484.487 172.533 485.237 172.533Z" fill="#F5F5F5"/>
<path d="M510.799 172.533H494.402L495.703 218.498H510.799V172.533Z" fill="#FAFAFA"/>
<path d="M492.281 172.533H496.114C496.641 172.533 497.086 173.362 497.11 174.392L498.282 216.639C498.282 217.658 497.907 218.498 497.379 218.498H493.594C493.066 218.498 492.621 217.658 492.598 216.639L491.426 174.392C491.367 173.362 491.766 172.533 492.281 172.533Z" fill="#F0F0F0"/>
<path d="M491.461 286.145H458.844V240.191H491.461V286.145Z" fill="#FAFAFA"/>
<path d="M455.375 240.18H461.633C462.617 240.18 463.415 240.942 463.415 241.882V284.431C463.415 285.371 462.617 286.133 461.633 286.133H455.375C454.391 286.133 453.594 285.371 453.594 284.431V241.882C453.594 240.942 454.391 240.18 455.375 240.18Z" fill="#F0F0F0"/>
<path d="M502.454 286.145H469.837V240.191H502.454V286.145Z" fill="#FAFAFA"/>
<path d="M466.345 240.18H472.603C473.587 240.18 474.385 240.942 474.385 241.882V284.431C474.385 285.371 473.587 286.133 472.603 286.133H466.345C465.361 286.133 464.563 285.371 464.563 284.431V241.882C464.563 240.942 465.361 240.18 466.345 240.18Z" fill="#E6E6E6"/>
<path d="M510.799 240.18H482.647L484.886 286.145H510.799V240.18Z" fill="#FAFAFA"/>
<path d="M479.014 240.18H485.589C486.068 240.225 486.511 240.442 486.828 240.787C487.146 241.132 487.314 241.58 487.3 242.039L489.363 284.285C489.394 284.504 489.379 284.727 489.318 284.94C489.257 285.153 489.151 285.353 489.008 285.526C488.865 285.7 488.687 285.844 488.484 285.95C488.281 286.056 488.058 286.122 487.828 286.145H481.253C480.776 286.094 480.337 285.876 480.02 285.532C479.704 285.188 479.533 284.743 479.542 284.285L477.479 242.039C477.446 241.82 477.46 241.596 477.521 241.382C477.581 241.169 477.686 240.969 477.83 240.795C477.973 240.621 478.152 240.477 478.356 240.371C478.56 240.265 478.783 240.2 479.014 240.18Z" fill="#F0F0F0"/>
<path d="M340.624 286.135H315.895V247.338H340.624V286.135Z" fill="#FAFAFA"/>
<path d="M313.328 247.348H317.934C318.718 247.348 319.352 247.954 319.352 248.703V284.789C319.352 285.538 318.718 286.144 317.934 286.144H313.328C312.545 286.144 311.91 285.538 311.91 284.789V248.703C311.91 247.954 312.545 247.348 313.328 247.348Z" fill="#F0F0F0"/>
<path d="M348.957 286.135H324.228V247.338H348.957V286.135Z" fill="#FAFAFA"/>
<path d="M321.65 247.348H326.256C327.039 247.348 327.674 247.954 327.674 248.703V284.789C327.674 285.538 327.039 286.144 326.256 286.144H321.65C320.866 286.144 320.231 285.538 320.231 284.789V248.703C320.231 247.954 320.866 247.348 321.65 247.348Z" fill="#E6E6E6"/>
<path d="M355.286 247.348H333.944L335.643 286.144H355.286V247.348Z" fill="#FAFAFA"/>
<path d="M331.19 247.348H336.171C336.85 247.348 337.425 248.053 337.472 248.916L339.03 284.576C339.03 285.439 338.55 286.144 337.858 286.144H332.866C332.186 286.144 331.612 285.439 331.576 284.576L330.006 248.916C329.983 248.053 330.51 247.348 331.19 247.348Z" fill="#F0F0F0"/>
<path d="M372.514 286.135H347.785V247.338H372.514V286.135Z" fill="#FAFAFA"/>
<path d="M345.219 247.348H349.825C350.608 247.348 351.243 247.954 351.243 248.703V284.789C351.243 285.538 350.608 286.144 349.825 286.144H345.219C344.436 286.144 343.801 285.538 343.801 284.789V248.703C343.801 247.954 344.436 247.348 345.219 247.348Z" fill="#F0F0F0"/>
<path d="M380.836 286.135H356.107V247.338H380.836V286.135Z" fill="#FAFAFA"/>
<path d="M353.54 247.348H358.146C358.929 247.348 359.564 247.954 359.564 248.703V284.789C359.564 285.538 358.929 286.144 358.146 286.144H353.54C352.756 286.144 352.122 285.538 352.122 284.789V248.703C352.122 247.954 352.756 247.348 353.54 247.348Z" fill="#E6E6E6"/>
<path d="M387.165 247.348H365.834L367.522 286.144H387.165V247.348Z" fill="#FAFAFA"/>
<path d="M363.068 247.348H368.061C368.741 247.348 369.315 248.053 369.35 248.916L370.885 284.576C370.885 285.439 370.393 286.144 369.713 286.144H364.732C364.053 286.144 363.478 285.439 363.431 284.576L361.873 248.916C361.873 248.053 362.388 247.348 363.068 247.348Z" fill="#F0F0F0"/>
<path d="M419.102 286.145H401.861V244.447H419.102V286.145Z" fill="#FAFAFA"/>
<path d="M400.303 244.436H403.033C403.713 244.436 404.264 244.962 404.264 245.612V284.957C404.264 285.607 403.713 286.133 403.033 286.133H400.303C399.623 286.133 399.072 285.607 399.072 284.957V245.612C399.072 244.962 399.623 244.436 400.303 244.436Z" fill="#F0F0F0"/>
<path d="M433.459 286.145H414.46V240.191H433.459V286.145Z" fill="#FAFAFA"/>
<path d="M412.749 240.18H415.75C416.5 240.18 417.109 240.761 417.109 241.479V284.834C417.109 285.552 416.5 286.133 415.75 286.133H412.749C411.998 286.133 411.39 285.552 411.39 284.834V241.479C411.39 240.761 411.998 240.18 412.749 240.18Z" fill="#F5F5F5"/>
<path d="M438.322 240.18H421.926L423.227 286.145H438.322V240.18Z" fill="#FAFAFA"/>
<path d="M419.805 240.18H423.625C424.141 240.18 424.598 241.008 424.622 242.039L425.794 284.285C425.794 285.304 425.43 286.145 424.903 286.145H421.07C420.555 286.145 420.109 285.304 420.074 284.285L418.902 242.039C418.937 240.986 419.289 240.18 419.805 240.18Z" fill="#F0F0F0"/>
<path d="M498.423 416.154H477.526V370.201H498.423V416.154Z" fill="#FAFAFA"/>
<path d="M475.568 370.189H479.026C479.809 370.189 480.444 370.796 480.444 371.545V414.788C480.444 415.536 479.809 416.143 479.026 416.143H475.568C474.785 416.143 474.15 415.536 474.15 414.788V371.545C474.15 370.796 474.785 370.189 475.568 370.189Z" fill="#F0F0F0"/>
<path d="M505.443 416.154H484.546V370.201H505.443V416.154Z" fill="#FAFAFA"/>
<path d="M482.6 370.189H486.058C486.841 370.189 487.476 370.796 487.476 371.545V414.788C487.476 415.536 486.841 416.143 486.058 416.143H482.6C481.817 416.143 481.182 415.536 481.182 414.788V371.545C481.182 370.796 481.817 370.189 482.6 370.189Z" fill="#E6E6E6"/>
<path d="M510.799 370.201H492.773L494.203 416.155H510.799V370.201Z" fill="#FAFAFA"/>
<path d="M490.429 370.189H494.649C495.223 370.189 495.715 371.029 495.75 372.049L497.063 414.295C497.063 415.325 496.653 416.154 496.079 416.154H491.871C491.297 416.154 490.805 415.325 490.769 414.295L489.457 372.026C489.422 371.029 489.867 370.189 490.429 370.189Z" fill="#F0F0F0"/>
<path d="M323.583 416.154H301.796V377.358H323.583V416.154Z" fill="#FAFAFA"/>
<path d="M299.616 377.357H303.507C304.245 377.357 304.843 377.929 304.843 378.634V414.877C304.843 415.583 304.245 416.154 303.507 416.154H299.616C298.878 416.154 298.28 415.583 298.28 414.877V378.634C298.28 377.929 298.878 377.357 299.616 377.357Z" fill="#F0F0F0"/>
<path d="M330.92 416.154H309.133V377.358H330.92V416.154Z" fill="#FAFAFA"/>
<path d="M306.953 377.357H310.844C311.582 377.357 312.18 377.929 312.18 378.634V414.877C312.18 415.583 311.582 416.154 310.844 416.154H306.953C306.215 416.154 305.617 415.583 305.617 414.877V378.634C305.617 377.929 306.215 377.357 306.953 377.357Z" fill="#E6E6E6"/>
<path d="M336.499 377.357H317.7L319.2 416.154H336.499V377.357Z" fill="#FAFAFA"/>
<path d="M315.262 377.357H319.657C320.255 377.357 320.829 378.063 320.829 378.925L322.177 414.586C322.177 415.449 321.755 416.154 321.157 416.154H316.762C316.165 416.154 315.649 415.449 315.59 414.586L314.219 378.925C314.207 378.063 314.629 377.357 315.262 377.357Z" fill="#F0F0F0"/>
<path d="M351.688 416.154H329.9V377.358H351.688V416.154Z" fill="#FAFAFA"/>
<path d="M327.721 377.357H331.612C332.349 377.357 332.948 377.929 332.948 378.634V414.877C332.948 415.583 332.349 416.154 331.612 416.154H327.721C326.983 416.154 326.384 415.583 326.384 414.877V378.634C326.384 377.929 326.983 377.357 327.721 377.357Z" fill="#F0F0F0"/>
<path d="M359.025 416.154H337.237V377.358H359.025V416.154Z" fill="#FAFAFA"/>
<path d="M335.057 377.357H338.948C339.686 377.357 340.285 377.929 340.285 378.634V414.877C340.285 415.583 339.686 416.154 338.948 416.154H335.057C334.32 416.154 333.721 415.583 333.721 414.877V378.634C333.721 377.929 334.32 377.357 335.057 377.357Z" fill="#E6E6E6"/>
<path d="M364.604 377.357H345.805L347.293 416.154H364.604V377.357Z" fill="#FAFAFA"/>
<path d="M343.367 377.357H347.762C348.359 377.357 348.875 378.063 348.934 378.925L350.282 414.586C350.282 415.449 349.86 416.154 349.262 416.154H344.867C344.269 416.154 343.695 415.449 343.695 414.586L342.324 378.925C342.312 378.063 342.757 377.357 343.367 377.357Z" fill="#F0F0F0"/>
<path d="M374.061 416.154H358.872V374.457H374.061V416.154Z" fill="#FAFAFA"/>
<path d="M359.833 374.457H357.571C357.261 374.457 356.962 374.575 356.743 374.785C356.523 374.995 356.399 375.28 356.399 375.577V415.068C356.399 415.365 356.523 415.65 356.743 415.86C356.962 416.07 357.261 416.188 357.571 416.188H359.833C360.144 416.188 360.442 416.07 360.662 415.86C360.882 415.65 361.005 415.365 361.005 415.068V375.555C360.999 375.261 360.873 374.982 360.654 374.777C360.435 374.572 360.14 374.457 359.833 374.457Z" fill="#F0F0F0"/>
<path d="M386.707 416.154H369.971V370.201H386.707V416.154Z" fill="#FAFAFA"/>
<path d="M368.553 370.189H371.038C371.743 370.189 372.315 370.736 372.315 371.41V414.922C372.315 415.597 371.743 416.143 371.038 416.143H368.553C367.848 416.143 367.276 415.597 367.276 414.922V371.41C367.276 370.736 367.848 370.189 368.553 370.189Z" fill="#F5F5F5"/>
<path d="M390.997 370.201H376.546L377.695 416.155H390.997V370.201Z" fill="#FAFAFA"/>
<path d="M374.683 370.189H378.058C378.515 370.189 378.914 371.029 378.937 372.049L379.992 414.295C379.992 415.325 379.664 416.154 379.207 416.154H375.831C375.374 416.154 374.976 415.325 374.952 414.295L373.897 372.049C373.874 371.029 374.226 370.189 374.683 370.189Z" fill="#F0F0F0"/>
<path d="M404.627 353.793H372.01V307.839H404.627V353.793Z" fill="#FAFAFA"/>
<path d="M368.53 307.828H374.788C375.772 307.828 376.57 308.59 376.57 309.531V352.079C376.57 353.02 375.772 353.782 374.788 353.782H368.53C367.546 353.782 366.748 353.02 366.748 352.079V309.531C366.748 308.59 367.546 307.828 368.53 307.828Z" fill="#F0F0F0"/>
<path d="M415.597 353.793H382.98V307.839H415.597V353.793Z" fill="#FAFAFA"/>
<path d="M379.511 307.828H385.77C386.754 307.828 387.551 308.59 387.551 309.531V352.079C387.551 353.02 386.754 353.782 385.77 353.782H379.511C378.528 353.782 377.73 353.02 377.73 352.079V309.531C377.73 308.59 378.528 307.828 379.511 307.828Z" fill="#E6E6E6"/>
<path d="M423.953 307.828H395.814L398.052 353.793H423.953V307.828Z" fill="#FAFAFA"/>
<path d="M392.169 307.828H398.744C399.221 307.876 399.663 308.094 399.98 308.438C400.297 308.783 400.466 309.229 400.455 309.687L402.529 351.934C402.562 352.153 402.548 352.376 402.488 352.59C402.427 352.804 402.322 353.004 402.179 353.178C402.035 353.352 401.856 353.496 401.652 353.602C401.449 353.707 401.225 353.772 400.994 353.793H394.419C393.943 353.743 393.503 353.524 393.186 353.18C392.87 352.836 392.699 352.392 392.708 351.934L390.657 309.687C390.624 309.47 390.638 309.248 390.696 309.036C390.755 308.823 390.858 308.624 391 308.451C391.141 308.277 391.317 308.133 391.518 308.026C391.719 307.919 391.94 307.851 392.169 307.828Z" fill="#F0F0F0"/>
<path d="M354.63 353.783H334.647V314.986H354.63V353.783Z" fill="#FAFAFA"/>
<path d="M332.702 314.996H336.159C336.865 314.996 337.436 315.543 337.436 316.217V352.572C337.436 353.246 336.865 353.793 336.159 353.793H332.702C331.996 353.793 331.424 353.246 331.424 352.572V316.217C331.424 315.543 331.996 314.996 332.702 314.996Z" fill="#F0F0F0"/>
<path d="M361.357 353.783H341.374V314.986H361.357V353.783Z" fill="#FAFAFA"/>
<path d="M339.429 314.996H342.886C343.592 314.996 344.164 315.543 344.164 316.217V352.572C344.164 353.246 343.592 353.793 342.886 353.793H339.429C338.724 353.793 338.152 353.246 338.152 352.572V316.217C338.152 315.543 338.724 314.996 339.429 314.996Z" fill="#E6E6E6"/>
<path d="M366.479 314.996H349.227L350.598 353.793H366.479V314.996Z" fill="#FAFAFA"/>
<path d="M347 314.996H351.032C351.583 314.996 352.051 315.702 352.075 316.564L353.305 352.225C353.305 353.087 352.919 353.793 352.368 353.793H348.336C347.785 353.793 347.317 353.087 347.293 352.225L346.027 316.564C346.027 315.702 346.449 314.996 347 314.996Z" fill="#F0F0F0"/>
<path d="M321.286 353.793H304.738V321.66H321.286V353.793Z" fill="#FAFAFA"/>
<path d="M303.132 321.648H306.003C306.586 321.648 307.058 322.1 307.058 322.656V352.773C307.058 353.33 306.586 353.781 306.003 353.781H303.132C302.55 353.781 302.077 353.33 302.077 352.773V322.656C302.077 322.1 302.55 321.648 303.132 321.648Z" fill="#F0F0F0"/>
<path d="M326.865 353.793H310.316V321.66H326.865V353.793Z" fill="#FAFAFA"/>
<path d="M308.699 321.648H311.571C312.153 321.648 312.625 322.1 312.625 322.656V352.773C312.625 353.33 312.153 353.781 311.571 353.781H308.699C308.117 353.781 307.644 353.33 307.644 352.773V322.656C307.644 322.1 308.117 321.648 308.699 321.648Z" fill="#E6E6E6"/>
<path d="M331.108 321.648H316.821L317.958 353.792H331.108V321.648Z" fill="#FAFAFA"/>
<path d="M314.969 321.627H318.309C318.767 321.627 319.153 322.209 319.177 322.926L320.22 352.472C320.22 353.189 319.903 353.771 319.446 353.771H316.106C315.661 353.771 315.262 353.189 315.239 352.472L314.196 322.926C314.172 322.232 314.524 321.627 314.969 321.627Z" fill="#F0F0F0"/>
<path d="M456.91 353.783H432.181V314.986H456.91V353.783Z" fill="#FAFAFA"/>
<path d="M429.603 314.996H434.209C434.992 314.996 435.627 315.603 435.627 316.351V352.438C435.627 353.186 434.992 353.793 434.209 353.793H429.603C428.82 353.793 428.185 353.186 428.185 352.438V316.351C428.185 315.603 428.82 314.996 429.603 314.996Z" fill="#F0F0F0"/>
<path d="M465.22 353.783H440.491V314.986H465.22V353.783Z" fill="#FAFAFA"/>
<path d="M437.936 314.996H442.542C443.325 314.996 443.96 315.603 443.96 316.351V352.438C443.96 353.186 443.325 353.793 442.542 353.793H437.936C437.152 353.793 436.517 353.186 436.517 352.438V316.351C436.517 315.603 437.152 314.996 437.936 314.996Z" fill="#E6E6E6"/>
<path d="M471.56 314.996H450.218L451.917 353.793H471.56V314.996Z" fill="#FAFAFA"/>
<path d="M447.464 314.996H452.445C452.827 315.056 453.171 315.25 453.412 315.54C453.652 315.83 453.771 316.195 453.746 316.564L455.269 352.225C455.269 353.087 454.789 353.793 454.097 353.793H449.116C448.735 353.733 448.39 353.539 448.149 353.249C447.909 352.959 447.79 352.594 447.815 352.225L446.257 316.564C446.257 315.702 446.784 314.996 447.464 314.996Z" fill="#F0F0F0"/>
<path d="M491.578 353.793H474.338V312.095H491.578V353.793Z" fill="#FAFAFA"/>
<path d="M472.791 312.084H475.522C476.201 312.084 476.752 312.61 476.752 313.26V352.606C476.752 353.255 476.201 353.782 475.522 353.782H472.791C472.111 353.782 471.56 353.255 471.56 352.606V313.26C471.56 312.61 472.111 312.084 472.791 312.084Z" fill="#F0F0F0"/>
<path d="M505.935 353.793H486.937V307.839H505.935V353.793Z" fill="#FAFAFA"/>
<path d="M485.237 307.828H488.238C488.989 307.828 489.597 308.41 489.597 309.127V352.483C489.597 353.2 488.989 353.782 488.238 353.782H485.237C484.487 353.782 483.878 353.2 483.878 352.483V309.127C483.878 308.41 484.487 307.828 485.237 307.828Z" fill="#F5F5F5"/>
<path d="M510.799 307.828H494.402L495.703 353.793H510.799V307.828Z" fill="#FAFAFA"/>
<path d="M492.281 307.828H496.114C496.641 307.828 497.086 308.668 497.11 309.687L498.282 351.934C498.282 352.953 497.907 353.793 497.379 353.793H493.594C493.066 353.793 492.621 352.953 492.598 351.934L491.426 309.687C491.367 308.668 491.766 307.828 492.281 307.828Z" fill="#F0F0F0"/>
<path d="M413.851 416.154H389.672V366.516H413.851V416.154Z" fill="#FAFAFA"/>
<path d="M387.364 366.516H391.454C392.334 366.516 393.048 367.198 393.048 368.039V414.631C393.048 415.472 392.334 416.154 391.454 416.154H387.364C386.484 416.154 385.77 415.472 385.77 414.631V368.039C385.77 367.198 386.484 366.516 387.364 366.516Z" fill="#F0F0F0"/>
<path d="M421.985 416.154H397.806V366.516H421.985V416.154Z" fill="#FAFAFA"/>
<path d="M395.509 366.516H399.599C400.48 366.516 401.193 367.198 401.193 368.039V414.631C401.193 415.472 400.48 416.154 399.599 416.154H395.509C394.629 416.154 393.915 415.472 393.915 414.631V368.039C393.915 367.198 394.629 366.516 395.509 366.516Z" fill="#E6E6E6"/>
<path d="M428.185 366.516H407.323L408.975 416.154H428.185V366.516Z" fill="#FAFAFA"/>
<path d="M404.616 366.516H409.491C410.159 366.516 410.733 367.412 410.769 368.52L412.292 414.149C412.292 415.269 411.823 416.154 411.12 416.154H406.245C405.577 416.154 405.073 415.258 404.979 414.149L403.455 368.52C403.444 367.412 403.959 366.516 404.616 366.516Z" fill="#F0F0F0"/>
<path d="M449.902 416.154H429.005V372.945H449.902V416.154Z" fill="#FAFAFA"/>
<path d="M427.013 372.945H430.54C431.304 372.945 431.923 373.537 431.923 374.267V414.833C431.923 415.563 431.304 416.155 430.54 416.155H427.013C426.249 416.155 425.63 415.563 425.63 414.833V374.267C425.63 373.537 426.249 372.945 427.013 372.945Z" fill="#F0F0F0"/>
<path d="M456.934 416.154H436.037V372.945H456.934V416.154Z" fill="#FAFAFA"/>
<path d="M434.045 372.945H437.572C438.336 372.945 438.955 373.537 438.955 374.267V414.833C438.955 415.563 438.336 416.155 437.572 416.155H434.045C433.281 416.155 432.662 415.563 432.662 414.833V374.267C432.662 373.537 433.281 372.945 434.045 372.945Z" fill="#E6E6E6"/>
<path d="M462.278 372.945H444.253L445.682 416.155H462.278V372.945Z" fill="#FAFAFA"/>
<path d="M441.92 372.945H446.128C446.702 372.945 447.194 373.729 447.229 374.693L448.542 414.408C448.542 415.371 448.143 416.155 447.569 416.155H443.35C442.776 416.155 442.284 415.371 442.26 414.408L440.936 374.693C440.901 373.729 441.346 372.945 441.92 372.945Z" fill="#F0F0F0"/>
<path d="M293 478.867C167.499 478.867 65.7609 473.19 65.7609 466.188C65.7609 459.186 167.499 453.51 293 453.51C418.501 453.51 520.239 459.186 520.239 466.188C520.239 473.19 418.501 478.867 293 478.867Z" fill="#F5F5F5"/>
<path d="M316.288 463.255C316.169 463.6 316.141 463.968 316.204 464.326C316.268 464.684 316.421 465.022 316.652 465.311C316.883 465.6 317.184 465.831 317.528 465.984C317.873 466.137 318.252 466.207 318.632 466.189H481.891C486.989 466.189 486.989 434.46 481.891 434.46H318.585C318.206 434.442 317.829 434.513 317.486 434.665C317.142 434.818 316.842 435.047 316.612 435.335C316.381 435.622 316.227 435.958 316.163 436.315C316.098 436.672 316.125 437.038 316.241 437.383C318.28 443.431 318.28 457.218 316.288 463.255Z" fill="#1FAE8C"/>
<path opacity="0.8" d="M316.522 438.168H415.591C419.494 438.168 419.494 462.483 415.591 462.483H316.522C318.198 456.379 318.198 444.261 316.522 438.168Z" fill="white"/>
<path opacity="0.2" d="M420.525 463.255C420.407 463.6 420.378 463.968 420.442 464.326C420.505 464.684 420.659 465.022 420.89 465.311C421.12 465.6 421.421 465.831 421.766 465.984C422.111 466.137 422.49 466.207 422.869 466.189H481.891C486.989 466.189 486.989 434.46 481.891 434.46H422.822C422.444 434.442 422.067 434.513 421.723 434.665C421.38 434.818 421.08 435.047 420.849 435.335C420.619 435.622 420.465 435.958 420.4 436.315C420.336 436.672 420.363 437.038 420.478 437.383C422.518 443.431 422.518 457.218 420.525 463.255Z" fill="black"/>
<path d="M456.717 434.459H470.206C475.305 434.459 475.305 466.189 470.206 466.189H456.717C461.768 466.189 461.768 434.459 456.717 434.459Z" fill="#1FAE8C"/>
<path d="M446.087 434.459H451.384C456.482 434.459 456.482 466.189 451.384 466.189H446.087C451.22 466.189 451.22 434.459 446.087 434.459Z" fill="#1FAE8C"/>
<path d="M491.408 431.828C491.97 433.127 490.587 434.46 488.712 434.46H341.884C335.895 434.46 335.895 405.934 341.884 405.934H488.724C490.599 405.934 491.982 407.255 491.42 408.566C489.076 413.998 489.076 426.396 491.408 431.828Z" fill="black"/>
<path opacity="0.2" d="M491.408 431.828C491.97 433.127 490.587 434.46 488.712 434.46H416.716C410.727 434.46 410.727 405.934 416.716 405.934H488.724C490.599 405.934 491.982 407.255 491.42 408.566C489.076 413.998 489.076 426.396 491.408 431.828Z" fill="black"/>
<path opacity="0.8" d="M491.15 409.26H419.658C415.075 409.26 415.075 431.122 419.658 431.122H491.15C489.181 425.601 489.181 414.748 491.15 409.26Z" fill="white"/>
<path opacity="0.2" d="M395.913 412.294C396.359 411.029 395.07 409.797 393.288 409.797H352.186C347.826 409.797 347.826 430.584 352.186 430.584H393.288C395.07 430.584 396.359 429.363 395.913 428.098C394.507 422.916 394.507 417.476 395.913 412.294Z" fill="white"/>
<path d="M98.7646 419.093C98.6349 419.472 98.5978 419.874 98.656 420.268C98.7142 420.663 98.8663 421.04 99.1005 421.37C99.3347 421.699 99.6449 421.974 100.007 422.171C100.37 422.369 100.774 422.484 101.191 422.509H273.709C279.1 422.509 279.1 385.549 273.709 385.549H101.191C100.781 385.576 100.383 385.691 100.027 385.885C99.6699 386.079 99.3636 386.347 99.1305 386.67C98.8973 386.993 98.7434 387.362 98.6801 387.75C98.6167 388.137 98.6456 388.533 98.7646 388.909C100.862 396.021 100.862 412.07 98.7646 419.093Z" fill="#1FAE8C"/>
<path opacity="0.5" d="M98.7646 419.093C98.6349 419.472 98.5978 419.874 98.656 420.268C98.7142 420.663 98.8663 421.04 99.1005 421.37C99.3347 421.699 99.6449 421.974 100.007 422.171C100.37 422.369 100.774 422.484 101.191 422.509H273.709C279.1 422.509 279.1 385.549 273.709 385.549H101.191C100.781 385.576 100.383 385.691 100.027 385.885C99.6699 386.079 99.3636 386.347 99.1305 386.67C98.8973 386.993 98.7434 387.362 98.6801 387.75C98.6167 388.137 98.6456 388.533 98.7646 388.909C100.862 396.021 100.862 412.07 98.7646 419.093Z" fill="white"/>
<path opacity="0.8" d="M98.9988 389.896H203.67C207.796 389.896 207.796 418.188 203.67 418.188H98.9988C100.792 411.098 100.792 396.997 98.9988 389.896Z" fill="white"/>
<path opacity="0.6" d="M208.886 419.093C208.756 419.472 208.719 419.874 208.777 420.268C208.835 420.663 208.987 421.04 209.222 421.37C209.456 421.699 209.766 421.974 210.128 422.171C210.491 422.369 210.896 422.484 211.312 422.509H273.709C279.1 422.509 279.1 385.549 273.709 385.549H211.312C210.902 385.576 210.504 385.691 210.148 385.885C209.791 386.079 209.485 386.347 209.252 386.67C209.018 386.993 208.865 387.362 208.801 387.75C208.738 388.137 208.767 388.533 208.886 388.909C210.96 396.021 210.96 412.07 208.886 419.093Z" fill="#1FAE8C"/>
<path opacity="0.5" d="M234.201 388.317C234.078 388.027 234.029 387.715 234.056 387.404C234.084 387.093 234.187 386.792 234.358 386.526C234.529 386.261 234.763 386.037 235.041 385.873C235.319 385.709 235.633 385.61 235.959 385.584H259.75C265.142 385.584 265.142 422.544 259.75 422.544H235.959C235.633 422.516 235.319 422.415 235.041 422.25C234.763 422.085 234.529 421.861 234.358 421.594C234.187 421.327 234.084 421.026 234.057 420.715C234.03 420.403 234.079 420.09 234.201 419.8C236.603 412.934 236.603 395.16 234.201 388.317Z" fill="white"/>
<path d="M111.141 462.125C111.002 462.616 110.988 463.132 111.099 463.629C111.21 464.127 111.444 464.592 111.781 464.986C112.117 465.38 112.548 465.692 113.036 465.896C113.523 466.099 114.055 466.189 114.586 466.157H293.832C301.485 466.157 301.497 422.477 293.832 422.477H114.516C113.985 422.445 113.453 422.535 112.965 422.738C112.477 422.942 112.047 423.254 111.71 423.648C111.374 424.042 111.14 424.507 111.029 425.004C110.917 425.502 110.932 426.018 111.07 426.509C114.129 434.831 114.118 453.814 111.141 462.125Z" fill="#1FAE8C"/>
<path opacity="0.2" d="M111.141 462.125C111.002 462.616 110.988 463.132 111.099 463.629C111.21 464.127 111.444 464.592 111.781 464.986C112.117 465.38 112.548 465.692 113.036 465.896C113.523 466.099 114.055 466.189 114.586 466.157H293.832C301.485 466.157 301.497 422.477 293.832 422.477H114.516C113.985 422.445 113.453 422.535 112.965 422.738C112.477 422.942 112.047 423.254 111.71 423.648C111.374 424.042 111.14 424.507 111.029 425.004C110.917 425.502 110.932 426.018 111.07 426.509C114.129 434.831 114.118 453.814 111.141 462.125Z" fill="white"/>
<path opacity="0.8" d="M111.492 427.584H219.867C225.727 427.584 225.727 461.05 219.867 461.05H111.481C113.989 452.661 113.989 435.984 111.492 427.584Z" fill="white"/>
<path opacity="0.6" d="M227.274 462.146C227.133 462.637 227.117 463.152 227.226 463.65C227.336 464.148 227.568 464.613 227.904 465.008C228.24 465.402 228.67 465.714 229.158 465.918C229.646 466.122 230.177 466.211 230.708 466.178H293.832C301.485 466.178 301.497 422.498 293.832 422.498H230.708C230.177 422.467 229.645 422.556 229.157 422.76C228.669 422.963 228.239 423.275 227.902 423.669C227.566 424.063 227.332 424.528 227.221 425.026C227.109 425.524 227.124 426.039 227.263 426.53C230.251 434.852 230.251 453.825 227.274 462.146Z" fill="#1FAE8C"/>
<path opacity="0.5" d="M265.083 424.022C264.985 423.862 264.936 423.68 264.939 423.494C264.943 423.309 265 423.129 265.104 422.972C265.208 422.816 265.356 422.69 265.53 422.609C265.704 422.527 265.898 422.493 266.091 422.51H276.815C284.456 422.51 284.456 466.19 276.815 466.19H266.044C265.851 466.207 265.657 466.173 265.483 466.091C265.309 466.01 265.162 465.884 265.057 465.728C264.953 465.572 264.896 465.391 264.892 465.206C264.889 465.021 264.938 464.838 265.036 464.678C269.689 457.925 269.689 430.765 265.083 424.022Z" fill="white"/>
<path opacity="0.5" d="M248.347 424.022C248.25 423.862 248.201 423.679 248.206 423.493C248.21 423.308 248.267 423.127 248.37 422.971C248.474 422.814 248.621 422.687 248.794 422.604C248.967 422.521 249.161 422.485 249.355 422.499H260.078C267.72 422.499 267.72 466.179 260.078 466.179H249.355C249.163 466.194 248.97 466.158 248.798 466.076C248.625 465.993 248.48 465.867 248.377 465.711C248.275 465.556 248.219 465.376 248.215 465.192C248.212 465.008 248.261 464.826 248.358 464.667C252.953 457.925 252.953 430.754 248.347 424.022Z" fill="white"/>
<path d="M112.899 362.344C113.106 359.234 113.871 356.18 115.161 353.317L114.106 352.824C112.766 355.809 111.973 358.991 111.762 362.232L112.899 362.344Z" fill="#1FAE8C"/>
<path d="M120.247 348.467H149.36V349.587H120.247V348.467Z" fill="#1FAE8C"/>
<path d="M309.982 382.526C310.58 384.049 309.115 385.583 307.134 385.583H120.247C113.93 385.583 113.93 352.387 120.247 352.387H307.134C309.115 352.387 310.58 353.932 309.982 355.456C307.521 361.761 307.521 376.198 309.982 382.526Z" fill="#1FAE8C"/>
<path opacity="0.2" d="M309.982 382.526C310.58 384.049 309.115 385.583 307.134 385.583H199.31C192.982 385.583 192.982 352.387 199.31 352.387H307.134C309.115 352.387 310.58 353.932 309.982 355.456C307.521 361.761 307.521 376.198 309.982 382.526Z" fill="black"/>
<path opacity="0.8" d="M309.701 356.273H202.44C197.588 356.273 197.588 381.709 202.44 381.709H309.701C307.627 375.325 307.627 362.657 309.701 356.273Z" fill="white"/>
<path opacity="0.2" d="M177.335 359.79C177.804 358.323 176.445 356.9 174.57 356.9H131.135C126.529 356.9 126.529 381.081 131.135 381.081H174.57C176.445 381.081 177.804 379.659 177.335 378.18C175.8 373.532 175.8 364.449 177.335 359.79Z" fill="white"/>
<path d="M327.457 109.761C332.742 115.171 345.646 109.761 347.615 124.657C349.748 140.718 341.661 148.435 352.104 152.657C368.512 159.209 380.232 185.395 357.448 195.217C334.665 205.039 286.144 194.747 291.605 174.732C297.067 154.718 295.989 143.977 289.543 134.547C281.046 122.081 282.862 106.065 289.789 100.263C300.571 91.1913 315.467 97.4409 327.457 109.761Z" fill="black"/>
<path d="M299.259 174.195C299.348 174.198 299.436 174.169 299.503 174.112C299.571 174.056 299.613 173.977 299.622 173.892C299.63 173.847 299.629 173.801 299.618 173.757C299.607 173.712 299.586 173.67 299.558 173.634C299.529 173.597 299.493 173.566 299.452 173.543C299.411 173.52 299.365 173.506 299.317 173.5C294.793 172.907 292.098 171.843 290.832 170.14C289.261 168.024 289.941 164.876 290.832 160.889C292.215 154.404 294.125 145.523 288.031 134.3C280.636 120.692 283.343 105.774 290.269 100.891C290.347 100.837 290.399 100.756 290.414 100.666C290.429 100.576 290.407 100.484 290.351 100.409C290.293 100.335 290.207 100.285 290.11 100.27C290.014 100.255 289.916 100.277 289.836 100.331C282.616 105.382 279.827 120.704 287.386 134.625C293.352 145.624 291.477 154.371 290.117 160.755C289.226 164.899 288.523 168.18 290.281 170.544C291.664 172.414 294.512 173.568 299.247 174.195H299.259Z" fill="black"/>
<path d="M358.351 154.796C359.091 154.793 359.831 154.748 360.566 154.662C360.614 154.656 360.66 154.642 360.702 154.619C360.744 154.596 360.781 154.566 360.81 154.529C360.839 154.493 360.861 154.451 360.873 154.406C360.886 154.362 360.889 154.315 360.882 154.27C360.876 154.224 360.861 154.18 360.837 154.14C360.814 154.1 360.782 154.065 360.743 154.036C360.705 154.008 360.662 153.988 360.615 153.976C360.568 153.964 360.52 153.961 360.472 153.967C357.144 154.359 354.729 153.889 353.1 152.523C350.053 149.958 350.006 144.593 349.971 138.377C349.971 131.343 349.865 123.38 345.095 117.948C345.065 117.913 345.027 117.884 344.984 117.862C344.942 117.841 344.895 117.828 344.847 117.824C344.799 117.82 344.751 117.824 344.705 117.838C344.659 117.852 344.617 117.874 344.58 117.903C344.543 117.933 344.512 117.969 344.49 118.01C344.468 118.05 344.454 118.095 344.449 118.14C344.445 118.186 344.45 118.232 344.465 118.276C344.479 118.32 344.502 118.361 344.533 118.396C349.139 123.638 349.221 131.467 349.221 138.388C349.221 144.761 349.303 150.271 352.596 153.049C354.22 154.295 356.272 154.918 358.351 154.796Z" fill="black"/>
<path d="M243.319 352.364C251.136 352.274 254.207 351.804 257.805 351.86C261.403 351.916 262.258 352.521 266.009 352.364C268.54 352.263 268.552 349.385 267.579 347.414C266.817 345.868 265.88 344.311 265.013 342.385L255.097 343.079C253.761 346.686 247.128 348.231 241.315 349.508C239.006 350.034 240.19 352.397 243.319 352.364Z" fill="#1FAE8C"/>
<path d="M295.016 214.772C295.016 214.772 268.786 236.332 242.276 259.203C231.072 268.891 254.57 342.755 254.57 342.755C255.062 344.334 263.805 342.083 265.118 340.839C265.118 340.839 266.454 283.507 260.77 271.959C319.557 257.758 328.746 230.172 328.746 230.172L324.527 213.059L295.016 214.772Z" fill="black"/>
<path opacity="0.2" d="M324.867 236.971C321.576 241.366 317.677 245.314 313.276 248.708C307.416 242.156 309.056 231.572 309.056 231.572L324.867 236.971Z" fill="black"/>
<path d="M252.531 339.562C252.695 340.682 252.976 342.664 253.128 344.131C253.152 344.369 253.269 344.589 253.457 344.747C253.644 344.905 253.887 344.989 254.136 344.983C258.059 344.689 261.943 344.044 265.739 343.056C265.922 343.008 266.084 342.904 266.2 342.761C266.316 342.618 266.381 342.442 266.384 342.261L266.466 338.173C266.466 338.04 266.438 337.909 266.382 337.787C266.326 337.665 266.244 337.556 266.142 337.466C266.039 337.376 265.918 337.308 265.786 337.266C265.654 337.224 265.514 337.209 265.376 337.221L253.281 338.621C253.166 338.633 253.055 338.668 252.954 338.722C252.853 338.777 252.765 338.85 252.695 338.938C252.625 339.026 252.574 339.127 252.546 339.234C252.518 339.341 252.513 339.453 252.531 339.562Z" fill="black"/>
<path opacity="0.3" d="M252.531 339.562C252.695 340.682 252.976 342.664 253.128 344.131C253.152 344.369 253.269 344.589 253.457 344.747C253.644 344.905 253.887 344.989 254.136 344.983C258.059 344.689 261.943 344.044 265.739 343.056C265.922 343.008 266.084 342.904 266.2 342.761C266.316 342.618 266.381 342.442 266.384 342.261L266.466 338.173C266.466 338.04 266.438 337.909 266.382 337.787C266.326 337.665 266.244 337.556 266.142 337.466C266.039 337.376 265.918 337.308 265.786 337.266C265.654 337.224 265.514 337.209 265.376 337.221L253.281 338.621C253.166 338.633 253.055 338.668 252.954 338.722C252.853 338.777 252.765 338.85 252.695 338.938C252.625 339.026 252.574 339.127 252.546 339.234C252.518 339.341 252.513 339.453 252.531 339.562Z" fill="white"/>
<path d="M358.081 405.933C366.027 405.933 368.629 403.077 373.071 402.293C376.822 401.621 377.818 401.935 380.841 401.431C383.373 401.005 383.572 399.348 382.013 396.895C380.997 395.199 380.134 393.423 379.435 391.586L367.387 392.348C366.133 395.428 363.238 401.688 358.82 402.428C354.659 403.2 354.917 405.933 358.081 405.933Z" fill="#1FAE8C"/>
<path d="M296.832 214.706C296.832 214.706 324.55 261.802 335.708 290.933C347.428 321.532 366.086 371.573 367.434 392.349C369.426 393.256 375.966 392.909 379.482 391.588C379.482 391.588 382.74 319.908 360.179 291.191C354.8 229.692 345.869 219.858 336.376 212.365L296.832 214.706Z" fill="black"/>
<path d="M365.981 388.104C366.124 389.522 366.164 390.948 366.098 392.371C366.082 392.619 366.169 392.862 366.34 393.049C366.511 393.236 366.753 393.35 367.012 393.368C371.501 393.76 377.759 392.382 379.74 391.912C379.924 391.868 380.088 391.767 380.206 391.625C380.325 391.484 380.392 391.309 380.396 391.128L380.548 387.118C380.55 386.986 380.524 386.855 380.47 386.734C380.416 386.612 380.337 386.503 380.237 386.412C380.136 386.322 380.018 386.252 379.888 386.208C379.758 386.164 379.62 386.145 379.482 386.155L366.777 387.196C366.662 387.205 366.55 387.235 366.447 387.285C366.345 387.336 366.254 387.405 366.179 387.49C366.105 387.574 366.049 387.672 366.015 387.778C365.981 387.883 365.969 387.994 365.981 388.104Z" fill="black"/>
<path opacity="0.3" d="M365.981 388.104C366.124 389.522 366.164 390.948 366.098 392.371C366.082 392.619 366.169 392.862 366.34 393.049C366.511 393.236 366.753 393.35 367.012 393.368C371.501 393.76 377.759 392.382 379.74 391.912C379.924 391.868 380.088 391.767 380.206 391.625C380.325 391.484 380.392 391.309 380.396 391.128L380.548 387.118C380.55 386.986 380.524 386.855 380.47 386.734C380.416 386.612 380.337 386.503 380.237 386.412C380.136 386.322 380.018 386.252 379.888 386.208C379.758 386.164 379.62 386.145 379.482 386.155L366.777 387.196C366.662 387.205 366.55 387.235 366.447 387.285C366.345 387.336 366.254 387.405 366.179 387.49C366.105 387.574 366.049 387.672 366.015 387.778C365.981 387.883 365.969 387.994 365.981 388.104Z" fill="white"/>
<path d="M289.484 168.504C288.312 170.621 287.046 172.984 285.757 175.224C284.468 177.464 283.167 179.704 281.854 181.888C279.206 186.29 276.44 190.602 273.475 194.667L275.069 193.312C273.892 194.102 272.596 194.714 271.224 195.126C269.565 195.658 267.864 196.063 266.138 196.336C264.333 196.65 262.458 196.862 260.547 197.03C258.637 197.198 256.633 197.299 254.805 197.411H254.559C253.797 197.453 253.075 197.747 252.516 198.242C251.957 198.737 251.595 199.403 251.494 200.126C251.393 200.848 251.558 201.581 251.961 202.2C252.364 202.818 252.98 203.283 253.703 203.515C255.797 204.181 257.94 204.698 260.114 205.061C262.298 205.432 264.507 205.66 266.724 205.744C269.076 205.83 271.431 205.695 273.756 205.341C276.379 204.963 278.916 204.16 281.257 202.966C281.743 202.712 282.176 202.374 282.534 201.97L282.851 201.611C284.714 199.483 286.531 197.31 288.195 195.082C289.859 192.853 291.488 190.602 293 188.362C294.512 186.122 295.977 183.736 297.36 181.373C298.743 179.01 300.056 176.669 301.31 174.082C301.968 172.611 302.014 170.956 301.438 169.455C300.862 167.954 299.708 166.719 298.211 166.004C296.714 165.289 294.988 165.147 293.386 165.608C291.783 166.068 290.425 167.096 289.59 168.482L289.484 168.504Z" fill="#FFB573"/>
<path d="M295.953 159.467C288.3 161.875 287.058 165.156 282.862 177.275C285.652 184.544 296.926 188.228 296.926 188.228C296.926 188.228 310.24 167.508 295.953 159.467Z" fill="#1FAE8C"/>
<path d="M285.476 175.237C285.909 179.246 286.988 184.029 289.25 193.425C291.008 201.4 291.031 216.945 293.844 217.763C299.247 220.317 312.772 219.331 336.376 212.365C335.626 200.717 334.208 192.809 338.263 166.086C338.518 164.685 338.443 163.248 338.044 161.878C337.644 160.508 336.93 159.241 335.953 158.168C334.977 157.095 333.762 156.244 332.397 155.676C331.033 155.108 329.553 154.839 328.066 154.886C326.355 154.886 324.55 155.021 322.71 155.177C316.219 155.551 309.764 156.37 303.396 157.63C301.321 158.078 299.176 158.605 297.137 159.142C293.546 160.122 290.421 162.262 288.295 165.197C286.168 168.131 285.172 171.679 285.476 175.237Z" fill="#1FAE8C"/>
<path d="M368.102 221.559L365.758 219.51C365.322 219.129 364.987 218.653 364.783 218.123C364.579 217.593 364.512 217.024 364.586 216.463L365.23 211.121C365.354 210.071 365.737 209.064 366.348 208.184C366.96 207.303 367.782 206.575 368.746 206.058L369.918 205.42C374.102 208.567 376.2 214.906 376.2 214.906L377.009 216.654C377.187 217.007 377.289 217.39 377.311 217.782C377.332 218.173 377.272 218.565 377.133 218.934C376.995 219.303 376.781 219.641 376.504 219.931C376.227 220.22 375.893 220.454 375.521 220.618L371.923 222.186C371.29 222.444 370.593 222.522 369.915 222.411C369.238 222.299 368.608 222.004 368.102 221.559Z" fill="#FFB573"/>
<path d="M245.077 194.657L248.077 193.537C248.632 193.337 249.23 193.267 249.819 193.333C250.409 193.399 250.973 193.6 251.464 193.918L256.152 196.92C257.072 197.511 257.83 198.305 258.363 199.235C258.895 200.164 259.186 201.203 259.211 202.262V203.595C254.371 205.7 247.491 204.558 247.491 204.558L245.499 204.446C245.089 204.433 244.686 204.343 244.312 204.18C243.939 204.017 243.603 203.785 243.324 203.498C243.045 203.211 242.829 202.873 242.687 202.505C242.545 202.137 242.481 201.746 242.498 201.355L242.686 197.58C242.74 196.923 242.996 196.295 243.421 195.775C243.846 195.255 244.422 194.866 245.077 194.657Z" fill="#FFB573"/>
<path d="M331.278 169.692L332.778 170.353L334.418 171.069C335.508 171.573 336.587 172.1 337.665 172.637C339.833 173.757 341.943 174.877 344.017 176.053C346.092 177.229 348.096 178.54 350.041 179.873C351.987 181.205 353.792 182.661 355.55 184.151L354.776 183.21C355.348 184.014 355.849 184.86 356.276 185.741C356.792 186.761 357.272 187.869 357.741 189.001C358.679 191.241 359.593 193.637 360.437 196.045C361.281 198.453 362.136 200.895 362.968 203.337L365.5 210.695C365.745 211.418 366.257 212.031 366.94 212.42C367.623 212.81 368.43 212.949 369.212 212.812C369.995 212.675 370.698 212.271 371.192 211.676C371.686 211.081 371.938 210.334 371.899 209.575C371.77 206.876 371.512 204.255 371.196 201.612C370.879 198.969 370.481 196.337 370.024 193.693C369.567 191.05 368.969 188.396 368.207 185.708C367.832 184.364 367.422 183.02 366.906 181.609C366.362 180.055 365.663 178.555 364.82 177.129C364.672 176.895 364.504 176.674 364.316 176.468L364.035 176.188C362.104 174.154 360.037 172.242 357.847 170.465C355.688 168.711 353.426 167.077 351.073 165.57C348.75 164.066 346.344 162.682 343.865 161.426C342.622 160.799 341.368 160.205 340.091 159.623C339.446 159.343 338.813 159.052 338.145 158.783C337.477 158.514 336.868 158.279 336.036 157.977C334.44 157.367 332.657 157.381 331.072 158.016C329.486 158.651 328.226 159.856 327.561 161.371C326.897 162.886 326.882 164.589 327.521 166.115C328.159 167.64 329.399 168.864 330.973 169.524L331.278 169.692Z" fill="#FFB573"/>
<path d="M319.956 157.797C325.699 153.865 329.191 153.44 343.091 159.208C344.744 167.563 339.329 179.827 339.329 179.827C339.329 179.827 320.835 170.621 319.956 157.797Z" fill="#1FAE8C"/>
<path d="M318.456 134.525C317.6 140.674 317.049 151.818 321.644 155.268C321.644 155.268 315.643 155.167 304.169 164.138C299.868 159.658 302.329 157.721 302.329 157.721C309.162 155.245 308.681 150.306 307.193 145.793L318.456 134.525Z" fill="#FFB573"/>
<path d="M306.595 162.323C310.779 162.323 312.901 168.136 312.901 168.136C312.901 168.136 322.956 160.475 324.328 155.088C322.993 154.573 321.686 153.994 320.413 153.352C320.413 153.352 308.681 159.747 306.595 162.323Z" fill="white"/>
<path d="M302.587 162.177C302.587 162.177 299.423 163.297 298.38 167.777C296.235 159.242 300.419 157.898 300.419 157.898C301.467 157.147 302.771 156.796 304.076 156.913C303.22 157.483 302.602 158.324 302.33 159.286C302.058 160.249 302.149 161.272 302.587 162.177Z" fill="white"/>
<path opacity="0.2" d="M313.862 139.115L307.205 145.835C307.567 146.886 307.83 147.965 307.99 149.061C310.615 148.355 314.084 145.096 314.201 142.341C314.297 141.255 314.182 140.161 313.862 139.115Z" fill="black"/>
<path d="M325.675 125.576C323.331 135.141 322.476 139.229 316.464 143.597C307.427 150.16 295.696 145.904 295.063 136.003C294.5 127.043 298.508 112.931 309.127 110.243C311.377 109.596 313.767 109.536 316.05 110.067C318.332 110.599 320.425 111.703 322.112 113.266C323.799 114.829 325.019 116.794 325.645 118.958C326.271 121.122 326.282 123.407 325.675 125.576Z" fill="#FFB573"/>
<path d="M323.718 132.452C320.038 130.727 316.135 122.248 321.374 118.239C317.05 119.012 312.092 117.903 307.509 114.52C301.532 110.04 292.731 121.162 295.625 114.632C299.798 105.224 312.373 102.872 323.753 110.69C335.134 118.508 334.325 128.016 323.718 132.452Z" fill="black"/>
<path d="M326.836 130.536C326.876 130.532 326.913 130.516 326.943 130.49C326.973 130.465 326.993 130.43 327.001 130.393C327.009 130.355 327.004 130.316 326.987 130.281C326.97 130.247 326.941 130.218 326.906 130.2C323.976 128.99 311.541 126.459 311.014 126.358C310.99 126.352 310.965 126.35 310.94 126.353C310.915 126.357 310.892 126.365 310.871 126.378C310.85 126.39 310.832 126.407 310.818 126.427C310.804 126.447 310.795 126.469 310.791 126.493C310.784 126.537 310.794 126.582 310.82 126.62C310.846 126.657 310.886 126.684 310.932 126.694C311.061 126.694 323.824 129.326 326.765 130.525L326.836 130.536Z" fill="white"/>
<path opacity="0.2" d="M311.752 126.561C313.008 126.033 314.432 126.001 315.713 126.472C314.411 126.747 313.066 126.778 311.752 126.561Z" fill="black"/>
<path opacity="0.2" d="M311.857 127.413C312.467 127.29 313.097 127.295 313.705 127.429C314.312 127.562 314.881 127.82 315.373 128.185C314.158 128.167 312.96 127.903 311.857 127.413Z" fill="black"/>
<path d="M309.572 126.426C309.408 127.244 308.834 127.848 308.283 127.781C307.732 127.714 307.427 127.008 307.591 126.191C307.756 125.373 308.342 124.78 308.881 124.836C309.42 124.892 309.736 125.62 309.572 126.426Z" fill="black"/>
<path d="M299.282 125.363C299.118 126.169 298.532 126.774 297.993 126.718C297.454 126.662 297.137 125.934 297.301 125.128C297.465 124.321 298.04 123.705 298.591 123.773C299.141 123.84 299.446 124.545 299.282 125.363Z" fill="black"/>
<path d="M298.86 123.851L296.961 123.045C296.961 123.045 297.688 124.691 298.86 123.851Z" fill="black"/>
<path d="M301.204 126.92C300.19 128.747 298.937 130.444 297.477 131.971C297.877 132.292 298.346 132.523 298.85 132.649C299.355 132.775 299.883 132.792 300.395 132.699L301.204 126.92Z" fill="#ED893E"/>
<path d="M304.896 136.315C304.424 136.354 303.949 136.354 303.478 136.315C303.445 136.311 303.415 136.301 303.387 136.285C303.359 136.269 303.335 136.248 303.316 136.223C303.298 136.197 303.285 136.169 303.278 136.138C303.272 136.108 303.272 136.077 303.278 136.046C303.29 135.982 303.327 135.924 303.381 135.885C303.435 135.845 303.503 135.827 303.571 135.834C304.632 135.956 305.708 135.852 306.722 135.529C307.735 135.205 308.661 134.671 309.431 133.963C309.454 133.941 309.482 133.923 309.512 133.911C309.542 133.899 309.574 133.893 309.607 133.893C309.64 133.893 309.672 133.899 309.703 133.911C309.733 133.923 309.76 133.941 309.783 133.963C309.827 134.009 309.852 134.069 309.852 134.131C309.852 134.194 309.827 134.254 309.783 134.299C308.465 135.517 306.727 136.234 304.896 136.315Z" fill="black"/>
<path d="M328.055 134.142C327.49 134.912 326.764 135.562 325.923 136.05C325.081 136.537 324.143 136.853 323.167 136.976C320.73 137.166 320.202 134.456 321.445 132.048C322.558 129.886 325.172 127.165 327.305 128.105C329.438 129.046 329.637 132.16 328.055 134.142Z" fill="#FFB573"/>
<path d="M312.866 120.255C312.8 120.255 312.736 120.241 312.677 120.214C312.618 120.187 312.566 120.147 312.526 120.098C312.149 119.637 311.658 119.272 311.098 119.035C310.538 118.799 309.925 118.698 309.314 118.743C309.251 118.752 309.186 118.749 309.124 118.734C309.062 118.718 309.004 118.691 308.953 118.653C308.903 118.615 308.861 118.568 308.83 118.514C308.8 118.46 308.781 118.401 308.775 118.34C308.77 118.211 308.813 118.085 308.897 117.984C308.981 117.884 309.1 117.815 309.232 117.791C310.004 117.726 310.78 117.844 311.491 118.135C312.203 118.426 312.828 118.881 313.311 119.46C313.368 119.536 313.401 119.626 313.407 119.72C313.413 119.813 313.392 119.906 313.346 119.989C313.299 120.072 313.23 120.14 313.145 120.187C313.06 120.234 312.964 120.258 312.866 120.255Z" fill="black"/>
<path d="M297.383 119.84C297.321 119.847 297.257 119.841 297.197 119.824C297.136 119.806 297.08 119.778 297.032 119.739C296.985 119.695 296.948 119.643 296.922 119.585C296.897 119.528 296.884 119.466 296.884 119.403C296.884 119.341 296.897 119.279 296.922 119.221C296.948 119.163 296.985 119.111 297.032 119.067C297.538 118.459 298.184 117.971 298.92 117.641C299.656 117.311 300.461 117.147 301.274 117.163C301.339 117.168 301.402 117.186 301.459 117.216C301.516 117.246 301.565 117.288 301.604 117.338C301.643 117.387 301.67 117.445 301.684 117.505C301.698 117.566 301.698 117.629 301.684 117.69C301.664 117.816 301.595 117.931 301.491 118.012C301.387 118.093 301.256 118.133 301.122 118.126C300.477 118.12 299.84 118.255 299.259 118.521C298.678 118.787 298.168 119.177 297.77 119.661C297.723 119.716 297.664 119.761 297.598 119.792C297.531 119.823 297.458 119.839 297.383 119.84Z" fill="black"/>
<path d="M306.396 131.5C308.869 131.5 311.014 128.991 311.248 125.777C311.39 124.263 311.025 122.745 310.205 121.442C309.882 120.89 309.424 120.42 308.872 120.071C308.319 119.722 307.687 119.505 307.029 119.437C304.439 119.269 302.165 121.834 301.919 125.161C301.673 128.487 303.583 131.321 306.15 131.489L306.396 131.5ZM306.783 119.841H306.994C307.597 119.907 308.175 120.109 308.68 120.43C309.185 120.751 309.604 121.183 309.9 121.689C310.679 122.928 311.023 124.371 310.885 125.81C310.662 128.935 308.541 131.343 306.197 131.197C303.853 131.052 302.083 128.364 302.306 125.239C302.529 122.114 304.497 119.841 306.783 119.841Z" fill="white"/>
<path d="M295.438 130.895C297.911 130.895 300.067 128.397 300.302 125.183C300.438 123.669 300.073 122.153 299.259 120.849C298.932 120.296 298.473 119.826 297.919 119.477C297.364 119.129 296.731 118.912 296.071 118.844C293.504 118.676 291.207 121.241 290.973 124.556C290.836 126.069 291.201 127.586 292.016 128.89C292.34 129.444 292.799 129.915 293.354 130.264C293.909 130.612 294.543 130.829 295.203 130.895H295.438ZM295.825 119.191H296.047C296.65 119.257 297.228 119.459 297.734 119.78C298.239 120.102 298.657 120.533 298.954 121.039C299.722 122.282 300.066 123.722 299.938 125.161C299.716 128.185 297.723 130.548 295.438 130.548H295.227C294.623 130.484 294.044 130.283 293.538 129.962C293.032 129.64 292.615 129.208 292.32 128.7C291.548 127.463 291.204 126.024 291.336 124.589C291.559 121.554 293.551 119.191 295.825 119.191Z" fill="white"/>
<path d="M300.032 125.643C300.063 125.641 300.094 125.632 300.12 125.617C300.147 125.601 300.169 125.579 300.184 125.554C300.63 124.882 301.931 125.61 301.942 125.61C301.962 125.622 301.985 125.63 302.008 125.634C302.031 125.637 302.055 125.637 302.078 125.631C302.101 125.626 302.123 125.617 302.142 125.603C302.161 125.59 302.177 125.573 302.189 125.554C302.218 125.521 302.235 125.479 302.235 125.436C302.235 125.393 302.218 125.351 302.189 125.318C302.118 125.318 300.571 124.4 299.938 125.318C299.924 125.337 299.914 125.358 299.909 125.381C299.904 125.403 299.904 125.427 299.91 125.449C299.915 125.472 299.926 125.493 299.941 125.511C299.956 125.529 299.975 125.543 299.997 125.554C299.996 125.57 299.999 125.586 300.005 125.602C300.011 125.617 300.02 125.631 300.032 125.643Z" fill="white"/>
<path d="M309.115 124.914L307.228 124.119C307.228 124.119 307.943 125.765 309.115 124.914Z" fill="black"/>
<path d="M293 478.867C167.499 478.867 65.7609 473.19 65.7609 466.188C65.7609 459.186 167.499 453.51 293 453.51C418.501 453.51 520.239 459.186 520.239 466.188C520.239 473.19 418.501 478.867 293 478.867Z" fill="#F5F5F5"/>
<path d="M316.288 463.253C316.169 463.598 316.141 463.966 316.204 464.324C316.268 464.682 316.421 465.02 316.652 465.309C316.883 465.598 317.184 465.829 317.528 465.982C317.873 466.135 318.252 466.205 318.632 466.187H481.891C486.989 466.187 486.989 434.458 481.891 434.458H318.585C318.206 434.44 317.829 434.511 317.486 434.663C317.142 434.816 316.842 435.045 316.612 435.333C316.381 435.62 316.227 435.956 316.163 436.313C316.098 436.67 316.125 437.036 316.241 437.381C318.28 443.429 318.28 457.216 316.288 463.253Z" fill="#1FAE8C"/>
<path opacity="0.8" d="M316.522 438.166H415.591C419.494 438.166 419.494 462.481 415.591 462.481H316.522C318.198 456.377 318.198 444.259 316.522 438.166Z" fill="white"/>
<path opacity="0.2" d="M420.525 463.253C420.407 463.598 420.378 463.966 420.442 464.324C420.505 464.682 420.659 465.02 420.89 465.309C421.12 465.598 421.421 465.829 421.766 465.982C422.111 466.135 422.49 466.205 422.869 466.187H481.891C486.989 466.187 486.989 434.458 481.891 434.458H422.822C422.444 434.44 422.067 434.511 421.723 434.663C421.38 434.816 421.08 435.045 420.849 435.333C420.619 435.62 420.465 435.956 420.4 436.313C420.336 436.67 420.363 437.036 420.478 437.381C422.518 443.429 422.518 457.216 420.525 463.253Z" fill="#6D7278"/>
<path d="M456.717 434.457H470.206C475.305 434.457 475.305 466.187 470.206 466.187H456.717C461.768 466.187 461.768 434.457 456.717 434.457Z" fill="#1FAE8C"/>
<path d="M446.087 434.457H451.384C456.482 434.457 456.482 466.187 451.384 466.187H446.087C451.22 466.187 451.22 434.457 446.087 434.457Z" fill="#1FAE8C"/>
<path d="M491.408 431.826C491.97 433.125 490.587 434.458 488.712 434.458H341.884C335.895 434.458 335.895 405.932 341.884 405.932H488.724C490.599 405.932 491.982 407.253 491.42 408.564C489.076 413.996 489.076 426.394 491.408 431.826Z" fill="#6D7278"/>
<path opacity="0.2" d="M491.408 431.826C491.97 433.125 490.587 434.458 488.712 434.458H416.716C410.727 434.458 410.727 405.932 416.716 405.932H488.724C490.599 405.932 491.982 407.253 491.42 408.564C489.076 413.996 489.076 426.394 491.408 431.826Z" fill="#6D7278"/>
<path opacity="0.8" d="M491.15 409.258H419.658C415.075 409.258 415.075 431.12 419.658 431.12H491.15C489.181 425.599 489.181 414.746 491.15 409.258Z" fill="white"/>
<path opacity="0.2" d="M395.913 412.294C396.359 411.029 395.07 409.797 393.288 409.797H352.186C347.826 409.797 347.826 430.584 352.186 430.584H393.288C395.07 430.584 396.359 429.363 395.913 428.098C394.507 422.916 394.507 417.476 395.913 412.294Z" fill="white"/>
<path d="M98.7646 419.091C98.6349 419.47 98.5977 419.872 98.6559 420.267C98.7142 420.661 98.8662 421.038 99.1005 421.368C99.3347 421.698 99.6449 421.972 100.007 422.169C100.369 422.367 100.774 422.482 101.191 422.507H273.709C279.1 422.507 279.1 385.547 273.709 385.547H101.191C100.781 385.574 100.383 385.689 100.027 385.883C99.6698 386.077 99.3636 386.345 99.1304 386.668C98.8973 386.991 98.7434 387.36 98.68 387.748C98.6167 388.135 98.6456 388.531 98.7646 388.907C100.862 396.019 100.862 412.068 98.7646 419.091Z" fill="#1FAE8C"/>
<path opacity="0.5" d="M98.7646 419.091C98.6349 419.47 98.5977 419.872 98.6559 420.267C98.7142 420.661 98.8662 421.038 99.1005 421.368C99.3347 421.698 99.6449 421.972 100.007 422.169C100.369 422.367 100.774 422.482 101.191 422.507H273.709C279.1 422.507 279.1 385.547 273.709 385.547H101.191C100.781 385.574 100.383 385.689 100.027 385.883C99.6698 386.077 99.3636 386.345 99.1304 386.668C98.8973 386.991 98.7434 387.36 98.68 387.748C98.6167 388.135 98.6456 388.531 98.7646 388.907C100.862 396.019 100.862 412.068 98.7646 419.091Z" fill="white"/>
<path opacity="0.8" d="M98.9988 389.895H203.67C207.796 389.895 207.796 418.186 203.67 418.186H98.9988C100.792 411.096 100.792 396.995 98.9988 389.895Z" fill="white"/>
<path opacity="0.6" d="M208.886 419.091C208.756 419.47 208.719 419.872 208.777 420.267C208.835 420.661 208.987 421.038 209.222 421.368C209.456 421.698 209.766 421.972 210.128 422.169C210.491 422.367 210.896 422.482 211.312 422.507H273.709C279.1 422.507 279.1 385.547 273.709 385.547H211.312C210.902 385.574 210.504 385.689 210.148 385.883C209.791 386.077 209.485 386.345 209.252 386.668C209.018 386.991 208.865 387.36 208.801 387.748C208.738 388.135 208.767 388.531 208.886 388.907C210.96 396.019 210.96 412.068 208.886 419.091Z" fill="#1FAE8C"/>
<path opacity="0.5" d="M234.201 388.315C234.079 388.025 234.029 387.713 234.056 387.402C234.084 387.091 234.187 386.79 234.358 386.524C234.529 386.259 234.763 386.035 235.041 385.871C235.319 385.707 235.633 385.608 235.959 385.582H259.75C265.142 385.582 265.142 422.542 259.75 422.542H235.959C235.633 422.514 235.319 422.413 235.041 422.248C234.763 422.083 234.529 421.859 234.358 421.592C234.187 421.325 234.084 421.024 234.057 420.713C234.03 420.401 234.079 420.088 234.201 419.798C236.603 412.932 236.603 395.158 234.201 388.315Z" fill="white"/>
<path d="M111.141 462.123C111.002 462.614 110.988 463.13 111.099 463.627C111.21 464.125 111.444 464.59 111.781 464.984C112.117 465.378 112.548 465.69 113.035 465.894C113.523 466.097 114.055 466.187 114.586 466.155H293.832C301.485 466.155 301.497 422.475 293.832 422.475H114.516C113.985 422.443 113.453 422.533 112.965 422.736C112.477 422.94 112.047 423.252 111.71 423.646C111.374 424.04 111.14 424.505 111.029 425.003C110.917 425.5 110.932 426.016 111.07 426.507C114.129 434.829 114.118 453.813 111.141 462.123Z" fill="#1FAE8C"/>
<path opacity="0.2" d="M111.141 462.123C111.002 462.614 110.988 463.13 111.099 463.627C111.21 464.125 111.444 464.59 111.781 464.984C112.117 465.378 112.548 465.69 113.035 465.894C113.523 466.097 114.055 466.187 114.586 466.155H293.832C301.485 466.155 301.497 422.475 293.832 422.475H114.516C113.985 422.443 113.453 422.533 112.965 422.736C112.477 422.94 112.047 423.252 111.71 423.646C111.374 424.04 111.14 424.505 111.029 425.003C110.917 425.5 110.932 426.016 111.07 426.507C114.129 434.829 114.118 453.813 111.141 462.123Z" fill="white"/>
<path opacity="0.8" d="M111.492 427.582H219.867C225.727 427.582 225.727 461.048 219.867 461.048H111.481C113.989 452.659 113.989 435.982 111.492 427.582Z" fill="white"/>
<path opacity="0.6" d="M227.274 462.145C227.133 462.635 227.117 463.15 227.226 463.648C227.336 464.146 227.568 464.611 227.904 465.006C228.24 465.4 228.67 465.712 229.158 465.916C229.645 466.12 230.177 466.209 230.708 466.177H293.832C301.485 466.177 301.497 422.497 293.832 422.497H230.708C230.177 422.465 229.645 422.554 229.157 422.758C228.669 422.961 228.239 423.273 227.902 423.667C227.566 424.061 227.332 424.526 227.221 425.024C227.109 425.522 227.124 426.037 227.263 426.528C230.251 434.85 230.251 453.823 227.274 462.145Z" fill="#1FAE8C"/>
<path opacity="0.5" d="M265.083 424.02C264.985 423.86 264.936 423.678 264.939 423.492C264.943 423.307 265 423.127 265.104 422.97C265.208 422.814 265.356 422.688 265.53 422.607C265.704 422.525 265.898 422.491 266.091 422.508H276.815C284.456 422.508 284.456 466.188 276.815 466.188H266.044C265.851 466.205 265.657 466.171 265.483 466.09C265.309 466.008 265.162 465.882 265.057 465.726C264.953 465.57 264.896 465.389 264.892 465.204C264.889 465.019 264.938 464.836 265.036 464.676C269.689 457.923 269.689 430.763 265.083 424.02Z" fill="white"/>
<path opacity="0.5" d="M248.347 424.02C248.25 423.86 248.201 423.677 248.206 423.491C248.21 423.306 248.267 423.125 248.37 422.969C248.474 422.812 248.621 422.685 248.794 422.602C248.967 422.519 249.161 422.483 249.355 422.497H260.078C267.72 422.497 267.72 466.177 260.078 466.177H249.355C249.163 466.192 248.97 466.156 248.798 466.074C248.625 465.991 248.48 465.865 248.377 465.709C248.275 465.554 248.219 465.374 248.215 465.19C248.212 465.006 248.261 464.824 248.358 464.665C252.953 457.923 252.953 430.752 248.347 424.02Z" fill="white"/>
<path d="M112.899 362.342C113.106 359.232 113.871 356.178 115.161 353.315L114.106 352.822C112.766 355.807 111.973 358.989 111.762 362.23L112.899 362.342Z" fill="#1FAE8C"/>
<path d="M120.247 348.465H149.36V349.585H120.247V348.465Z" fill="#1FAE8C"/>
<path d="M309.983 382.524C310.58 384.047 309.115 385.582 307.135 385.582H120.247C113.93 385.582 113.93 352.385 120.247 352.385H307.135C309.115 352.385 310.58 353.93 309.983 355.454C307.521 361.759 307.521 376.196 309.983 382.524Z" fill="#1FAE8C"/>
<path opacity="0.2" d="M309.982 382.524C310.58 384.047 309.115 385.582 307.134 385.582H199.31C192.982 385.582 192.982 352.385 199.31 352.385H307.134C309.115 352.385 310.58 353.93 309.982 355.454C307.521 361.759 307.521 376.196 309.982 382.524Z" fill="#6D7278"/>
<path opacity="0.8" d="M309.701 356.271H202.44C197.587 356.271 197.587 381.707 202.44 381.707H309.701C307.627 375.323 307.627 362.655 309.701 356.271Z" fill="white"/>
<path opacity="0.2" d="M177.335 359.788C177.804 358.321 176.445 356.898 174.57 356.898H131.135C126.529 356.898 126.529 381.079 131.135 381.079H174.57C176.445 381.079 177.804 379.657 177.335 378.178C175.8 373.53 175.8 364.447 177.335 359.788Z" fill="white"/>
</svg>
