<svg xmlns="http://www.w3.org/2000/svg" width="525" height="479" fill="none" viewBox="0 0 525 479"><path fill="#4BD9B7" d="M364.824 479.272C364.824 479.272 514.439 352.93 489.222 181.885C444.21 -123.436 5.31362 6.92473 57.1315 199.5C89.6973 320.571 -52.0349 285.883 24.1057 479.272H364.824Z" opacity=".4"/><path fill="#2E3552" d="M1.60153 480.221H524.386C524.731 480.221 525 479.826 525 479.318V478.923C525 478.415 524.731 478.02 524.386 478.02H1.60153C1.25603 478.02 0.987305 478.415 0.987305 478.923V479.318C0.987305 479.826 1.25603 480.221 1.60153 480.221Z"/><path fill="#3E454D" d="M420.15 52.5332H53.2764V297.581H420.15V52.5332Z"/><path fill="#56585A" d="M426.873 302.94H46.5537V47.1738H426.873V302.94ZM53.2767 297.581H420.15V52.5327H53.2767V297.581Z"/><path fill="#3E454D" d="M429.309 302.744H44.67C42.6564 302.744 41 301.088 41 299.074V298.879C41 296.865 42.6564 295.209 44.67 295.209H429.309C431.323 295.209 432.979 296.865 432.979 298.879V299.074C432.979 301.088 431.323 302.744 429.309 302.744Z"/><path fill="#fff" d="M347.334 295.177H336.161C334.83 295.177 333.726 294.073 333.726 292.742V292.612C333.726 291.28 334.83 290.176 336.161 290.176H347.334C348.666 290.176 349.77 291.28 349.77 292.612V292.742C349.737 294.106 348.666 295.177 347.334 295.177Z"/><path fill="#fff" d="M273.673 295.177H268.087C267.08 295.177 266.236 294.333 266.236 293.326V292.027C266.236 291.02 267.08 290.176 268.087 290.176H273.673C274.68 290.176 275.525 291.02 275.525 292.027V293.326C275.525 294.365 274.68 295.177 273.673 295.177Z"/><path fill="#fff" d="M261.04 295.177H249.705C248.373 295.177 247.269 294.073 247.269 292.742V292.612C247.269 291.28 248.373 290.176 249.705 290.176H261.04C262.371 290.176 263.476 291.28 263.476 292.612V292.742C263.476 294.106 262.404 295.177 261.04 295.177Z"/><g opacity=".6"><path fill="#fff" d="M339.728 115.084H341.328L345.667 125.008H343.85L342.847 122.622H338.183L337.18 125.008H335.417L339.728 115.084ZM342.196 121.077L340.488 117.145L338.806 121.077H342.196Z" opacity=".6"/><path fill="#fff" d="M355.998 115.137H360.418C361.557 115.137 362.424 115.435 362.994 116.004C363.428 116.438 363.645 116.981 363.645 117.658C363.645 118.852 362.967 119.475 362.235 119.855C363.401 120.262 364.187 120.912 364.187 122.268C364.187 124.031 362.75 124.98 360.553 124.98H355.998V115.137ZM360.065 119.285C361.177 119.285 361.936 118.852 361.936 117.93C361.936 117.143 361.313 116.682 360.201 116.682H357.706V119.313H360.065V119.285ZM360.581 123.461C361.774 123.461 362.479 123 362.479 122.078C362.479 121.238 361.828 120.75 360.445 120.75H357.706V123.461H360.581Z" opacity=".6"/><path fill="#fff" d="M374.382 120.072C374.382 117.279 376.47 114.975 379.453 114.975C381.27 114.975 382.354 115.598 383.303 116.52L382.192 117.795C381.405 117.063 380.565 116.574 379.426 116.574C377.528 116.574 376.172 118.12 376.172 120.072C376.172 121.998 377.528 123.57 379.426 123.57C380.646 123.57 381.405 123.082 382.246 122.296L383.358 123.435C382.327 124.492 381.215 125.17 379.372 125.17C376.524 125.17 374.382 122.919 374.382 120.072Z" opacity=".6"/><path fill="#fff" d="M327.391 137.264H331.052C334.143 137.264 336.285 139.379 336.285 142.199C336.285 144.964 334.143 147.134 331.052 147.134H327.391V137.264ZM331.052 145.534C333.113 145.534 334.468 144.151 334.468 142.172C334.468 140.246 333.113 138.809 331.052 138.809H329.099V145.507H331.052V145.534Z" opacity=".6"/><path fill="#fff" d="M347.05 137.264H354.344V138.809H348.758V141.358H353.693V142.904H348.758V145.561H354.398V147.107H347.022V137.264H347.05Z" opacity=".6"/><path fill="#fff" d="M365.136 137.264H372.457V138.836H366.844V141.521H371.806V143.094H366.844V147.107H365.108V137.264H365.136Z" opacity=".6"/><path fill="#fff" d="M382.598 142.197C382.598 139.432 384.713 137.1 387.669 137.1C389.377 137.1 390.435 137.588 391.465 138.428L390.38 139.73C389.621 139.079 388.862 138.672 387.615 138.672C385.798 138.672 384.415 140.272 384.415 142.17C384.415 144.204 385.744 145.695 387.777 145.695C388.699 145.695 389.54 145.397 390.163 144.936V143.092H387.642V141.574H391.845V145.749C390.868 146.59 389.486 147.295 387.723 147.295C384.605 147.295 382.598 145.099 382.598 142.197Z" opacity=".6"/><path fill="#fff" d="M322.429 159.391H324.164V163.485H328.855V159.391H330.59V169.234H328.855V165.085H324.164V169.234H322.429V159.391Z" opacity=".6"/><path fill="#fff" d="M341.897 159.391H343.633V169.234H341.897V159.391Z" opacity=".6"/><path fill="#fff" d="M353.937 167.795L355.076 166.629C355.645 167.361 356.242 167.795 357.055 167.795C357.977 167.795 358.628 167.171 358.628 165.87V159.416H360.391V165.924C360.391 167.09 360.065 167.957 359.469 168.554C358.899 169.123 358.059 169.422 357.082 169.422C355.564 169.367 354.588 168.662 353.937 167.795Z" opacity=".6"/><path fill="#fff" d="M371.427 159.391H373.162V164.353L377.853 159.391H379.968L375.874 163.621L380.158 169.234H378.07L374.708 164.787L373.162 166.359V169.206H371.427V159.391V159.391Z" opacity=".6"/><path fill="#fff" d="M390.299 159.391H392.035V167.661H397.214V169.234H390.299V159.391Z" opacity=".6"/><path fill="#fff" d="M325.384 181.488H327.228L330.238 186.152L333.248 181.488H335.092V191.331H333.356V184.254L330.238 188.891H330.184L327.093 184.281V191.331H325.384V181.488V181.488Z" opacity=".6"/><path fill="#fff" d="M346.263 181.488H347.863L353.151 188.294V181.488H354.859V191.331H353.422L347.999 184.308V191.331H346.29V181.488H346.263Z" opacity=".6"/><path fill="#fff" d="M365.597 186.424C365.597 183.658 367.739 181.326 370.776 181.326C373.813 181.326 375.901 183.631 375.901 186.424C375.901 189.19 373.758 191.522 370.722 191.522C367.712 191.522 365.597 189.217 365.597 186.424ZM374.084 186.424C374.084 184.499 372.701 182.926 370.722 182.926C368.769 182.926 367.386 184.499 367.386 186.424C367.386 188.349 368.769 189.922 370.749 189.922C372.728 189.922 374.084 188.376 374.084 186.424Z" opacity=".6"/><path fill="#fff" d="M386.666 181.488H390.543C392.848 181.488 394.285 182.79 394.285 184.823C394.285 187.02 392.522 188.186 390.353 188.186H388.401V191.358H386.666V181.488V181.488ZM390.407 186.613C391.709 186.613 392.522 185.881 392.522 184.823C392.522 183.658 391.682 183.061 390.407 183.061H388.401V186.613H390.407Z" opacity=".6"/><path fill="#fff" d="M335.309 212.699C334.468 213.296 333.465 213.621 332.299 213.621C329.262 213.621 327.174 211.316 327.174 208.524C327.174 205.758 329.316 203.426 332.353 203.426C335.39 203.426 337.478 205.731 337.478 208.524C337.478 209.635 337.125 210.693 336.474 211.56L337.613 212.51L336.502 213.757L335.309 212.699ZM334.007 211.56L332.326 210.123L333.438 208.849L335.146 210.394C335.471 209.879 335.661 209.229 335.661 208.524C335.661 206.598 334.278 205.026 332.299 205.026C330.346 205.026 328.963 206.598 328.963 208.524C328.963 210.449 330.346 212.021 332.326 212.021C332.977 212.049 333.546 211.859 334.007 211.56Z" opacity=".6"/><path fill="#fff" d="M348.216 203.615H352.609C354.913 203.615 356.269 204.863 356.269 206.761C356.269 208.388 355.293 209.364 353.91 209.743L356.567 213.485H354.534L352.093 210.042H349.951V213.485H348.216V203.615V203.615ZM352.473 208.496C353.72 208.496 354.507 207.845 354.507 206.815C354.507 205.757 353.747 205.188 352.473 205.188H349.951V208.496H352.473Z" opacity=".6"/><path fill="#fff" d="M366.383 212.022L367.413 210.774C368.362 211.588 369.311 212.049 370.532 212.049C371.589 212.049 372.267 211.561 372.267 210.774C372.267 210.069 371.86 209.69 370.043 209.256C367.956 208.768 366.762 208.144 366.762 206.3C366.762 204.619 368.172 203.453 370.125 203.453C371.562 203.453 372.701 203.887 373.704 204.7L372.782 206.002C371.887 205.351 371.02 204.999 370.098 204.999C369.094 204.999 368.498 205.514 368.498 206.192C368.498 206.951 368.959 207.276 370.83 207.737C372.918 208.253 374.002 208.985 374.002 210.639C374.002 212.483 372.565 213.567 370.477 213.567C368.986 213.621 367.576 213.079 366.383 212.022Z" opacity=".6"/><path fill="#fff" d="M387.153 205.215H384.035V203.615H392.034V205.215H388.916V213.458H387.181V205.215H387.153Z" opacity=".6"/><path fill="#fff" d="M333.438 231.409V225.742H335.173V231.355C335.173 233.172 336.122 234.175 337.668 234.175C339.213 234.175 340.135 233.253 340.135 231.436V225.742H341.87V231.328C341.87 234.256 340.216 235.748 337.64 235.748C335.092 235.748 333.438 234.256 333.438 231.409Z" opacity=".6"/><path fill="#fff" d="M352.066 225.742H353.991L356.974 233.307L359.929 225.742H361.8L357.706 235.666H356.187L352.066 225.742Z" opacity=".6"/><path fill="#fff" d="M371.373 225.742H373.244L375.603 233.036L378.016 225.715H379.48L381.893 233.036L384.252 225.742H386.069L382.626 235.666H381.134L378.721 228.589L376.308 235.666H374.816L371.373 225.742Z" opacity=".6"/><path fill="#fff" d="M339.81 252.694L336.366 247.84H338.4L340.84 251.365L343.308 247.84H345.287L341.844 252.666L345.423 257.71H343.389L340.786 253.968L338.183 257.71H336.204L339.81 252.694Z" opacity=".6"/><path fill="#fff" d="M358.764 253.805L354.859 247.84H356.893L359.658 252.205L362.451 247.84H364.431L360.526 253.778V257.71H358.791V253.805H358.764Z" opacity=".6"/><path fill="#fff" d="M374.247 256.41L380.049 249.36H374.409V247.814H382.3V249.089L376.497 256.139H382.3V257.685H374.247V256.41Z" opacity=".6"/></g><path fill="#FFB27D" d="M171.182 337.049C163.782 383.186 157.672 432.913 160.317 459.084C162.49 466.422 169.23 468.847 175.182 469.791L171.088 474.263L159.562 474.925L144.193 468.878C144.193 468.878 145.075 465.855 145.799 460.533C146.618 454.391 143.752 440.314 143.752 440.314C143.752 440.314 136.257 391.721 140.508 380.824C141.705 377.738 142.524 374.179 142.996 370.337C144.256 360.511 143.563 348.733 142.713 337.269C141.831 324.798 140.76 312.736 141.957 304.044C147.342 264.3 147.405 229.91 147.405 229.91H177.576C177.576 229.91 186.11 254.191 182.142 275.008C178.772 292.675 174.836 314.406 171.182 337.049Z"/><path fill="#F3A36C" d="M143.028 370.305C144.287 360.479 143.594 348.701 142.744 337.237L165.01 328.23L171.182 337.048C170.237 338.214 153.672 357.739 143.028 370.305Z"/><path fill="#FFB27D" d="M229.696 199.361C229.696 199.361 233.129 195.739 235.553 193.976C237.978 192.212 244.875 190.417 245.568 193.409C245.883 194.731 243.458 197.692 241.726 198.731C239.994 199.77 239.711 201.124 237.884 203.014C236.026 204.904 231.522 204.998 231.522 204.998L229.696 199.361Z"/><path fill="#1A2522" d="M129.328 169.507C127.879 166.736 160.695 156.753 161.198 184.12C161.198 184.12 222.641 182.608 193.29 148.375C183.149 136.534 184.188 126.708 184.472 117.607C184.787 108.474 178.142 81.957 155.404 84.6339C155.404 84.6339 149.452 82.2089 142.019 86.0511C125.139 94.8376 87.2847 179.616 129.328 169.507Z"/><path fill="#31D0AA" d="M171.906 202.07C171.906 202.07 174.079 206.385 178.016 211.329C182.771 217.281 190.109 224.147 199.305 225.501C203.714 226.162 207.997 225.218 211.934 223.454C223.114 218.51 231.522 207.078 231.522 207.078C233.506 201.692 230.263 198.071 230.263 198.071C230.263 198.071 207.714 203.141 205.541 202.07C203.399 201 190.865 164.877 187.873 160.342C184.881 155.807 174.709 153.445 174.709 153.445L171.906 202.07Z"/><path fill="#31D0AA" d="M178.048 211.329C182.803 217.281 190.141 224.146 199.337 225.5C203.746 226.162 208.029 225.217 211.966 223.453C211.525 223.516 200.376 224.902 195.936 216.934C191.401 208.809 186.488 195.929 179.748 200.212C176.82 202.07 176.946 206.699 178.048 211.329Z"/><path fill="#FFB27D" d="M108.322 477.003C108.322 477.003 100.953 477.003 97.9295 477.003C94.9062 477.003 91.4734 474.705 90.6231 469.225C89.7728 463.776 83.5687 460.785 82.2145 456.344C81.3012 453.289 83.4742 451.085 85.5213 449.416C86.4661 448.628 87.3794 447.967 87.9777 447.369C90.0877 445.227 92.0718 436.031 92.0718 436.031L103.031 441.794C103.031 441.794 97.8665 450.581 100.858 460.438C102.244 465.068 103.504 469.319 106.59 471.965C107.314 472.594 108.133 473.13 109.109 473.571C113.896 475.712 108.322 477.003 108.322 477.003Z"/><path fill="#31D0AA" d="M116.258 184.119C116.258 184.119 115.691 192.244 116.258 202.007C116.636 208.463 123.187 217.124 124.1 219.265C126.43 224.65 129.044 225.501 129.044 225.501L149.357 230.477L156.506 232.209L179.024 225.469C179.024 225.469 189.29 196.842 185.165 180.718C181.039 164.593 174.741 153.413 174.741 153.413C174.741 153.413 148.853 146.674 128.792 152.532L116.258 184.119Z"/><path fill="#FFB27D" d="M130.367 228.809C130.367 228.809 113.361 251.641 111.786 267.072C110.212 282.504 125.234 325.208 121.864 340.23C119.345 351.379 105.992 360.26 102.307 388.383C101.016 398.146 96.3863 417.703 92.1348 436L101.551 445.259C124.006 394.115 147.216 361.898 148.57 350.592C149.546 342.592 154.081 300.486 172.505 269.371C176.914 261.908 169.796 232.241 169.796 232.241L130.367 228.809Z"/><path fill="#1FAE8C" d="M183.212 281.37C180.724 311.855 177.764 337.521 177.764 337.521C177.764 337.521 163.56 347.095 143.436 348.323C134.24 348.89 123.848 347.694 112.983 343.064C112.983 343.064 108.857 269.465 111.471 257.75C114.117 246.035 125.769 229.91 125.769 229.91L178.236 231.926C178.268 231.894 185.731 250.884 183.212 281.37Z"/><path fill="#014837" d="M179.37 224.494C179.37 224.494 174.898 228.021 165.986 228.21C155.373 228.431 129.045 225.502 129.045 225.502C129.045 225.502 127.879 228.777 127.911 232.21C127.911 232.21 160.065 240.304 178.677 233.407C178.709 233.407 181.134 228.903 179.37 224.494Z"/><path fill="#fff" d="M163.718 231.894C163.718 228.87 165.891 226.414 168.568 226.414C171.245 226.414 173.418 228.87 173.418 231.894C173.418 234.917 171.245 237.374 168.568 237.374C165.891 237.374 163.718 234.917 163.718 231.894ZM165.324 231.894C165.324 234.035 166.773 235.767 168.568 235.767C170.363 235.767 171.811 234.035 171.811 231.894C171.811 229.752 170.363 228.02 168.568 228.02C166.773 227.989 165.324 229.752 165.324 231.894Z"/><path fill="#1B2434" d="M94.4369 230.749L127.381 259.434L166.634 214.352L133.69 185.667L94.4369 230.749Z"/><path fill="#FFB27D" d="M136.508 230.887C136.508 230.887 148.57 232.304 148.539 235.17C148.507 238.036 145.547 243.925 144.035 244.177C142.555 244.429 134.209 236.209 134.209 236.209L136.508 230.887Z"/><path fill="#31D0AA" d="M132.477 151.934C132.477 151.934 116.353 153.067 110.18 168.089C104.008 183.112 92.2925 208.306 92.2925 212.557C92.2925 216.809 98.843 229.878 133.989 237.374C133.989 237.374 137.611 233.563 137.39 230.54C137.39 230.54 115.44 211.707 115.503 209.503C115.629 205.346 119.093 199.834 138.367 180.561C143.626 175.301 132.477 151.934 132.477 151.934Z"/><path fill="#F9DDBF" d="M227.365 242.383L275.644 100.476C275.865 99.8145 276.148 99.2161 275.518 98.9642L274.92 98.7437C274.258 98.4918 274.069 98.9327 273.817 99.594L222.358 239.454C221.886 240.777 222.516 242.288 223.807 242.855L225.004 243.391C225.948 243.8 227.051 243.328 227.365 242.383Z"/><path fill="#FFB27D" d="M233.916 198.67C233.916 198.67 236.12 198.607 238.419 197.977C240.246 197.505 242.576 196.654 242.576 196.654C243.962 197.662 239.175 200.402 237.947 202.26C236.939 203.772 235.805 204.213 233.065 204.811L233.916 198.67Z"/><path fill="#233862" d="M156.758 476.595C163.466 475.776 161.702 477.476 171.119 477.539C180.535 477.602 183.747 474.453 184.188 473.099C184.598 471.902 180.031 470.926 175.181 469.792L174.992 469.918C174.992 469.918 169.072 473.193 161.324 472.469C154.994 471.871 148.538 469.288 144.192 468.879C143.94 470.296 143.657 471.776 143.783 473.256C144.129 477.445 150.05 477.413 156.758 476.595Z"/><path fill="#233862" d="M108.322 477.004C108.322 477.004 100.953 477.004 97.9295 477.004C94.9062 477.004 91.4734 474.705 90.6231 469.225C89.7728 463.777 83.5687 460.785 82.2145 456.344C81.3012 453.29 83.4742 451.085 85.5213 449.416C86.655 451.117 89.143 455.4 91.5364 463.273C94.3708 472.469 101.142 472.752 106.559 471.965C107.283 472.595 108.102 473.13 109.078 473.571C113.896 475.713 108.322 477.004 108.322 477.004Z"/><path fill="#FFB27D" d="M134.996 151.147C138.272 150.422 140.948 148.123 142.082 144.974C143.436 141.195 144.507 135.589 144.476 128.566L145.483 128.755L162.616 132.157C162.616 132.157 162.238 137.542 162.206 142.644C162.206 142.675 162.206 142.738 162.206 142.77C162.175 147.179 165.072 151.084 169.324 152.312C171.497 152.942 158.994 169.381 157.577 169.066C154.648 168.373 133.957 151.399 134.996 151.147Z"/><path fill="#E8945B" d="M162.648 132.188C162.648 132.188 162.27 137.573 162.238 142.675C152.633 142.392 147.562 133.668 145.484 128.818L162.648 132.188Z"/><path fill="#FFB27D" d="M165.86 136.975C165.86 136.975 143.153 137.353 143.153 123.213C143.153 109.073 140.193 99.5932 154.68 98.7744C169.167 97.9241 172.001 103.341 173.135 108.033C174.3 112.757 171.749 136.534 165.86 136.975Z"/><path fill="#1A2522" d="M165.009 98.4287C165.009 98.4287 158.805 115.025 149.263 117.482C139.72 119.938 135.595 117.387 135.595 117.387C135.595 117.387 142.901 111.561 144.413 101.421C144.413 101.421 160.317 90.524 165.009 98.4287Z"/><path fill="#1A2522" d="M163.466 99.7802C163.466 99.7802 168.064 101.512 169.985 104.851C171.843 108.126 173.418 112.503 173.04 117.826C173.04 117.826 177.733 106.551 172.473 100.19C166.899 93.4186 163.466 99.7802 163.466 99.7802Z"/><path fill="#014837" d="M157.608 169.067C157.608 169.067 142.271 152.659 141.673 145.951C141.673 145.951 137.768 147.053 133.17 151.525C133.17 151.525 136.855 160.753 141.264 163.808C141.264 163.808 144.476 163.367 146.995 162.327C146.995 162.327 145.389 164.973 144.129 166.579C144.129 166.579 151.089 170.516 157.608 169.067Z"/><path fill="#014837" d="M162.994 146.581C162.994 146.581 169.04 157.635 157.608 169.067C157.608 169.067 164.789 167.681 168.473 162.642C168.473 162.642 167.34 159.934 166.363 159.304C166.363 159.304 168.505 158.454 169.859 159.713C169.859 159.713 170.678 153.793 169.859 151.966C169.04 150.14 164.757 146.518 162.994 146.581Z"/><path fill="#233862" d="M156.475 169.067C156.475 168.437 156.978 167.934 157.608 167.934C158.238 167.934 158.742 168.437 158.742 169.067C158.742 169.697 158.238 170.201 157.608 170.201C156.978 170.201 156.475 169.697 156.475 169.067Z"/><path fill="#233862" d="M162.584 185.255C162.584 184.625 163.088 184.121 163.718 184.121C164.348 184.121 164.852 184.625 164.852 185.255C164.852 185.885 164.348 186.389 163.718 186.389C163.088 186.389 162.584 185.916 162.584 185.255Z"/><path fill="#233862" d="M163.718 204.276C163.718 203.646 164.222 203.143 164.852 203.143C165.481 203.143 165.985 203.646 165.985 204.276C165.985 204.906 165.481 205.41 164.852 205.41C164.222 205.41 163.718 204.906 163.718 204.276Z"/><path fill="#076A52" d="M183.213 281.369C180.725 311.854 177.764 337.521 177.764 337.521C177.764 337.521 163.561 347.095 143.437 348.323C143.783 348.197 155.215 343.788 163.687 333.868C172.316 323.79 183.213 281.369 183.213 281.369Z"/></svg>