<svg xmlns="http://www.w3.org/2000/svg" width="435" height="484" fill="none" viewBox="0 0 435 484"><path fill="#1684F8" d="M204.945 407.916H10.6892L0.0598755 95.5062H194.316L204.945 407.916Z"/><path fill="#1684F8" d="M214.644 398.217H20.3884L9.74536 85.8071H204.001L214.644 398.217Z"/><path fill="#fff" d="M214.644 398.217H20.3884L9.74536 85.8071H204.001L214.644 398.217Z" opacity=".3"/><path fill="#1684F8" d="M149.559 214.363C170.358 193.205 169.473 158.608 147.582 137.088C125.691 115.569 91.0839 115.276 70.2846 136.434C49.4853 157.592 50.3701 192.189 72.261 213.709C94.1519 235.228 128.759 235.522 149.559 214.363Z"/><path fill="#fff" d="M155.027 175.411C155.307 182.855 153.682 190.248 150.307 196.889C146.665 204.046 141.1 210.046 134.238 214.216C127.375 218.387 119.486 220.563 111.456 220.5C103.237 220.456 95.1746 218.251 88.0769 214.107C80.9793 209.962 75.0963 204.025 71.0181 196.889C67.2155 190.35 65.0912 182.971 64.8347 175.411C64.5824 169.549 65.5244 163.697 67.6036 158.211C69.6828 152.725 72.8557 147.718 76.9295 143.496C81.0034 139.274 85.8932 135.924 91.3017 133.649C96.7103 131.375 102.525 130.225 108.392 130.267C120.478 130.353 132.068 135.091 140.752 143.498C149.437 151.905 154.549 163.334 155.027 175.411Z"/><path fill="#1684F8" d="M150.28 196.889C146.637 204.045 141.073 210.046 134.21 214.216C127.348 218.387 119.459 220.563 111.429 220.5C103.21 220.456 95.1473 218.251 88.0496 214.107C80.952 209.962 75.0689 204.025 70.9907 196.889C82.5601 189.001 96.25 184.808 110.252 184.864C124.48 184.895 138.391 189.073 150.28 196.889Z" opacity=".6"/><path fill="#1684F8" d="M123.976 174.286C131.624 166.506 131.299 153.784 123.249 145.871C115.2 137.958 102.474 137.851 94.8263 145.631C87.1781 153.411 87.5035 166.133 95.5529 174.046C103.602 181.959 116.328 182.066 123.976 174.286Z" opacity=".6"/><path fill="#fff" d="M175.615 285.084H51.7019L50.8675 260.46H174.781L175.615 285.084Z"/><path fill="#fff" d="M177.12 329.092H53.193L52.3585 304.468H176.286L177.12 329.092Z"/><path fill="#1684F8" d="M129.295 307.861L99.4314 311.965C99.1464 311.997 98.8713 312.088 98.6233 312.232C98.3752 312.376 98.1596 312.57 97.99 312.801C97.8204 313.032 97.7005 313.296 97.6378 313.576C97.5751 313.856 97.5709 314.146 97.6256 314.427L101.552 334.441C101.68 335.028 102.024 335.546 102.515 335.893C103.006 336.24 103.609 336.391 104.206 336.315L134.069 332.211C134.353 332.175 134.627 332.081 134.874 331.935C135.12 331.789 135.334 331.594 135.502 331.362C135.67 331.13 135.789 330.866 135.851 330.586C135.912 330.306 135.916 330.016 135.861 329.735L131.949 309.721C131.82 309.135 131.476 308.618 130.984 308.274C130.493 307.929 129.89 307.782 129.295 307.861ZM120.717 328.135L115.245 328.86L114.712 322.403C114.148 322.159 113.651 321.783 113.263 321.307C112.875 320.831 112.607 320.268 112.482 319.667C112.382 319.201 112.38 318.719 112.477 318.252C112.575 317.786 112.769 317.345 113.047 316.958C113.326 316.571 113.683 316.247 114.094 316.007C114.506 315.766 114.963 315.615 115.437 315.563C116.409 315.438 117.392 315.682 118.192 316.247C118.993 316.811 119.552 317.656 119.76 318.613C119.878 319.192 119.842 319.791 119.655 320.351C119.467 320.91 119.136 321.411 118.693 321.801L120.717 328.135Z"/><path fill="#1684F8" d="M126.34 306.78C125.812 306.847 125.278 306.715 124.843 306.409C124.407 306.102 124.102 305.645 123.987 305.125L123.604 303.169C123.057 300.499 121.561 298.118 119.393 296.468C117.224 294.818 114.531 294.01 111.812 294.195C110.44 294.273 109.101 294.645 107.886 295.287C106.67 295.929 105.608 296.824 104.769 297.913C103.931 299.002 103.337 300.258 103.027 301.597C102.717 302.936 102.699 304.326 102.975 305.672L103.412 307.929C103.463 308.179 103.462 308.437 103.407 308.687C103.353 308.936 103.247 309.171 103.096 309.377C102.945 309.583 102.753 309.756 102.532 309.883C102.311 310.011 102.066 310.091 101.812 310.118C101.283 310.192 100.746 310.062 100.309 309.755C99.872 309.447 99.5682 308.986 99.4588 308.463L99.0895 306.561C98.7138 304.784 98.7014 302.949 99.0529 301.167C99.4043 299.385 100.112 297.693 101.135 296.191C102.157 294.69 103.472 293.41 105.001 292.43C106.531 291.45 108.242 290.789 110.033 290.487C113.917 289.835 117.903 290.703 121.163 292.912C124.424 295.12 126.709 298.499 127.544 302.348L127.982 304.591C128.033 304.845 128.03 305.106 127.973 305.358C127.916 305.61 127.806 305.847 127.651 306.054C127.496 306.26 127.299 306.432 127.073 306.557C126.847 306.682 126.597 306.758 126.34 306.78Z"/><path fill="#1684F8" d="M156.669 363.579H75.9976L75.4641 347.547H156.121L156.669 363.579Z"/><path fill="#263238" d="M117.749 272.772C117.773 273.356 117.678 273.94 117.47 274.487C117.262 275.034 116.945 275.533 116.538 275.954C116.131 276.375 115.643 276.709 115.104 276.935C114.564 277.162 113.984 277.277 113.399 277.272C112.193 277.263 111.036 276.791 110.168 275.953C109.3 275.116 108.786 273.977 108.734 272.772C108.71 272.187 108.805 271.603 109.013 271.056C109.221 270.509 109.538 270.01 109.945 269.589C110.352 269.169 110.84 268.835 111.379 268.608C111.919 268.381 112.499 268.267 113.084 268.271C114.291 268.277 115.45 268.748 116.319 269.586C117.187 270.425 117.7 271.565 117.749 272.772Z"/><path fill="#263238" d="M98.296 272.772C98.3221 273.357 98.2286 273.941 98.0211 274.489C97.8137 275.037 97.4967 275.537 97.0895 275.958C96.6824 276.379 96.1936 276.713 95.6531 276.939C95.1125 277.165 94.5316 277.278 93.9458 277.272C92.7409 277.263 91.5859 276.79 90.72 275.952C89.8541 275.114 89.3437 273.976 89.2946 272.772C89.2705 272.187 89.3654 271.603 89.5736 271.056C89.7817 270.509 90.0988 270.01 90.5056 269.589C90.9123 269.169 91.4003 268.835 91.9399 268.608C92.4795 268.381 93.0596 268.267 93.6448 268.271C94.8507 268.277 96.0077 268.749 96.8743 269.587C97.7409 270.426 98.2502 271.567 98.296 272.772Z"/><path fill="#263238" d="M78.966 272.772C78.9901 273.356 78.8952 273.94 78.6871 274.487C78.4789 275.034 78.1619 275.533 77.7551 275.954C77.3483 276.375 76.8603 276.709 76.3207 276.935C75.7811 277.162 75.2011 277.277 74.6158 277.272C73.4099 277.266 72.253 276.795 71.3864 275.956C70.5198 275.117 70.0104 273.977 69.9646 272.772C69.9405 272.187 70.0354 271.603 70.2436 271.056C70.4517 270.509 70.7688 270.01 71.1756 269.589C71.5823 269.169 72.0703 268.835 72.6099 268.608C73.1496 268.381 73.7296 268.267 74.3149 268.271C75.5207 268.277 76.6777 268.749 77.5443 269.587C78.4109 270.426 78.9202 271.567 78.966 272.772Z"/><path fill="#263238" d="M137.134 272.772C137.158 273.357 137.063 273.94 136.855 274.487C136.646 275.034 136.329 275.533 135.923 275.954C135.516 276.375 135.028 276.709 134.488 276.935C133.949 277.162 133.369 277.277 132.783 277.272C131.577 277.266 130.42 276.795 129.554 275.956C128.687 275.118 128.178 273.977 128.132 272.772C128.112 272.189 128.21 271.608 128.421 271.064C128.632 270.52 128.951 270.024 129.359 269.607C129.767 269.19 130.255 268.86 130.794 268.638C131.334 268.415 131.913 268.304 132.496 268.312C133.693 268.321 134.84 268.789 135.703 269.618C136.566 270.448 137.078 271.576 137.134 272.772Z"/><path fill="#263238" d="M156.518 272.772C156.544 273.357 156.451 273.941 156.243 274.489C156.036 275.037 155.719 275.537 155.311 275.958C154.904 276.379 154.416 276.713 153.875 276.939C153.334 277.165 152.754 277.278 152.168 277.272C150.963 277.263 149.808 276.79 148.942 275.952C148.076 275.114 147.566 273.976 147.517 272.772C147.492 272.187 147.587 271.603 147.796 271.056C148.004 270.509 148.321 270.01 148.728 269.589C149.134 269.169 149.622 268.835 150.162 268.608C150.701 268.381 151.282 268.267 151.867 268.271C153.073 268.277 154.23 268.749 155.096 269.587C155.963 270.426 156.472 271.567 156.518 272.772Z"/><path fill="#ED9882" d="M319.789 152.415C321.608 155.343 323.127 158.133 324.686 161.047C326.246 163.961 327.655 166.888 329.037 169.884C331.856 175.951 334.189 182.231 336.013 188.667C336.26 189.474 336.438 190.336 336.643 191.17L336.944 192.443L337.094 193.072L337.272 194.112C337.581 196.47 337.437 198.866 336.848 201.171C335.904 204.749 334.467 208.179 332.58 211.362C329.204 217.147 325.123 222.491 320.432 227.272L314.673 222.922C317.564 217.607 320.135 212.126 322.375 206.506C323.372 204.03 324.075 201.444 324.468 198.804C324.593 197.998 324.556 197.174 324.358 196.383L323.811 194.714C323.592 194.03 323.387 193.346 323.127 192.648C321.046 187.004 318.639 181.487 315.918 176.122C313.182 170.65 310.24 165.178 307.299 159.953L319.789 152.415Z"/><path fill="#ED9882" d="M316.136 221.02L309.844 224.345L317.067 232.799C317.067 232.799 321.581 229.748 321.786 225.097L316.136 221.02Z"/><path fill="#ED9882" d="M301.403 229.557L309.132 235.699L317.067 232.799L309.844 224.345L301.403 229.557Z"/><path fill="#263238" d="M274.973 107.654C274.823 108.42 274.289 108.954 273.797 108.858C273.304 108.762 273.017 108.051 273.167 107.298C273.318 106.546 273.851 105.93 274.358 106.095C274.864 106.259 275.124 106.888 274.973 107.654Z"/><path fill="#FF5652" d="M274.358 108.967C272.98 111.11 271.314 113.053 269.405 114.74C269.856 115.207 270.402 115.571 271.007 115.808C271.611 116.044 272.26 116.146 272.908 116.108L274.358 108.967Z"/><path fill="#ED9882" d="M271.895 135.808V126.833L283.769 128.201C283.769 128.201 283.578 135.917 276.929 138.188L271.895 135.808Z"/><path fill="#ED9882" d="M275.315 120.376L283.674 122.784L283.824 128.27L271.95 126.833L275.315 120.376Z"/><path fill="#000" d="M283.674 122.784L275.315 120.376L273.687 123.496C273.776 125.953 274.544 128.338 275.906 130.386C277.268 132.434 279.171 134.064 281.403 135.096C282.839 133.09 283.678 130.719 283.824 128.256L283.674 122.784Z" opacity=".2"/><path fill="#263238" d="M278.612 104.001C278.7 103.999 278.785 103.972 278.858 103.923C278.931 103.875 278.988 103.806 279.024 103.726C279.06 103.646 279.072 103.557 279.06 103.471C279.048 103.384 279.011 103.302 278.954 103.235C278.473 102.693 277.87 102.273 277.194 102.011C276.518 101.749 275.79 101.653 275.069 101.731C274.951 101.751 274.846 101.817 274.777 101.914C274.707 102.012 274.68 102.133 274.7 102.25C274.72 102.369 274.785 102.475 274.882 102.547C274.979 102.618 275.1 102.649 275.219 102.633C275.79 102.577 276.366 102.659 276.899 102.871C277.432 103.082 277.907 103.419 278.284 103.851C278.326 103.897 278.376 103.934 278.433 103.959C278.489 103.985 278.55 104 278.612 104.001Z"/><path fill="#ED9882" d="M296.095 121.498C294.727 128.543 293.879 138.297 298.831 142.99C298.831 142.99 296.916 150.13 283.783 150.13C269.406 150.13 276.875 143.865 276.875 143.865C282.853 142.005 282.798 135.206 281.43 129.734L296.095 121.498Z"/><path fill="#1684F8" d="M301.499 147.695C302.785 145.89 302.73 140.158 301.362 139.145C299.159 137.518 289.707 137.134 276.998 140.062C278.366 145.616 275.425 148.516 275.425 148.516L301.499 147.695Z"/><path fill="#1684F8" d="M344.262 472.472C343.872 472.61 343.458 472.668 343.045 472.645C342.632 472.621 342.227 472.516 341.855 472.336C341.714 472.204 341.617 472.032 341.578 471.844C341.538 471.655 341.559 471.459 341.636 471.282C341.679 471.134 341.754 470.998 341.856 470.882C341.957 470.766 342.083 470.674 342.224 470.612C343.524 469.983 346.506 471.2 346.643 471.255C346.684 471.271 346.718 471.3 346.743 471.336C346.767 471.373 346.78 471.416 346.78 471.46C346.779 471.504 346.768 471.547 346.746 471.585C346.725 471.624 346.694 471.656 346.656 471.679C345.885 472.018 345.083 472.283 344.262 472.472ZM342.689 470.926C342.599 470.948 342.512 470.98 342.429 471.022C342.344 471.053 342.267 471.104 342.205 471.171C342.144 471.238 342.098 471.318 342.074 471.405C341.95 471.816 342.074 471.953 342.156 471.994C342.676 472.431 344.591 471.994 345.945 471.487C344.915 471.061 343.803 470.869 342.689 470.926Z"/><path fill="#1684F8" d="M346.602 471.693H346.492C345.398 471.378 343.072 469.723 343.045 468.642C343.044 468.47 343.102 468.303 343.209 468.169C343.316 468.034 343.466 467.941 343.633 467.903C343.795 467.842 343.969 467.818 344.142 467.833C344.314 467.847 344.482 467.899 344.632 467.985C345.918 468.642 346.739 471.296 346.766 471.419C346.785 471.452 346.795 471.49 346.795 471.528C346.795 471.567 346.785 471.605 346.766 471.638C346.745 471.659 346.719 471.675 346.69 471.685C346.662 471.694 346.631 471.697 346.602 471.693ZM343.866 468.286H343.756C343.483 468.382 343.483 468.519 343.483 468.587C343.483 469.23 345.042 470.53 346.219 471.05C345.931 470.283 345.302 468.765 344.468 468.314C344.282 468.229 344.072 468.219 343.879 468.286H343.866Z"/><path fill="#1684F8" d="M273.208 474.087C271.977 474.087 270.787 473.909 270.39 473.362C270.287 473.216 270.231 473.041 270.231 472.862C270.231 472.683 270.287 472.509 270.39 472.363C270.469 472.229 270.573 472.113 270.698 472.021C270.823 471.929 270.965 471.864 271.115 471.829C272.716 471.392 276.081 473.307 276.218 473.389C276.26 473.409 276.294 473.444 276.314 473.486C276.334 473.528 276.339 473.576 276.328 473.621C276.322 473.668 276.302 473.712 276.27 473.747C276.238 473.781 276.196 473.804 276.15 473.813C275.179 473.991 274.195 474.082 273.208 474.087ZM271.69 472.212C271.545 472.189 271.397 472.189 271.252 472.212C271.16 472.231 271.072 472.269 270.994 472.323C270.917 472.377 270.851 472.447 270.801 472.527C270.637 472.814 270.705 472.951 270.801 473.033C271.252 473.662 273.674 473.676 275.466 473.416C274.296 472.777 273.014 472.368 271.69 472.212Z"/><path fill="#1684F8" d="M276.136 473.813H276.04C274.877 473.293 272.579 471.214 272.757 470.119C272.757 469.859 272.976 469.545 273.605 469.49C273.83 469.464 274.058 469.484 274.275 469.55C274.491 469.616 274.692 469.726 274.864 469.873C275.74 470.921 276.267 472.218 276.369 473.58C276.368 473.619 276.359 473.658 276.343 473.693C276.326 473.729 276.303 473.76 276.273 473.786C276.231 473.807 276.183 473.816 276.136 473.813ZM273.783 469.914H273.646C273.236 469.914 273.208 470.106 273.208 470.16C273.099 470.817 274.659 472.459 275.849 473.17C275.744 472.072 275.299 471.034 274.576 470.201C274.352 470.01 274.065 469.908 273.769 469.914H273.783Z"/><path fill="#ED9882" d="M286.697 473.594H277.08L276.122 451.309H285.739L286.697 473.594Z"/><path fill="#ED9882" d="M357.327 469.134L347.929 471.173L338.476 450.42L347.888 448.382L357.327 469.134Z"/><path fill="#263238" d="M347.012 470.229L357.587 467.944C357.772 467.905 357.964 467.93 358.133 468.014C358.302 468.099 358.437 468.238 358.517 468.409L362.183 476.371C362.281 476.564 362.331 476.777 362.331 476.993C362.33 477.209 362.278 477.422 362.179 477.614C362.081 477.806 361.938 477.972 361.762 478.099C361.587 478.225 361.384 478.308 361.171 478.341C357.477 479.066 355.63 479.244 350.993 480.243C348.134 480.872 341.677 482.445 337.723 483.293C333.77 484.141 332.415 480.352 333.961 479.654C340.87 476.494 343.743 473.717 345.617 471.132C345.956 470.67 346.452 470.349 347.012 470.229Z"/><path fill="#263238" d="M277.148 472.472H287.655C287.845 472.474 288.03 472.539 288.179 472.658C288.328 472.777 288.432 472.943 288.475 473.129L290.377 481.679C290.433 481.886 290.439 482.102 290.396 482.312C290.353 482.522 290.261 482.718 290.128 482.886C289.995 483.054 289.824 483.188 289.63 483.277C289.436 483.367 289.223 483.41 289.009 483.403C285.22 483.334 279.748 483.115 274.987 483.115C269.406 483.115 264.604 483.416 258.065 483.416C254.111 483.416 253.017 479.422 254.672 479.052C262.196 477.411 268.352 477.233 274.85 473.225C275.533 472.768 276.328 472.507 277.148 472.472Z"/><path fill="#1684F8" d="M316.041 145.192C325.056 147.258 332.457 170.281 332.457 170.281L314.44 184.057C309.764 179.057 306.464 172.929 304.864 166.273C301.677 154.207 306.82 143.058 316.041 145.192Z"/><path fill="#000" d="M316.041 145.192C325.056 147.258 332.457 170.281 332.457 170.281L314.44 184.057C309.764 179.057 306.464 172.929 304.864 166.273C301.677 154.207 306.82 143.058 316.041 145.192Z" opacity=".4"/><path fill="#ED9882" d="M268.612 172.648C266.369 175.069 264.125 177.231 261.772 179.488C260.609 180.582 259.433 181.677 258.229 182.73L256.409 184.33L255.958 184.727L255.178 185.356C254.376 185.998 253.487 186.523 252.538 186.916C251.482 187.364 250.347 187.597 249.2 187.6C248.22 187.604 247.247 187.433 246.327 187.094C245.307 186.705 244.377 186.114 243.591 185.356C242.589 184.377 241.854 183.157 241.457 181.813C241.249 181.151 241.116 180.467 241.061 179.775C240.989 178.965 240.989 178.15 241.061 177.34C241.129 176.683 241.211 176.109 241.32 175.575C241.695 173.71 242.226 171.879 242.907 170.103C243.523 168.415 244.231 166.762 245.028 165.151C245.903 163.414 246.738 162.141 247.572 160.691C250.962 155.139 254.829 149.893 259.132 145.014C263.391 140.164 268.084 135.713 273.154 131.717L278.188 136.902C274.659 141.635 271.184 146.71 267.969 151.704C264.77 156.669 261.847 161.806 259.214 167.094C258.626 168.38 257.846 169.83 257.477 170.869C256.987 172.077 256.562 173.31 256.204 174.563C255.86 175.691 255.599 176.843 255.425 178.01C255.415 178.193 255.415 178.375 255.425 178.557C255.425 178.667 255.425 178.722 255.425 178.434C255.402 178.127 255.342 177.824 255.247 177.531C254.951 176.562 254.409 175.685 253.673 174.987C253.019 174.386 252.252 173.921 251.416 173.619C250.682 173.341 249.903 173.197 249.118 173.195C248.363 173.186 247.614 173.33 246.916 173.619C246.679 173.715 246.451 173.83 246.232 173.961L246.751 173.482L248.407 171.977L251.676 168.913C253.838 166.875 256.013 164.7 258.065 162.675L268.612 172.648Z"/><path fill="#000" d="M308.311 162.101C313.209 166.943 314.809 175.781 315.151 183.441L314.358 184.057C309.682 179.057 306.382 172.929 304.782 166.273C304.604 165.562 304.44 164.905 304.317 164.125L308.311 162.101Z" opacity=".2"/><path fill="#1684F8" d="M259.05 154.768C257.08 165.165 255.849 186.519 261.553 228.79H313.072C313.428 220.897 308.462 182.347 316.082 145.124C310.389 144.03 304.631 143.304 298.845 142.948C291.555 142.53 284.247 142.53 276.957 142.948C274.549 143.167 272.169 143.523 270.117 143.892C267.388 144.371 264.868 145.667 262.892 147.609C260.916 149.551 259.576 152.048 259.05 154.768Z"/><path fill="#000" d="M259.05 154.768C257.08 165.165 255.849 186.519 261.553 228.79H313.072C313.428 220.897 308.462 182.347 316.082 145.124C310.389 144.03 304.631 143.304 298.845 142.948C291.555 142.53 284.247 142.53 276.957 142.948C274.549 143.167 272.169 143.523 270.117 143.892C267.388 144.371 264.868 145.667 262.892 147.609C260.916 149.551 259.576 152.048 259.05 154.768Z" opacity=".4"/><path fill="#000" d="M266.929 170.185L257.627 167.956C257.34 173.592 257.312 180.568 257.723 189.201C262.005 184.33 267.477 176.724 266.929 170.185Z" opacity=".2"/><path fill="#000" d="M276.122 451.309L276.615 462.801H286.246L285.753 451.309H276.122Z" opacity=".2"/><path fill="#000" d="M347.888 448.382L338.476 450.42L343.346 461.118L352.758 459.08L347.888 448.382Z" opacity=".2"/><path fill="#ED9882" d="M300.664 111.211C298.202 120.431 297.217 125.958 291.526 129.788C282.976 135.616 272.306 128.94 272.032 119.2C271.731 110.404 275.821 96.7921 285.712 94.9317C287.886 94.5237 290.127 94.676 292.225 95.3741C294.324 96.0722 296.21 97.2932 297.706 98.9219C299.202 100.551 300.258 102.533 300.776 104.683C301.293 106.833 301.255 109.08 300.664 111.211Z"/><path fill="#263238" d="M279.077 111.553C278.612 110.322 276.492 100.787 278.489 98.3106C280.486 95.8345 303.264 97.6266 306.629 100.937C312.224 106.409 308.339 111.334 302.224 117.668C297.627 122.428 297.45 127.791 295.124 128.612C291.02 129.98 284.755 128.694 283.496 124.357C282.237 120.021 279.077 111.553 279.077 111.553Z"/><path fill="#263238" d="M303.865 90.089C295.821 86.669 280.732 90.4583 272.579 88.4884C272.475 91.5201 273.472 94.487 275.386 96.8407C277.3 99.1944 280.001 100.776 282.99 101.293C289.753 102.582 296.625 103.219 303.51 103.194C312.456 102.784 310.705 93.0028 303.865 90.089Z"/><path fill="#263238" d="M305.124 101.224C308.062 101.514 311.022 100.948 313.647 99.5966C315.151 103.235 306.875 104.234 305.124 101.224Z"/><path fill="#ED9882" d="M283.455 111.936C283.27 114.308 282.309 116.554 280.719 118.325C278.612 120.636 276.423 119.186 276.054 116.382C275.726 113.837 276.41 109.542 278.981 108.311C281.553 107.08 283.633 109.077 283.455 111.936Z"/><path fill="#1684F8" d="M279.816 228.832C279.816 228.832 290.76 302.362 296.738 329.913C303.291 360.077 338.503 459.873 338.503 459.873L355.726 456.138C355.726 456.138 331.102 374.797 325.63 332.622C321.389 300.227 313.058 228.804 313.058 228.804L279.816 228.832Z"/><path fill="#263238" d="M334.372 454.141C334.303 454.141 337.587 460.379 337.587 460.379L356.957 456.179L355.33 450.352L334.372 454.141Z"/><path fill="#000" d="M286.724 255.029C299.351 257.505 298.01 304.591 296.492 328.819C292.853 311.691 287.518 278.75 283.879 255.371C284.761 254.935 285.765 254.815 286.724 255.029Z" opacity=".3"/><path fill="#1684F8" d="M261.553 228.832C261.553 228.832 260.185 300.775 261.28 330.064C262.374 360.584 273.031 460.516 273.031 460.516H289.337C289.337 460.516 289.925 362.362 290.705 332.389C291.499 299.721 295.439 228.777 295.439 228.777L261.553 228.832Z"/><path fill="#263238" d="M269.898 454.086C269.816 454.086 270.815 460.844 270.815 460.844H290.637L291.184 454.811L269.898 454.086Z"/><path fill="#1684F8" d="M279.214 157.969C283.824 170.404 256.724 185.056 256.724 185.056L244.987 170.008C244.987 170.008 252.88 154.385 262.456 147.353C274.289 138.68 275.698 148.503 279.214 157.969Z"/><path fill="#000" d="M279.214 157.969C283.824 170.404 256.724 185.056 256.724 185.056L244.987 170.008C244.987 170.008 252.88 154.385 262.456 147.353C274.289 138.68 275.698 148.503 279.214 157.969Z" opacity=".4"/><path fill="#1684F8" d="M385.398 63.5634C412.665 63.5634 434.769 49.4765 434.769 32.0994C434.769 14.7223 412.665 0.635437 385.398 0.635437C358.131 0.635437 336.027 14.7223 336.027 32.0994C336.027 49.4765 358.131 63.5634 385.398 63.5634Z"/><path fill="#fff" d="M367.587 47.9409C364.334 47.9304 361.19 46.774 358.705 44.6749C356.221 42.5758 354.556 39.6684 354.002 36.4634C353.458 32.9917 354.241 29.4425 356.196 26.5222C358.15 23.6019 361.133 21.5246 364.55 20.704C367.354 20.0579 370.29 20.3069 372.945 21.4161C375.6 22.5252 377.84 24.4387 379.351 26.8874L411.048 20.3483C412.266 20.0815 413.54 20.2841 414.615 20.9156C415.69 21.547 416.488 22.5609 416.848 23.7546C417.014 24.3823 417.05 25.0371 416.955 25.6792C416.859 26.3212 416.633 26.937 416.291 27.4889C415.949 28.0407 415.498 28.5171 414.966 28.8888C414.434 29.2605 413.832 29.5197 413.196 29.6507L412.375 29.8149C412.253 29.8368 412.138 29.8864 412.038 29.9599C411.939 30.0335 411.857 30.1289 411.8 30.239C411.75 30.3507 411.724 30.472 411.724 30.5946C411.724 30.7173 411.75 30.8386 411.8 30.9503L412.361 32.4004C412.549 32.8704 412.567 33.3913 412.413 33.8732C412.258 34.3552 411.94 34.768 411.513 35.0406C411.177 35.2484 410.892 35.5301 410.681 35.8644C410.47 36.1986 410.339 36.5766 410.296 36.9695C410.255 37.4205 410.074 37.8472 409.776 38.1887C409.479 38.5302 409.081 38.769 408.64 38.871L407.997 39.0078C407.552 39.0902 407.091 39.0285 406.683 38.8318C406.275 38.635 405.94 38.3134 405.726 37.9134C405.443 37.4363 405.017 37.0596 404.509 36.836C404 36.6123 403.435 36.5529 402.891 36.6658C402.348 36.7787 401.853 37.0585 401.476 37.466C401.099 37.8736 400.858 38.3887 400.788 38.9394C400.75 39.3875 400.57 39.8119 400.275 40.1513C399.98 40.4906 399.585 40.7273 399.146 40.8273L398.503 40.9641C398.058 41.0443 397.598 40.9816 397.191 40.7851C396.783 40.5885 396.447 40.2682 396.233 39.8697C396.028 39.5304 395.752 39.2397 395.423 39.0177C395.095 38.7956 394.722 38.6476 394.331 38.5838C393.805 38.5205 393.32 38.2673 392.967 37.8719C392.615 37.4764 392.419 36.9658 392.416 36.436V34.8765C392.41 34.7545 392.378 34.6351 392.323 34.5265C392.267 34.418 392.188 34.3228 392.092 34.2474C391.996 34.1721 391.884 34.1184 391.766 34.09C391.647 34.0617 391.523 34.0593 391.404 34.083L381.294 36.1624C380.882 38.9632 379.616 41.5689 377.67 43.625C375.724 45.6811 373.192 47.0878 370.418 47.6536C369.487 47.8441 368.538 47.9404 367.587 47.9409ZM364.851 21.9489C361.748 22.6737 359.035 24.5471 357.258 27.1921C355.481 29.837 354.773 33.0569 355.275 36.2034C355.813 39.1308 357.381 41.7689 359.695 43.6406C362.009 45.5123 364.917 46.494 367.892 46.4081C370.867 46.3221 373.713 45.1742 375.915 43.172C378.118 41.1699 379.531 38.4456 379.899 35.4921V34.9996L391.048 32.7424C391.368 32.665 391.701 32.6598 392.023 32.7272C392.345 32.7946 392.648 32.9329 392.91 33.132C393.172 33.3311 393.386 33.5861 393.537 33.8783C393.689 34.1706 393.773 34.4929 393.784 34.8218V36.3813C393.787 36.567 393.854 36.7459 393.973 36.8879C394.093 37.03 394.258 37.1264 394.44 37.161C395.039 37.2467 395.609 37.4674 396.109 37.8063C396.609 38.1452 397.026 38.5936 397.327 39.1173C397.4 39.2649 397.516 39.3863 397.661 39.4648C397.805 39.5432 397.971 39.5747 398.134 39.555L398.763 39.4182C398.923 39.3772 399.065 39.2858 399.168 39.1577C399.272 39.0295 399.331 38.8715 399.338 38.7069C399.424 37.8553 399.779 37.0531 400.351 36.4164C400.923 35.7797 401.683 35.3413 402.52 35.1646C403.358 34.988 404.23 35.0822 405.01 35.4337C405.791 35.7852 406.439 36.3758 406.862 37.12C406.932 37.2665 407.046 37.3875 407.189 37.466C407.331 37.5444 407.494 37.5765 407.655 37.5578L408.312 37.421C408.469 37.3774 408.608 37.285 408.709 37.1571C408.81 37.0291 408.867 36.8724 408.873 36.7096C408.941 36.109 409.145 35.5318 409.469 35.022C409.794 34.5123 410.231 34.0835 410.747 33.7684C410.898 33.6597 411.008 33.5037 411.06 33.3253C411.112 33.1469 411.103 32.9562 411.034 32.7834L410.473 31.3334C410.357 31.0344 410.308 30.7138 410.329 30.3938C410.35 30.0738 410.44 29.7622 410.594 29.4808C410.748 29.1994 410.961 28.955 411.219 28.7646C411.477 28.5742 411.773 28.4424 412.088 28.3785L412.922 28.2006C413.374 28.1043 413.801 27.9179 414.179 27.6526C414.557 27.3872 414.878 27.0484 415.122 26.6563C415.365 26.2642 415.528 25.827 415.599 25.3707C415.67 24.9145 415.648 24.4486 415.535 24.0009C415.268 23.14 414.685 22.4119 413.904 21.9628C413.122 21.5137 412.2 21.3768 411.322 21.5795L378.736 28.3511L378.49 27.927C377.18 25.5963 375.148 23.7551 372.7 22.6815C370.252 21.608 367.52 21.3604 364.919 21.9762L364.851 21.9489ZM367.587 42.8519C365.887 42.8708 364.219 42.3956 362.785 41.4839C361.089 40.3702 359.831 38.7026 359.227 36.7655C358.622 34.8283 358.708 32.7414 359.47 30.8607C360.232 28.9799 361.623 27.4217 363.406 26.4516C365.188 25.4815 367.252 25.1596 369.245 25.5409C371.238 25.9221 373.037 26.9828 374.336 28.5422C375.634 30.1016 376.352 32.0631 376.366 34.0923C376.38 36.1215 375.69 38.0929 374.414 39.6703C373.137 41.2476 371.353 42.3334 369.365 42.7425C368.783 42.8479 368.192 42.8937 367.6 42.8793L367.587 42.8519ZM367.587 26.6958C367.077 26.6987 366.569 26.7491 366.068 26.8463C365.115 27.0493 364.211 27.438 363.409 27.9903C362.606 28.5426 361.92 29.2475 361.389 30.065C360.859 30.8824 360.495 31.7963 360.318 32.7545C360.14 33.7127 360.154 34.6964 360.357 35.6494C360.56 36.6024 360.948 37.5061 361.501 38.309C362.053 39.1118 362.758 39.7979 363.575 40.3283C364.393 40.8586 365.307 41.2228 366.265 41.3999C367.223 41.5771 368.207 41.5638 369.16 41.3608C370.591 41.063 371.901 40.3482 372.926 39.3067C373.951 38.2652 374.645 36.9435 374.92 35.5082C375.195 34.073 375.039 32.5884 374.472 31.2417C373.904 29.895 372.951 28.7464 371.732 27.9407C370.521 27.1353 369.096 26.7112 367.641 26.7232L367.587 26.6958Z"/><path fill="#1684F8" d="M345.22 82.0177C354.18 82.0177 361.444 77.3874 361.444 71.6757C361.444 65.9639 354.18 61.3336 345.22 61.3336C336.259 61.3336 328.995 65.9639 328.995 71.6757C328.995 77.3874 336.259 82.0177 345.22 82.0177Z" opacity=".6"/><path fill="#1684F8" d="M319.406 86.2585C323.085 86.2585 326.068 84.3599 326.068 82.0177C326.068 79.6756 323.085 77.7769 319.406 77.7769C315.726 77.7769 312.744 79.6756 312.744 82.0177C312.744 84.3599 315.726 86.2585 319.406 86.2585Z" opacity=".3"/></svg>