<svg xmlns="http://www.w3.org/2000/svg" width="129" height="121" fill="none" viewBox="0 0 129 121"><rect width="87.676" height="92.353" x="18.502" y="17.862" fill="url(#paint0_linear_468_12605)" opacity=".3" rx="4"/><rect width="84" height="16" x="44.998" y="26.361" fill="#47F2C9" opacity=".3" rx="4"/><rect width="84" height="20" x="44.984" y="2.424" fill="#47F2C9" opacity=".3" rx="4"/><circle cx="104" cy="3" r="3" fill="#47F2C9" opacity=".5"/><circle cx="112" cy="3" r="3" fill="#47F2C9" opacity=".8"/><circle cx="121" cy="3" r="3" fill="#47F2C9"/><path fill="#47F2C9" d="M13.252 77.562C13.252 84.8744 19.1968 90.8251 26.502 90.8251C33.8071 90.8251 39.752 84.8744 39.752 77.562C39.752 70.2496 33.8071 64.2988 26.502 64.2988C19.1968 64.2988 13.252 70.2496 13.252 77.562ZM50.0575 120.299H53.002V117.351C53.002 105.978 43.7535 96.7199 32.3908 96.7199H20.6131C9.24751 96.7199 0.00195312 105.978 0.00195312 117.351V120.299H50.0575Z" opacity=".5"/><path fill="#47F2C9" d="M95.752 85.9567C95.752 91.8328 100.687 96.6146 106.752 96.6146C112.817 96.6146 117.752 91.8328 117.752 85.9567C117.752 80.0807 112.817 75.2988 106.752 75.2988C100.687 75.2988 95.752 80.0807 95.752 85.9567ZM126.308 120.299H128.752V117.93C128.752 108.791 121.074 101.351 111.641 101.351H101.863C92.4275 101.351 84.752 108.791 84.752 117.93V120.299H126.308Z" opacity=".5"/><path fill="#47F2C9" d="M44.2219 60.9645C44.2219 71.192 52.6139 79.515 62.9262 79.515C73.2385 79.515 81.6305 71.192 81.6305 60.9645C81.6305 50.737 73.2385 42.4141 62.9262 42.4141C52.6139 42.4141 44.2219 50.737 44.2219 60.9645ZM96.1782 120.738H100.335V116.616C100.335 100.708 87.2792 87.7597 71.2392 87.7597H54.6131C38.569 87.7597 25.5176 100.708 25.5176 116.616V120.738H96.1782Z"/><defs><linearGradient id="paint0_linear_468_12605" x1="62.34" x2="62.34" y1="17.862" y2="154.637" gradientUnits="userSpaceOnUse"><stop stop-color="#28BC8C"/><stop offset="1" stop-color="#28BC8C" stop-opacity=".2"/></linearGradient></defs></svg>