<svg xmlns="http://www.w3.org/2000/svg" width="152" height="171" fill="none" viewBox="0 0 152 171"><path fill="#FFAB36" d="M22.9748 124.315H11.373V151.385H22.9748V124.315Z"/><path fill="#FFAB36" d="M48.112 124.315H36.5103V151.385H48.112V124.315Z"/><path fill="#FFAB36" d="M80.9837 159.121H3.63867V170.723H80.9837V159.121Z"/><path fill="#FFAB36" d="M73.2492 124.315H61.6475V151.385H73.2492V124.315Z"/><path fill="#FFAB36" d="M42.3112 89.5085L3.63867 108.845V116.579H80.9837V108.845L42.3112 89.5085Z"/><path fill="url(#paint0_linear_468_12585)" d="M0 116.351C0 92.4804 19.3513 73.1292 43.2222 73.1292V73.1292C67.0932 73.1292 86.4445 92.4804 86.4445 116.351V166.493C86.4445 168.702 84.6536 170.493 82.4445 170.493H3.99999C1.79085 170.493 0 168.702 0 166.493V116.351Z" opacity=".3"/><rect width="67.336" height="44.587" x="33.668" y="54" fill="#FFAB36" opacity=".2" rx="4"/><rect width="20.019" height="21.839" x="41.857" y="57.66" fill="#FFAB36" opacity=".2" rx="4"/><path fill="#FFAB36" fill-rule="evenodd" d="M45.8555 83.1384C43.6463 83.1384 41.8555 84.9293 41.8555 87.1384V90.9677C41.8555 93.1768 43.6463 94.9677 45.8555 94.9677H86.0824C88.2915 94.9677 90.0824 93.1768 90.0824 90.9677V87.1384C90.0824 84.9293 88.2915 83.1384 86.0824 83.1384H45.8555ZM47.7701 85.8683C46.0112 85.8683 44.5853 87.2941 44.5853 89.0531C44.5853 90.812 46.0112 92.2378 47.7701 92.2378H72.3385C74.0974 92.2378 75.5233 90.812 75.5233 89.0531C75.5233 87.2941 74.0974 85.8683 72.3385 85.8683H47.7701Z" clip-rule="evenodd" opacity=".4"/><g filter="url(#filter0_d_468_12585)"><path fill="#FFAB36" d="M76.63 60.845H82.6097V59.2526H76.63V60.845ZM72.5191 60.845V76.7689H71.7716C71.0553 76.7689 70.4402 76.4952 69.9263 75.9479C69.4125 75.4005 69.1555 74.7453 69.1555 73.9822V63.6316C69.1555 62.8686 69.4125 62.2134 69.9263 61.666C70.4402 61.1186 71.0553 60.845 71.7716 60.845H72.5191ZM85.5995 60.845V76.7689H73.6402V60.845H75.1351V58.8545C75.1351 58.5227 75.2441 58.2407 75.4621 58.0085C75.6802 57.7763 75.9449 57.6602 76.2563 57.6602H82.9834C83.2948 57.6602 83.5595 57.7763 83.7776 58.0085C83.9956 58.2407 84.1046 58.5227 84.1046 58.8545V60.845H85.5995ZM90.0842 63.6316V73.9822C90.0842 74.7453 89.8272 75.4005 89.3134 75.9479C88.7995 76.4952 88.1844 76.7689 87.4681 76.7689H86.7206V60.845H87.4681C88.1844 60.845 88.7995 61.1186 89.3134 61.666C89.8272 62.2134 90.0842 62.8686 90.0842 63.6316Z"/></g><defs><filter id="filter0_d_468_12585" width="142.929" height="141.109" x="8.156" y=".66" color-interpolation-filters="sRGB" filterUnits="userSpaceOnUse"><feFlood flood-opacity="0" result="BackgroundImageFix"/><feColorMatrix in="SourceAlpha" result="hardAlpha" type="matrix" values="0 0 0 0 0 0 0 0 0 0 0 0 0 0 0 0 0 0 127 0"/><feOffset dy="4"/><feGaussianBlur stdDeviation="30.5"/><feComposite in2="hardAlpha" operator="out"/><feColorMatrix type="matrix" values="0 0 0 0 1 0 0 0 0 0.713726 0 0 0 0 0.211765 0 0 0 1 0"/><feBlend in2="BackgroundImageFix" mode="normal" result="effect1_dropShadow_468_12585"/><feBlend in="SourceGraphic" in2="effect1_dropShadow_468_12585" mode="normal" result="shape"/></filter><linearGradient id="paint0_linear_468_12585" x1="43.222" x2="43.222" y1="73.129" y2="217.326" gradientUnits="userSpaceOnUse"><stop stop-color="#FFB636"/><stop offset="1" stop-color="#FFB636" stop-opacity="0"/></linearGradient></defs></svg>