<svg xmlns="http://www.w3.org/2000/svg" width="132" height="135" fill="none" viewBox="0 0 132 135"><rect width="87.676" height="92.353" y="31.564" fill="url(#paint0_linear_468_12576)" opacity=".3" rx="4"/><rect width="87.676" height="92.353" x="25.836" y="10.519" fill="#1684F8" opacity=".3" rx="4" transform="rotate(16.2426 25.8359 10.5186)"/><rect width="87.676" height="92.353" x="58.441" fill="#1684F8" opacity=".3" rx="4" transform="rotate(32.9681 58.4414 0)"/><path fill="#63F6FF" d="M25.7199 74.6657C25.7199 84.8932 34.1119 93.2162 44.4242 93.2162C54.7365 93.2162 63.1285 84.8932 63.1285 74.6657C63.1285 64.4382 54.7365 56.1152 44.4242 56.1152C34.1119 56.1152 25.7199 64.4382 25.7199 74.6657ZM77.6763 134.439H81.8328V130.317C81.8328 114.409 68.7772 101.461 52.7372 101.461H36.1112C20.0671 101.461 7.01562 114.409 7.01562 130.317V134.439H77.6763Z"/><defs><linearGradient id="paint0_linear_468_12576" x1="43.838" x2="43.838" y1="31.564" y2="168.339" gradientUnits="userSpaceOnUse"><stop stop-color="#1684F8"/><stop offset="1" stop-color="#1684F8" stop-opacity="0"/></linearGradient></defs></svg>