<svg xmlns="http://www.w3.org/2000/svg" width="151" height="154" fill="none" viewBox="0 0 151 154"><path fill="#F06" d="M75.2656 49.5869V33.5869H35.2656V105.587H115.266V49.5869H75.2656ZM51.2656 97.5869H43.2656V89.5869H51.2656V97.5869ZM51.2656 81.5869H43.2656V73.5869H51.2656V81.5869ZM51.2656 65.5869H43.2656V57.5869H51.2656V65.5869ZM51.2656 49.5869H43.2656V41.5869H51.2656V49.5869ZM67.2656 97.5869H59.2656V89.5869H67.2656V97.5869ZM67.2656 81.5869H59.2656V73.5869H67.2656V81.5869ZM67.2656 65.5869H59.2656V57.5869H67.2656V65.5869ZM67.2656 49.5869H59.2656V41.5869H67.2656V49.5869ZM107.266 97.5869H75.2656V89.5869H83.2656V81.5869H75.2656V73.5869H83.2656V65.5869H75.2656V57.5869H107.266V97.5869ZM99.2656 65.5869H91.2656V73.5869H99.2656V65.5869ZM99.2656 81.5869H91.2656V89.5869H99.2656V81.5869Z"/><path fill="#FCFCFC" d="M48.836 48.238C48.836 42.6243 54.9129 39.1158 59.7745 41.9227L117.202 75.0782C122.063 77.885 122.063 84.902 117.202 87.7089L59.7745 120.864C54.913 123.671 48.836 120.163 48.836 114.549L48.836 48.238Z" opacity=".1"/><path fill="#FCFCFC" d="M68.9534 31.9932C71.7602 27.1316 78.7773 27.1316 81.5841 31.9932L114.74 89.4202C117.546 94.2818 114.038 100.359 108.424 100.359H42.1133C36.4996 100.359 32.9911 94.2818 35.7979 89.4202L68.9534 31.9932Z" opacity=".1"/><path fill="#FCFCFC" d="M100.453 43.1494C105.875 41.6965 110.837 46.6583 109.384 52.0807L92.2212 116.132C90.7683 121.555 83.9903 123.371 80.0209 119.401L33.1319 72.5123C29.1625 68.5429 30.9786 61.7649 36.401 60.312L100.453 43.1494Z" opacity=".1"/><rect width="100.877" height="113.639" x="22.097" y="12.898" fill="url(#paint0_linear_468_12622)" opacity=".2" rx="13.369"/><rect width="25.002" height="25.002" x="84.95" fill="#F06" rx="12.501"/><defs><linearGradient id="paint0_linear_468_12622" x1="72.535" x2="72.535" y1="12.898" y2="126.537" gradientUnits="userSpaceOnUse"><stop stop-color="#F3364D"/><stop offset="1" stop-color="#F3364D" stop-opacity="0"/></linearGradient></defs></svg>