<svg xmlns="http://www.w3.org/2000/svg" width="37" height="36" fill="none" viewBox="0 0 37 36"><path fill="#292F33" d="M7.5 11.5H29.5V29.5H7.5V11.5Z"/><path fill="#CCD6DD" d="M8.5 29.5C8.5 30.604 7.903 31.5 7.167 31.5H5.833C5.097 31.5 4.5 30.604 4.5 29.5V11.5C4.5 10.396 5.097 9.5 5.833 9.5H7.166C7.903 9.5 8.5 10.396 8.5 11.5V29.5ZM32.5 29.5C32.5 30.604 31.903 31.5 31.167 31.5H29.833C29.097 31.5 28.5 30.604 28.5 29.5V11.5C28.5 10.396 29.097 9.5 29.833 9.5H31.167C31.903 9.5 32.5 10.396 32.5 11.5V29.5ZM16.5 29.5C16.5 30.604 15.903 31.5 15.167 31.5H13.834C13.097 31.5 12.5 30.604 12.5 29.5V11.5C12.5 10.396 13.097 9.5 13.833 9.5H15.166C15.903 9.5 16.5 10.396 16.5 11.5V29.5ZM24.5 29.5C24.5 30.604 23.902 31.5 23.166 31.5H21.834C21.098 31.5 20.5 30.604 20.5 29.5V11.5C20.5 10.396 21.098 9.5 21.834 9.5H23.166C23.902 9.5 24.5 10.396 24.5 11.5V29.5Z"/><path fill="#9AAAB4" d="M33.5 30.5C33.5 31.604 32.604 32.5 31.5 32.5H5.5C4.396 32.5 3.5 31.604 3.5 30.5C3.5 29.396 4.396 28.5 5.5 28.5H31.5C32.604 28.5 33.5 29.396 33.5 30.5Z"/><path fill="#CCD6DD" d="M35.5 32.5C35.5 33.604 34.604 34.5 33.5 34.5H3.5C2.396 34.5 1.5 33.604 1.5 32.5C1.5 31.396 2.396 30.5 3.5 30.5H33.5C34.604 30.5 35.5 31.396 35.5 32.5Z"/><path fill="#E1E8ED" d="M36.5 34C36.5 34.828 35.828 35.5 35 35.5H2C1.171 35.5 0.5 34.828 0.5 34C0.5 33.172 1.171 32.5 2 32.5H35C35.828 32.5 36.5 33.172 36.5 34Z"/><path fill="#9AAAB4" d="M33.5 10.5C33.5 9.396 32.544 8.5 31.367 8.5H5.5C4.321 8.5 3.5 9.396 3.5 10.5C3.5 11.251 3.886 11.898 4.5 12.24V13.5H8.5V12.5H12.5V13.5H16.5V12.5H20.5V13.5H24.5V12.5H28.5V13.5H32.5V12.188C33.099 11.834 33.5 11.213 33.5 10.5Z"/><path fill="#CCD6DD" d="M2.5 8.944C2.5 7.913 3.512 7.5 3.512 7.5L18.416 0.5L33.463 7.5C33.463 7.5 34.5 7.731 34.5 8.95V9.5H2.5V8.944Z"/><path fill="#9AAAB4" d="M18.4999 3.04199C18.4999 3.04199 8.18091 7.90699 7.14991 8.34399C6.11891 8.78099 6.46391 9.49999 7.15091 9.49999H29.7969C30.8589 9.49999 30.6089 8.68799 29.7659 8.24999C28.9219 7.81199 18.4999 3.04199 18.4999 3.04199Z"/><path fill="#CCD6DD" d="M34.5 9.5C34.5 10.052 34.053 10.5 33.5 10.5H3.5C2.948 10.5 2.5 10.052 2.5 9.5C2.5 8.948 2.948 8.5 3.5 8.5L33.5 8.506C34.053 8.506 34.5 8.948 34.5 9.5Z"/></svg>