<svg xmlns="http://www.w3.org/2000/svg" width="80" height="80" fill="none" viewBox="0 0 80 80"><g clip-path="url(#clip0)"><rect width="80" height="80" fill="#fff" rx="14.546"/><g filter="url(#filter0_f)"><path fill="#6AB3FF" d="M20.3788 122.918C54.7037 122.918 82.5295 93.5736 82.5295 57.3759C82.5295 21.1782 54.7037 -8.16577 20.3788 -8.16577C-13.9461 -8.16577 -41.7719 21.1782 -41.7719 57.3759C-41.7719 93.5736 -13.9461 122.918 20.3788 122.918Z"/><path fill="#31D0AA" d="M-24.5216 151.873C12.5982 151.873 42.6897 129.614 42.6897 102.156C42.6897 74.6974 12.5982 52.438 -24.5216 52.438C-61.6414 52.438 -91.733 74.6974 -91.733 102.156C-91.733 129.614 -61.6414 151.873 -24.5216 151.873Z"/><path fill="#1684F8" d="M102.75 68.6026C141.284 68.6026 172.523 45.2544 172.523 16.4529C172.523 -12.3486 141.284 -35.6968 102.75 -35.6968C64.2154 -35.6968 32.977 -12.3486 32.977 16.4529C32.977 45.2544 64.2154 68.6026 102.75 68.6026Z"/><path fill="#003D7D" d="M-50.2534 79.6356C-15.2965 79.6356 13.0416 52.912 13.0416 19.9468C13.0416 -13.0184 -15.2965 -39.7419 -50.2534 -39.7419C-85.2102 -39.7419 -113.548 -13.0184 -113.548 19.9468C-113.548 52.912 -85.2102 79.6356 -50.2534 79.6356Z"/></g><path stroke="#fff" stroke-linecap="round" stroke-linejoin="round" stroke-width="4.04" d="M14.88 16.1616V49.7029C14.88 50.1434 15.0218 50.5721 15.2845 50.9257L24.8767 63.8384M14.88 16.1616L24.8767 27.3118M14.88 16.1616H50.5551C51.0232 16.1616 51.4771 16.3217 51.8416 16.6153L65.12 27.3118M24.8767 63.8384H63.0694C64.2019 63.8384 65.12 62.9203 65.12 61.7878V27.3118M24.8767 63.8384V45.5751M24.8767 27.3118H65.12M24.8767 27.3118V45.5751M24.8767 45.5751H48.8889"/></g><defs><filter id="filter0_f" width="409.942" height="315.486" x="-175.484" y="-101.677" color-interpolation-filters="sRGB" filterUnits="userSpaceOnUse"><feFlood flood-opacity="0" result="BackgroundImageFix"/><feBlend in="SourceGraphic" in2="BackgroundImageFix" mode="normal" result="shape"/><feGaussianBlur result="effect1_foregroundBlur" stdDeviation="30.968"/></filter><clipPath id="clip0"><rect width="80" height="80" fill="#fff" rx="14.546"/></clipPath></defs></svg>