<svg xmlns="http://www.w3.org/2000/svg" width="1920" height="974" fill="none" viewBox="0 0 1920 974"><g filter="url(#filter0_d_468_10862)" opacity=".3"><path fill="url(#paint0_linear_468_10862)" d="M2 -3H1922V855.059C1922 855.059 1620 966 962 966C304 966 2 855.059 2 855.059V-3Z" shape-rendering="crispEdges"/><path stroke="#000" d="M3.05364 854.906C2.82426 854.825 2.63975 854.759 2.5 854.708V-2.5H1921.5V854.708C1921.36 854.759 1921.18 854.825 1920.95 854.906C1920.36 855.115 1919.47 855.426 1918.29 855.832C1915.92 856.643 1912.35 857.834 1907.59 859.349C1898.05 862.381 1883.69 866.712 1864.4 871.911C1825.82 882.308 1767.52 896.172 1688.66 910.037C1530.94 937.767 1290.97 965.5 962 965.5C633.028 965.5 393.057 937.767 235.337 910.037C156.476 896.172 98.1782 882.308 59.5989 871.911C40.3092 866.712 25.9491 862.381 16.4132 859.349C11.6452 857.834 8.08332 856.643 5.71425 855.832C4.52972 855.426 3.64339 855.115 3.05364 854.906Z" shape-rendering="crispEdges"/></g><defs><filter id="filter0_d_468_10862" width="1928" height="977" x="-2" y="-3" color-interpolation-filters="sRGB" filterUnits="userSpaceOnUse"><feFlood flood-opacity="0" result="BackgroundImageFix"/><feColorMatrix in="SourceAlpha" result="hardAlpha" type="matrix" values="0 0 0 0 0 0 0 0 0 0 0 0 0 0 0 0 0 0 127 0"/><feOffset dy="4"/><feGaussianBlur stdDeviation="2"/><feComposite in2="hardAlpha" operator="out"/><feColorMatrix type="matrix" values="0 0 0 0 0 0 0 0 0 0 0 0 0 0 0 0 0 0 0.25 0"/><feBlend in2="BackgroundImageFix" mode="normal" result="effect1_dropShadow_468_10862"/><feBlend in="SourceGraphic" in2="effect1_dropShadow_468_10862" mode="normal" result="shape"/></filter><linearGradient id="paint0_linear_468_10862" x1="962" x2="962" y1="-3" y2="1193.52" gradientUnits="userSpaceOnUse"><stop stop-color="#1684F8"/><stop offset="1" stop-color="#1684F8" stop-opacity="0"/></linearGradient></defs></svg>