<svg xmlns="http://www.w3.org/2000/svg" width="558" height="538" fill="none" viewBox="0 0 558 538"><g clip-path="url(#clip0_2_2975)"><path fill="#C9DAE0" d="M476.445 8.02667H380.529V132.928H476.445V8.02667Z"/><path fill="#C9DAE0" d="M476.445 132.928H479.556V8.02716H476.445V132.928Z"/><path fill="#2B3340" d="M476.445 132.928H479.556V8.02716H476.445V132.928Z" opacity=".05"/><path fill="#2B3340" d="M458.972 30.7791H398.001V110.176H458.972V30.7791Z" opacity=".05"/><path fill="#2B3340" d="M458.972 30.7791H455.795V110.176H458.972V30.7791Z" opacity=".03"/><path fill="#C9DAE0" d="M554.888 163.644H476.444V242.843H554.888V163.644Z"/><path fill="#2B3340" d="M540.599 178.071H490.734V228.415H540.599V178.071Z" opacity=".05"/><path fill="#C9DAE0" d="M554.888 242.843H558V163.644H554.888V242.843Z"/><path fill="#2B3340" d="M554.888 242.843H558V163.644H554.888V242.843Z" opacity=".05"/><path fill="#2B3340" d="M540.599 178.071H537.421V228.415H540.599V178.071Z" opacity=".03"/><path fill="#C9DAE0" d="M271.72 0.00012207H10.4098V261.426H271.72V0.00012207Z"/><path fill="#C9DAE0" d="M274.715 0.00012207H271.72V261.426H274.715V0.00012207Z"/><path fill="#2B3340" d="M274.715 0.00012207H271.72V261.426H274.715V0.00012207Z" opacity=".05"/><path fill="#2B3340" d="M208.416 180.144V111.746H152.413V151.484H65.6646V221.844H28.7952V261.426H65.6646H72.7677H259.15V180.144H208.416Z" opacity=".05"/><path fill="#FFFFFA" d="M200.384 119.173H159.602V126.599H200.384V119.173Z" opacity=".34"/><path fill="#FFFFFA" d="M200.384 134.562H159.602V141.989H200.384V134.562Z" opacity=".34"/><path fill="#FFFFFA" d="M200.384 149.951H159.602V157.377H200.384V149.951Z" opacity=".34"/><path fill="#FFFFFA" d="M251.918 187.353H244.401V194.779H251.918V187.353Z" opacity=".34"/><path fill="#FFFFFA" d="M251.918 202.742H244.401V210.168H251.918V202.742Z" opacity=".34"/><path fill="#FFFFFA" d="M251.918 218.131H244.401V225.557H251.918V218.131Z" opacity=".34"/><path fill="#FFFFFA" d="M238.012 187.353H230.495V194.779H238.012V187.353Z" opacity=".34"/><path fill="#FFFFFA" d="M238.012 202.742H230.495V210.168H238.012V202.742Z" opacity=".34"/><path fill="#FFFFFA" d="M238.012 218.131H230.495V225.557H238.012V218.131Z" opacity=".34"/><path fill="#FFFFFA" d="M224.483 187.353H216.966V194.779H224.483V187.353Z" opacity=".34"/><path fill="#FFFFFA" d="M224.482 202.742H216.965V210.168H224.482V202.742Z" opacity=".34"/><path fill="#FFFFFA" d="M224.482 218.131H216.965V225.557H224.482V218.131Z" opacity=".34"/><path fill="#fff" d="M271.72 129.246H219.14V0.00012207H214.792V129.246H72.7676V0.00012207H68.4189V129.246H10.4098V133.597H68.4189V261.426H72.7676V133.597H214.792V261.426H219.14V133.597H271.72V129.246Z"/><path fill="#C9DAE0" d="M282.13 261.111H-0.000123024V269.805H282.13V261.111Z"/><path fill="#2B3340" d="M282.13 261.111H-0.000123024V269.805H282.13V261.111Z" opacity=".1"/><path fill="#2B3340" d="M286.203 261.111H282.13V269.805H286.203V261.111Z" opacity=".1"/><path fill="#2B3340" d="M286.203 261.111H282.13V269.805H286.203V261.111Z" opacity=".1"/><path fill="#2B3340" d="M420.067 526.945H405.552V536.644H420.067V526.945Z" opacity=".05"/><path fill="#2B3340" d="M511.19 526.945H496.675V536.643H511.19V526.945Z" opacity=".05"/><path fill="#C9DAE0" d="M524.495 379.183H392.246V526.945H524.495V379.183Z"/><path fill="#2B3340" d="M524.495 379.183H392.246V526.945H524.495V379.183Z" opacity=".03"/><path fill="#C9DAE0" d="M489.372 379.184H357.123V526.946H489.372V379.184Z"/><path fill="#2B3340" d="M384.944 526.945H370.429V536.644H384.944V526.945Z" opacity=".05"/><path fill="#2B3340" d="M476.067 526.945H461.551V536.643H476.067V526.945Z" opacity=".05"/><path fill="#fff" d="M482.257 388.319H364.237V425.796H482.257V388.319Z" opacity=".7"/><path fill="#fff" d="M482.257 434.969H364.237V472.445H482.257V434.969Z" opacity=".7"/><path fill="#fff" d="M482.257 481.618H364.237V519.094H482.257V481.618Z" opacity=".7"/><path fill="#2B3340" d="M423.247 412.301C426.142 412.301 428.489 409.954 428.489 407.057C428.489 404.161 426.142 401.813 423.247 401.813C420.352 401.813 418.006 404.161 418.006 407.057C418.006 409.954 420.352 412.301 423.247 412.301Z" opacity=".05"/><path fill="#2B3340" d="M423.247 458.951C426.142 458.951 428.489 456.603 428.489 453.707C428.489 450.81 426.142 448.463 423.247 448.463C420.352 448.463 418.006 450.81 418.006 453.707C418.006 456.603 420.352 458.951 423.247 458.951Z" opacity=".05"/><path fill="#2B3340" d="M423.247 505.6C426.142 505.6 428.489 503.252 428.489 500.356C428.489 497.46 426.142 495.112 423.247 495.112C420.352 495.112 418.006 497.46 418.006 500.356C418.006 503.252 420.352 505.6 423.247 505.6Z" opacity=".05"/><path fill="#494949" d="M62.1559 464.862C62.0826 464.863 62.0101 464.848 61.9425 464.82C61.8748 464.792 61.8134 464.751 61.7618 464.699C60.9763 463.914 59.6958 449.497 56.2474 406.574C54.8365 389.011 53.5037 372.421 52.5309 362.34C52.4618 361.62 52.1825 361.536 52.0911 361.508C50.7593 361.107 46.7105 364.301 44.4501 367.098C44.3571 367.213 44.2222 367.287 44.0751 367.302C43.928 367.318 43.7807 367.274 43.6657 367.181C43.5507 367.088 43.4773 366.953 43.4618 366.806C43.4462 366.659 43.4897 366.512 43.5827 366.397C45.0778 364.547 49.9499 359.699 52.4116 360.44C52.9077 360.589 53.5265 361.021 53.638 362.233C54.6119 372.323 55.9447 388.916 57.3562 406.485C59.4517 432.568 61.8253 462.119 62.6057 463.98C62.6655 464.063 62.7011 464.161 62.7087 464.263C62.7164 464.366 62.6956 464.468 62.6488 464.559C62.6021 464.65 62.531 464.727 62.4436 464.781C62.3561 464.834 62.2556 464.862 62.1531 464.862H62.1559Z"/><path fill="#1FAE8C" d="M51.0988 380.841C60.3491 373.423 63.415 361.876 57.9468 355.051C52.4785 348.227 40.5468 348.708 31.2965 356.126C22.0462 363.544 18.9803 375.09 24.4486 381.915C29.9168 388.74 41.8486 388.259 51.0988 380.841Z"/><path fill="#fff" d="M51.0988 380.841C60.3491 373.423 63.415 361.876 57.9468 355.051C52.4785 348.227 40.5468 348.708 31.2965 356.126C22.0462 363.544 18.9803 375.09 24.4486 381.915C29.9168 388.74 41.8486 388.259 51.0988 380.841Z" opacity=".2"/><path fill="#fff" d="M27.0409 383.65C26.988 383.65 26.9362 383.635 26.8915 383.606C26.8469 383.578 26.8112 383.537 26.7887 383.489C26.7662 383.441 26.7578 383.388 26.7644 383.336C26.7711 383.283 26.7926 383.234 26.8263 383.193L53.1888 351.388C53.2122 351.36 53.2409 351.336 53.2733 351.319C53.3057 351.302 53.3412 351.292 53.3776 351.288C53.4141 351.285 53.4509 351.289 53.4859 351.299C53.5209 351.31 53.5534 351.328 53.5816 351.351C53.6097 351.375 53.633 351.403 53.6501 351.436C53.6672 351.468 53.6778 351.504 53.6811 351.54C53.6845 351.577 53.6807 351.613 53.6699 351.648C53.6591 351.683 53.6415 351.716 53.6181 351.744L27.2556 383.549C27.2294 383.58 27.1966 383.606 27.1595 383.623C27.1224 383.641 27.0819 383.65 27.0409 383.65Z"/><path fill="#494949" d="M67.9044 458.045C67.8421 458.045 67.7803 458.034 67.7216 458.013C67.582 457.964 67.4673 457.862 67.4029 457.729C67.3385 457.596 67.3296 457.443 67.3782 457.303L77.2808 428.812C77.5724 427.975 78.0692 427.225 78.7258 426.629C79.3824 426.034 80.1778 425.613 81.0391 425.405C81.9004 425.197 82.8001 425.209 83.6558 425.439C84.5115 425.669 85.2958 426.11 85.9369 426.722L91.1725 431.725C91.2795 431.827 91.3415 431.968 91.3449 432.116C91.3483 432.264 91.2928 432.407 91.1907 432.514C91.0885 432.621 90.948 432.683 90.8002 432.686C90.6523 432.69 90.5091 432.634 90.4021 432.532L85.1671 427.528C84.6609 427.045 84.0417 426.697 83.3662 426.516C82.6906 426.334 81.9803 426.325 81.3004 426.489C80.6204 426.653 79.9924 426.986 79.4741 427.455C78.9557 427.925 78.5635 428.518 78.3333 429.179L68.4312 457.67C68.3932 457.779 68.3221 457.874 68.2277 457.941C68.1333 458.009 68.0203 458.045 67.9044 458.045Z"/><path fill="#1FAE8C" d="M105.798 447.498C112.653 442.069 112.245 430.129 104.888 420.83C97.5298 411.53 86.0077 408.392 79.1524 413.82C72.2971 419.249 72.7045 431.189 80.0623 440.489C87.4202 449.788 98.9423 452.927 105.798 447.498Z"/><path fill="#494949" d="M57.6562 463.045C57.531 463.045 57.4095 463.003 57.3112 462.925C57.2129 462.848 57.1436 462.739 57.1144 462.617L40.4961 393.103C40.3825 392.629 40.1404 392.196 39.7967 391.851C39.4529 391.506 39.0207 391.262 38.5476 391.147C38.0745 391.032 37.5787 391.049 37.1149 391.198C36.651 391.346 36.237 391.619 35.9183 391.987L30.7953 397.91C30.7482 397.967 30.6899 398.015 30.624 398.05C30.5582 398.085 30.486 398.106 30.4118 398.112C30.3375 398.119 30.2628 398.11 30.1919 398.087C30.1211 398.064 30.0556 398.027 29.9992 397.978C29.9429 397.93 29.8969 397.87 29.864 397.803C29.831 397.736 29.8118 397.664 29.8074 397.589C29.8031 397.515 29.8137 397.44 29.8386 397.37C29.8635 397.3 29.9022 397.235 29.9525 397.18L35.0749 391.258C35.5277 390.734 36.1162 390.346 36.7755 390.135C37.4348 389.924 38.1394 389.899 38.8119 390.063C39.4844 390.227 40.0987 390.573 40.5873 391.064C41.0758 391.554 41.4196 392.17 41.581 392.844L58.1981 462.358C58.2324 462.502 58.2083 462.653 58.1309 462.779C58.0536 462.905 57.9293 462.996 57.7856 463.03C57.7432 463.04 57.6998 463.045 57.6562 463.045Z"/><path fill="#1FAE8C" d="M51.5247 413.353C53.5448 401.666 48.1985 390.984 39.5834 389.493C30.9683 388.003 22.3467 396.269 20.3266 407.956C18.3064 419.643 23.6527 430.325 32.2679 431.816C40.883 433.306 49.5045 425.04 51.5247 413.353Z"/><path fill="#494949" d="M62.156 464.862C62.1331 464.862 62.1102 464.861 62.0875 464.858C62.0147 464.849 61.9445 464.826 61.8807 464.79C61.817 464.754 61.761 464.706 61.7159 464.648C61.6708 464.59 61.6375 464.524 61.6179 464.454C61.5984 464.383 61.5929 464.309 61.6019 464.236L72.2136 378.04C72.3293 377.101 72.7136 376.215 73.3203 375.489C73.927 374.764 74.7303 374.229 75.6336 373.949C76.5369 373.669 77.5018 373.656 78.4122 373.912C79.3227 374.167 80.1401 374.68 80.766 375.389L92.8951 389.133C92.9436 389.188 92.9807 389.252 93.0045 389.321C93.0283 389.39 93.0382 389.464 93.0336 389.537C93.029 389.61 93.0101 389.681 92.9779 389.747C92.9458 389.813 92.9009 389.872 92.846 389.92C92.7911 389.969 92.7272 390.006 92.658 390.03C92.5887 390.053 92.5154 390.063 92.4423 390.059C92.3692 390.054 92.2978 390.035 92.232 390.003C92.1662 389.971 92.1074 389.926 92.0589 389.871L79.9299 376.128C79.4461 375.58 78.8144 375.183 78.1107 374.985C77.407 374.788 76.6612 374.798 75.9631 375.014C75.2649 375.231 74.6441 375.644 74.1752 376.205C73.7064 376.766 73.4094 377.45 73.3201 378.176L62.7085 464.373C62.6919 464.508 62.6266 464.632 62.5248 464.722C62.4231 464.812 62.2919 464.862 62.156 464.862Z"/><path fill="#1FAE8C" d="M105.334 396.77C109.566 389.116 104.586 378.257 94.2125 372.517C83.8386 366.776 71.9982 368.327 67.7663 375.981C63.5345 383.634 68.5136 394.493 78.8876 400.234C89.2615 405.975 101.102 404.424 105.334 396.77Z"/><path fill="#fff" d="M105.798 447.498C112.653 442.069 112.245 430.129 104.888 420.83C97.5298 411.53 86.0077 408.392 79.1524 413.82C72.2971 419.249 72.7045 431.189 80.0623 440.489C87.4202 449.788 98.9423 452.927 105.798 447.498Z" opacity=".2"/><path fill="#fff" d="M51.5247 413.353C53.5448 401.666 48.1985 390.984 39.5834 389.493C30.9683 388.003 22.3467 396.269 20.3266 407.956C18.3064 419.643 23.6527 430.325 32.2679 431.816C40.883 433.306 49.5045 425.04 51.5247 413.353Z" opacity=".5"/><path fill="#fff" d="M105.334 396.77C109.566 389.116 104.586 378.257 94.2125 372.517C83.8386 366.776 71.9982 368.327 67.7663 375.981C63.5345 383.634 68.5136 394.493 78.8876 400.234C89.2615 405.975 101.102 404.424 105.334 396.77Z" opacity=".5"/><path fill="#2B3340" d="M75.7277 538H48.582L44.0833 451.108H80.2258L75.7277 538Z"/><path fill="#fff" d="M75.7277 538H48.582L44.0833 451.108H80.2258L75.7277 538Z" opacity=".3"/><path fill="#fff" d="M105.8 447.777C105.758 447.777 105.716 447.768 105.678 447.749C105.64 447.731 105.607 447.704 105.581 447.671L78.9348 413.994C78.9121 413.965 78.8952 413.932 78.8852 413.897C78.8752 413.862 78.8722 413.825 78.8764 413.789C78.8806 413.752 78.892 413.717 78.9098 413.685C78.9276 413.653 78.9515 413.625 78.9802 413.602C79.0089 413.579 79.0418 413.563 79.077 413.553C79.1122 413.542 79.1491 413.54 79.1854 413.544C79.2218 413.548 79.257 413.559 79.289 413.577C79.321 413.595 79.3491 413.619 79.3718 413.648L106.018 447.325C106.051 447.366 106.071 447.415 106.077 447.467C106.083 447.52 106.074 447.572 106.051 447.62C106.028 447.667 105.992 447.707 105.948 447.735C105.903 447.762 105.852 447.777 105.8 447.777Z"/><path fill="#fff" d="M103.562 399.469C103.503 399.468 103.446 399.448 103.398 399.413L69.3009 374.505C69.2411 374.461 69.2012 374.396 69.1898 374.322C69.1784 374.249 69.1965 374.175 69.2401 374.115C69.2837 374.055 69.3493 374.015 69.4223 374.004C69.4954 373.992 69.57 374.011 69.6298 374.054L103.727 398.963C103.774 398.998 103.808 399.047 103.826 399.103C103.843 399.159 103.843 399.218 103.824 399.274C103.806 399.329 103.77 399.378 103.723 399.412C103.675 399.446 103.618 399.465 103.56 399.465L103.562 399.469Z"/><path fill="#fff" d="M30.8829 431.451C30.8586 431.452 30.8344 431.448 30.811 431.442C30.7402 431.422 30.6799 431.376 30.6432 431.312C30.6066 431.248 30.5966 431.173 30.6153 431.102L41.4695 390.415C41.4785 390.379 41.4945 390.346 41.5166 390.316C41.5387 390.286 41.5665 390.261 41.5984 390.243C41.6303 390.224 41.6655 390.211 41.7022 390.206C41.7389 390.201 41.7761 390.204 41.8119 390.213C41.8476 390.223 41.8811 390.239 41.9104 390.262C41.9397 390.285 41.9641 390.313 41.9824 390.345C42.0006 390.377 42.0123 390.413 42.0167 390.45C42.0211 390.486 42.0182 390.524 42.008 390.559L31.1538 431.244C31.1379 431.304 31.1027 431.357 31.0537 431.394C31.0046 431.432 30.9446 431.452 30.8829 431.451Z"/><path fill="#fff" d="M413.72 30.6943H93.3582C84.1221 30.6943 76.6346 38.1851 76.6346 47.4253V400.993C76.6346 410.233 84.1221 417.724 93.3582 417.724H413.72C422.956 417.724 430.443 410.233 430.443 400.993V47.4253C430.443 38.1851 422.956 30.6943 413.72 30.6943Z"/><path fill="#2B3340" d="M413.403 417.808H93.0387C88.4571 417.803 84.0647 415.98 80.825 412.739C77.5853 409.498 75.763 405.103 75.7576 400.52V46.9521C75.763 42.3685 77.5853 37.9742 80.825 34.7331C84.0647 31.492 88.4571 29.6688 93.0387 29.6635H413.403C417.984 29.6686 422.377 31.4918 425.616 34.7329C428.856 37.974 430.678 42.3685 430.684 46.9521V400.52C430.678 405.103 428.856 409.498 425.616 412.739C422.377 415.98 417.984 417.803 413.403 417.808ZM93.0387 30.7789C88.7527 30.7839 84.6437 32.4894 81.613 35.5214C78.5824 38.5534 76.8776 42.6643 76.8726 46.9521V400.52C76.8774 404.808 78.5822 408.919 81.6129 411.951C84.6436 414.983 88.7527 416.688 93.0387 416.693H413.403C417.689 416.688 421.798 414.983 424.828 411.951C427.859 408.919 429.564 404.808 429.569 400.52V46.9521C429.564 42.6643 427.859 38.5534 424.828 35.5214C421.798 32.4894 417.689 30.7839 413.403 30.7789H93.0387Z"/><path fill="#2B3340" d="M430.126 46.9502V59.8822H76.3195V46.9502C76.3195 42.5129 78.0814 38.2573 81.2177 35.1196C84.354 31.982 88.6077 30.2192 93.0431 30.2192H413.402C417.838 30.2192 422.092 31.982 425.228 35.1196C428.364 38.2573 430.126 42.5129 430.126 46.9502Z"/><path fill="#1684F8" d="M135.311 162.591C157.892 162.591 176.197 144.278 176.197 121.687C176.197 99.0958 157.892 80.7823 135.311 80.7823C112.73 80.7823 94.4246 99.0958 94.4246 121.687C94.4246 144.278 112.73 162.591 135.311 162.591Z" opacity=".1"/><path fill="#1684F8" d="M135.311 119.926C143.154 119.926 149.512 113.566 149.512 105.719C149.512 97.8725 143.154 91.5117 135.311 91.5117C127.468 91.5117 121.11 97.8725 121.11 105.719C121.11 113.566 127.468 119.926 135.311 119.926Z" opacity=".2"/><path fill="#1684F8" d="M166.048 148.66C162.211 153.037 157.484 156.544 152.183 158.946C146.882 161.349 141.129 162.591 135.309 162.591C129.49 162.59 123.737 161.347 118.436 158.943C113.136 156.54 108.409 153.032 104.572 148.654C106.538 142.024 110.593 136.206 116.132 132.07C121.672 127.933 128.4 125.698 135.313 125.699C142.225 125.699 148.953 127.935 154.492 132.073C160.03 136.211 164.084 142.029 166.048 148.66Z" opacity=".2"/><path fill="#1684F8" d="M154.623 190.496H99.2042C97.2043 190.496 95.583 192.118 95.583 194.119C95.583 196.119 97.2043 197.741 99.2042 197.741H154.623C156.623 197.741 158.244 196.119 158.244 194.119C158.244 192.118 156.623 190.496 154.623 190.496Z" opacity=".2"/><path fill="#1684F8" d="M286.304 83.5292H199.196C195.943 83.5292 193.307 86.1672 193.307 89.4213V101.642C193.307 104.896 195.943 107.534 199.196 107.534H286.304C289.557 107.534 292.194 104.896 292.194 101.642V89.4213C292.194 86.1672 289.557 83.5292 286.304 83.5292Z" opacity=".1"/><path fill="#1684F8" d="M326.658 120.805H196.094C194.555 120.805 193.307 122.054 193.307 123.594C193.307 125.134 194.555 126.382 196.094 126.382H326.658C328.197 126.382 329.445 125.134 329.445 123.594C329.445 122.054 328.197 120.805 326.658 120.805Z" opacity=".2"/><path fill="#1684F8" d="M326.658 137.536H196.094C194.555 137.536 193.307 138.785 193.307 140.325C193.307 141.865 194.555 143.113 196.094 143.113H326.658C328.197 143.113 329.445 141.865 329.445 140.325C329.445 138.785 328.197 137.536 326.658 137.536Z" opacity=".2"/><path fill="#1684F8" d="M304.36 154.267H196.094C194.555 154.267 193.307 155.516 193.307 157.056C193.307 158.596 194.555 159.844 196.094 159.844H304.36C305.899 159.844 307.147 158.596 307.147 157.056C307.147 155.516 305.899 154.267 304.36 154.267Z" opacity=".2"/><path fill="#1684F8" d="M236.924 208.193H100.818C97.9268 208.193 95.583 210.537 95.583 213.43V226.37C95.583 229.262 97.9268 231.607 100.818 231.607H236.924C239.815 231.607 242.159 229.262 242.159 226.37V213.43C242.159 210.537 239.815 208.193 236.924 208.193Z" opacity=".1"/><path fill="#1684F8" d="M321.5 190.496H266.082C264.082 190.496 262.46 192.118 262.46 194.119C262.46 196.119 264.082 197.741 266.082 197.741H321.5C323.5 197.741 325.121 196.119 325.121 194.119C325.121 192.118 323.5 190.496 321.5 190.496Z" opacity=".2"/><path fill="#1684F8" d="M403.801 208.193H267.695C264.804 208.193 262.46 210.537 262.46 213.43V226.37C262.46 229.262 264.804 231.607 267.695 231.607H403.801C406.692 231.607 409.036 229.262 409.036 226.37V213.43C409.036 210.537 406.692 208.193 403.801 208.193Z" opacity=".1"/><path fill="#1684F8" d="M154.623 250.965H99.2042C97.2043 250.965 95.583 252.587 95.583 254.587C95.583 256.588 97.2043 258.21 99.2042 258.21H154.623C156.623 258.21 158.244 256.588 158.244 254.587C158.244 252.587 156.623 250.965 154.623 250.965Z" opacity=".2"/><path fill="#1684F8" d="M236.924 268.662H100.818C97.9268 268.662 95.583 271.007 95.583 273.899V286.839C95.583 289.731 97.9268 292.076 100.818 292.076H236.924C239.815 292.076 242.159 289.731 242.159 286.839V273.899C242.159 271.007 239.815 268.662 236.924 268.662Z" opacity=".1"/><path fill="#1684F8" d="M321.5 250.965H266.082C264.082 250.965 262.46 252.587 262.46 254.587C262.46 256.588 264.082 258.21 266.082 258.21H321.5C323.5 258.21 325.121 256.588 325.121 254.587C325.121 252.587 323.5 250.965 321.5 250.965Z" opacity=".2"/><path fill="#1684F8" d="M403.801 268.662H267.695C264.804 268.662 262.46 271.007 262.46 273.899V286.839C262.46 289.731 264.804 292.076 267.695 292.076H403.801C406.692 292.076 409.036 289.731 409.036 286.839V273.899C409.036 271.007 406.692 268.662 403.801 268.662Z" opacity=".1"/><path fill="#1684F8" d="M154.623 311.434H99.2042C97.2043 311.434 95.583 313.056 95.583 315.057C95.583 317.057 97.2043 318.679 99.2042 318.679H154.623C156.623 318.679 158.244 317.057 158.244 315.057C158.244 313.056 156.623 311.434 154.623 311.434Z" opacity=".2"/><path fill="#1684F8" d="M236.924 329.131H100.818C97.9268 329.131 95.583 331.476 95.583 334.368V347.308C95.583 350.201 97.9268 352.545 100.818 352.545H236.924C239.815 352.545 242.159 350.201 242.159 347.308V334.368C242.159 331.476 239.815 329.131 236.924 329.131Z" opacity=".1"/><path fill="#1684F8" d="M321.5 311.434H266.082C264.082 311.434 262.46 313.056 262.46 315.057C262.46 317.057 264.082 318.679 266.082 318.679H321.5C323.5 318.679 325.121 317.057 325.121 315.057C325.121 313.056 323.5 311.434 321.5 311.434Z" opacity=".2"/><path fill="#1684F8" d="M403.801 329.131H267.695C264.804 329.131 262.46 331.476 262.46 334.368V347.308C262.46 350.201 264.804 352.545 267.695 352.545H403.801C406.692 352.545 409.036 350.201 409.036 347.308V334.368C409.036 331.476 406.692 329.131 403.801 329.131Z" opacity=".1"/><path fill="#1684F8" d="M295.759 370.788H210.684C207.251 370.788 204.469 373.572 204.469 377.007V388.486C204.469 391.921 207.251 394.705 210.684 394.705H295.759C299.192 394.705 301.974 391.921 301.974 388.486V377.007C301.974 373.572 299.192 370.788 295.759 370.788Z" opacity=".2"/><path fill="#E98862" d="M268.062 99.989L277.071 110.633L276.514 108.806C276.345 108.212 276.408 107.577 276.69 107.028C276.972 106.479 277.452 106.058 278.032 105.85C278.336 105.753 278.656 105.718 278.973 105.749C279.29 105.78 279.597 105.875 279.876 106.028C280.155 106.181 280.4 106.39 280.596 106.641C280.792 106.892 280.935 107.181 281.015 107.489L285.134 123.004C285.654 124.962 285.388 127.046 284.394 128.811C283.399 130.577 281.755 131.883 279.811 132.453C277.554 133.114 275.151 133.085 272.91 132.371C270.67 131.657 268.693 130.29 267.235 128.445L260.64 120.073C260.289 119.645 260.097 119.108 260.096 118.554C260.095 118 260.285 117.463 260.634 117.033C260.958 116.652 261.395 116.383 261.882 116.268C262.369 116.153 262.88 116.196 263.341 116.392C263.35 116.355 263.369 116.322 263.396 116.295C263.423 116.271 263.456 116.255 263.491 116.247C263.526 116.239 263.562 116.24 263.597 116.249L262.375 114.704C262.001 114.252 261.803 113.679 261.818 113.091C261.833 112.504 262.06 111.942 262.457 111.509C262.864 111.093 263.41 110.844 263.991 110.808C264.571 110.773 265.143 110.955 265.597 111.318C265.6 111.294 265.608 111.27 265.62 111.248L265.118 110.614C264.791 110.18 264.611 109.653 264.607 109.109C264.603 108.565 264.773 108.035 265.094 107.595C265.486 107.123 266.047 106.823 266.657 106.759C267.268 106.695 267.879 106.873 268.359 107.255L268.391 107.223L264.606 102.751C264.412 102.521 264.267 102.255 264.179 101.967C264.091 101.68 264.063 101.378 264.096 101.079C264.129 100.78 264.222 100.491 264.37 100.23C264.518 99.9686 264.718 99.7401 264.957 99.5585C265.433 99.223 266.018 99.0809 266.595 99.1608C267.171 99.2407 267.696 99.5368 268.062 99.989Z"/><path fill="#0C0C0C" d="M268.268 107.506C268.277 107.53 268.29 107.552 268.307 107.571L272.037 111.875C272.056 111.897 272.079 111.915 272.105 111.928C272.131 111.941 272.159 111.948 272.188 111.951C272.217 111.953 272.246 111.949 272.273 111.94C272.301 111.931 272.326 111.917 272.348 111.898C272.37 111.879 272.388 111.856 272.401 111.83C272.415 111.804 272.422 111.776 272.424 111.747C272.427 111.718 272.423 111.689 272.414 111.661C272.405 111.634 272.39 111.608 272.372 111.586L268.645 107.285C268.61 107.249 268.564 107.225 268.514 107.219C268.464 107.212 268.414 107.223 268.371 107.249C268.327 107.275 268.294 107.314 268.277 107.361C268.259 107.408 268.257 107.46 268.273 107.508L268.268 107.506Z" opacity=".2"/><path fill="#0C0C0C" d="M265.603 111.421C265.612 111.444 265.625 111.466 265.641 111.485L268.544 114.887C268.583 114.928 268.636 114.952 268.692 114.955C268.748 114.958 268.803 114.939 268.846 114.903C268.889 114.866 268.916 114.814 268.922 114.758C268.928 114.703 268.912 114.646 268.878 114.602L265.975 111.2C265.941 111.16 265.895 111.133 265.843 111.125C265.792 111.116 265.739 111.126 265.694 111.153C265.649 111.18 265.615 111.221 265.599 111.271C265.582 111.32 265.583 111.374 265.602 111.423L265.603 111.421Z" opacity=".2"/><path fill="#0C0C0C" d="M263.337 116.539C263.347 116.565 263.361 116.588 263.379 116.608L264.79 118.183C264.809 118.204 264.833 118.222 264.859 118.234C264.885 118.247 264.913 118.254 264.942 118.256C264.971 118.257 265 118.253 265.027 118.244C265.054 118.234 265.079 118.219 265.101 118.2C265.122 118.181 265.14 118.158 265.152 118.132C265.165 118.106 265.172 118.077 265.174 118.048C265.175 118.02 265.171 117.991 265.162 117.963C265.152 117.936 265.137 117.911 265.118 117.89L263.709 116.314C263.675 116.277 263.629 116.252 263.578 116.245C263.528 116.238 263.477 116.248 263.433 116.274C263.39 116.301 263.357 116.341 263.34 116.389C263.323 116.437 263.323 116.489 263.34 116.537L263.337 116.539Z" opacity=".2"/><path fill="#1684F8" d="M377.181 206.749L298.532 201.242C295.694 201.044 292.971 200.045 290.678 198.361C288.384 196.678 286.615 194.378 285.574 191.73L260.707 128.444L288.722 117.426L310.111 171.864L379.28 176.707L377.181 206.749Z"/><path fill="#1684F8" d="M422.847 512.641C422.847 512.641 420.33 525.691 408.115 526.421C395.899 527.151 398.548 536.884 398.548 536.884H445.229V513.551L422.847 512.641Z"/><path fill="#262626" d="M437.245 274.542C437.245 274.542 437.099 270.618 437.13 279.519C437.245 312.719 437.821 350.64 439.228 372.83C441.49 408.503 447.289 520.971 447.289 520.971L416.615 520.714L386.884 273.193L437.245 274.542Z"/><path fill="#1684F8" d="M368.238 512.641C368.238 512.641 365.722 525.691 353.506 526.421C341.291 527.151 343.94 536.884 343.94 536.884H390.62V513.551L368.238 512.641Z"/><path fill="#262626" d="M353.386 277.121C353.386 277.121 350.669 390.588 351.067 396.134L362.475 520.111L392.642 520.668L389.703 391.648C389.703 391.648 391.776 356.058 400.371 323.01C404.769 306.049 407.416 288.681 408.27 271.179L353.386 277.121Z"/><path fill="#333" d="M437.579 274.539L437.679 274.545C437.679 274.545 437.607 272.609 437.579 274.539Z"/><path fill="#1684F8" d="M349.068 214.139C349.701 221.574 352.778 267.962 353.386 277.12H437.21C437.684 268.86 439.81 232.741 441.606 216.589C443.32 201.175 446.683 193.457 444.218 188.901C440.19 181.454 429.182 177.15 421.677 176.133C417.094 175.512 410.201 175.067 410.201 175.067C410.201 175.067 409.617 186.88 395.7 187.537C376.755 188.43 378.019 175.067 377.926 175.067C374.856 175.067 356.984 176.511 353.034 179.555C346.123 184.877 347.725 198.382 349.068 214.139Z"/><path fill="#0C0C0C" d="M347.911 204.822C347.84 204.822 347.771 204.795 347.719 204.746C347.668 204.697 347.636 204.63 347.632 204.559L346.959 192.752C346.955 192.678 346.98 192.606 347.029 192.551C347.078 192.495 347.147 192.462 347.221 192.458C347.294 192.454 347.367 192.48 347.422 192.529C347.477 192.578 347.51 192.647 347.515 192.72L348.191 204.527C348.196 204.601 348.17 204.673 348.121 204.728C348.072 204.784 348.003 204.817 347.929 204.821L347.911 204.822Z"/><path fill="#1684F8" d="M455.334 276.634C457.8 276.634 460.229 276.037 462.414 274.896C464.6 273.754 466.478 272.102 467.887 270.078C469.297 268.054 470.198 265.72 470.512 263.274C470.826 260.827 470.544 258.341 469.692 256.027C468.826 253.677 448.523 199.891 444.658 189.925L416.039 201.525C418.213 207.129 426.086 228.369 432.412 245.478L421.903 244.335L418.595 274.778L453.678 276.544C454.228 276.604 454.781 276.634 455.334 276.634Z"/><path fill="#E98862" d="M367.94 174.049C368.034 174.037 370.605 183.717 390.672 182.211C404.564 181.17 407.953 171.709 408.27 171.709C406.772 171.391 404.34 171.06 403.674 170.705C401.487 169.53 399.893 168.098 399.091 165.026C398.464 162.624 398.144 153.375 398.144 148.735L376.766 153.541C377.065 158.776 379.15 170.91 371.841 173.057C370.625 173.412 369.315 173.739 367.94 174.049Z"/><path fill="#E98862" d="M377.507 163.831C385.935 164.496 396.76 160.937 398.816 149.688L400.672 139.538C402.728 128.29 398.49 118.091 387.906 116.154C377.32 114.217 367.74 121.888 365.684 133.136L364.863 137.629C364.073 141.946 362.472 162.644 377.507 163.831Z"/><path fill="#0A0A0A" d="M369.693 153.504C371.206 145.9 371.9 140.827 371.819 135.474C369.688 131.738 370.248 127.443 370.733 125.59C369.266 126.522 367.541 126.965 365.806 126.854C365.806 126.854 369.329 112.706 381.303 108.899C383.505 108.042 389.128 106.959 396.594 107.983C402.945 108.854 418.598 113.605 420.834 131.235V131.245C420.908 131.83 422.411 148.074 425.405 155.868C429.433 166.345 435.088 169.601 434.945 181.689C434.76 197.238 406.187 199.308 388.955 198.145C371.723 196.982 362.1 191.312 361.974 180.107C361.843 167.551 366.667 168.717 369.693 153.504Z"/><path fill="#0C0C0C" d="M439.002 216.902L436.943 277.114L437.5 277.133L439.56 216.921L439.002 216.902Z"/><path fill="#2B3340" d="M33.718 538H527.127C527.183 538.002 527.238 537.993 527.289 537.973C527.341 537.954 527.388 537.924 527.428 537.885C527.468 537.847 527.499 537.801 527.521 537.75C527.542 537.699 527.553 537.645 527.553 537.59C527.553 537.534 527.542 537.48 527.521 537.429C527.499 537.378 527.468 537.332 527.428 537.294C527.388 537.255 527.341 537.225 527.289 537.206C527.238 537.186 527.183 537.177 527.127 537.179H33.718C33.6628 537.177 33.6077 537.186 33.5561 537.206C33.5046 537.225 33.4575 537.255 33.4177 537.294C33.378 537.332 33.3463 537.378 33.3247 537.429C33.3031 537.48 33.292 537.534 33.292 537.59C33.292 537.645 33.3031 537.699 33.3247 537.75C33.3463 537.801 33.378 537.847 33.4177 537.885C33.4575 537.924 33.5046 537.954 33.5561 537.973C33.6077 537.993 33.6628 538.002 33.718 538Z"/><path fill="#0A0A0A" d="M402.606 313.692C402.606 313.692 401.334 337.785 401.101 343.441C400.555 356.522 400.367 370.065 400.367 385.421L395.531 345.166C395.531 345.166 399.067 332.55 402.606 313.692Z"/></g><defs><clipPath id="clip0_2_2975"><rect width="558" height="538" fill="#fff"/></clipPath></defs></svg>