<svg xmlns="http://www.w3.org/2000/svg" width="703" height="428" fill="none" viewBox="0 0 703 428"><g clip-path="url(#clip0_2_2637)"><path fill="#F2F6FE" d="M654.501 425.37C661.05 425.37 667.532 424.045 673.555 421.475C679.578 418.905 685.017 415.143 689.545 410.416C694.073 405.689 697.595 400.095 699.899 393.971C702.203 387.847 703.241 381.321 702.951 374.786C701.353 338.741 682.902 287.845 610.164 236.982C521.462 174.956 561.469 -3.62842 373.002 8.69389C184.535 21.0162 202.504 152.993 86.9411 213.483C13.3797 251.988 0.00491741 327.328 0 377.006C0.0120587 389.843 5.12796 402.149 14.2227 411.218C23.3174 420.288 35.6462 425.378 48.498 425.37H654.501Z"/><path fill="#DEE8F5" d="M525.276 0H143.509V276.14H525.276V0Z"/><path fill="#C1D8ED" d="M525.276 0H143.509V22.7469H525.276V0Z"/><path fill="#fff" d="M512.49 17.0808C515.646 17.0808 518.204 14.5256 518.204 11.3737C518.204 8.22168 515.646 5.6665 512.49 5.6665C509.335 5.6665 506.776 8.22168 506.776 11.3737C506.776 14.5256 509.335 17.0808 512.49 17.0808Z"/><path fill="#C1D8ED" d="M243.574 86.7527C243.574 94.3385 241.322 101.754 237.103 108.061C232.883 114.369 226.886 119.285 219.869 122.188C212.852 125.091 205.131 125.85 197.682 124.37C190.233 122.89 183.391 119.237 178.02 113.873C172.65 108.509 168.993 101.675 167.511 94.2353C166.029 86.7953 166.79 79.0835 169.696 72.0751C172.603 65.0668 177.524 59.0766 183.839 54.8622C190.154 50.6477 197.579 48.3983 205.174 48.3983C210.221 48.3835 215.221 49.3654 219.887 51.2876C224.552 53.2099 228.791 56.0345 232.36 59.599C235.929 63.1635 238.757 67.3975 240.682 72.0576C242.606 76.7177 243.589 81.7118 243.574 86.7527Z"/><path fill="#fff" d="M205.174 90.7046C213.57 90.7046 220.376 83.9066 220.376 75.5208C220.376 67.135 213.57 60.3369 205.174 60.3369C196.778 60.3369 189.971 67.135 189.971 75.5208C189.971 83.9066 196.778 90.7046 205.174 90.7046Z"/><path fill="#fff" d="M232.846 113.348C229.262 117.066 224.965 120.024 220.21 122.045C215.455 124.065 210.341 125.107 205.174 125.107C200.007 125.107 194.893 124.065 190.138 122.045C185.383 120.024 181.086 117.066 177.502 113.348C182.68 101.79 193.133 93.8911 205.174 93.8911C217.215 93.8911 227.668 101.791 232.846 113.348Z"/><path fill="#fff" d="M336.747 48.6364H259.221V72.0366H336.747V48.6364Z"/><path fill="#fff" d="M505.648 86.5109H259.221V95.0244H505.648V86.5109Z"/><path fill="#fff" d="M505.648 109.499H259.221V118.012H505.648V109.499Z"/><path fill="#C1D8ED" d="M226.84 191.848H162.523V256.087H226.84V191.848Z"/><path fill="#fff" d="M327.925 229.713H242.767V236.473H327.925V229.713Z"/><path fill="#fff" d="M327.925 247.966H242.767V254.726H327.925V247.966Z"/><path fill="#fff" d="M327.925 193.209H242.767V199.969H327.925V193.209Z"/><path fill="#fff" d="M327.925 211.461H242.767V218.221H327.925V211.461Z"/><path fill="#C1D8ED" d="M405.177 191.848H340.86V256.088H405.177V191.848Z"/><path fill="#fff" d="M506.262 229.713H421.104V236.473H506.262V229.713Z"/><path fill="#fff" d="M506.262 247.966H421.104V254.726H506.262V247.966Z"/><path fill="#fff" d="M506.262 193.209H421.103V199.969H506.262V193.209Z"/><path fill="#fff" d="M506.262 211.461H421.104V218.221H506.262V211.461Z"/><path fill="#fff" d="M506.265 154.996C506.264 155.966 505.877 156.895 505.19 157.58C504.503 158.265 503.572 158.65 502.601 158.649H314.621V151.344H502.601C503.082 151.343 503.558 151.437 504.003 151.62C504.447 151.804 504.851 152.073 505.191 152.412C505.531 152.751 505.801 153.154 505.985 153.597C506.17 154.041 506.265 154.516 506.265 154.996Z"/><path fill="#1FAE8C" d="M314.621 151.344V158.649H166.183C165.213 158.649 164.283 158.264 163.597 157.579C162.911 156.894 162.526 155.965 162.526 154.996C162.526 154.028 162.911 153.098 163.597 152.413C164.283 151.728 165.213 151.344 166.183 151.344H314.621Z"/><path fill="#1FAE8C" d="M314.619 162.046C318.518 162.046 321.678 158.89 321.678 154.996C321.678 151.102 318.518 147.945 314.619 147.945C310.72 147.945 307.56 151.102 307.56 154.996C307.56 158.89 310.72 162.046 314.619 162.046Z"/><path fill="#E98862" d="M204.329 246.146C208.611 304.508 214.107 362.882 221.936 420.882L234.459 419.724C231.488 361.277 226.155 302.884 219.63 244.73L204.329 246.146Z"/><path fill="#E98862" d="M178.281 259.402C176.575 304.537 172.271 372.984 169.788 418.664L182.305 419.855C188.233 373.835 197.557 306.231 202.636 260.739L178.281 259.402Z"/><path fill="#C1D8ED" d="M198.522 425.256C198.869 425.254 199.212 425.181 199.53 425.041C199.847 424.901 200.133 424.697 200.368 424.442C200.603 424.186 200.783 423.886 200.896 423.558C201.01 423.23 201.054 422.883 201.027 422.537C200.99 422.058 200.816 421.599 200.527 421.216C200.237 420.832 199.844 420.539 199.393 420.37L184.369 415.345C184.078 415.248 183.769 415.216 183.465 415.25C183.16 415.284 182.866 415.383 182.604 415.541C180.538 416.972 178.067 417.704 175.554 417.628C173.597 417.489 171.719 416.804 170.133 415.65C169.994 415.536 169.825 415.463 169.646 415.442C169.467 415.42 169.285 415.449 169.122 415.526C168.959 415.603 168.822 415.725 168.726 415.878C168.629 416.03 168.579 416.206 168.579 416.387V423.724C168.579 423.941 168.622 424.155 168.705 424.355C168.788 424.555 168.91 424.737 169.064 424.889C169.217 425.042 169.399 425.163 169.6 425.245C169.8 425.327 170.015 425.369 170.232 425.368L198.522 425.256Z"/><path fill="#C1D8ED" d="M249.989 425.256C250.336 425.254 250.679 425.181 250.997 425.041C251.315 424.901 251.6 424.697 251.835 424.442C252.07 424.186 252.25 423.886 252.364 423.558C252.477 423.23 252.522 422.883 252.495 422.537C252.457 422.058 252.283 421.599 251.994 421.216C251.704 420.832 251.311 420.538 250.86 420.37L235.836 415.345C235.545 415.248 235.237 415.216 234.932 415.25C234.627 415.284 234.334 415.383 234.071 415.541C232.005 416.972 229.535 417.704 227.022 417.628C225.065 417.489 223.186 416.804 221.6 415.65C221.46 415.536 221.291 415.463 221.112 415.441C220.933 415.419 220.752 415.449 220.589 415.526C220.426 415.603 220.289 415.725 220.193 415.878C220.097 416.03 220.046 416.207 220.046 416.387V423.724C220.046 423.941 220.089 424.155 220.172 424.355C220.255 424.555 220.377 424.737 220.531 424.89C220.684 425.042 220.867 425.163 221.067 425.245C221.268 425.328 221.482 425.369 221.699 425.368L249.989 425.256Z"/><path fill="#041A39" d="M177.898 235.398C177.898 235.398 170.915 266.63 170.915 292.895C170.915 319.161 162.898 359.841 162.898 359.841C162.898 359.841 185.936 355.037 201.035 359.841C216.134 364.646 244.29 355.998 244.29 355.998L224.661 238.281L177.898 235.398Z"/><path fill="#E98862" d="M192.063 171.534C192.063 171.534 197.007 169.413 197.007 156.442L206.943 155.431C206.943 155.431 204.895 166.892 209.546 170.963L192.063 171.534Z"/><path fill="#E98862" d="M191.864 150.994C192.22 154.958 194.052 158.835 197.401 160.38C201.041 162.18 205.068 163.063 209.128 162.951C219.915 162.951 219.793 138.445 215.091 133.301C210.388 128.158 195.217 129.929 192.752 137.686C191.48 141.696 191.524 147.222 191.864 150.994Z"/><path fill="#1B2434" d="M214.039 141.456C209.821 160.353 205.937 165.405 196.158 161.622C193.915 160.754 188.543 155.433 188.005 144.112C187.785 140.332 188.957 136.601 191.301 133.624C193.645 130.648 196.999 128.631 200.729 127.953C220.097 125.263 220.777 142.73 220.777 142.73C211.057 144.394 197.817 141.644 197.817 141.644"/><path fill="#E98862" d="M214.494 152.126C214.501 152.626 214.408 153.121 214.221 153.584C214.034 154.048 213.757 154.469 213.406 154.824C213.054 155.18 212.636 155.462 212.175 155.654C211.713 155.847 211.218 155.946 210.719 155.946C210.219 155.946 209.724 155.847 209.262 155.654C208.801 155.462 208.383 155.18 208.032 154.824C207.68 154.469 207.403 154.048 207.216 153.584C207.029 153.121 206.937 152.626 206.943 152.126C206.935 151.629 207.026 151.135 207.213 150.673C207.4 150.212 207.678 149.793 208.03 149.441C208.383 149.089 208.802 148.812 209.264 148.625C209.726 148.439 210.221 148.347 210.719 148.356C213.408 148.488 214.494 150.046 214.494 152.126Z"/><path fill="#E98862" d="M163.938 257.52C163.938 259.35 164.905 265.466 163.349 265.903C162.417 266.165 161.315 261.605 161.315 261.605"/><path fill="#E98862" d="M156.594 256.56C156.594 256.56 151.514 268.908 157.308 276.002C157.456 276.183 157.655 276.315 157.879 276.38C158.103 276.446 158.341 276.443 158.563 276.371C158.785 276.3 158.981 276.163 159.124 275.979C159.267 275.794 159.351 275.571 159.365 275.339C159.646 270.555 160.612 260.727 163.77 261.878V254.165"/><path fill="#E98862" d="M271.134 190.768C271.134 190.768 278.228 185.139 278.729 183.118C279.23 181.096 274.235 177.119 274.235 177.119C274.235 177.119 280.879 170.431 279.554 169.461C277.991 168.316 270.282 178.045 270.282 178.045C270.282 178.045 271.371 174.546 270.014 174.316C269.456 174.222 269.014 174.768 268.142 177.245C267.146 180.069 265.159 184.315 265.159 184.315L271.134 190.768Z"/><path fill="#1684F8" d="M263.665 183.284L242.681 206.864L226.269 177.521C224.715 172.885 221.177 169.78 213.962 169.471C211.494 169.365 199.452 169.349 190.635 169.349C184.712 169.349 179.848 171.164 177.041 173.969C175.626 175.361 174.567 177.071 173.954 178.957L173.869 178.926L159.761 217.245C159.603 217.674 159.489 218.119 159.422 218.572L153.727 256.891L166.985 258.855L172.579 221.218L178.277 205.743C178.87 208.121 179.194 210.559 179.243 213.01C179.243 225.902 173.403 231.685 173.834 238.301C174.51 248.704 225.116 246.246 227.694 240.337C230.349 234.243 224.961 230.489 225.197 210.555C225.222 208.386 225.39 206.117 225.621 203.806L235.579 221.61C236.1 222.543 236.837 223.337 237.728 223.927C238.62 224.517 239.64 224.885 240.703 225.001C241.766 225.116 242.841 224.976 243.839 224.592C244.836 224.208 245.727 223.591 246.437 222.792L274.027 190.561L263.665 183.284Z"/><path fill="#1B2434" d="M176.71 147.532C176.341 138.429 178.42 132.912 181.394 129.981C184.328 127.089 193.763 124.943 197.753 136.228C200.356 143.595 199.513 146.13 200.575 157.757C201.637 169.384 204.38 169.368 204.895 180.067C205.442 191.444 200.804 200.332 188.593 200.257C178.624 200.195 172.287 195.41 171.373 185.409C170.062 171.055 177.433 165.372 176.71 147.532Z"/><path fill="#DEE8F5" d="M88.9488 399.615L68.4407 422.739L74.385 427.998L94.8931 404.874L88.9488 399.615Z"/><path fill="#DEE8F5" d="M72.7225 400.6L67.4568 406.537L90.6082 427.021L95.8739 421.085L72.7225 400.6Z"/><path fill="#31D0AA" d="M52.7244 421.472C40.5501 417.704 28.7385 412.779 17.9761 398.997C15.7676 396.173 13.6918 392.554 14.9028 389.174C15.8137 386.63 18.4488 384.999 21.1257 384.584C22.1231 384.439 23.1339 384.411 24.1377 384.501C24.1426 384.501 24.1475 384.501 24.1493 384.501C25.6921 384.659 27.2171 384.957 28.7053 385.392L29.1307 385.515C36.2337 387.532 43 390.584 49.2109 394.574C49.7738 394.932 50.4415 395.09 51.1055 395.021C51.7695 394.952 52.3906 394.661 52.8679 394.195C53.3452 393.729 53.6505 393.115 53.7343 392.454C53.8181 391.792 53.6753 391.122 53.3293 390.552C52.6956 389.518 51.9583 388.551 51.1287 387.666C49.9052 386.388 48.5647 385.227 47.1247 384.198C45.2106 382.803 43.1687 381.558 41.1703 380.285C33.7413 375.56 26.7033 370.247 20.1238 364.399C15.4283 360.221 10.8354 355.584 8.6054 349.71C7.58012 347.008 7.11358 343.894 8.33678 341.275C10.3554 336.978 16.0737 335.773 20.7496 336.665C28.9426 338.233 35.4883 344.231 41.2927 350.211C46.1062 355.179 51.5 360.681 58.4157 360.986C59.5944 361.096 60.7796 360.859 61.8247 360.303C63.7978 359.11 64.3049 356.344 63.6017 354.149C62.8985 351.954 61.2715 350.2 59.701 348.514C50.5724 338.733 41.5896 328.558 35.6616 316.572C29.7337 304.587 27.1072 290.437 31.2255 277.712C32.4327 273.992 34.2472 270.372 37.0784 267.669C39.9096 264.967 43.8786 263.272 47.7646 263.789C53.0588 264.485 57.0462 268.946 59.7287 273.556C68.9488 289.367 68.3851 308.739 70.9822 326.851C71.7087 331.921 72.7647 337.121 75.7889 341.295C76.0678 341.696 76.4296 342.033 76.8499 342.283C79.3381 343.722 81.5706 340.82 82.5049 338.358C86.1929 328.615 87.115 317.474 93.7178 309.41C96.238 306.341 99.8031 303.775 103.777 303.8C108.633 303.833 112.785 307.882 114.201 312.518C115.618 317.154 114.77 322.191 113.253 326.795C110.436 335.332 105.388 343.003 99.4398 349.743C96.305 353.304 92.7577 356.899 91.8179 361.543C91.5297 363.121 91.6502 364.747 92.168 366.265C92.6857 367.784 93.5836 369.145 94.7763 370.22C95.3338 370.705 95.9832 371.073 96.6857 371.302C97.3883 371.531 98.1298 371.618 98.8663 371.555C100.46 371.41 101.9 370.598 103.289 369.809C103.872 369.478 104.457 369.141 105.045 368.812C107.364 367.493 109.684 366.172 112.004 364.85C117.902 361.489 125.024 358.055 131.167 360.95C134.302 362.429 136.355 365.339 137.322 368.677C138.186 371.706 138.186 374.917 137.322 377.947C135.492 384.248 123.958 401.781 119.201 406.303C113.646 411.583 94.3798 434.366 52.7244 421.472Z"/><path fill="#C1D8ED" d="M540.393 359.317H533.654V425.529H540.393V359.317Z"/><path fill="#DEE8F5" d="M534.847 359.317H528.109V425.529H534.847V359.317Z"/><path fill="#C1D8ED" d="M624.328 359.317H617.59V425.529H624.328V359.317Z"/><path fill="#DEE8F5" d="M618.782 359.317H612.043V425.529H618.782V359.317Z"/><path fill="#C1D8ED" d="M558.875 359.317H552.137V425.529H558.875V359.317Z"/><path fill="#DEE8F5" d="M553.33 359.317H546.591V425.529H553.33V359.317Z"/><path fill="#C1D8ED" d="M642.81 359.317H636.072V425.529H642.81V359.317Z"/><path fill="#DEE8F5" d="M637.265 359.317H630.526V425.529H637.265V359.317Z"/><path fill="#C1D8ED" d="M642.81 316.934H552.179V360.904H642.81V316.934Z"/><path fill="#DEE8F5" d="M618.74 316.935H528.109V360.905H618.74V316.935Z"/><path fill="#F3F5FD" d="M613.865 323.186H532.984V354.46H613.865V323.186Z" opacity=".53"/><path fill="#fff" d="M573.424 342.41C575.408 342.41 577.016 340.804 577.016 338.822C577.016 336.841 575.408 335.235 573.424 335.235C571.44 335.235 569.832 336.841 569.832 338.822C569.832 340.804 571.44 342.41 573.424 342.41Z"/><path fill="#F0F6FF" d="M565.38 273.93L558.532 275.547L567.117 311.815L573.965 310.198L565.38 273.93Z"/><path fill="#C1D8ED" d="M572.915 271.118L567.035 302.952L570.837 303.653L576.716 271.819L572.915 271.118Z"/><path fill="#DEE8F5" d="M572.918 271.108L572.249 274.619L576.047 275.341L576.716 271.83L572.918 271.108Z"/><path fill="#1FAE8C" d="M561.144 279.202L559.033 280.033L571.353 311.267L573.464 310.436L561.144 279.202Z"/><path fill="#C1D8ED" d="M577.017 292.874H558.446V316.579H577.017V292.874Z"/></g><defs><clipPath id="clip0_2_2637"><rect width="703" height="428" fill="#fff"/></clipPath></defs></svg>