<svg xmlns="http://www.w3.org/2000/svg" width="56" height="42" fill="none" viewBox="0 0 56 42"><path fill="#5865F2" d="M46.9212 4.09013C43.4412 2.53466 39.7094 1.38863 35.8075 0.732244C35.7365 0.719581 35.6655 0.751239 35.6289 0.814555C35.149 1.64611 34.6174 2.73094 34.2451 3.5836C30.0484 2.97154 25.8733 2.97154 21.7627 3.5836C21.3904 2.71194 20.8394 1.64611 20.3573 0.814555C20.3207 0.753349 20.2497 0.721691 20.1787 0.732244C16.279 1.38651 12.5472 2.53254 9.06504 4.09013C9.03491 4.1028 9.00909 4.1239 8.99187 4.15134C1.91348 14.4529 -0.0255993 24.5013 0.925647 34.4251C0.929951 34.4736 0.957929 34.5201 0.996668 34.5496C5.66681 37.8906 10.1906 39.9189 14.6305 41.2633C14.7015 41.2844 14.7768 41.2591 14.822 41.2021C15.8723 39.8049 16.8084 38.3317 17.6112 36.7826C17.6585 36.6918 17.6133 36.5842 17.5165 36.5483C16.0315 35.9996 14.6176 35.3305 13.2574 34.5707C13.1498 34.5095 13.1412 34.3597 13.2402 34.2879C13.5264 34.079 13.8127 33.8616 14.086 33.6421C14.1355 33.602 14.2044 33.5935 14.2625 33.6189C23.1982 37.593 32.872 37.593 41.7023 33.6189C41.7604 33.5914 41.8292 33.5999 41.8809 33.64C42.1542 33.8595 42.4404 34.079 42.7288 34.2879C42.8278 34.3597 42.8214 34.5095 42.7138 34.5707C41.3536 35.3453 39.9397 35.9996 38.4525 36.5462C38.3557 36.5821 38.3126 36.6918 38.36 36.7826C39.18 38.3296 40.1161 39.8028 41.147 41.2C41.19 41.2591 41.2675 41.2844 41.3385 41.2633C45.7999 39.9189 50.3237 37.8906 54.9939 34.5496C55.0348 34.5201 55.0606 34.4757 55.0649 34.4272C56.2034 22.9542 53.1581 12.9882 46.9922 4.15345C46.9772 4.1239 46.9513 4.1028 46.9212 4.09013ZM18.9455 28.3826C16.2553 28.3826 14.0386 25.9766 14.0386 23.0218C14.0386 20.067 16.2123 17.661 18.9455 17.661C21.7003 17.661 23.8954 20.0881 23.8524 23.0218C23.8524 25.9766 21.6787 28.3826 18.9455 28.3826ZM37.0881 28.3826C34.3979 28.3826 32.1812 25.9766 32.1812 23.0218C32.1812 20.067 34.3549 17.661 37.0881 17.661C39.8428 17.661 42.038 20.0881 41.995 23.0218C41.995 25.9766 39.8428 28.3826 37.0881 28.3826Z"/></svg>