<svg xmlns="http://www.w3.org/2000/svg" width="54" height="54" fill="none" viewBox="0 0 54 54"><path fill="#BFC8D0" fill-rule="evenodd" d="M27 52.3125C40.0477 52.3125 50.625 41.7352 50.625 28.6875C50.625 15.6398 40.0477 5.0625 27 5.0625C13.9523 5.0625 3.375 15.6398 3.375 28.6875C3.375 32.9246 4.49043 36.9012 6.44368 40.3396L3.375 52.3125L15.7188 49.4502C19.0711 51.2754 22.9144 52.3125 27 52.3125ZM27 48.6779C38.0404 48.6779 46.9904 39.7279 46.9904 28.6875C46.9904 17.6471 38.0404 8.69712 27 8.69712C15.9596 8.69712 7.00962 17.6471 7.00962 28.6875C7.00962 32.9502 8.34385 36.9013 10.6175 40.146L8.82692 46.8606L15.6599 45.1523C18.882 47.3758 22.789 48.6779 27 48.6779Z" clip-rule="evenodd"/><path fill="url(#paint0_linear_2_5903)" d="M47.25 27C47.25 38.1838 38.1838 47.25 27 47.25C22.7343 47.25 18.7766 45.931 15.5126 43.6787L8.59091 45.4091L10.4047 38.6073C8.10156 35.3205 6.75 31.3181 6.75 27C6.75 15.8162 15.8162 6.75 27 6.75C38.1838 6.75 47.25 15.8162 47.25 27Z"/><path fill="#fff" fill-rule="evenodd" d="M27 50.625C40.0477 50.625 50.625 40.0477 50.625 27C50.625 13.9523 40.0477 3.375 27 3.375C13.9523 3.375 3.375 13.9523 3.375 27C3.375 31.2371 4.49043 35.2137 6.44368 38.6521L3.375 50.625L15.7188 47.7627C19.0711 49.5879 22.9144 50.625 27 50.625ZM27 46.9904C38.0404 46.9904 46.9904 38.0404 46.9904 27C46.9904 15.9596 38.0404 7.00962 27 7.00962C15.9596 7.00962 7.00962 15.9596 7.00962 27C7.00962 31.2627 8.34385 35.2138 10.6175 38.4585L8.82692 45.1731L15.6599 43.4648C18.882 45.6883 22.789 46.9904 27 46.9904Z" clip-rule="evenodd"/><path fill="#fff" d="M21.0938 16.0311C20.5321 14.9029 19.6704 15.0027 18.7999 15.0027C17.2442 15.0027 14.8184 16.8662 14.8184 20.3343C14.8184 23.1766 16.0708 26.288 20.2912 30.9422C24.3642 35.434 29.7158 37.7575 34.1587 37.6784C38.6016 37.5993 39.5157 33.7761 39.5157 32.4849C39.5157 31.9127 39.1605 31.6271 38.9159 31.5496C37.4019 30.823 34.6095 29.4691 33.9741 29.2147C33.3388 28.9603 33.007 29.3044 32.8008 29.4916C32.2246 30.0406 31.0825 31.6588 30.6914 32.0228C30.3004 32.3868 29.7173 32.2026 29.4747 32.065C28.5819 31.7067 26.1612 30.63 24.2316 28.7595C21.8452 26.4462 21.7052 25.6503 21.2556 24.9418C20.8959 24.375 21.1598 24.0273 21.2915 23.8753C21.8057 23.2821 22.5156 22.3661 22.834 21.911C23.1524 21.4558 22.8997 20.7647 22.748 20.3343C22.0957 18.4832 21.5432 16.9337 21.0938 16.0311Z"/><defs><linearGradient id="paint0_linear_2_5903" x1="44.719" x2="6.75" y1="11.813" y2="47.25" gradientUnits="userSpaceOnUse"><stop stop-color="#5BD066"/><stop offset="1" stop-color="#27B43E"/></linearGradient></defs></svg>