<svg width="532" height="514" viewBox="0 0 532 514" fill="none" xmlns="http://www.w3.org/2000/svg">
<path d="M381.391 514C464.57 514 532 507.793 532 500.135C532 492.478 464.57 486.271 381.391 486.271C298.211 486.271 230.781 492.478 230.781 500.135C230.781 507.793 298.211 514 381.391 514Z" fill="white"/>
<path opacity="0.1" d="M381.391 514C464.57 514 532 507.793 532 500.135C532 492.478 464.57 486.271 381.391 486.271C298.211 486.271 230.781 492.478 230.781 500.135C230.781 507.793 298.211 514 381.391 514Z" fill="#041A39"/>
<path d="M131.372 293.959H83.3647V307.895H131.372V293.959Z" fill="#C9DAE0"/>
<path opacity="0.05" d="M96.102 293.959H89.8117V307.895H96.102V293.959Z" fill="#041A39"/>
<path d="M125.238 296.988H99.082V305.246H125.238V296.988Z" fill="white"/>
<path d="M169.664 295.777L125.057 276.34L119.467 289.111L164.074 308.548L169.664 295.777Z" fill="#C9DAE0"/>
<path opacity="0.05" d="M169.664 295.777L125.057 276.34L119.467 289.111L164.074 308.548L169.664 295.777Z" fill="#041A39"/>
<path d="M163.674 293.167L157.829 290.62L152.238 303.391L158.083 305.937L163.674 293.167Z" fill="white"/>
<path d="M153.845 292.189L129.542 281.6L126.229 289.167L150.532 299.757L153.845 292.189Z" fill="white"/>
<path opacity="0.05" d="M169.748 470.494H157.684V478.532H169.748V470.494Z" fill="#041A39"/>
<path opacity="0.05" d="M46.4032 470.494H34.3389V478.532H46.4032V470.494Z" fill="#041A39"/>
<path d="M180.807 308.548H23.2805V470.222H180.807V308.548Z" fill="#C9DAE0"/>
<path opacity="0.03" d="M180.807 308.548H23.2805V470.222H180.807V308.548Z" fill="#041A39"/>
<path d="M209.999 308.548H52.4725V470.222H209.999V308.548Z" fill="#C9DAE0"/>
<path opacity="0.05" d="M198.94 470.494H186.876V478.532H198.94V470.494Z" fill="#041A39"/>
<path opacity="0.05" d="M75.5958 470.494H63.5315V478.532H75.5958V470.494Z" fill="#041A39"/>
<path opacity="0.7" d="M204.087 316.12H58.3863V347.181H204.087V316.12Z" fill="white"/>
<path opacity="0.7" d="M204.087 354.783H58.3863V385.844H204.087V354.783Z" fill="white"/>
<path opacity="0.7" d="M204.087 393.446H58.3863V424.507H204.087V393.446Z" fill="white"/>
<path opacity="0.05" d="M131.236 335.997C133.642 335.997 135.593 334.051 135.593 331.651C135.593 329.251 133.642 327.305 131.236 327.305C128.831 327.305 126.88 329.251 126.88 331.651C126.88 334.051 128.831 335.997 131.236 335.997Z" fill="#041A39"/>
<path opacity="0.05" d="M131.236 374.66C133.642 374.66 135.593 372.714 135.593 370.314C135.593 367.914 133.642 365.968 131.236 365.968C128.831 365.968 126.88 367.914 126.88 370.314C126.88 372.714 128.831 374.66 131.236 374.66Z" fill="#041A39"/>
<path opacity="0.05" d="M131.236 413.324C133.642 413.324 135.593 411.378 135.593 408.978C135.593 406.577 133.642 404.632 131.236 404.632C128.831 404.632 126.88 406.577 126.88 408.978C126.88 411.378 128.831 413.324 131.236 413.324Z" fill="#041A39"/>
<path opacity="0.7" d="M204.087 432.981H58.3863V464.042H204.087V432.981Z" fill="white"/>
<path opacity="0.05" d="M131.236 452.858C133.642 452.858 135.593 450.912 135.593 448.512C135.593 446.112 133.642 444.166 131.236 444.166C128.831 444.166 126.88 446.112 126.88 448.512C126.88 450.912 128.831 452.858 131.236 452.858Z" fill="#041A39"/>
<path d="M79.1997 148.08H172.346L172.346 27.1245L79.1997 27.1245L79.1997 148.08Z" fill="#C9DAE0"/>
<path d="M79.2003 27.1245H76.1785V148.08H79.2003V27.1245Z" fill="#C9DAE0"/>
<path opacity="0.05" d="M79.2003 27.1245H76.1785V148.08H79.2003V27.1245Z" fill="#041A39"/>
<path opacity="0.05" d="M96.1683 126.046L155.379 126.046V49.1576L96.1683 49.1576V126.046Z" fill="#041A39"/>
<path opacity="0.03" d="M96.1683 126.046H99.254L99.254 49.1576H96.1683L96.1683 126.046Z" fill="#041A39"/>
<path d="M3.02117 254.521H79.1997L79.1997 177.824H3.02117L3.02117 254.521Z" fill="#C9DAE0"/>
<path opacity="0.05" d="M16.8981 240.55H65.3227V191.796H16.8981L16.8981 240.55Z" fill="#041A39"/>
<path d="M3.02175 177.825H0V254.522H3.02175V177.825Z" fill="#C9DAE0"/>
<path opacity="0.05" d="M3.02175 177.825H0V254.522H3.02175V177.825Z" fill="#041A39"/>
<path opacity="0.03" d="M16.8981 240.55H19.9838L19.9838 191.796H16.8981L16.8981 240.55Z" fill="#041A39"/>
<path d="M467.547 26.8365H273.166V220.76H467.547V26.8365Z" fill="#C9DAE0"/>
<path d="M273.166 26.8365H270.938V220.76H273.166V26.8365Z" fill="#C9DAE0"/>
<path opacity="0.05" d="M273.166 26.8365H270.938V220.76H273.166V26.8365Z" fill="#041A39"/>
<path opacity="0.05" d="M320.256 160.466V109.729H361.915V139.206H426.444V191.398H453.871V220.76H426.444H421.161H282.516V160.466H320.256Z" fill="#041A39"/>
<path opacity="0.34" d="M356.567 115.237H326.23V120.746H356.567V115.237Z" fill="#FFFFFA"/>
<path opacity="0.34" d="M356.567 126.653H326.23V132.162H356.567V126.653Z" fill="#FFFFFA"/>
<path opacity="0.34" d="M356.567 138.069H326.23V143.578H356.567V138.069Z" fill="#FFFFFA"/>
<path opacity="0.34" d="M293.487 165.813H287.895V171.322H293.487V165.813Z" fill="#FFFFFA"/>
<path opacity="0.34" d="M293.487 177.229H287.895V182.737H293.487V177.229Z" fill="#FFFFFA"/>
<path opacity="0.34" d="M293.487 188.644H287.895V194.153H293.487V188.644Z" fill="#FFFFFA"/>
<path opacity="0.34" d="M303.831 165.813H298.24V171.322H303.831V165.813Z" fill="#FFFFFA"/>
<path opacity="0.34" d="M303.831 177.229H298.24V182.737H303.831V177.229Z" fill="#FFFFFA"/>
<path opacity="0.34" d="M303.831 188.644H298.24V194.153H303.831V188.644Z" fill="#FFFFFA"/>
<path opacity="0.34" d="M313.896 165.813H308.304V171.322H313.896V165.813Z" fill="#FFFFFA"/>
<path opacity="0.34" d="M313.896 177.229H308.304V182.737H313.896V177.229Z" fill="#FFFFFA"/>
<path opacity="0.34" d="M313.896 188.644H308.304V194.153H313.896V188.644Z" fill="#FFFFFA"/>
<path d="M273.166 122.71H312.278V26.8359H315.513V122.71H421.161V26.8359H424.395V122.71H467.547V125.937H424.395V220.76H421.161V125.937H315.513V220.76H312.278V125.937H273.166V122.71Z" fill="white"/>
<path d="M475.291 220.526H265.422V226.975H475.291V220.526Z" fill="#C9DAE0"/>
<path opacity="0.1" d="M475.291 220.526H265.422V226.975H475.291V220.526Z" fill="#041A39"/>
<path opacity="0.1" d="M265.422 220.526H262.392V226.975H265.422V220.526Z" fill="#041A39"/>
<path opacity="0.1" d="M265.422 220.526H262.392V226.975H265.422V220.526Z" fill="#041A39"/>
<path d="M434.216 253.747C404.457 253.747 380.333 261.847 380.333 271.838V293.375H488.099V271.838C488.099 261.847 463.975 253.747 434.216 253.747Z" fill="#1684F8"/>
<path opacity="0.49" d="M434.216 253.747C404.457 253.747 380.333 261.847 380.333 271.838V293.375H488.099V271.838C488.099 261.847 463.975 253.747 434.216 253.747Z" fill="white"/>
<path opacity="0.49" d="M473.42 271.841V293.375H380.331V271.841C380.331 262.683 400.591 255.116 426.875 253.92C453.162 255.116 473.42 262.683 473.42 271.841Z" fill="white"/>
<path d="M488.099 502.643H489.907L488.099 291.465L486.306 293.269L487.584 440.783L423.746 441.865L422.458 293.254L420.665 293.269L421.954 441.895L383.418 442.549L382.124 293.254L380.331 291.48L382.139 502.643L383.917 502.628L383.433 444.338L421.969 443.684L422.458 502.643L424.251 502.628L423.762 443.654L487.599 442.571L488.099 502.643Z" fill="#041A39"/>
<path d="M325.568 471.026C325.568 471.026 322.363 487.598 306.81 488.521C291.257 489.445 294.63 501.806 294.63 501.806H354.064V472.182L325.568 471.026Z" fill="#1684F8"/>
<path d="M359.477 421.182C359.477 421.182 363.934 437.463 350.387 445.141C336.841 452.819 345.336 462.425 345.336 462.425L398.665 436.25L385.558 409.669L359.477 421.182Z" fill="#1684F8"/>
<path d="M353.834 431.943L313.65 280.681C310.602 263.971 315.191 256.728 322.262 249.691C334.685 237.329 386.162 211.018 386.162 211.018L447.917 210.85C464.293 210.85 480.39 226.959 480.39 243.295C480.39 259.631 463.743 273.485 447.368 273.485L371.321 281.057L391.936 419.557L353.834 431.943Z" fill="#262626"/>
<path d="M391.935 419.556L383.819 365.031L342.705 390.051L353.834 431.943L391.935 419.556Z" fill="#1B2434"/>
<path d="M401.254 241.628C401.254 241.628 375.294 247.399 349.583 273.05C333.994 288.602 335.272 316.745 337.611 370.874L363.147 333.245L391.156 282.849L401.254 241.628Z" fill="#1B2434"/>
<path d="M491.141 210.833L449.201 210.636L449.185 211.187H436.485C436.485 211.187 404.673 240.389 379.064 258.791C360.435 272.175 349.07 284.936 348.087 298.844C345.69 332.747 318.653 477.34 318.653 477.34L359.343 483.487L395.051 310.687C395.051 310.687 450.884 285.006 463.799 276.072C475.96 267.657 484.55 264.404 488.575 255.22C495.525 239.359 491.141 210.833 491.141 210.833Z" fill="#1B2434"/>
<path d="M444.089 221.372L376.052 222.271L414.217 245.012L445.974 228.651C446.74 228.241 447.345 227.587 447.693 226.793C448.041 226 448.112 225.112 447.895 224.273C447.678 223.435 447.185 222.693 446.494 222.167C445.804 221.64 444.957 221.361 444.089 221.372Z" fill="#041A39"/>
<path opacity="0.2" d="M444.089 221.372L376.052 222.271L414.217 245.012L445.974 228.651C446.74 228.241 447.345 227.587 447.693 226.793C448.041 226 448.112 225.112 447.895 224.273C447.678 223.435 447.185 222.693 446.494 222.167C445.804 221.64 444.957 221.361 444.089 221.372Z" fill="white"/>
<path d="M376.441 99.6002L357.197 161.807L318.651 212.156L341.168 237.942L387.025 186.88C389.138 185.214 390.791 183.039 391.827 180.56L392.542 178.835L419.03 114.897L376.441 99.6002Z" fill="#1684F8"/>
<path d="M406.087 33.5688C406.087 33.5688 398.332 27.7255 396.411 14.2861C394.923 3.87982 404.546 10.6216 404.546 10.6216C404.546 10.6216 403.547 3.11781 409.028 3.86253C414.508 4.60724 417.574 12.4896 417.574 12.4896" fill="#1B2434"/>
<path d="M437.351 4.74072C437.351 4.74072 464.541 7.64862 454.712 44.4061L452.306 44.5671L447.422 44.8938" fill="#1B2434"/>
<path d="M410.641 82.7937C410.761 82.7782 412.087 104.736 437.655 102.823C455.358 101.5 461.67 82.7627 462.075 82.7627C460.167 82.3578 457.808 81.7437 456.871 81.5332C454.828 81.0602 452.977 79.9778 451.566 78.43C450.155 76.8822 449.249 74.9424 448.97 72.8686C448.452 69.7562 449.328 53.8316 449.06 50.6822L421.889 56.7329C422.27 63.3847 424.927 78.8042 415.614 81.5332C414.063 81.984 412.393 82.4014 410.641 82.7937Z" fill="#E98862"/>
<path opacity="0.52" d="M421.509 75.2315C421.934 73.8629 422.209 72.4519 422.326 71.0238C422.625 67.765 422.564 64.4834 422.147 61.2376C427.67 60.4951 432.874 58.2217 437.167 54.6759C437.672 56.535 440.447 64.6583 439.677 66.422C438.226 69.761 431.401 75.2315 421.509 75.2315Z" fill="#1B2434"/>
<path d="M427.117 70.8855C437.837 69.9261 450.668 63.1688 450.854 48.6508L451.021 35.5513C451.206 21.0338 443.712 9.1679 430.011 8.9938C416.31 8.82029 405.918 20.459 405.733 34.9771L405.66 40.7762C405.669 42.7678 405.814 44.7566 406.095 46.7285C406.797 51.9457 407.888 59.8776 411.436 65.2432C414.788 70.3089 420.268 71.4978 427.117 70.8855Z" fill="#E98862"/>
<path opacity="0.52" d="M422.143 57.6154C419.931 57.7154 417.726 57.2953 415.706 56.389C415.624 56.3518 415.559 56.2838 415.526 56.1997C415.493 56.1156 415.495 56.022 415.53 55.939C415.566 55.8559 415.632 55.7901 415.716 55.7555C415.8 55.7209 415.893 55.7203 415.977 55.7539C420.329 57.6053 424.28 57.3346 427.403 54.9705C427.466 54.9208 427.532 54.8744 427.599 54.8315C427.678 54.7947 427.768 54.7886 427.85 54.8146C427.933 54.8405 428.003 54.8966 428.047 54.9716C428.09 55.0467 428.103 55.1352 428.084 55.2197C428.065 55.3042 428.015 55.3785 427.944 55.4278C427.919 55.4433 427.878 55.4749 427.824 55.5178C426.182 56.7657 424.204 57.4961 422.143 57.6154Z" fill="#1B2434"/>
<path opacity="0.52" d="M422.244 60.8857C421.845 60.9103 421.444 60.9007 421.046 60.8571C421 60.8523 420.957 60.8387 420.917 60.8171C420.877 60.7955 420.842 60.7662 420.813 60.731C420.785 60.6958 420.763 60.6553 420.751 60.6119C420.738 60.5684 420.734 60.5229 420.738 60.4779C420.743 60.4329 420.757 60.3892 420.779 60.3495C420.8 60.3097 420.83 60.2746 420.865 60.2461C420.9 60.2177 420.941 60.1964 420.984 60.1836C421.028 60.1708 421.073 60.1667 421.119 60.1714C423.513 60.4248 424.656 59.3307 424.704 59.2836C424.769 59.2189 424.857 59.1824 424.949 59.1823C425.04 59.1822 425.128 59.2184 425.193 59.283C425.258 59.3476 425.295 59.4353 425.295 59.5268C425.295 59.6182 425.259 59.706 425.194 59.7708C424.369 60.4712 423.327 60.8652 422.244 60.8857Z" fill="#1B2434"/>
<path d="M410.258 43.5678C411.19 43.5678 411.946 42.8139 411.946 41.884C411.946 40.9541 411.19 40.2002 410.258 40.2002C409.326 40.2002 408.57 40.9541 408.57 41.884C408.57 42.8139 409.326 43.5678 410.258 43.5678Z" fill="#1B2434"/>
<path d="M426.747 42.5357C427.679 42.5357 428.434 41.7818 428.434 40.8519C428.434 39.922 427.679 39.1681 426.747 39.1681C425.815 39.1681 425.059 39.922 425.059 40.8519C425.059 41.7818 425.815 42.5357 426.747 42.5357Z" fill="#1B2434"/>
<path d="M449.946 53.066C454.11 53.1191 457.542 48.7176 457.596 44.5636C457.651 40.4095 454.303 38.0758 450.139 38.0233L447.958 40.7792L446.368 53.0207L449.946 53.066Z" fill="#E98862"/>
<path d="M445.804 46.3881C445.804 46.3881 444.398 25.8455 438.154 24.5767C433.995 23.7318 423.911 29.6168 414.57 27.8394C410.484 27.0643 406.604 28.0707 406.21 29.9966C406.053 30.7592 403.508 19.8008 409.907 11.4867C415.002 4.86835 431.675 2.99613 439.26 5.16647C460.264 11.1778 450.996 38.9242 450.996 38.9242L450.059 46.0065L445.804 46.3881Z" fill="#1B2434"/>
<path opacity="0.52" d="M419.626 52.7679C419.617 52.7685 419.609 52.7685 419.6 52.7679C418.258 52.7548 416.009 52.5824 416.017 51.5813C416.027 50.7514 418.394 41.8178 418.664 40.8018C418.687 40.7143 418.744 40.6397 418.823 40.5942C418.901 40.5488 418.994 40.5362 419.082 40.5594C419.17 40.5826 419.244 40.6395 419.29 40.7178C419.336 40.796 419.348 40.889 419.325 40.9765C418.273 44.9332 416.707 51.0244 416.701 51.5897C416.831 51.8282 418.217 52.0738 419.606 52.0881C419.693 52.09 419.777 52.1254 419.839 52.1869C419.901 52.2485 419.938 52.3316 419.94 52.419C419.943 52.5064 419.912 52.5914 419.853 52.6566C419.795 52.7217 419.713 52.762 419.626 52.7691V52.7679Z" fill="#1B2434"/>
<path d="M415.049 32.7542C413.638 32.367 412.149 32.367 410.739 32.7542C410.046 32.9401 409.386 33.2287 408.779 33.6104C408.179 33.9842 407.629 34.4322 407.142 34.9436C407.052 35.0348 407.001 35.1569 406.999 35.2847C406.997 35.4125 407.045 35.5361 407.132 35.6298C407.219 35.7235 407.339 35.7801 407.467 35.7878C407.595 35.7955 407.72 35.7537 407.818 35.6711L407.849 35.6448C408.3 35.2279 408.802 34.8695 409.343 34.5781C409.874 34.2881 410.445 34.0798 411.038 33.9604C412.206 33.7162 413.418 33.7839 414.551 34.1566L414.598 34.1733C414.784 34.2329 414.985 34.2181 415.16 34.1318C415.334 34.0456 415.468 33.8948 415.533 33.7115C415.598 33.5283 415.589 33.3269 415.507 33.1504C415.426 32.9738 415.278 32.836 415.097 32.7662L415.049 32.7542Z" fill="#1B2434"/>
<path d="M425.034 33.5992C426.107 33.079 427.299 32.8509 428.489 32.9379C429.093 32.977 429.687 33.1073 430.251 33.3243C430.826 33.5417 431.37 33.8301 431.873 34.1829L431.905 34.2043C432.013 34.2737 432.143 34.2988 432.269 34.2744C432.395 34.2501 432.507 34.1781 432.581 34.0736C432.655 33.9691 432.686 33.84 432.667 33.7134C432.648 33.5868 432.581 33.4724 432.479 33.394C431.928 32.9519 431.323 32.5811 430.679 32.2904C430.026 31.9928 429.333 31.7946 428.621 31.7025C427.172 31.5055 425.697 31.7026 424.351 32.2731C424.26 32.3122 424.179 32.3688 424.11 32.4394C424.042 32.51 423.988 32.5934 423.952 32.6847C423.916 32.7761 423.898 32.8736 423.9 32.9718C423.902 33.07 423.923 33.1669 423.962 33.2569C424.041 33.4388 424.19 33.5818 424.375 33.6544C424.466 33.6904 424.564 33.7081 424.663 33.7064C424.761 33.7047 424.858 33.6836 424.948 33.6445L424.99 33.6248L425.034 33.5992Z" fill="#1B2434"/>
<path d="M424.35 11.5803C425.298 7.05463 423.568 2.86508 420.486 2.22267C417.404 1.58025 414.137 4.72825 413.189 9.25388C412.241 13.7795 413.971 17.969 417.053 18.6114C420.135 19.2538 423.402 16.1059 424.35 11.5803Z" fill="#1B2434"/>
<path d="M378.87 131.055C379.676 140.495 385.385 199.391 386.162 211.019H491.095C491.698 200.532 494.404 154.674 496.691 134.163C498.874 114.593 501.932 105.687 499.419 99.6061C494.985 88.8796 480.873 84.0899 471.318 82.7991C465.482 82.0108 456.705 81.4462 456.705 81.4462C456.705 81.4462 455.963 96.4436 438.243 97.2783C414.122 98.4112 415.733 81.4462 415.614 81.4462C411.705 81.4462 390.435 84.2813 385.116 87.7396C377.604 92.624 375.384 99.2811 375.296 105.397C375.196 112.44 377.958 120.347 378.87 131.055Z" fill="#1684F8"/>
<path d="M384.191 187.81C384.116 187.81 384.044 187.782 383.989 187.732C383.933 187.681 383.899 187.612 383.892 187.538L379.917 142.175C379.91 142.096 379.934 142.018 379.985 141.958C380.036 141.897 380.109 141.859 380.188 141.852C380.227 141.848 380.267 141.852 380.305 141.863C380.342 141.875 380.377 141.894 380.407 141.919C380.438 141.945 380.462 141.976 380.48 142.011C380.498 142.046 380.509 142.084 380.512 142.123L384.488 187.486C384.494 187.565 384.47 187.643 384.419 187.703C384.368 187.764 384.295 187.801 384.216 187.808C384.208 187.809 384.199 187.81 384.191 187.81Z" fill="#1B2434"/>
<path d="M391.8 214.159L406.208 202.497L403.783 203.181C402.996 203.386 402.161 203.285 401.445 202.899C400.729 202.513 400.187 201.871 399.929 201.101C399.809 200.699 399.772 200.278 399.821 199.861C399.871 199.445 400.004 199.043 400.214 198.68C400.424 198.317 400.706 198.001 401.042 197.75C401.379 197.499 401.763 197.319 402.172 197.221L432.441 189.877L435.045 199.495C435.854 202.483 435.751 205.643 434.748 208.571C433.745 211.5 431.889 214.062 429.416 215.931L418.201 224.375C417.627 224.824 416.915 225.062 416.185 225.048C415.455 225.035 414.753 224.77 414.196 224.299C413.702 223.862 413.361 223.28 413.223 222.636C413.084 221.992 413.156 221.321 413.427 220.721C413.379 220.707 413.335 220.68 413.301 220.643C413.27 220.606 413.25 220.563 413.24 220.517C413.231 220.471 413.233 220.424 413.246 220.378L411.18 221.939C410.542 222.442 409.736 222.685 408.925 222.618C408.114 222.551 407.359 222.179 406.813 221.578C406.343 221.023 406.085 220.322 406.083 219.596C406.081 218.87 406.335 218.167 406.802 217.61C406.769 217.605 406.738 217.594 406.709 217.578L405.86 218.22C405.286 218.669 404.574 218.907 403.845 218.893C403.115 218.879 402.413 218.615 401.856 218.144C401.257 217.614 400.887 216.874 400.823 216.078C400.759 215.283 401.006 214.493 401.513 213.875C401.501 213.858 401.491 213.839 401.483 213.82L395.483 218.676C395.185 218.917 394.843 219.097 394.476 219.206C394.109 219.315 393.724 219.35 393.343 219.311C392.962 219.271 392.592 219.157 392.256 218.975C391.919 218.793 391.621 218.546 391.38 218.25C391.139 217.953 390.958 217.612 390.849 217.245C390.74 216.879 390.704 216.495 390.744 216.115C390.784 215.735 390.898 215.366 391.081 215.03C391.263 214.694 391.51 214.397 391.808 214.157L391.8 214.159Z" fill="#E98862"/>
<path opacity="0.2" d="M401.842 213.993C401.874 213.982 401.903 213.965 401.929 213.944L407.702 209.159C407.732 209.135 407.756 209.105 407.774 209.071C407.791 209.037 407.802 209 407.806 208.963C407.809 208.925 407.805 208.886 407.794 208.85C407.782 208.814 407.764 208.78 407.74 208.751C407.715 208.721 407.685 208.697 407.652 208.68C407.618 208.662 407.581 208.651 407.543 208.648C407.505 208.644 407.467 208.648 407.43 208.659C407.394 208.671 407.36 208.689 407.331 208.713L401.558 213.498C401.505 213.541 401.47 213.602 401.458 213.669C401.446 213.736 401.458 213.805 401.491 213.864C401.525 213.923 401.579 213.969 401.643 213.992C401.707 214.016 401.777 214.016 401.842 213.993Z" fill="#0A0A0A"/>
<path opacity="0.2" d="M406.93 217.607C406.961 217.596 406.99 217.58 407.015 217.559L411.582 213.833C411.641 213.785 411.679 213.715 411.687 213.638C411.695 213.562 411.672 213.485 411.623 213.426C411.574 213.366 411.504 213.328 411.427 213.321C411.35 213.313 411.274 213.336 411.214 213.384L406.647 217.11C406.594 217.153 406.558 217.214 406.545 217.281C406.533 217.348 406.544 217.418 406.578 217.477C406.612 217.537 406.666 217.583 406.73 217.606C406.794 217.63 406.865 217.63 406.93 217.607Z" fill="#0A0A0A"/>
<path opacity="0.2" d="M413.614 220.731C413.647 220.719 413.678 220.701 413.705 220.678L415.82 218.868C415.849 218.843 415.873 218.813 415.89 218.779C415.907 218.745 415.918 218.708 415.921 218.671C415.924 218.633 415.919 218.595 415.907 218.558C415.895 218.522 415.876 218.489 415.852 218.46C415.827 218.431 415.797 218.407 415.763 218.39C415.729 218.373 415.692 218.363 415.654 218.36C415.616 218.357 415.577 218.362 415.541 218.373C415.505 218.385 415.471 218.404 415.443 218.429L413.327 220.238C413.276 220.282 413.241 220.343 413.23 220.41C413.219 220.476 413.231 220.545 413.265 220.603C413.3 220.662 413.353 220.707 413.417 220.73C413.48 220.753 413.55 220.753 413.614 220.731Z" fill="#0A0A0A"/>
<path d="M519.144 185.595L519.033 185.105L499.88 100.592L461.989 109.137L476.938 175.105L417.054 189.786L424.424 223.496L504.226 208.311C504.406 208.276 504.672 208.222 504.853 208.181C507.278 207.634 509.571 206.616 511.602 205.185C513.632 203.754 515.36 201.938 516.687 199.841C518.014 197.743 518.914 195.406 519.336 192.961C519.757 190.517 519.692 188.014 519.144 185.595Z" fill="#1684F8"/>
<path d="M416.761 189.849C416.745 189.774 416.759 189.695 416.801 189.63C416.842 189.564 416.907 189.517 416.982 189.499L476.6 174.891L466.906 132.178C466.895 132.139 466.892 132.098 466.898 132.058C466.903 132.018 466.917 131.98 466.937 131.945C466.958 131.91 466.986 131.88 467.018 131.856C467.051 131.833 467.088 131.816 467.128 131.807C467.167 131.798 467.208 131.797 467.248 131.804C467.288 131.812 467.326 131.827 467.36 131.849C467.393 131.872 467.422 131.901 467.444 131.935C467.466 131.968 467.481 132.006 467.488 132.046L477.247 175.045C477.265 175.121 477.252 175.202 477.211 175.269C477.17 175.336 477.103 175.384 477.027 175.402L417.405 190.01C417.405 190.01 417.805 191.749 417.917 192.336C417.926 192.412 417.904 192.489 417.857 192.549C417.809 192.609 417.739 192.648 417.662 192.657C417.586 192.666 417.509 192.644 417.448 192.596C417.388 192.549 417.349 192.479 417.34 192.403C417.203 191.759 416.761 189.849 416.761 189.849Z" fill="#1B2434"/>
<path d="M419.098 236.923L396.073 166.314C395.669 165.073 394.881 163.992 393.823 163.225C392.764 162.458 391.49 162.045 390.182 162.045H296.378C295.4 162.045 294.436 162.276 293.565 162.719C292.694 163.162 291.94 163.804 291.365 164.594C290.791 165.383 290.412 166.297 290.259 167.26C290.106 168.224 290.184 169.21 290.487 170.137L313.512 240.747C313.917 241.988 314.705 243.069 315.763 243.836C316.821 244.602 318.095 245.015 319.403 245.015H413.207C414.184 245.015 415.148 244.784 416.02 244.341C416.891 243.898 417.644 243.256 418.219 242.467C418.794 241.677 419.173 240.764 419.326 239.8C419.478 238.837 419.4 237.851 419.098 236.923Z" fill="#041A39"/>
<path opacity="0.2" d="M419.098 236.923L396.073 166.314C395.669 165.073 394.881 163.992 393.823 163.225C392.764 162.458 391.49 162.045 390.182 162.045H296.378C295.4 162.045 294.436 162.276 293.565 162.719C292.694 163.162 291.94 163.804 291.365 164.594C290.791 165.383 290.412 166.297 290.259 167.26C290.106 168.224 290.184 169.21 290.487 170.137L313.512 240.747C313.917 241.988 314.705 243.069 315.763 243.836C316.821 244.602 318.095 245.015 319.403 245.015H413.207C414.184 245.015 415.148 244.784 416.02 244.341C416.891 243.898 417.644 243.256 418.219 242.467C418.794 241.677 419.173 240.764 419.326 239.8C419.478 238.837 419.4 237.851 419.098 236.923Z" fill="white"/>
<path d="M352.09 213.345C357.524 213.345 361.928 208.951 361.928 203.53C361.928 198.11 357.524 193.715 352.09 193.715C346.657 193.715 342.252 198.11 342.252 203.53C342.252 208.951 346.657 213.345 352.09 213.345Z" fill="white"/>
<path d="M259.476 7.46149H73.2985C64.6732 7.46149 57.6811 14.4371 57.6811 23.042V248.525C57.6811 257.13 64.6732 264.106 73.2985 264.106H259.476C268.102 264.106 275.094 257.13 275.094 248.525V23.042C275.094 14.4371 268.102 7.46149 259.476 7.46149Z" fill="#041A39"/>
<path d="M266.358 0.596252H80.1798C71.5546 0.596252 64.5624 7.5719 64.5624 16.1768V241.66C64.5624 250.265 71.5546 257.24 80.1798 257.24H266.358C274.983 257.24 281.975 250.265 281.975 241.66V16.1768C281.975 7.5719 274.983 0.596252 266.358 0.596252Z" fill="white"/>
<path d="M266.358 257.837H80.1798C75.8807 257.832 71.759 256.126 68.7191 253.093C65.6792 250.06 63.9694 245.948 63.9648 241.659V16.1768C63.9695 11.8879 65.6794 7.77601 68.7193 4.7433C71.7592 1.71059 75.8808 0.00473459 80.1798 0L266.358 0C270.657 0.00489237 274.778 1.71082 277.818 4.74351C280.858 7.77621 282.567 11.888 282.572 16.1768V241.659C282.567 245.948 280.858 250.06 277.818 253.093C274.778 256.126 270.657 257.832 266.358 257.837ZM80.1798 1.1925C76.1977 1.19691 72.3799 2.77703 69.5642 5.58618C66.7484 8.39532 65.1645 12.2041 65.1601 16.1768V241.659C65.1645 245.632 66.7484 249.441 69.5642 252.25C72.3799 255.059 76.1977 256.639 80.1798 256.643H266.358C270.34 256.639 274.157 255.059 276.973 252.25C279.789 249.441 281.372 245.632 281.377 241.659V16.1768C281.372 12.2041 279.789 8.39537 276.973 5.58621C274.157 2.77705 270.34 1.19691 266.358 1.1925H80.1798Z" fill="#041A39"/>
<path d="M62.0547 289.504C83.4691 289.504 100.829 272.186 100.829 250.822C100.829 229.458 83.4691 212.139 62.0547 212.139C40.6403 212.139 23.2805 229.458 23.2805 250.822C23.2805 272.186 40.6403 289.504 62.0547 289.504Z" fill="#041A39"/>
<path d="M54.0054 245.773C53.495 245.773 53.0054 245.571 52.6444 245.211C52.2834 244.851 52.0805 244.363 52.0804 243.853V234.557C52.0804 229.417 56.555 225.234 62.0547 225.234C67.5543 225.234 72.029 229.417 72.029 234.557V243.215C72.0335 243.47 71.987 243.724 71.8923 243.961C71.7976 244.198 71.6566 244.413 71.4774 244.595C71.2982 244.777 71.0845 244.922 70.8487 245.02C70.613 245.119 70.3599 245.17 70.1042 245.17C69.8486 245.17 69.5955 245.119 69.3597 245.02C69.1239 244.922 68.9102 244.777 68.7311 244.595C68.5519 244.413 68.4108 244.198 68.3161 243.961C68.2214 243.724 68.175 243.47 68.1795 243.215V234.557C68.1795 231.534 65.4302 229.075 62.0547 229.075C58.6791 229.075 55.9299 231.534 55.9299 234.557V243.855C55.9296 244.364 55.7267 244.852 55.3658 245.211C55.0049 245.571 54.5156 245.773 54.0054 245.773Z" fill="white"/>
<path d="M74.3342 242.247H49.7752C48.343 242.247 47.182 243.405 47.182 244.834V267.912C47.182 269.341 48.343 270.499 49.7752 270.499H74.3342C75.7664 270.499 76.9274 269.341 76.9274 267.912V244.834C76.9274 243.405 75.7664 242.247 74.3342 242.247Z" fill="white"/>
<path d="M59.6097 254.088C59.6095 254.546 59.7383 254.994 59.9813 255.382C60.2244 255.771 60.572 256.083 60.9843 256.283V260.031C60.9843 260.314 61.0968 260.585 61.297 260.784C61.4972 260.984 61.7687 261.096 62.0518 261.096C62.3349 261.096 62.6064 260.984 62.8065 260.784C63.0067 260.585 63.1192 260.314 63.1192 260.031V256.283C63.512 256.093 63.8466 255.802 64.0882 255.439C64.3298 255.076 64.4697 254.655 64.4932 254.22C64.5168 253.785 64.4231 253.352 64.2221 252.966C64.021 252.579 63.7198 252.253 63.3499 252.022C62.9799 251.791 62.5546 251.662 62.1181 251.65C61.6817 251.639 61.2501 251.744 60.868 251.955C60.486 252.165 60.1676 252.474 59.9458 252.85C59.724 253.225 59.6069 253.652 59.6068 254.088H59.6097Z" fill="#041A39"/>
<path d="M250.1 128.654H96.4379C92.7698 128.654 89.7961 131.621 89.7961 135.28V156.771C89.7961 160.431 92.7698 163.398 96.4379 163.398H250.1C253.768 163.398 256.741 160.431 256.741 156.771V135.28C256.741 131.621 253.768 128.654 250.1 128.654Z" fill="white"/>
<path d="M250.099 163.993H96.4379C94.5186 163.991 92.6785 163.229 91.3213 161.875C89.9641 160.521 89.2007 158.686 89.1985 156.771V135.28C89.2007 133.365 89.9641 131.53 91.3213 130.176C92.6784 128.821 94.5185 128.06 96.4379 128.057H250.099C252.019 128.06 253.859 128.821 255.216 130.175C256.573 131.529 257.337 133.365 257.339 135.28V156.771C257.337 158.686 256.573 160.522 255.216 161.876C253.859 163.23 252.018 163.991 250.099 163.993ZM96.4379 129.25C94.8353 129.252 93.2989 129.887 92.1658 131.018C91.0327 132.149 90.3954 133.681 90.3938 135.28V156.771C90.3955 158.369 91.0329 159.902 92.166 161.033C93.2991 162.163 94.8354 162.799 96.4379 162.801H250.099C251.702 162.799 253.238 162.163 254.371 161.033C255.504 159.902 256.142 158.37 256.144 156.771V135.28C256.142 133.681 255.505 132.149 254.371 131.018C253.238 129.887 251.702 129.252 250.099 129.25H96.4379Z" fill="#041A39"/>
<path d="M250.1 178.306H96.4379C92.7698 178.306 89.7961 181.273 89.7961 184.932V206.423C89.7961 210.083 92.7698 213.049 96.4379 213.049H250.1C253.768 213.049 256.741 210.083 256.741 206.423V184.932C256.741 181.273 253.768 178.306 250.1 178.306Z" fill="white"/>
<path d="M250.099 213.645H96.4379C94.5183 213.643 92.6779 212.881 91.3207 211.527C89.9635 210.172 89.2002 208.336 89.1985 206.421V184.932C89.2007 183.017 89.9641 181.182 91.3213 179.828C92.6785 178.474 94.5186 177.712 96.4379 177.71H250.099C252.018 177.712 253.859 178.473 255.216 179.827C256.573 181.181 257.337 183.017 257.339 184.932V206.421C257.337 208.336 256.574 210.172 255.217 211.527C253.859 212.881 252.019 213.643 250.099 213.645ZM96.4379 178.902C94.8354 178.904 93.2991 179.54 92.166 180.67C91.0329 181.801 90.3955 183.333 90.3938 184.932V206.421C90.3955 208.02 91.0329 209.552 92.166 210.683C93.2991 211.813 94.8354 212.449 96.4379 212.451H250.099C251.702 212.449 253.238 211.813 254.371 210.683C255.505 209.552 256.142 208.02 256.144 206.421V184.932C256.142 183.333 255.505 181.801 254.371 180.67C253.238 179.54 251.702 178.904 250.099 178.902H96.4379Z" fill="#041A39"/>
<path d="M173.269 102.811C192.972 102.811 208.945 86.8758 208.945 67.2186C208.945 47.5615 192.972 31.6262 173.269 31.6262C153.565 31.6262 137.592 47.5615 137.592 67.2186C137.592 86.8758 153.565 102.811 173.269 102.811Z" fill="white"/>
<path d="M173.268 103.407C166.094 103.407 159.081 101.285 153.116 97.3083C147.15 93.3319 142.501 87.68 139.755 81.0674C137.01 74.4548 136.292 67.1784 137.691 60.1585C139.091 53.1386 142.546 46.6904 147.619 41.6293C152.692 36.5683 159.155 33.1216 166.192 31.7253C173.228 30.3289 180.522 31.0456 187.15 33.7846C193.778 36.5237 199.443 41.162 203.429 47.1132C207.415 53.0644 209.543 60.0611 209.543 67.2186C209.532 76.8131 205.707 86.0116 198.906 92.796C192.106 99.5803 182.886 103.396 173.268 103.407ZM173.268 32.2224C166.331 32.2224 159.548 34.2749 153.78 38.1203C148.011 41.9658 143.515 47.4314 140.86 53.8261C138.205 60.2208 137.51 67.2574 138.864 74.046C140.217 80.8346 143.558 87.0703 148.464 91.9646C153.37 96.8589 159.62 100.192 166.425 101.542C173.23 102.893 180.283 102.2 186.693 99.5508C193.102 96.902 198.581 92.4165 202.435 86.6614C206.29 80.9063 208.347 74.1402 208.347 67.2186C208.337 57.9402 204.638 49.0449 198.061 42.4841C191.485 35.9233 182.569 32.2328 173.268 32.2224Z" fill="#041A39"/>
<path opacity="0.5" d="M208.153 67.2186C208.163 75.4567 205.233 83.4294 199.887 89.7084C196.594 85.8791 192.511 82.8055 187.916 80.6986C183.321 78.5917 178.323 77.5013 173.266 77.5022C168.209 77.5031 163.212 78.5953 158.618 80.7038C154.024 82.8124 149.941 85.8874 146.65 89.718C143.02 85.4438 140.478 80.3586 139.24 74.8945C138.001 69.4304 138.104 63.7488 139.537 58.3325C140.971 52.9161 143.694 47.9252 147.476 43.7836C151.257 39.642 155.984 36.4722 161.256 34.5436C166.528 32.6149 172.189 31.9844 177.758 32.7055C183.326 33.4267 188.638 35.4783 193.242 38.6859C197.845 41.8935 201.605 46.1624 204.201 51.1298C206.797 56.0973 208.152 61.6165 208.153 67.2186Z" fill="#1684F8"/>
<path d="M199.887 89.7084C196.613 93.5657 192.536 96.6652 187.939 98.7914C183.343 100.918 178.337 102.019 173.271 102.02C168.204 102.021 163.198 100.921 158.601 98.7967C154.004 96.6721 149.926 93.574 146.65 89.7179C149.941 85.8874 154.024 82.8123 158.618 80.7038C163.212 78.5952 168.209 77.503 173.266 77.5021C178.323 77.5012 183.321 78.5916 187.916 80.6985C192.511 82.8054 196.594 85.879 199.887 89.7084Z" fill="white"/>
<path d="M173.269 71.0089C181.057 71.0089 187.37 64.7108 187.37 56.9417C187.37 49.1725 181.057 42.8744 173.269 42.8744C165.482 42.8744 159.169 49.1725 159.169 56.9417C159.169 64.7108 165.482 71.0089 173.269 71.0089Z" fill="white"/>
<g opacity="0.4">
<path opacity="0.4" d="M102.731 199.909C105.073 199.909 106.972 198.014 106.972 195.678C106.972 193.341 105.073 191.447 102.731 191.447C100.388 191.447 98.4897 193.341 98.4897 195.678C98.4897 198.014 100.388 199.909 102.731 199.909Z" fill="#041A39"/>
<path opacity="0.4" d="M115.997 199.909C118.339 199.909 120.238 198.014 120.238 195.678C120.238 193.341 118.339 191.447 115.997 191.447C113.655 191.447 111.756 193.341 111.756 195.678C111.756 198.014 113.655 199.909 115.997 199.909Z" fill="#041A39"/>
<path opacity="0.4" d="M129.263 199.909C131.605 199.909 133.504 198.014 133.504 195.678C133.504 193.341 131.605 191.447 129.263 191.447C126.921 191.447 125.022 193.341 125.022 195.678C125.022 198.014 126.921 199.909 129.263 199.909Z" fill="#041A39"/>
<path opacity="0.4" d="M142.529 199.909C144.871 199.909 146.77 198.014 146.77 195.678C146.77 193.341 144.871 191.447 142.529 191.447C140.187 191.447 138.288 193.341 138.288 195.678C138.288 198.014 140.187 199.909 142.529 199.909Z" fill="#041A39"/>
<path opacity="0.4" d="M155.795 199.909C158.137 199.909 160.036 198.014 160.036 195.678C160.036 193.341 158.137 191.447 155.795 191.447C153.453 191.447 151.554 193.341 151.554 195.678C151.554 198.014 153.453 199.909 155.795 199.909Z" fill="#041A39"/>
<path opacity="0.4" d="M169.061 199.909C171.403 199.909 173.302 198.014 173.302 195.678C173.302 193.341 171.403 191.447 169.061 191.447C166.719 191.447 164.82 193.341 164.82 195.678C164.82 198.014 166.719 199.909 169.061 199.909Z" fill="#041A39"/>
<path opacity="0.4" d="M182.327 199.909C184.669 199.909 186.568 198.014 186.568 195.678C186.568 193.341 184.669 191.447 182.327 191.447C179.985 191.447 178.086 193.341 178.086 195.678C178.086 198.014 179.985 199.909 182.327 199.909Z" fill="#041A39"/>
</g>
<g opacity="0.3">
<path opacity="0.3" d="M106.937 145.771V147.202H101.49V145.771H106.937Z" fill="#041A39"/>
<path opacity="0.3" d="M113.705 145.771V147.202H108.259V145.771H113.705Z" fill="#041A39"/>
<path opacity="0.3" d="M120.473 145.771V147.202H115.027V145.771H120.473Z" fill="#041A39"/>
<path opacity="0.3" d="M127.241 145.771V147.202H121.795V145.771H127.241Z" fill="#041A39"/>
<path opacity="0.3" d="M134.01 145.771V147.202H128.563V145.771H134.01Z" fill="#041A39"/>
<path opacity="0.3" d="M146.225 153.844C145.013 154.465 143.663 154.769 142.302 154.726C138.686 154.726 135.62 152.086 135.62 147.862C135.62 143.331 138.774 139.415 143.669 139.415C147.506 139.415 150.086 142.098 150.086 145.772C150.086 149.073 148.233 151.008 146.161 151.008C145.279 151.008 144.463 150.412 144.529 149.073H144.441C144.155 149.653 143.713 150.141 143.164 150.483C142.615 150.825 141.98 151.007 141.333 151.008C140.054 151.008 138.951 149.974 138.951 148.237C138.949 147.551 139.082 146.872 139.344 146.238C139.606 145.605 139.991 145.029 140.476 144.544C140.962 144.06 141.539 143.676 142.175 143.414C142.81 143.153 143.491 143.02 144.178 143.023C144.988 143.011 145.791 143.168 146.537 143.485L145.787 147.466C145.457 149.136 145.721 149.911 146.449 149.931C147.573 149.952 148.83 148.456 148.83 145.905C148.83 142.715 146.912 140.427 143.494 140.427C139.9 140.427 136.878 143.265 136.878 147.73C136.878 151.405 139.282 153.67 142.546 153.67C143.703 153.697 144.848 153.432 145.875 152.901L146.225 153.844ZM145.012 144.341C144.654 144.236 144.282 144.184 143.909 144.187C141.969 144.187 140.403 146.013 140.403 148.147C140.403 149.114 140.889 149.816 141.859 149.816C143.138 149.816 144.306 148.188 144.548 146.824L145.012 144.341Z" fill="#041A39"/>
<path opacity="0.3" d="M157.027 145.771V147.202H151.58V145.771H157.027Z" fill="#041A39"/>
<path opacity="0.3" d="M163.795 145.771V147.202H158.348V145.771H163.795Z" fill="#041A39"/>
<path opacity="0.3" d="M170.563 145.771V147.202H165.116V145.771H170.563Z" fill="#041A39"/>
</g>
</svg>
