<svg width="891" height="807" viewBox="0 0 891 807" fill="none" xmlns="http://www.w3.org/2000/svg">
<circle cx="493" cy="435.084" r="190" stroke="white" stroke-opacity="0.5" stroke-width="30"/>
<circle cx="492.5" cy="435.584" r="291.5" stroke="white" stroke-opacity="0.2" stroke-width="30"/>
<path d="M876 403.084C876 616.892 696.505 791.084 474 791.084C251.495 791.084 72 616.892 72 403.084C72 189.276 251.495 15.0837 474 15.0837C696.505 15.0837 876 189.276 876 403.084Z" stroke="white" stroke-opacity="0.4" stroke-width="30"/>
<circle cx="492.5" cy="435.584" r="95.5" stroke="white" stroke-opacity="0.7" stroke-width="30"/>
<g filter="url(#filter0_d_1_2645)">
<rect x="50" y="143.084" width="195" height="92" rx="28" fill="#1684F8"/>
</g>
<path d="M101.592 196.084L102.654 193.042H107.568L108.63 196.084H111.06L106.308 182.926H103.95L99.198 196.084H101.592ZM104.832 186.85C104.958 186.49 105.066 186.094 105.12 185.842C105.156 186.112 105.282 186.508 105.39 186.85L106.902 191.098H103.338L104.832 186.85ZM114.582 196.084V191.296C114.582 189.856 115.41 188.92 116.76 188.92C117.894 188.92 118.632 189.64 118.632 191.134V196.084H120.828V190.612C120.828 188.308 119.676 186.922 117.444 186.922C116.238 186.922 115.158 187.444 114.6 188.344L114.42 187.192H112.386V196.084H114.582ZM128.935 185.41C129.655 185.41 130.249 184.816 130.249 184.078C130.249 183.34 129.655 182.764 128.935 182.764C128.179 182.764 127.585 183.34 127.585 184.078C127.585 184.816 128.179 185.41 128.935 185.41ZM127.837 196.084H130.033V187.192H127.837V196.084ZM134.498 196.084V191.296C134.498 189.856 135.326 188.92 136.676 188.92C137.81 188.92 138.548 189.64 138.548 191.134V196.084H140.744V190.612C140.744 188.308 139.592 186.922 137.36 186.922C136.154 186.922 135.074 187.444 134.516 188.344L134.336 187.192H132.302V196.084H134.498ZM144 185.41C144.72 185.41 145.314 184.816 145.314 184.078C145.314 183.34 144.72 182.764 144 182.764C143.244 182.764 142.65 183.34 142.65 184.078C142.65 184.816 143.244 185.41 144 185.41ZM142.902 196.084H145.098V187.192H142.902V196.084ZM150.39 196.084V189.028H152.118V187.192H150.39V184.42H148.194V187.192H146.484V189.028H148.194V196.084H150.39ZM154.582 185.41C155.302 185.41 155.896 184.816 155.896 184.078C155.896 183.34 155.302 182.764 154.582 182.764C153.826 182.764 153.232 183.34 153.232 184.078C153.232 184.816 153.826 185.41 154.582 185.41ZM153.484 196.084H155.68V187.192H153.484V196.084ZM160.594 196.318C161.98 196.318 163.186 195.688 163.564 194.77L163.726 196.084H165.652V190.684C165.652 188.218 164.176 186.922 161.782 186.922C159.37 186.922 157.786 188.182 157.786 190.108H159.658C159.658 189.172 160.378 188.632 161.674 188.632C162.79 188.632 163.51 189.118 163.51 190.324V190.522L160.846 190.72C158.74 190.882 157.552 191.908 157.552 193.546C157.552 195.22 158.704 196.318 160.594 196.318ZM161.314 194.662C160.324 194.662 159.784 194.266 159.784 193.456C159.784 192.736 160.306 192.286 161.674 192.16L163.528 192.016V192.484C163.528 193.852 162.664 194.662 161.314 194.662ZM170.711 196.084V189.028H172.439V187.192H170.711V184.42H168.515V187.192H166.805V189.028H168.515V196.084H170.711ZM174.902 185.41C175.622 185.41 176.216 184.816 176.216 184.078C176.216 183.34 175.622 182.764 174.902 182.764C174.146 182.764 173.552 183.34 173.552 184.078C173.552 184.816 174.146 185.41 174.902 185.41ZM173.804 196.084H176V187.192H173.804V196.084ZM180.789 196.084H182.949L186.657 187.192H184.389L182.769 191.278C182.391 192.25 182.067 193.186 181.941 193.744C181.833 193.258 181.527 192.34 181.149 191.278L179.601 187.192H177.261L180.789 196.084ZM191.458 196.318C193.78 196.318 195.4 195.148 195.778 193.204H193.744C193.492 194.05 192.7 194.518 191.494 194.518C190.036 194.518 189.208 193.726 189.046 192.16L195.742 192.142V191.476C195.742 188.704 194.05 186.922 191.386 186.922C188.776 186.922 186.958 188.848 186.958 191.638C186.958 194.392 188.812 196.318 191.458 196.318ZM191.404 188.722C192.718 188.722 193.564 189.532 193.564 190.756H189.1C189.316 189.424 190.108 188.722 191.404 188.722Z" fill="white"/>
<g filter="url(#filter1_d_1_2645)">
<rect x="88" y="456.084" width="195" height="92" rx="28" fill="#F8F8F8"/>
</g>
<path d="M160.928 485.996V497.084H163.142V483.926H158.048V485.996H160.928ZM165.381 490.532C165.381 494.6 167.451 497.318 170.943 497.318C174.435 497.318 176.523 494.6 176.523 490.532C176.523 486.446 174.309 483.674 170.943 483.674C167.577 483.674 165.381 486.446 165.381 490.532ZM167.649 490.532C167.649 487.418 168.873 485.708 170.943 485.708C173.031 485.708 174.255 487.418 174.255 490.532C174.255 493.574 173.031 495.284 170.943 495.284C168.873 495.284 167.649 493.574 167.649 490.532ZM178.073 490.532C178.073 494.6 180.143 497.318 183.635 497.318C187.127 497.318 189.215 494.6 189.215 490.532C189.215 486.446 187.001 483.674 183.635 483.674C180.269 483.674 178.073 486.446 178.073 490.532ZM180.341 490.532C180.341 487.418 181.565 485.708 183.635 485.708C185.723 485.708 186.947 487.418 186.947 490.532C186.947 493.574 185.723 495.284 183.635 495.284C181.565 495.284 180.341 493.574 180.341 490.532ZM190.764 490.532C190.764 494.6 192.834 497.318 196.326 497.318C199.818 497.318 201.906 494.6 201.906 490.532C201.906 486.446 199.692 483.674 196.326 483.674C192.96 483.674 190.764 486.446 190.764 490.532ZM193.032 490.532C193.032 487.418 194.256 485.708 196.326 485.708C198.414 485.708 199.638 487.418 199.638 490.532C199.638 493.574 198.414 495.284 196.326 495.284C194.256 495.284 193.032 493.574 193.032 490.532ZM204.122 490.1V491.936H207.704V495.536H209.54V491.936H213.122V490.1H209.54V486.518H207.704V490.1H204.122ZM150.052 509.598C150.052 511.614 151.222 512.892 153.454 513.378L155.542 513.846C156.622 514.08 157.072 514.602 157.072 515.484C157.072 516.582 156.1 517.248 154.57 517.248C153.094 517.248 152.194 516.582 152.176 515.466H149.872C149.926 517.824 151.762 519.318 154.57 519.318C157.468 519.318 159.376 517.734 159.376 515.286C159.376 513.324 158.278 512.172 156.028 511.686L153.958 511.236C152.86 510.984 152.356 510.462 152.356 509.526C152.356 508.428 153.274 507.744 154.696 507.744C155.992 507.744 156.802 508.41 156.856 509.544H159.16C159.088 507.168 157.396 505.692 154.732 505.692C151.96 505.692 150.052 507.294 150.052 509.598ZM164.16 519.084V512.028H165.888V510.192H164.16V507.42H161.964V510.192H160.254V512.028H161.964V519.084H164.16ZM173.283 510.192V514.854C173.283 516.546 172.617 517.356 171.231 517.356C170.007 517.356 169.341 516.672 169.341 514.98V510.192H167.145V515.754C167.145 517.932 168.351 519.318 170.403 519.318C171.591 519.318 172.743 518.742 173.283 517.896L173.445 519.084H175.479V510.192H173.283ZM181.226 519.318C182.576 519.318 183.728 518.724 184.268 517.698L184.412 519.084H186.428V505.692H184.25V511.326C183.692 510.444 182.594 509.922 181.352 509.922C178.67 509.922 177.05 511.902 177.05 514.674C177.05 517.428 178.652 519.318 181.226 519.318ZM181.712 517.302C180.182 517.302 179.246 516.186 179.246 514.602C179.246 513.018 180.182 511.884 181.712 511.884C183.242 511.884 184.232 513 184.232 514.602C184.232 516.204 183.242 517.302 181.712 517.302ZM192.694 519.318C195.016 519.318 196.636 518.148 197.014 516.204H194.98C194.728 517.05 193.936 517.518 192.73 517.518C191.272 517.518 190.444 516.726 190.282 515.16L196.978 515.142V514.476C196.978 511.704 195.286 509.922 192.622 509.922C190.012 509.922 188.194 511.848 188.194 514.638C188.194 517.392 190.048 519.318 192.694 519.318ZM192.64 511.722C193.954 511.722 194.8 512.532 194.8 513.756H190.336C190.552 512.424 191.344 511.722 192.64 511.722ZM200.932 519.084V514.296C200.932 512.856 201.76 511.92 203.11 511.92C204.244 511.92 204.982 512.64 204.982 514.134V519.084H207.178V513.612C207.178 511.308 206.026 509.922 203.794 509.922C202.588 509.922 201.508 510.444 200.95 511.344L200.77 510.192H198.736V519.084H200.932ZM212.359 519.084V512.028H214.087V510.192H212.359V507.42H210.163V510.192H208.453V512.028H210.163V519.084H212.359ZM214.768 516.384C214.768 518.13 216.172 519.318 218.386 519.318C220.582 519.318 222.112 518.202 222.112 516.402C222.112 515.034 221.356 514.35 219.862 514.008L218.26 513.63C217.504 513.45 217.108 513.126 217.108 512.622C217.108 511.956 217.612 511.56 218.476 511.56C219.322 511.56 219.826 512.046 219.844 512.802H221.932C221.914 511.074 220.564 509.922 218.566 509.922C216.514 509.922 215.038 510.966 215.038 512.712C215.038 514.134 215.812 514.89 217.414 515.25L219.016 515.628C219.808 515.808 220.042 516.132 220.042 516.582C220.042 517.23 219.484 517.644 218.458 517.644C217.45 517.644 216.874 517.158 216.856 516.384H214.768Z" fill="#0A2952"/>
<g filter="url(#filter2_d_1_2645)">
<rect x="301" y="225.084" width="195" height="92" rx="28" fill="#F8F8F8"/>
</g>
<path d="M385.521 266.066V263.924H380.049L382.425 261.89C384.423 260.18 385.431 258.794 385.431 256.958C385.431 254.294 383.685 252.692 380.877 252.692C378.087 252.692 376.251 254.564 376.233 257.444H378.519C378.537 255.752 379.437 254.744 380.877 254.744C382.263 254.744 383.073 255.59 383.073 257.084C383.073 258.344 382.479 259.208 380.697 260.72L376.395 264.356V266.084L385.521 266.066ZM386.941 259.532C386.941 263.6 389.011 266.318 392.503 266.318C395.995 266.318 398.083 263.6 398.083 259.532C398.083 255.446 395.869 252.674 392.503 252.674C389.137 252.674 386.941 255.446 386.941 259.532ZM389.209 259.532C389.209 256.418 390.433 254.708 392.503 254.708C394.591 254.708 395.815 256.418 395.815 259.532C395.815 262.574 394.591 264.284 392.503 264.284C390.433 264.284 389.209 262.574 389.209 259.532ZM399.632 259.532C399.632 263.6 401.702 266.318 405.194 266.318C408.686 266.318 410.774 263.6 410.774 259.532C410.774 255.446 408.56 252.674 405.194 252.674C401.828 252.674 399.632 255.446 399.632 259.532ZM401.9 259.532C401.9 256.418 403.124 254.708 405.194 254.708C407.282 254.708 408.506 256.418 408.506 259.532C408.506 262.574 407.282 264.284 405.194 264.284C403.124 264.284 401.9 262.574 401.9 259.532ZM412.99 259.1V260.936H416.572V264.536H418.408V260.936H421.99V259.1H418.408V255.518H416.572V259.1H412.99ZM368.851 288.084V283.368C368.851 281.73 368.833 280.488 368.707 279.696L372.037 288.084H374.161L377.509 279.678C377.383 280.614 377.383 281.388 377.383 284.034V288.084H379.615V274.926H377.347L373.099 285.402L368.851 274.926H366.619V288.084H368.851ZM386.181 288.318C388.503 288.318 390.123 287.148 390.501 285.204H388.467C388.215 286.05 387.423 286.518 386.217 286.518C384.759 286.518 383.931 285.726 383.769 284.16L390.465 284.142V283.476C390.465 280.704 388.773 278.922 386.109 278.922C383.499 278.922 381.681 280.848 381.681 283.638C381.681 286.392 383.535 288.318 386.181 288.318ZM386.127 280.722C387.441 280.722 388.287 281.532 388.287 282.756H383.823C384.039 281.424 384.831 280.722 386.127 280.722ZM394.419 288.084V283.296C394.419 281.856 395.247 280.92 396.597 280.92C397.731 280.92 398.469 281.64 398.469 283.134V288.084H400.665V282.612C400.665 280.308 399.513 278.922 397.281 278.922C396.075 278.922 394.995 279.444 394.437 280.344L394.257 279.192H392.223V288.084H394.419ZM405.846 288.084V281.028H407.574V279.192H405.846V276.42H403.65V279.192H401.94V281.028H403.65V288.084H405.846ZM408.33 283.62C408.33 286.392 410.328 288.3 413.082 288.3C415.836 288.3 417.834 286.392 417.834 283.62C417.834 280.848 415.836 278.94 413.082 278.94C410.328 278.94 408.33 280.848 408.33 283.62ZM410.526 283.62C410.526 282 411.57 280.902 413.082 280.902C414.594 280.902 415.638 282 415.638 283.62C415.638 285.24 414.594 286.338 413.082 286.338C411.57 286.338 410.526 285.24 410.526 283.62ZM425.154 279.156C424.794 279.066 424.488 279.03 424.182 279.03C422.994 279.03 422.148 279.624 421.77 280.506L421.644 279.21H419.574V288.084H421.77V283.764C421.77 282.036 422.76 281.19 424.344 281.19H425.154V279.156ZM425.957 285.384C425.957 287.13 427.361 288.318 429.575 288.318C431.771 288.318 433.301 287.202 433.301 285.402C433.301 284.034 432.545 283.35 431.051 283.008L429.449 282.63C428.693 282.45 428.297 282.126 428.297 281.622C428.297 280.956 428.801 280.56 429.665 280.56C430.511 280.56 431.015 281.046 431.033 281.802H433.121C433.103 280.074 431.753 278.922 429.755 278.922C427.703 278.922 426.227 279.966 426.227 281.712C426.227 283.134 427.001 283.89 428.603 284.25L430.205 284.628C430.997 284.808 431.231 285.132 431.231 285.582C431.231 286.23 430.673 286.644 429.647 286.644C428.639 286.644 428.063 286.158 428.045 285.384H425.957Z" fill="#0A2952"/>
<g filter="url(#filter3_d_1_2645)">
<rect x="265" y="0.0837402" width="195" height="92" rx="28" fill="#F8F8F8"/>
</g>
<path d="M349.021 41.0657V38.9237H343.549L345.925 36.8897C347.923 35.1797 348.931 33.7937 348.931 31.9577C348.931 29.2937 347.185 27.6917 344.377 27.6917C341.587 27.6917 339.751 29.5637 339.733 32.4437H342.019C342.037 30.7517 342.937 29.7437 344.377 29.7437C345.763 29.7437 346.573 30.5897 346.573 32.0837C346.573 33.3437 345.979 34.2077 344.197 35.7197L339.895 39.3557V41.0837L349.021 41.0657ZM350.441 34.5317C350.441 38.5997 352.511 41.3177 356.003 41.3177C359.495 41.3177 361.583 38.5997 361.583 34.5317C361.583 30.4457 359.369 27.6737 356.003 27.6737C352.637 27.6737 350.441 30.4457 350.441 34.5317ZM352.709 34.5317C352.709 31.4177 353.933 29.7077 356.003 29.7077C358.091 29.7077 359.315 31.4177 359.315 34.5317C359.315 37.5737 358.091 39.2837 356.003 39.2837C353.933 39.2837 352.709 37.5737 352.709 34.5317ZM363.132 34.5317C363.132 38.5997 365.202 41.3177 368.694 41.3177C372.186 41.3177 374.274 38.5997 374.274 34.5317C374.274 30.4457 372.06 27.6737 368.694 27.6737C365.328 27.6737 363.132 30.4457 363.132 34.5317ZM365.4 34.5317C365.4 31.4177 366.624 29.7077 368.694 29.7077C370.782 29.7077 372.006 31.4177 372.006 34.5317C372.006 37.5737 370.782 39.2837 368.694 39.2837C366.624 39.2837 365.4 37.5737 365.4 34.5317ZM376.49 34.0997V35.9357H380.072V39.5357H381.908V35.9357H385.49V34.0997H381.908V30.5177H380.072V34.0997H376.49ZM335.754 63.0837V58.1697H338.58L340.812 63.0837H343.332L340.83 57.6837C342.378 57.0537 343.206 55.7937 343.206 54.0297C343.206 51.4377 341.46 49.9257 338.472 49.9257H333.45V63.0837H335.754ZM335.754 51.9777H338.472C339.93 51.9777 340.794 52.7157 340.794 54.0297C340.794 55.3617 339.93 56.1357 338.472 56.1357H335.754V51.9777ZM347.479 63.3177C348.865 63.3177 350.071 62.6877 350.449 61.7697L350.611 63.0837H352.537V57.6837C352.537 55.2177 351.061 53.9217 348.667 53.9217C346.255 53.9217 344.671 55.1817 344.671 57.1077H346.543C346.543 56.1717 347.263 55.6317 348.559 55.6317C349.675 55.6317 350.395 56.1177 350.395 57.3237V57.5217L347.731 57.7197C345.625 57.8817 344.437 58.9077 344.437 60.5457C344.437 62.2197 345.589 63.3177 347.479 63.3177ZM348.199 61.6617C347.209 61.6617 346.669 61.2657 346.669 60.4557C346.669 59.7357 347.191 59.2857 348.559 59.1597L350.413 59.0157V59.4837C350.413 60.8517 349.549 61.6617 348.199 61.6617ZM357.596 63.0837V56.0277H359.324V54.1917H357.596V51.4197H355.4V54.1917H353.69V56.0277H355.4V63.0837H357.596ZM361.787 52.4097C362.507 52.4097 363.101 51.8157 363.101 51.0777C363.101 50.3397 362.507 49.7637 361.787 49.7637C361.031 49.7637 360.437 50.3397 360.437 51.0777C360.437 51.8157 361.031 52.4097 361.787 52.4097ZM360.689 63.0837H362.885V54.1917H360.689V63.0837ZM367.35 63.0837V58.2957C367.35 56.8557 368.178 55.9197 369.528 55.9197C370.662 55.9197 371.4 56.6397 371.4 58.1337V63.0837H373.596V57.6117C373.596 55.3077 372.444 53.9217 370.212 53.9217C369.006 53.9217 367.926 54.4437 367.368 55.3437L367.188 54.1917H365.154V63.0837H367.35ZM375.249 58.4397C375.249 61.0137 376.905 62.9037 379.425 62.9037C380.703 62.9037 381.801 62.3817 382.359 61.5537V63.0297C382.359 64.5057 381.387 65.4597 379.875 65.4597C378.525 65.4597 377.643 64.7757 377.499 63.6237H375.303C375.573 65.9997 377.319 67.4577 379.875 67.4577C382.755 67.4577 384.537 65.6037 384.537 62.6337V54.1917H382.503L382.377 55.4157C381.855 54.4617 380.811 53.9037 379.479 53.9037C376.941 53.9037 375.249 55.8477 375.249 58.4397ZM377.463 58.3857C377.463 56.9277 378.399 55.8297 379.857 55.8297C381.387 55.8297 382.305 56.8737 382.305 58.3857C382.305 59.9337 381.369 60.9957 379.857 60.9957C378.417 60.9957 377.463 59.8797 377.463 58.3857ZM386.126 60.3837C386.126 62.1297 387.53 63.3177 389.744 63.3177C391.94 63.3177 393.47 62.2017 393.47 60.4017C393.47 59.0337 392.714 58.3497 391.22 58.0077L389.618 57.6297C388.862 57.4497 388.466 57.1257 388.466 56.6217C388.466 55.9557 388.97 55.5597 389.834 55.5597C390.68 55.5597 391.184 56.0457 391.202 56.8017H393.29C393.272 55.0737 391.922 53.9217 389.924 53.9217C387.872 53.9217 386.396 54.9657 386.396 56.7117C386.396 58.1337 387.17 58.8897 388.772 59.2497L390.374 59.6277C391.166 59.8077 391.4 60.1317 391.4 60.5817C391.4 61.2297 390.842 61.6437 389.816 61.6437C388.808 61.6437 388.232 61.1577 388.214 60.3837H386.126Z" fill="#0A2952"/>
<g filter="url(#filter4_d_1_2645)">
<rect x="610" y="364.084" width="195" height="92" rx="28" fill="#F8F8F8"/>
</g>
<path d="M689.273 394.996V406.084H691.487V392.926H686.393V394.996H689.273ZM693.727 399.532C693.727 403.6 695.797 406.318 699.289 406.318C702.781 406.318 704.869 403.6 704.869 399.532C704.869 395.446 702.655 392.674 699.289 392.674C695.923 392.674 693.727 395.446 693.727 399.532ZM695.995 399.532C695.995 396.418 697.219 394.708 699.289 394.708C701.377 394.708 702.601 396.418 702.601 399.532C702.601 402.574 701.377 404.284 699.289 404.284C697.219 404.284 695.995 402.574 695.995 399.532ZM706.419 399.532C706.419 403.6 708.489 406.318 711.981 406.318C715.473 406.318 717.561 403.6 717.561 399.532C717.561 395.446 715.347 392.674 711.981 392.674C708.615 392.674 706.419 395.446 706.419 399.532ZM708.687 399.532C708.687 396.418 709.911 394.708 711.981 394.708C714.069 394.708 715.293 396.418 715.293 399.532C715.293 402.574 714.069 404.284 711.981 404.284C709.911 404.284 708.687 402.574 708.687 399.532ZM719.776 399.1V400.936H723.358V404.536H725.194V400.936H728.776V399.1H725.194V395.518H723.358V399.1H719.776ZM677.054 414.926H674.75V428.084H677.054V414.926ZM681.843 428.084V423.296C681.843 421.856 682.671 420.92 684.021 420.92C685.155 420.92 685.893 421.64 685.893 423.134V428.084H688.089V422.612C688.089 420.308 686.937 418.922 684.705 418.922C683.499 418.922 682.419 419.444 681.861 420.344L681.681 419.192H679.647V428.084H681.843ZM689.457 425.384C689.457 427.13 690.861 428.318 693.075 428.318C695.271 428.318 696.801 427.202 696.801 425.402C696.801 424.034 696.045 423.35 694.551 423.008L692.949 422.63C692.193 422.45 691.797 422.126 691.797 421.622C691.797 420.956 692.301 420.56 693.165 420.56C694.011 420.56 694.515 421.046 694.533 421.802H696.621C696.603 420.074 695.253 418.922 693.255 418.922C691.203 418.922 689.727 419.966 689.727 421.712C689.727 423.134 690.501 423.89 692.103 424.25L693.705 424.628C694.497 424.808 694.731 425.132 694.731 425.582C694.731 426.23 694.173 426.644 693.147 426.644C692.139 426.644 691.563 426.158 691.545 425.384H689.457ZM701.497 428.084V421.028H703.225V419.192H701.497V416.42H699.301V419.192H697.591V421.028H699.301V428.084H701.497ZM705.688 417.41C706.408 417.41 707.002 416.816 707.002 416.078C707.002 415.34 706.408 414.764 705.688 414.764C704.932 414.764 704.338 415.34 704.338 416.078C704.338 416.816 704.932 417.41 705.688 417.41ZM704.59 428.084H706.786V419.192H704.59V428.084ZM712.079 428.084V421.028H713.807V419.192H712.079V416.42H709.883V419.192H708.173V421.028H709.883V428.084H712.079ZM721.202 419.192V423.854C721.202 425.546 720.536 426.356 719.15 426.356C717.926 426.356 717.26 425.672 717.26 423.98V419.192H715.064V424.754C715.064 426.932 716.27 428.318 718.322 428.318C719.51 428.318 720.662 427.742 721.202 426.896L721.364 428.084H723.398V419.192H721.202ZM729.468 428.318C731.79 428.318 733.41 427.148 733.788 425.204H731.754C731.502 426.05 730.71 426.518 729.504 426.518C728.046 426.518 727.218 425.726 727.056 424.16L733.752 424.142V423.476C733.752 420.704 732.06 418.922 729.396 418.922C726.786 418.922 724.968 420.848 724.968 423.638C724.968 426.392 726.822 428.318 729.468 428.318ZM729.414 420.722C730.728 420.722 731.574 421.532 731.574 422.756H727.11C727.326 421.424 728.118 420.722 729.414 420.722ZM734.826 425.384C734.826 427.13 736.23 428.318 738.444 428.318C740.64 428.318 742.17 427.202 742.17 425.402C742.17 424.034 741.414 423.35 739.92 423.008L738.318 422.63C737.562 422.45 737.166 422.126 737.166 421.622C737.166 420.956 737.67 420.56 738.534 420.56C739.38 420.56 739.884 421.046 739.902 421.802H741.99C741.972 420.074 740.622 418.922 738.624 418.922C736.572 418.922 735.096 419.966 735.096 421.712C735.096 423.134 735.87 423.89 737.472 424.25L739.074 424.628C739.866 424.808 740.1 425.132 740.1 425.582C740.1 426.23 739.542 426.644 738.516 426.644C737.508 426.644 736.932 426.158 736.914 425.384H734.826Z" fill="#0A2952"/>
<g filter="url(#filter5_d_1_2645)">
<rect x="593" y="82.0837" width="195" height="92" rx="28" fill="#1684F8"/>
</g>
<path d="M637.458 135.084H642.786C645.504 135.084 647.07 133.77 647.07 131.52C647.07 129.99 646.368 128.946 644.982 128.496C646.224 127.974 646.872 126.93 646.872 125.472C646.872 123.276 645.288 121.926 642.696 121.926H637.458V135.084ZM642.498 123.96C643.794 123.96 644.514 124.572 644.514 125.706C644.514 126.876 643.812 127.542 642.552 127.542H639.762V123.96H642.498ZM642.696 129.486C643.974 129.486 644.712 130.116 644.712 131.232C644.712 132.42 643.992 133.05 642.696 133.05H639.762V129.486H642.696ZM647.909 139.206C648.395 139.332 648.935 139.404 649.547 139.404C651.005 139.404 651.941 138.72 652.607 137.064L656.963 126.192H654.695L652.283 132.672L649.997 126.192H647.675L651.257 135.462L651.005 136.128C650.627 137.172 650.087 137.37 649.223 137.37H647.909V139.206ZM671.558 135.084V132.96H665.69V129.468H670.946V127.434H665.69V124.05H671.558V121.926H663.386V135.084H671.558ZM675.928 135.084V130.296C675.928 128.856 676.756 127.92 678.106 127.92C679.24 127.92 679.978 128.64 679.978 130.134V135.084H682.174V129.612C682.174 127.308 681.022 125.922 678.79 125.922C677.584 125.922 676.504 126.444 675.946 127.344L675.766 126.192H673.732V135.084H675.928ZM683.827 130.44C683.827 133.014 685.483 134.904 688.003 134.904C689.281 134.904 690.379 134.382 690.937 133.554V135.03C690.937 136.506 689.965 137.46 688.453 137.46C687.103 137.46 686.221 136.776 686.077 135.624H683.881C684.151 138 685.897 139.458 688.453 139.458C691.333 139.458 693.115 137.604 693.115 134.634V126.192H691.081L690.955 127.416C690.433 126.462 689.389 125.904 688.057 125.904C685.519 125.904 683.827 127.848 683.827 130.44ZM686.041 130.386C686.041 128.928 686.977 127.83 688.435 127.83C689.965 127.83 690.883 128.874 690.883 130.386C690.883 131.934 689.947 132.996 688.435 132.996C686.995 132.996 686.041 131.88 686.041 130.386ZM696.486 124.41C697.206 124.41 697.8 123.816 697.8 123.078C697.8 122.34 697.206 121.764 696.486 121.764C695.73 121.764 695.136 122.34 695.136 123.078C695.136 123.816 695.73 124.41 696.486 124.41ZM695.388 135.084H697.584V126.192H695.388V135.084ZM702.049 135.084V130.296C702.049 128.856 702.877 127.92 704.227 127.92C705.361 127.92 706.099 128.64 706.099 130.134V135.084H708.295V129.612C708.295 127.308 707.143 125.922 704.911 125.922C703.705 125.922 702.625 126.444 702.067 127.344L701.887 126.192H699.853V135.084H702.049ZM714.43 135.318C716.752 135.318 718.372 134.148 718.75 132.204H716.716C716.464 133.05 715.672 133.518 714.466 133.518C713.008 133.518 712.18 132.726 712.018 131.16L718.714 131.142V130.476C718.714 127.704 717.022 125.922 714.358 125.922C711.748 125.922 709.93 127.848 709.93 130.638C709.93 133.392 711.784 135.318 714.43 135.318ZM714.376 127.722C715.69 127.722 716.536 128.532 716.536 129.756H712.072C712.288 128.424 713.08 127.722 714.376 127.722ZM724.45 135.318C726.772 135.318 728.392 134.148 728.77 132.204H726.736C726.484 133.05 725.692 133.518 724.486 133.518C723.028 133.518 722.2 132.726 722.038 131.16L728.734 131.142V130.476C728.734 127.704 727.042 125.922 724.378 125.922C721.768 125.922 719.95 127.848 719.95 130.638C719.95 133.392 721.804 135.318 724.45 135.318ZM724.396 127.722C725.71 127.722 726.556 128.532 726.556 129.756H722.092C722.308 128.424 723.1 127.722 724.396 127.722ZM736.071 126.156C735.711 126.066 735.405 126.03 735.099 126.03C733.911 126.03 733.065 126.624 732.687 127.506L732.561 126.21H730.491V135.084H732.687V130.764C732.687 129.036 733.677 128.19 735.261 128.19H736.071V126.156ZM736.874 132.384C736.874 134.13 738.278 135.318 740.492 135.318C742.688 135.318 744.218 134.202 744.218 132.402C744.218 131.034 743.462 130.35 741.968 130.008L740.366 129.63C739.61 129.45 739.214 129.126 739.214 128.622C739.214 127.956 739.718 127.56 740.582 127.56C741.428 127.56 741.932 128.046 741.95 128.802H744.038C744.02 127.074 742.67 125.922 740.672 125.922C738.62 125.922 737.144 126.966 737.144 128.712C737.144 130.134 737.918 130.89 739.52 131.25L741.122 131.628C741.914 131.808 742.148 132.132 742.148 132.582C742.148 133.23 741.59 133.644 740.564 133.644C739.556 133.644 738.98 133.158 738.962 132.384H736.874Z" fill="white"/>
<g filter="url(#filter6_d_1_2645)">
<rect x="395" y="562.084" width="195" height="92" rx="28" fill="#1684F8"/>
</g>
<path d="M443.658 609.702V607.632H438.762V604.05H444.594V601.926H436.458V615.084H438.762V609.702H443.658ZM445.139 610.62C445.139 613.392 447.137 615.3 449.891 615.3C452.645 615.3 454.643 613.392 454.643 610.62C454.643 607.848 452.645 605.94 449.891 605.94C447.137 605.94 445.139 607.848 445.139 610.62ZM447.335 610.62C447.335 609 448.379 607.902 449.891 607.902C451.403 607.902 452.447 609 452.447 610.62C452.447 612.24 451.403 613.338 449.891 613.338C448.379 613.338 447.335 612.24 447.335 610.62ZM461.964 606.156C461.604 606.066 461.298 606.03 460.992 606.03C459.804 606.03 458.958 606.624 458.58 607.506L458.454 606.21H456.384V615.084H458.58V610.764C458.58 609.036 459.57 608.19 461.154 608.19H461.964V606.156ZM476.798 615.084V612.96H470.93V609.468H476.186V607.434H470.93V604.05H476.798V601.926H468.626V615.084H476.798ZM481.168 615.084V610.296C481.168 608.856 481.996 607.92 483.346 607.92C484.48 607.92 485.218 608.64 485.218 610.134V615.084H487.414V609.612C487.414 607.308 486.262 605.922 484.03 605.922C482.824 605.922 481.744 606.444 481.186 607.344L481.006 606.192H478.972V615.084H481.168ZM489.068 610.44C489.068 613.014 490.724 614.904 493.244 614.904C494.522 614.904 495.62 614.382 496.178 613.554V615.03C496.178 616.506 495.206 617.46 493.694 617.46C492.344 617.46 491.462 616.776 491.318 615.624H489.122C489.392 618 491.138 619.458 493.694 619.458C496.574 619.458 498.355 617.604 498.355 614.634V606.192H496.322L496.196 607.416C495.674 606.462 494.63 605.904 493.298 605.904C490.76 605.904 489.068 607.848 489.068 610.44ZM491.282 610.386C491.282 608.928 492.218 607.83 493.676 607.83C495.206 607.83 496.124 608.874 496.124 610.386C496.124 611.934 495.188 612.996 493.676 612.996C492.236 612.996 491.282 611.88 491.282 610.386ZM501.726 604.41C502.446 604.41 503.04 603.816 503.04 603.078C503.04 602.34 502.446 601.764 501.726 601.764C500.97 601.764 500.376 602.34 500.376 603.078C500.376 603.816 500.97 604.41 501.726 604.41ZM500.628 615.084H502.824V606.192H500.628V615.084ZM507.289 615.084V610.296C507.289 608.856 508.117 607.92 509.467 607.92C510.601 607.92 511.339 608.64 511.339 610.134V615.084H513.535V609.612C513.535 607.308 512.383 605.922 510.151 605.922C508.945 605.922 507.865 606.444 507.307 607.344L507.127 606.192H505.093V615.084H507.289ZM519.671 615.318C521.993 615.318 523.613 614.148 523.991 612.204H521.957C521.705 613.05 520.913 613.518 519.707 613.518C518.249 613.518 517.421 612.726 517.259 611.16L523.955 611.142V610.476C523.955 607.704 522.263 605.922 519.599 605.922C516.989 605.922 515.171 607.848 515.171 610.638C515.171 613.392 517.025 615.318 519.671 615.318ZM519.617 607.722C520.931 607.722 521.777 608.532 521.777 609.756H517.313C517.529 608.424 518.321 607.722 519.617 607.722ZM529.69 615.318C532.012 615.318 533.632 614.148 534.01 612.204H531.976C531.724 613.05 530.932 613.518 529.726 613.518C528.268 613.518 527.44 612.726 527.278 611.16L533.974 611.142V610.476C533.974 607.704 532.282 605.922 529.618 605.922C527.008 605.922 525.19 607.848 525.19 610.638C525.19 613.392 527.044 615.318 529.69 615.318ZM529.636 607.722C530.95 607.722 531.796 608.532 531.796 609.756H527.332C527.548 608.424 528.34 607.722 529.636 607.722ZM541.312 606.156C540.952 606.066 540.646 606.03 540.34 606.03C539.152 606.03 538.306 606.624 537.928 607.506L537.802 606.21H535.732V615.084H537.928V610.764C537.928 609.036 538.918 608.19 540.502 608.19H541.312V606.156ZM542.114 612.384C542.114 614.13 543.518 615.318 545.732 615.318C547.928 615.318 549.458 614.202 549.458 612.402C549.458 611.034 548.702 610.35 547.208 610.008L545.606 609.63C544.85 609.45 544.454 609.126 544.454 608.622C544.454 607.956 544.958 607.56 545.822 607.56C546.668 607.56 547.172 608.046 547.19 608.802H549.278C549.26 607.074 547.91 605.922 545.912 605.922C543.86 605.922 542.384 606.966 542.384 608.712C542.384 610.134 543.158 610.89 544.76 611.25L546.362 611.628C547.154 611.808 547.388 612.132 547.388 612.582C547.388 613.23 546.83 613.644 545.804 613.644C544.796 613.644 544.22 613.158 544.202 612.384H542.114Z" fill="white"/>
<defs>
<filter id="filter0_d_1_2645" x="0" y="143.084" width="295" height="192" filterUnits="userSpaceOnUse" color-interpolation-filters="sRGB">
<feFlood flood-opacity="0" result="BackgroundImageFix"/>
<feColorMatrix in="SourceAlpha" type="matrix" values="0 0 0 0 0 0 0 0 0 0 0 0 0 0 0 0 0 0 127 0" result="hardAlpha"/>
<feOffset dy="50"/>
<feGaussianBlur stdDeviation="25"/>
<feColorMatrix type="matrix" values="0 0 0 0 0 0 0 0 0 0 0 0 0 0 0 0 0 0 0.1 0"/>
<feBlend mode="normal" in2="BackgroundImageFix" result="effect1_dropShadow_1_2645"/>
<feBlend mode="normal" in="SourceGraphic" in2="effect1_dropShadow_1_2645" result="shape"/>
</filter>
<filter id="filter1_d_1_2645" x="38" y="456.084" width="295" height="192" filterUnits="userSpaceOnUse" color-interpolation-filters="sRGB">
<feFlood flood-opacity="0" result="BackgroundImageFix"/>
<feColorMatrix in="SourceAlpha" type="matrix" values="0 0 0 0 0 0 0 0 0 0 0 0 0 0 0 0 0 0 127 0" result="hardAlpha"/>
<feOffset dy="50"/>
<feGaussianBlur stdDeviation="25"/>
<feColorMatrix type="matrix" values="0 0 0 0 0 0 0 0 0 0 0 0 0 0 0 0 0 0 0.1 0"/>
<feBlend mode="normal" in2="BackgroundImageFix" result="effect1_dropShadow_1_2645"/>
<feBlend mode="normal" in="SourceGraphic" in2="effect1_dropShadow_1_2645" result="shape"/>
</filter>
<filter id="filter2_d_1_2645" x="251" y="225.084" width="295" height="192" filterUnits="userSpaceOnUse" color-interpolation-filters="sRGB">
<feFlood flood-opacity="0" result="BackgroundImageFix"/>
<feColorMatrix in="SourceAlpha" type="matrix" values="0 0 0 0 0 0 0 0 0 0 0 0 0 0 0 0 0 0 127 0" result="hardAlpha"/>
<feOffset dy="50"/>
<feGaussianBlur stdDeviation="25"/>
<feColorMatrix type="matrix" values="0 0 0 0 0 0 0 0 0 0 0 0 0 0 0 0 0 0 0.1 0"/>
<feBlend mode="normal" in2="BackgroundImageFix" result="effect1_dropShadow_1_2645"/>
<feBlend mode="normal" in="SourceGraphic" in2="effect1_dropShadow_1_2645" result="shape"/>
</filter>
<filter id="filter3_d_1_2645" x="215" y="0.0837402" width="295" height="192" filterUnits="userSpaceOnUse" color-interpolation-filters="sRGB">
<feFlood flood-opacity="0" result="BackgroundImageFix"/>
<feColorMatrix in="SourceAlpha" type="matrix" values="0 0 0 0 0 0 0 0 0 0 0 0 0 0 0 0 0 0 127 0" result="hardAlpha"/>
<feOffset dy="50"/>
<feGaussianBlur stdDeviation="25"/>
<feColorMatrix type="matrix" values="0 0 0 0 0 0 0 0 0 0 0 0 0 0 0 0 0 0 0.1 0"/>
<feBlend mode="normal" in2="BackgroundImageFix" result="effect1_dropShadow_1_2645"/>
<feBlend mode="normal" in="SourceGraphic" in2="effect1_dropShadow_1_2645" result="shape"/>
</filter>
<filter id="filter4_d_1_2645" x="560" y="364.084" width="295" height="192" filterUnits="userSpaceOnUse" color-interpolation-filters="sRGB">
<feFlood flood-opacity="0" result="BackgroundImageFix"/>
<feColorMatrix in="SourceAlpha" type="matrix" values="0 0 0 0 0 0 0 0 0 0 0 0 0 0 0 0 0 0 127 0" result="hardAlpha"/>
<feOffset dy="50"/>
<feGaussianBlur stdDeviation="25"/>
<feColorMatrix type="matrix" values="0 0 0 0 0 0 0 0 0 0 0 0 0 0 0 0 0 0 0.1 0"/>
<feBlend mode="normal" in2="BackgroundImageFix" result="effect1_dropShadow_1_2645"/>
<feBlend mode="normal" in="SourceGraphic" in2="effect1_dropShadow_1_2645" result="shape"/>
</filter>
<filter id="filter5_d_1_2645" x="543" y="82.0837" width="295" height="192" filterUnits="userSpaceOnUse" color-interpolation-filters="sRGB">
<feFlood flood-opacity="0" result="BackgroundImageFix"/>
<feColorMatrix in="SourceAlpha" type="matrix" values="0 0 0 0 0 0 0 0 0 0 0 0 0 0 0 0 0 0 127 0" result="hardAlpha"/>
<feOffset dy="50"/>
<feGaussianBlur stdDeviation="25"/>
<feColorMatrix type="matrix" values="0 0 0 0 0 0 0 0 0 0 0 0 0 0 0 0 0 0 0.1 0"/>
<feBlend mode="normal" in2="BackgroundImageFix" result="effect1_dropShadow_1_2645"/>
<feBlend mode="normal" in="SourceGraphic" in2="effect1_dropShadow_1_2645" result="shape"/>
</filter>
<filter id="filter6_d_1_2645" x="345" y="562.084" width="295" height="192" filterUnits="userSpaceOnUse" color-interpolation-filters="sRGB">
<feFlood flood-opacity="0" result="BackgroundImageFix"/>
<feColorMatrix in="SourceAlpha" type="matrix" values="0 0 0 0 0 0 0 0 0 0 0 0 0 0 0 0 0 0 127 0" result="hardAlpha"/>
<feOffset dy="50"/>
<feGaussianBlur stdDeviation="25"/>
<feColorMatrix type="matrix" values="0 0 0 0 0 0 0 0 0 0 0 0 0 0 0 0 0 0 0.1 0"/>
<feBlend mode="normal" in2="BackgroundImageFix" result="effect1_dropShadow_1_2645"/>
<feBlend mode="normal" in="SourceGraphic" in2="effect1_dropShadow_1_2645" result="shape"/>
</filter>
</defs>
</svg>
