<svg xmlns="http://www.w3.org/2000/svg" width="670" height="651" fill="none" viewBox="0 0 670 651"><g filter="url(#filter0_d_1007_14144)"><rect width="369.698" height="442.396" x="150" y="100.203" fill="#F7FBFF" rx="40"/></g><path fill="#EBEBEB" d="M188.674 472.854H252.961V431.329H257.415V419.727H185.991V430.266L188.674 472.854Z"/><path fill="#E0E0E0" d="M386.938 518.998C386.733 518.748 386.57 518.466 386.457 518.163C386.128 517.492 385.736 516.67 385.192 515.632C384.155 513.469 382.738 510.293 381.042 506.358C377.626 498.488 373.248 487.455 368.592 475.233C363.936 463.011 359.697 452.041 356.471 444.057L352.599 434.669L351.562 432.138C351.424 431.844 351.322 431.534 351.258 431.215C351.46 431.467 351.622 431.749 351.739 432.05L353.004 434.58C354.042 436.744 355.459 439.92 357.167 443.855C360.583 451.725 364.948 462.758 369.617 474.992C374.286 487.227 378.537 498.273 381.776 506.206L385.648 515.594L386.685 518.125C386.802 518.406 386.886 518.698 386.938 518.998Z"/><path fill="#E0E0E0" d="M504.72 231.887C505.186 231.325 505.737 230.838 506.352 230.445C507.784 229.522 509.451 229.031 511.154 229.031C512.857 229.031 514.524 229.522 515.956 230.445C516.993 231.115 517.88 231.995 518.557 233.028C519.235 234.06 519.689 235.224 519.891 236.442C520.03 237.335 520.03 238.244 519.891 239.137C519.644 241.038 518.793 242.808 517.462 244.187C516.131 245.566 514.392 246.479 512.501 246.792C511.605 246.937 510.691 246.937 509.794 246.792C508.917 246.691 508.062 246.447 507.263 246.071C506.116 245.563 505.089 244.817 504.252 243.882C503.414 242.947 502.785 241.845 502.406 240.649C502.027 239.452 501.906 238.189 502.052 236.943C502.198 235.696 502.607 234.495 503.252 233.418C503.617 232.793 504.078 232.229 504.619 231.748C504.619 231.748 504.1 232.318 503.417 233.52C502.479 235.228 502.14 237.201 502.455 239.125C502.683 240.535 503.259 241.867 504.132 242.998C505.005 244.129 506.146 245.025 507.453 245.603C508.2 245.94 508.993 246.161 509.806 246.261C510.645 246.391 511.498 246.391 512.337 246.261C514.12 245.954 515.758 245.087 517.014 243.786C518.27 242.484 519.078 240.816 519.321 239.023C519.458 238.186 519.458 237.331 519.321 236.493C519.202 235.679 518.954 234.889 518.587 234.152C517.918 232.783 516.902 231.614 515.639 230.761C514.53 230.026 513.265 229.558 511.945 229.395C510.033 229.188 508.107 229.619 506.466 230.622C505.861 231.012 505.278 231.434 504.72 231.887Z"/><path fill="#409DFF" d="M238.6 354.857L236.829 355.452C228.934 358.109 205.438 365.877 198.34 368.788C198.34 368.788 210.917 480.016 212.384 490.353C213.852 500.69 214.194 542.051 214.194 542.051H348.019C348.019 542.051 347.665 430.57 348.019 413.286C348.513 390.917 351.283 368.788 351.283 368.788L327.952 359.678L300.635 345.254L238.6 354.857Z"/><g opacity=".3"><path fill="#041A39" d="M268.359 378.922C257.444 419.478 245.939 459.877 233.843 500.121C232.413 504.865 231.009 510.065 232.932 514.633C233.884 516.635 235.333 518.361 237.14 519.645C238.947 520.93 241.053 521.731 243.257 521.971C247.685 522.392 252.132 521.386 255.947 519.099C264.994 514.038 270.864 504.536 273.749 494.591C276.634 484.647 276.9 474.158 277.127 463.808L279.025 380.972L268.359 378.922Z" opacity=".3"/></g><path fill="#409DFF" d="M198.34 368.788C198.34 368.788 178.716 377.48 180.247 412.35C180.984 427.567 182.529 442.733 184.878 457.785L240.055 441.919L226.024 381.364L198.34 368.788Z"/><path fill="#409DFF" d="M329.192 424.902L326.244 465.149L381.713 447.183C381.713 447.183 369.819 376.151 350.98 368.737L330.672 403.443L329.192 424.902Z"/><path fill="#041A39" d="M335.506 413.286C335.558 413.554 335.592 413.824 335.607 414.096C335.607 414.703 335.708 415.488 335.772 416.462C335.885 418.588 336.05 421.523 336.252 425.116C336.607 432.442 336.999 442.552 337.366 453.724C337.733 464.896 338.036 474.942 338.277 482.344C338.391 485.937 338.479 488.885 338.542 491.011C338.542 491.985 338.542 492.769 338.542 493.377C338.561 493.651 338.561 493.925 338.542 494.199C338.472 493.93 338.434 493.654 338.429 493.377C338.429 492.769 338.34 491.985 338.264 491.023C338.15 488.898 337.986 485.962 337.783 482.356C337.429 475.043 337.037 464.921 336.683 453.749C336.328 442.577 335.999 432.531 335.759 425.142C335.645 421.536 335.557 418.6 335.493 416.462C335.493 415.501 335.493 414.716 335.493 414.109C335.464 413.835 335.468 413.559 335.506 413.286Z"/><path fill="#041A39" d="M225.783 396.37C225.502 395.973 225.261 395.549 225.062 395.105C224.581 394.131 223.974 392.941 223.278 391.524C221.386 387.578 219.065 383.853 216.357 380.415C213.618 377.019 210.098 374.336 206.096 372.596C204.402 371.963 202.659 371.472 200.883 371.128C201.37 371.059 201.864 371.059 202.351 371.128C203.687 371.305 204.998 371.631 206.261 372.103C210.414 373.763 214.069 376.465 216.876 379.947C219.622 383.439 221.913 387.266 223.696 391.334C224.404 392.878 224.961 394.131 225.29 395.004C225.519 395.433 225.685 395.893 225.783 396.37Z"/><path fill="#041A39" d="M341.984 367.092C340.631 370.122 339.465 373.232 338.492 376.405C337.739 379.64 337.19 382.919 336.847 386.223C336.669 385.25 336.635 384.257 336.746 383.275C336.866 380.897 337.239 378.539 337.859 376.24C338.46 373.941 339.309 371.714 340.39 369.597C340.802 368.692 341.339 367.849 341.984 367.092Z"/><path fill="#041A39" d="M315.085 215.945C306.519 214.098 298.447 222.272 289.78 221.361C284.491 220.779 280.214 216.958 275.368 214.756C268.119 211.479 258.275 211.682 251.506 215.87C244.737 220.058 240.511 224.283 240.207 232.229C233.463 229.079 223.417 238.1 220.419 246.223C217.42 254.346 219.027 262.342 221.81 270.554C226.61 284.718 234.141 297.803 243.978 309.068C244.851 310.067 246.204 311.13 247.343 310.472C247.697 310.182 247.976 309.811 248.156 309.39C248.337 308.97 248.414 308.512 248.381 308.056C248.963 300.3 247.331 292.556 246.015 284.889C244.699 277.222 243.699 269.276 245.521 261.697C247.343 254.118 252.531 246.919 260.008 244.781C265.537 243.186 271.535 244.527 276.773 246.906C282.011 249.285 286.718 252.676 291.741 255.459C296.764 258.243 302.344 260.52 308.088 260.255C313.832 259.989 319.741 256.8 321.74 251.398C323.739 245.995 320.386 238.872 314.68 238.151C317.264 237.698 319.609 236.36 321.315 234.368C323.02 232.375 323.979 229.85 324.027 227.228C324.075 224.605 323.209 222.047 321.577 219.994C319.945 217.94 317.65 216.517 315.085 215.971V215.945Z"/><path fill="#ED9882" d="M300.699 352.428L298.485 335.98C298.485 335.98 319.994 329.945 317.615 308.018C316.476 297.428 312.352 275.804 308.404 256.294C306.354 246.17 300.567 237.188 292.194 231.137C283.822 225.086 273.479 222.409 263.222 223.638L261.109 223.891C238.486 227.965 229.301 249.449 233.995 271.971L246.736 360.032C247.791 367.14 251.611 373.544 257.365 377.849C263.118 382.155 270.339 384.014 277.456 383.022C284.587 382.029 291.034 378.253 295.39 372.52C299.745 366.788 301.654 359.564 300.699 352.428Z"/><path fill="#AF5D32" d="M298.51 335.891C288.42 337.301 278.138 335.671 268.979 331.21C268.979 331.21 277.621 346.165 299.244 341.559L298.51 335.891Z"/><path fill="#041A39" d="M301.661 269.529C301.789 270.355 301.588 271.199 301.1 271.878C300.613 272.557 299.878 273.017 299.054 273.16C298.652 273.234 298.24 273.228 297.841 273.14C297.441 273.052 297.064 272.886 296.73 272.65C296.397 272.414 296.113 272.114 295.898 271.767C295.682 271.42 295.538 271.033 295.473 270.63C295.345 269.802 295.546 268.957 296.033 268.276C296.52 267.595 297.255 267.131 298.08 266.986C298.483 266.912 298.896 266.919 299.296 267.007C299.696 267.096 300.074 267.264 300.408 267.501C300.741 267.738 301.024 268.039 301.24 268.388C301.455 268.736 301.598 269.124 301.661 269.529Z"/><path fill="#041A39" d="M304.975 268.959C304.634 269.402 302.065 267.935 298.649 268.352C295.233 268.77 293.019 270.743 292.601 270.377C292.399 270.212 292.702 269.428 293.689 268.517C295.023 267.335 296.689 266.593 298.459 266.391C300.208 266.182 301.978 266.527 303.52 267.378C304.71 268.048 305.153 268.744 304.975 268.959Z"/><path fill="#041A39" d="M269.637 272.224C269.77 273.058 269.572 273.911 269.085 274.601C268.598 275.291 267.861 275.764 267.031 275.918C266.623 275.99 266.204 275.979 265.801 275.886C265.397 275.793 265.016 275.62 264.681 275.377C264.346 275.134 264.063 274.826 263.849 274.471C263.636 274.116 263.495 273.722 263.437 273.312C263.3 272.478 263.495 271.623 263.98 270.93C264.464 270.238 265.2 269.762 266.031 269.605C266.44 269.534 266.86 269.547 267.264 269.641C267.668 269.736 268.05 269.91 268.386 270.154C268.722 270.398 269.006 270.707 269.221 271.062C269.436 271.418 269.577 271.813 269.637 272.224Z"/><path fill="#041A39" d="M272.674 271.578C272.332 272.034 269.751 270.566 266.347 270.971C262.944 271.376 260.717 273.362 260.299 272.995C260.097 272.844 260.401 272.059 261.388 271.148C262.718 269.962 264.385 269.219 266.158 269.023C267.906 268.808 269.678 269.153 271.219 270.009C272.395 270.68 272.851 271.376 272.674 271.578Z"/><path fill="#041A39" d="M287.186 295.58C287.186 295.391 289.198 294.783 292.538 293.936C293.386 293.746 294.17 293.48 294.246 292.873C294.212 291.981 293.907 291.12 293.373 290.405L290.109 284.168C285.453 275.311 281.986 267.922 282.34 267.72C282.694 267.517 286.756 274.59 291.412 283.485L294.638 289.811C295.3 290.787 295.6 291.964 295.486 293.138C295.395 293.455 295.234 293.746 295.015 293.991C294.796 294.237 294.525 294.43 294.221 294.556C293.763 294.745 293.282 294.872 292.791 294.935C289.337 295.504 287.224 295.77 287.186 295.58Z"/><path fill="#041A39" d="M283.461 309.56C283.791 310.002 286.276 309.296 290.29 310.088C294.305 310.881 296.832 312.548 297.247 312.245C298.158 311.824 293.566 308.626 290.531 308.142C287.75 307.698 282.537 308.578 283.461 309.56Z"/><path fill="#041A39" d="M270.978 256.18C270.763 257.142 267.347 257.117 263.463 258.066C259.578 259.014 256.504 260.47 255.871 259.71C255.593 259.343 256.036 258.445 257.225 257.382C258.812 256.09 260.673 255.177 262.666 254.713C264.659 254.248 266.731 254.244 268.726 254.7C270.257 255.105 271.13 255.737 270.978 256.18Z"/><path fill="#041A39" d="M302.571 257.901C302.065 258.736 299.661 258.23 296.865 258.521C294.069 258.812 291.804 259.66 291.146 258.926C290.855 258.559 291.146 257.749 292.083 256.902C293.364 255.868 294.923 255.238 296.563 255.091C298.203 254.945 299.849 255.289 301.294 256.079C302.369 256.75 302.761 257.496 302.571 257.901Z"/><path fill="#ED9882" d="M237.727 287.887C237.335 287.774 222.152 285.243 224.417 300.16C226.682 315.078 241.207 309.713 241.156 309.27C241.106 308.827 237.727 287.887 237.727 287.887Z"/><path fill="#AF5D32" d="M235.703 304.323C235.64 304.323 235.475 304.538 235.07 304.817C234.491 305.17 233.798 305.287 233.135 305.146C231.464 304.804 229.756 302.514 229.276 299.832C229.053 298.57 229.109 297.274 229.44 296.036C229.508 295.549 229.693 295.086 229.979 294.687C230.266 294.288 230.645 293.965 231.085 293.746C231.372 293.621 231.694 293.601 231.994 293.689C232.294 293.777 232.555 293.967 232.73 294.227C232.995 294.619 232.945 294.922 233.021 294.935C233.097 294.948 233.312 294.644 233.097 294.037C232.95 293.685 232.692 293.392 232.363 293.202C231.906 292.954 231.37 292.895 230.87 293.037C230.274 293.252 229.744 293.616 229.33 294.095C228.915 294.573 228.631 295.15 228.504 295.77C228.068 297.157 227.977 298.629 228.238 300.059C228.795 303.045 230.768 305.626 233.008 305.917C233.426 305.977 233.853 305.939 234.254 305.807C234.656 305.676 235.021 305.454 235.323 305.158C235.766 304.69 235.804 304.336 235.703 304.323Z"/><path fill="#041A39" d="M312.478 251.081C307.779 252.906 302.713 253.588 297.698 253.074C292.683 252.559 287.862 250.861 283.631 248.121C277.76 244.249 272.863 238.252 265.917 236.999C263.568 236.665 261.175 236.801 258.879 237.401C256.583 238 254.429 239.051 252.543 240.491C248.784 243.397 245.661 247.045 243.37 251.208C248.938 261.823 247.584 274.59 246.091 286.483C246.088 287.813 245.643 289.104 244.825 290.152C243.219 291.721 240.448 290.975 238.702 289.545C235.918 287.255 234.526 283.725 233.476 280.271C230.923 272.425 229.96 264.15 230.642 255.927C231.367 247.695 234.491 239.856 239.625 233.381C246.342 225.471 255.869 220.481 266.196 219.463C276.493 218.542 286.818 220.893 295.701 226.181C299.925 228.424 303.521 231.686 306.165 235.671"/><path fill="#ED9882" d="M336.923 459.215L338.049 491.897C338.049 491.897 243.294 510.66 231.097 516.936C218.9 523.211 213.941 524.186 214.649 542.241L366.011 541.988C366.011 541.988 384.661 535.004 384.294 514.696C383.927 494.389 378.853 445.588 378.853 445.588L336.923 459.215Z"/><path fill="#ED9882" d="M230.338 542.772L242.915 541.621L254.922 512.938C252.986 512.609 212.473 506.611 210.082 507.282L200.377 541.798C200.377 541.798 229.478 542.772 230.338 542.772Z"/><path fill="#ED9882" d="M202.642 542.342C202.853 542.436 203.081 542.488 203.313 542.494C206.665 542.861 222.114 541.912 222.114 541.912C222.823 539.925 221.482 533.928 219.584 533.574C217.686 533.219 201.225 534.333 201.225 534.333C201.225 534.333 198.694 534.675 197.986 539.027C197.556 541.709 202.642 542.342 202.642 542.342Z"/><path fill="#ED9882" d="M197.429 533.561C197.639 533.66 197.868 533.712 198.1 533.713C201.44 534.08 216.054 533.915 216.674 532.131C217.382 530.145 216.269 525.147 214.346 524.793C212.422 524.438 195.974 525.552 195.974 525.552C195.974 525.552 193.444 525.894 192.735 530.246C192.343 532.928 197.429 533.561 197.429 533.561Z"/><path fill="#ED9882" d="M194.835 524.983C195.045 525.082 195.274 525.133 195.506 525.135C198.859 525.502 213.46 525.337 214.092 523.553C214.801 521.567 213.675 516.569 211.752 516.215C209.828 515.86 193.38 516.974 193.38 516.974C193.38 516.974 190.85 517.315 190.154 521.668C189.749 524.35 194.835 524.983 194.835 524.983Z"/><path fill="#ED9882" d="M192.406 516.442C192.406 516.506 192.672 516.556 193.077 516.594C196.417 516.961 211.03 516.797 211.663 515.025C212.359 513.026 211.246 508.028 209.322 507.687C207.399 507.345 190.951 508.446 190.951 508.446C190.951 508.446 188.42 508.775 187.725 513.127C187.32 515.822 192.406 516.442 192.406 516.442Z"/><path fill="#AF5D32" d="M215.294 533.498C215.294 533.738 212.081 534.042 208.184 534.156C204.287 534.27 201.124 534.156 201.149 533.903C201.174 533.65 204.35 533.346 208.26 533.245C212.169 533.144 215.307 533.245 215.294 533.498Z"/><path fill="#AF5D32" d="M215.37 524.882C215.37 525.135 210.853 525.489 205.248 525.666C199.643 525.843 195.126 525.78 195.126 525.527C195.126 525.274 199.656 524.92 205.248 524.742C210.841 524.565 215.358 524.629 215.37 524.882Z"/><g opacity=".78"><path fill="#AF5D32" d="M214.674 516.126C214.674 516.379 210.158 516.733 204.552 516.91C198.947 517.088 194.43 517.024 194.43 516.771C194.43 516.518 198.947 516.164 204.552 516C210.158 515.835 214.674 515.873 214.674 516.126Z" opacity=".78"/></g><path fill="#ED9882" d="M238.12 510.724C238.12 510.724 210.55 498.463 208.829 500.235C207.108 502.006 204.451 507.7 204.451 507.7L238.12 510.724Z"/><path fill="#AF5D32" d="M359.166 520.365C359.052 520.365 358.495 518.391 357.18 515.304C356.409 513.504 355.535 511.751 354.561 510.053C353.368 507.979 352.036 505.988 350.575 504.094C349.085 502.251 347.484 500.502 345.78 498.855C344.364 497.507 342.873 496.24 341.313 495.06C338.656 493.035 336.847 491.998 336.898 491.896C337.342 492.063 337.767 492.279 338.163 492.542C339.327 493.186 340.45 493.9 341.528 494.68C343.146 495.842 344.685 497.11 346.134 498.476C347.898 500.143 349.539 501.936 351.043 503.84C352.519 505.767 353.855 507.797 355.041 509.914C356.009 511.641 356.854 513.434 357.572 515.278C358.072 516.516 358.494 517.784 358.837 519.074C358.997 519.49 359.108 519.923 359.166 520.365Z"/><path fill="#ED9882" d="M248.279 366.573L219.761 447.752L187.699 456.988C187.699 456.988 199.327 506.181 211.195 515.025C215.231 518.024 221.823 521.276 228.58 520.807C241.396 519.909 255.77 510.875 261.248 498.248C266.069 487.038 279.126 371.065 279.126 371.065L248.279 366.573Z"/><path fill="#ED9882" d="M278.721 374.557L280.392 354.781L275.799 338.902L274.027 332.829L277.494 336.385L283.82 329.641C283.82 329.641 281.771 317.659 280.025 317.659C277.826 318.06 275.676 318.692 273.61 319.544C272.345 320.012 271.345 320.392 271.345 320.392L266.069 323.137L271.434 314.913C271.434 314.913 276.95 319.506 279.772 315.521C281.922 312.471 273.888 305.639 270.915 303.222C270.57 302.953 270.171 302.761 269.745 302.66C269.319 302.56 268.876 302.553 268.448 302.64L265.322 303.26C265.227 302.118 264.703 301.054 263.856 300.282C263.009 299.51 261.901 299.087 260.755 299.098C259.511 299.114 258.293 299.459 257.226 300.1C256.159 300.74 255.281 301.651 254.682 302.742L251.392 303.336C250.271 303.336 249.176 303.679 248.256 304.319C247.335 304.959 246.633 305.866 246.242 306.917L239.005 326.604L248.292 366.624"/><path fill="#AF5D32" d="M248.28 366.573C248.28 366.573 248.204 366.333 248.077 365.865C247.951 365.397 247.773 364.663 247.558 363.765C247.103 361.892 246.445 359.197 245.622 355.743C243.965 348.759 241.612 338.776 238.74 326.642V326.566V326.49C240.169 322.593 241.675 318.456 243.256 314.116L245.698 307.461C246.037 306.226 246.743 305.123 247.723 304.298C248.759 303.475 250.044 303.029 251.367 303.033L254.656 302.438L254.441 302.59C255.046 301.579 255.867 300.715 256.845 300.059C257.866 299.359 259.063 298.96 260.299 298.908C261.579 298.817 262.845 299.215 263.842 300.021C264.371 300.415 264.805 300.923 265.109 301.508C265.414 302.094 265.582 302.74 265.601 303.399L265.209 303.058L267.575 302.59C267.99 302.486 268.413 302.414 268.84 302.375C269.291 302.349 269.742 302.414 270.168 302.564C270.583 302.721 270.965 302.952 271.294 303.248L272.256 304.032C272.889 304.563 273.521 305.108 274.141 305.664C275.395 306.779 276.582 307.966 277.697 309.22C278.912 310.478 279.833 311.99 280.392 313.648C280.537 314.174 280.537 314.729 280.392 315.255C280.175 315.736 279.86 316.167 279.468 316.52C279.089 316.881 278.639 317.159 278.147 317.338C277.655 317.516 277.131 317.591 276.608 317.558C274.641 317.347 272.783 316.544 271.282 315.255L271.775 315.192C269.953 317.962 268.169 320.708 266.411 323.403L265.993 322.935L271.345 320.202C273.154 319.519 274.938 318.836 276.735 318.266C277.633 317.958 278.55 317.709 279.481 317.52C279.745 317.478 280.014 317.478 280.278 317.52C280.574 317.612 280.826 317.81 280.986 318.076C281.253 318.471 281.474 318.896 281.644 319.342C282.783 322.721 283.63 326.192 284.175 329.717V329.856L284.073 329.97C281.872 332.298 279.763 334.541 277.747 336.701L277.545 336.903L277.342 336.701L273.888 333.145L274.331 332.892C276.76 341.395 278.886 348.771 280.657 354.857V354.92C280.088 361.158 279.645 366.093 279.392 369.496L279.012 373.368C279.012 373.773 278.937 374.102 278.911 374.355C278.908 374.467 278.887 374.578 278.848 374.684C278.848 374.684 278.848 374.57 278.848 374.355C278.848 374.14 278.848 373.773 278.848 373.355C278.911 372.444 279 371.154 279.126 369.483C279.392 366.067 279.772 361.133 280.265 354.895V354.958C278.481 348.885 276.33 341.521 273.838 333.032L273.534 332.019L274.28 332.779L277.76 336.309H277.355L283.681 329.552L283.605 329.805C283.054 326.323 282.207 322.895 281.075 319.557C280.922 319.154 280.727 318.768 280.493 318.405C280.412 318.269 280.294 318.159 280.151 318.089C279.962 318.069 279.771 318.069 279.582 318.089C278.684 318.288 277.797 318.533 276.925 318.823C275.141 319.392 273.369 320.088 271.573 320.759L266.221 323.492L265.145 324.048L265.803 323.036L271.155 314.812L271.345 314.521L271.636 314.749C273.039 315.927 274.753 316.674 276.571 316.9C277.222 316.935 277.869 316.773 278.426 316.434C278.984 316.095 279.426 315.596 279.696 315.002C279.822 314.589 279.822 314.149 279.696 313.737C279.163 312.186 278.299 310.77 277.165 309.587C276.072 308.329 274.902 307.142 273.66 306.031C273.053 305.487 272.395 304.943 271.801 304.424C271.239 303.881 270.599 303.425 269.903 303.071C269.184 302.831 268.407 302.831 267.688 303.071L265.322 303.539L264.93 303.627V303.21C264.906 302.654 264.757 302.11 264.494 301.619C264.231 301.129 263.862 300.704 263.412 300.376C262.537 299.665 261.423 299.317 260.299 299.401C259.196 299.474 258.129 299.822 257.196 300.414C256.263 301.007 255.494 301.825 254.96 302.792L254.884 302.931H254.745L251.443 303.526C250.255 303.529 249.104 303.935 248.178 304.677C247.284 305.435 246.64 306.445 246.331 307.575C245.488 309.844 244.669 312.062 243.876 314.23C242.265 318.557 240.743 322.673 239.309 326.579V326.44C242.092 338.624 244.37 348.62 245.964 355.616L247.761 363.676C247.963 364.574 248.115 365.27 248.216 365.789C248.252 366.049 248.273 366.311 248.28 366.573Z"/><path fill="#AF5D32" d="M271.13 330.274C272.886 329.117 274.74 328.118 276.672 327.288L278.734 326.275L277.026 327.819C276.419 328.368 275.945 329.046 275.638 329.805C275.331 330.563 275.2 331.381 275.255 332.197C275.316 333.033 275.572 333.843 276.001 334.563C276.454 335.209 276.957 335.818 277.507 336.385C277.507 336.448 276.533 336.094 275.609 334.803C275.083 334.053 274.753 333.183 274.647 332.273C274.53 331.135 274.76 329.988 275.305 328.983C275.628 328.369 276.057 327.817 276.57 327.351L276.912 327.882C275.057 328.844 273.123 329.644 271.13 330.274Z"/><path fill="#AF5D32" d="M255.947 319.582C256.355 318.535 256.872 317.534 257.491 316.596C258.515 314.787 260.021 312.332 261.628 309.637C262.463 308.284 263.235 307.006 263.994 305.842C264.641 304.758 265.539 303.847 266.613 303.185C267.361 302.757 268.222 302.567 269.08 302.641C269.396 302.647 269.702 302.753 269.953 302.944C269.953 302.944 269.624 302.944 269.068 302.944C268.28 302.972 267.515 303.213 266.853 303.64C265.107 304.665 263.88 307.373 262.197 310.03C260.515 312.687 259.022 315.091 257.895 316.887C257.326 317.841 256.674 318.743 255.947 319.582Z"/><path fill="#AF5D32" d="M246.167 319.506C246.36 318.575 246.675 317.673 247.103 316.824C247.773 315.192 248.76 313.028 249.95 310.574C251.139 308.119 252.303 306.044 253.189 304.538C253.621 303.686 254.152 302.888 254.77 302.16C254.467 303.04 254.077 303.887 253.606 304.69C252.708 306.487 251.67 308.486 250.544 310.801L247.52 316.95C247.167 317.851 246.713 318.708 246.167 319.506Z"/><path fill="#AF5D32" d="M223.253 439.819C223.15 440.323 222.993 440.815 222.785 441.287L221.33 445.209C220.064 448.524 218.369 453.104 216.56 458.178C214.75 463.251 213.194 467.895 212.081 471.248C211.549 472.829 211.094 474.158 210.74 475.221C210.599 475.715 210.408 476.194 210.17 476.65C210.218 476.138 210.324 475.633 210.486 475.145C210.74 474.183 211.132 472.804 211.625 471.109C212.637 467.718 214.156 463.049 215.94 457.963C217.724 452.876 219.533 448.309 220.887 445.044C221.57 443.412 222.152 442.096 222.557 441.185C222.738 440.706 222.972 440.248 223.253 439.819Z"/><path fill="#AF5D32" d="M265.538 477.245C265.56 477.366 265.56 477.49 265.538 477.612C265.538 477.903 265.449 478.257 265.398 478.7C265.247 479.712 265.044 481.104 264.791 482.888C264.538 484.672 264.184 486.924 263.665 489.48C263.111 492.392 262.315 495.253 261.286 498.033C260.033 501.428 258.139 504.551 255.707 507.231C252.901 510.276 249.661 512.89 246.091 514.987C242.123 517.288 237.869 519.053 233.438 520.238C231.091 520.88 228.672 521.216 226.239 521.237C223.729 521.249 221.237 520.82 218.875 519.972C214.24 518.203 210.176 515.202 207.121 511.293C204.284 507.7 201.991 503.71 200.314 499.45C198.669 495.414 197.682 491.378 196.518 487.708C195.354 484.039 194.317 480.598 193.355 477.46C191.394 471.197 189.901 466.073 188.965 462.555C188.497 460.771 188.155 459.392 187.94 458.456L187.699 457.38C187.68 457.259 187.68 457.135 187.699 457.013C187.758 457.125 187.8 457.244 187.826 457.368C187.902 457.633 188.003 457.988 188.117 458.418C188.395 459.392 188.775 460.759 189.268 462.479C190.268 466.009 191.799 471.083 193.849 477.321C194.835 480.459 195.924 483.875 197.088 487.557C198.252 491.238 199.251 495.237 200.883 499.222C202.549 503.419 204.821 507.35 207.627 510.888C210.609 514.698 214.572 517.624 219.09 519.352C221.382 520.183 223.801 520.611 226.239 520.618C228.616 520.602 230.981 520.274 233.274 519.643C237.635 518.485 241.825 516.757 245.736 514.506C249.259 512.45 252.464 509.893 255.251 506.915C257.651 504.292 259.535 501.24 260.805 497.919C261.843 495.166 262.664 492.336 263.26 489.454C263.804 486.924 264.171 484.697 264.525 482.9C264.88 481.104 265.082 479.737 265.247 478.738L265.462 477.65C265.479 477.513 265.505 477.378 265.538 477.245Z"/><path fill="#31D0AA" d="M394.086 459.607C392.947 455.659 390.505 451.838 386.722 450.206C382.939 448.574 378.232 449.485 374.209 450.94C370.185 452.395 366.237 454.356 361.974 454.622C357.71 454.887 352.876 452.863 351.598 448.776C350.333 444.98 352.712 440.843 355.609 438.047C358.666 435.097 362.417 432.964 366.515 431.845C370.613 430.726 374.927 430.657 379.059 431.644C383.191 432.631 387.008 434.643 390.158 437.493C393.308 440.343 395.69 443.941 397.084 447.954"/><g opacity=".5"><path fill="#041A39" d="M394.086 459.607C392.947 455.659 390.505 451.838 386.722 450.206C382.939 448.574 378.232 449.485 374.209 450.94C370.185 452.395 366.237 454.356 361.974 454.622C357.71 454.887 352.876 452.863 351.598 448.776C350.333 444.98 352.712 440.843 355.609 438.047C358.666 435.097 362.417 432.964 366.515 431.845C370.613 430.726 374.927 430.657 379.059 431.644C383.191 432.631 387.008 434.643 390.158 437.493C393.308 440.343 395.69 443.941 397.084 447.954" opacity=".5"/></g><path fill="#31D0AA" d="M427.931 476.776C434.194 470.817 433.89 460.454 430.765 452.395C427.64 444.335 420.808 438.148 413.191 434.036C405.748 430.129 397.517 427.959 389.116 427.687C380.715 427.415 372.361 429.049 364.681 432.467C368.441 432.628 372.104 433.708 375.349 435.614C378.594 437.52 381.322 440.193 383.293 443.399C386.735 449.105 387.494 456.051 390.328 462.049C393.527 468.843 399.208 474.153 406.202 476.887C413.196 479.622 420.972 479.573 427.931 476.751"/><path fill="#31D0AA" d="M430.942 440.995C437.889 432.809 438.812 419.663 437.787 408.971C436.762 398.28 434.283 387.525 435.965 376.923C436.965 370.596 439.407 364.65 440.229 358.349C441.052 352.048 439.888 344.899 435.004 340.838C429.386 336.156 420.542 337.257 414.76 341.647C408.978 346.038 405.536 352.946 403.056 359.829C397.628 374.936 395.629 391.701 400.095 407.124C404.562 422.547 415.038 436.339 430.462 440.995"/><path fill="#041A39" d="M434.27 508.205C434.306 507.894 434.306 507.58 434.27 507.269C434.27 506.649 434.27 505.738 434.27 504.561C434.181 502.208 433.954 498.804 433.435 494.642C432.816 489.75 431.925 484.896 430.765 480.104C429.326 474.225 427.095 468.568 424.135 463.289C418.74 453.678 411.149 445.48 401.981 439.363C400.247 438.161 398.577 437.25 397.135 436.415C395.692 435.58 394.364 434.998 393.339 434.479L390.809 433.429L389.923 433.1C390.184 433.279 390.464 433.427 390.758 433.543L393.2 434.681C394.25 435.225 395.515 435.947 396.996 436.693C398.476 437.44 400.07 438.49 401.778 439.692C410.79 445.873 418.261 454.041 423.616 463.567C429.943 474.727 431.739 486.468 433.005 494.692C433.587 498.842 433.865 502.284 434.029 504.574L434.181 507.269C434.189 507.583 434.218 507.895 434.27 508.205Z"/><path fill="#31D0AA" d="M494.129 408.731C506.971 416.487 506.933 423.534 504.782 430.24C502.631 436.946 494.761 441.514 488.233 439.021C484.538 437.617 481.907 434.403 479.578 431.189C477.25 427.975 475.137 424.509 471.987 422.193C468.837 419.878 464.142 418.979 460.929 421.282"/><g opacity=".5"><path fill="#041A39" d="M494.129 408.731C506.971 416.487 506.933 423.534 504.782 430.24C502.631 436.946 494.761 441.514 488.233 439.021C484.538 437.617 481.907 434.403 479.578 431.189C477.25 427.975 475.137 424.509 471.987 422.193C468.837 419.878 464.142 418.979 460.929 421.282" opacity=".5"/></g><path fill="#31D0AA" d="M503.745 417.183C500.379 412.539 492.092 411.198 486.854 413.514C481.616 415.829 477.782 420.422 474.34 425.002C470.899 429.582 467.571 434.415 462.814 437.654C458.057 440.894 451.427 442.007 446.669 438.793C445.16 437.663 443.896 436.238 442.955 434.605C442.013 432.971 441.413 431.164 441.191 429.291C440.766 425.548 441.023 421.758 441.95 418.106C443.076 412.716 444.923 407.099 449.238 403.67C454.046 399.874 460.701 399.684 466.837 399.874C473.86 400.114 481.008 400.633 487.6 403.075C494.192 405.517 500.936 410.781 503.745 417.233"/><path fill="#041A39" d="M444.999 497.931C445.01 497.834 445.01 497.737 444.999 497.64C444.999 497.425 444.999 497.147 444.999 496.818C444.999 496.042 445.037 494.979 445.113 493.629C445.189 490.82 445.303 486.822 445.442 481.913C445.581 477.004 445.796 471.07 446.163 464.541C446.53 458.012 447.011 450.826 447.998 443.361C448.422 439.721 449.133 436.121 450.123 432.593C451.151 429.344 452.468 426.194 454.058 423.18C455.498 420.45 457.162 417.843 459.031 415.386C460.674 413.263 462.485 411.274 464.446 409.439C467.311 406.799 470.546 404.591 474.049 402.885C474.682 402.607 475.226 402.316 475.719 402.126L476.985 401.633L477.757 401.329L478.01 401.203L477.744 401.266L476.947 401.519L475.682 401.962C475.175 402.152 474.631 402.417 473.986 402.683C470.414 404.326 467.112 406.502 464.193 409.136C462.199 410.972 460.354 412.965 458.677 415.095C456.768 417.56 455.075 420.185 453.616 422.94C451.992 425.972 450.653 429.149 449.617 432.429C448.599 435.982 447.876 439.613 447.454 443.285C446.467 450.788 445.999 457.974 445.657 464.516C445.316 471.057 445.164 476.953 445.062 481.9C444.961 486.847 444.923 490.858 444.911 493.629V496.818C444.911 497.147 444.911 497.425 444.911 497.64C444.92 497.742 444.95 497.841 444.999 497.931Z"/><path fill="#041A39" d="M440.331 503.726C440.936 501.925 441.406 500.081 441.735 498.21C442.623 493.097 442.819 487.888 442.317 482.723C441.521 475.073 439.875 467.536 437.408 460.252C434.763 451.99 431.195 443.158 428.133 433.682C426.622 429.075 425.393 424.381 424.452 419.625C423.607 415.186 423.007 410.705 422.655 406.201C422.066 398.556 421.922 390.884 422.225 383.224C422.453 376.682 422.794 371.393 423.022 367.737C423.123 365.94 423.212 364.523 423.262 363.524C423.262 363.068 423.262 362.714 423.262 362.436C423.279 362.31 423.279 362.182 423.262 362.056C423.249 362.182 423.249 362.309 423.262 362.436C423.262 362.701 423.262 363.068 423.148 363.524C423.06 364.523 422.946 365.928 422.794 367.724C422.503 371.368 422.098 376.657 421.82 383.198C421.458 390.865 421.56 398.546 422.124 406.201C422.475 410.726 423.075 415.228 423.92 419.688C424.868 424.469 426.102 429.188 427.615 433.821C430.677 443.348 434.27 452.167 436.927 460.391C439.4 467.635 441.072 475.128 441.912 482.735C442.449 487.868 442.312 493.049 441.507 498.146C441.191 499.943 440.913 501.335 440.66 502.271C440.55 502.718 440.461 503.072 440.394 503.334C440.357 503.461 440.335 503.593 440.331 503.726Z"/><path fill="#5C7282" d="M408.497 509.534H468.786L470.152 497.931H408.497V509.534Z"/><path fill="#5C7282" d="M462.308 508.205L454.767 543.012H422.01L414.962 508.205H462.308Z"/><path fill="#5C7282" d="M408.497 509.534C408.497 509.685 421.744 509.774 438.091 509.736C454.438 509.698 467.698 509.521 467.698 509.369C467.698 509.217 454.451 509.116 438.091 509.154C421.731 509.192 408.497 509.369 408.497 509.534Z"/><path fill="#041A39" d="M407.965 509.584C407.965 509.736 421.529 509.863 438.243 509.863C454.957 509.863 468.533 509.736 468.533 509.584C468.533 509.432 454.982 509.293 438.243 509.293C421.504 509.293 407.965 509.42 407.965 509.584Z"/><rect width="331.959" height="47.836" x="111.397" y="73.397" fill="#fff" rx="23.918"/><path fill="#1684F8" d="M141.982 104C145.798 104 148.426 101.318 148.426 97.448C148.426 93.524 145.744 90.842 141.856 90.842H137.248V104H141.982ZM141.64 92.966C144.358 92.966 145.996 94.658 145.996 97.448C145.996 100.184 144.394 101.876 141.766 101.876H139.552V92.966H141.64ZM149.476 99.536C149.476 102.308 151.474 104.216 154.228 104.216C156.982 104.216 158.98 102.308 158.98 99.536C158.98 96.764 156.982 94.856 154.228 94.856C151.474 94.856 149.476 96.764 149.476 99.536ZM151.672 99.536C151.672 97.916 152.716 96.818 154.228 96.818C155.74 96.818 156.784 97.916 156.784 99.536C156.784 101.156 155.74 102.254 154.228 102.254C152.716 102.254 151.672 101.156 151.672 99.536ZM167.701 90.842H165.397V104H167.701V90.842ZM180.225 95.072C179.865 94.982 179.559 94.946 179.253 94.946C178.065 94.946 177.219 95.54 176.841 96.422L176.715 95.126H174.645V104H176.841V99.68C176.841 97.952 177.831 97.106 179.415 97.106H180.225V95.072ZM185.14 104.234C187.462 104.234 189.082 103.064 189.46 101.12H187.426C187.174 101.966 186.382 102.434 185.176 102.434C183.718 102.434 182.89 101.642 182.728 100.076L189.424 100.058V99.392C189.424 96.62 187.732 94.838 185.068 94.838C182.458 94.838 180.64 96.764 180.64 99.554C180.64 102.308 182.494 104.234 185.14 104.234ZM185.086 96.638C186.4 96.638 187.246 97.448 187.246 98.672H182.782C182.998 97.34 183.79 96.638 185.086 96.638ZM193.49 104.234C194.876 104.234 196.082 103.604 196.46 102.686L196.622 104H198.548V98.6C198.548 96.134 197.072 94.838 194.678 94.838C192.266 94.838 190.682 96.098 190.682 98.024H192.554C192.554 97.088 193.274 96.548 194.57 96.548C195.686 96.548 196.406 97.034 196.406 98.24V98.438L193.742 98.636C191.636 98.798 190.448 99.824 190.448 101.462C190.448 103.136 191.6 104.234 193.49 104.234ZM194.21 102.578C193.22 102.578 192.68 102.182 192.68 101.372C192.68 100.652 193.202 100.202 194.57 100.076L196.424 99.932V100.4C196.424 101.768 195.56 102.578 194.21 102.578ZM202.669 104V90.608H200.491V104H202.669ZM206.937 104V90.608H204.759V104H206.937ZM208.216 108.122C208.702 108.248 209.242 108.32 209.854 108.32C211.312 108.32 212.248 107.636 212.914 105.98L217.27 95.108H215.002L212.59 101.588L210.304 95.108H207.982L211.564 104.378L211.312 105.044C210.934 106.088 210.394 106.286 209.53 106.286H208.216V108.122ZM224.831 104H226.973L228.197 100.184C228.647 98.726 228.809 98.096 228.899 97.682C228.971 98.132 229.169 98.978 229.529 100.148L230.753 104H232.805L235.883 95.108H233.561L232.373 98.924C232.211 99.482 231.923 100.544 231.779 101.21C231.671 100.616 231.311 99.284 231.203 98.924L230.015 95.108H227.783L226.559 98.924C226.271 99.806 226.109 100.364 225.947 101.228C225.785 100.4 225.605 99.626 225.407 98.924L224.237 95.108H221.951L224.831 104ZM239.17 104.234C240.556 104.234 241.762 103.604 242.14 102.686L242.302 104H244.228V98.6C244.228 96.134 242.752 94.838 240.358 94.838C237.946 94.838 236.362 96.098 236.362 98.024H238.234C238.234 97.088 238.954 96.548 240.25 96.548C241.366 96.548 242.086 97.034 242.086 98.24V98.438L239.422 98.636C237.316 98.798 236.128 99.824 236.128 101.462C236.128 103.136 237.28 104.234 239.17 104.234ZM239.89 102.578C238.9 102.578 238.36 102.182 238.36 101.372C238.36 100.652 238.882 100.202 240.25 100.076L242.104 99.932V100.4C242.104 101.768 241.24 102.578 239.89 102.578ZM248.331 104V99.212C248.331 97.772 249.159 96.836 250.509 96.836C251.643 96.836 252.381 97.556 252.381 99.05V104H254.577V98.528C254.577 96.224 253.425 94.838 251.193 94.838C249.987 94.838 248.907 95.36 248.349 96.26L248.169 95.108H246.135V104H248.331ZM259.509 104V96.944H261.237V95.108H259.509V92.336H257.313V95.108H255.603V96.944H257.313V104H259.509ZM269.977 104V96.944H271.705V95.108H269.977V92.336H267.781V95.108H266.071V96.944H267.781V104H269.977ZM272.211 99.536C272.211 102.308 274.209 104.216 276.963 104.216C279.717 104.216 281.715 102.308 281.715 99.536C281.715 96.764 279.717 94.856 276.963 94.856C274.209 94.856 272.211 96.764 272.211 99.536ZM274.407 99.536C274.407 97.916 275.451 96.818 276.963 96.818C278.475 96.818 279.519 97.916 279.519 99.536C279.519 101.156 278.475 102.254 276.963 102.254C275.451 102.254 274.407 101.156 274.407 99.536ZM289.841 104L289.985 102.614C290.507 103.64 291.641 104.234 292.973 104.234C295.529 104.234 297.203 102.344 297.203 99.608C297.203 96.8 295.655 94.82 293.117 94.82C291.767 94.82 290.579 95.414 290.003 96.404V90.608H287.807V104H289.841ZM290.021 99.518C290.021 97.916 291.011 96.8 292.523 96.8C294.071 96.8 294.989 97.934 294.989 99.518C294.989 101.102 294.071 102.218 292.523 102.218C291.011 102.218 290.021 101.12 290.021 99.518ZM302.679 104.234C305.001 104.234 306.621 103.064 306.999 101.12H304.965C304.713 101.966 303.921 102.434 302.715 102.434C301.257 102.434 300.429 101.642 300.267 100.076L306.963 100.058V99.392C306.963 96.62 305.271 94.838 302.607 94.838C299.997 94.838 298.179 96.764 298.179 99.554C298.179 102.308 300.033 104.234 302.679 104.234ZM302.625 96.638C303.939 96.638 304.785 97.448 304.785 98.672H300.321C300.537 97.34 301.329 96.638 302.625 96.638ZM315.719 104.234C317.105 104.234 318.311 103.604 318.689 102.686L318.851 104H320.777V98.6C320.777 96.134 319.301 94.838 316.907 94.838C314.495 94.838 312.911 96.098 312.911 98.024H314.783C314.783 97.088 315.503 96.548 316.799 96.548C317.915 96.548 318.635 97.034 318.635 98.24V98.438L315.971 98.636C313.865 98.798 312.677 99.824 312.677 101.462C312.677 103.136 313.829 104.234 315.719 104.234ZM316.439 102.578C315.449 102.578 314.909 102.182 314.909 101.372C314.909 100.652 315.431 100.202 316.799 100.076L318.653 99.932V100.4C318.653 101.768 317.789 102.578 316.439 102.578ZM324.88 104V99.212C324.88 97.772 325.708 96.836 327.058 96.836C328.192 96.836 328.93 97.556 328.93 99.05V104H331.126V98.528C331.126 96.224 329.974 94.838 327.742 94.838C326.536 94.838 325.456 95.36 324.898 96.26L324.718 95.108H322.684V104H324.88ZM346.131 104V101.876H340.263V98.384H345.519V96.35H340.263V92.966H346.131V90.842H337.959V104H346.131ZM350.251 104V99.212C350.251 97.772 351.079 96.836 352.429 96.836C353.563 96.836 354.301 97.556 354.301 99.05V104H356.497V98.528C356.497 96.224 355.345 94.838 353.113 94.838C351.907 94.838 350.827 95.36 350.269 96.26L350.089 95.108H348.055V104H350.251ZM357.901 99.356C357.901 101.93 359.557 103.82 362.077 103.82C363.355 103.82 364.453 103.298 365.011 102.47V103.946C365.011 105.422 364.039 106.376 362.527 106.376C361.177 106.376 360.295 105.692 360.151 104.54H357.955C358.225 106.916 359.971 108.374 362.527 108.374C365.407 108.374 367.189 106.52 367.189 103.55V95.108H365.155L365.029 96.332C364.507 95.378 363.463 94.82 362.131 94.82C359.593 94.82 357.901 96.764 357.901 99.356ZM360.115 99.302C360.115 97.844 361.051 96.746 362.509 96.746C364.039 96.746 364.957 97.79 364.957 99.302C364.957 100.85 364.021 101.912 362.509 101.912C361.069 101.912 360.115 100.796 360.115 99.302ZM370.309 93.326C371.029 93.326 371.623 92.732 371.623 91.994C371.623 91.256 371.029 90.68 370.309 90.68C369.553 90.68 368.959 91.256 368.959 91.994C368.959 92.732 369.553 93.326 370.309 93.326ZM369.211 104H371.407V95.108H369.211V104ZM375.622 104V99.212C375.622 97.772 376.45 96.836 377.8 96.836C378.934 96.836 379.672 97.556 379.672 99.05V104H381.868V98.528C381.868 96.224 380.716 94.838 378.484 94.838C377.278 94.838 376.198 95.36 375.64 96.26L375.46 95.108H373.426V104H375.622ZM387.754 104.234C390.076 104.234 391.696 103.064 392.074 101.12H390.04C389.788 101.966 388.996 102.434 387.79 102.434C386.332 102.434 385.504 101.642 385.342 100.076L392.038 100.058V99.392C392.038 96.62 390.346 94.838 387.682 94.838C385.072 94.838 383.254 96.764 383.254 99.554C383.254 102.308 385.108 104.234 387.754 104.234ZM387.7 96.638C389.014 96.638 389.86 97.448 389.86 98.672H385.396C385.612 97.34 386.404 96.638 387.7 96.638ZM397.523 104.234C399.845 104.234 401.465 103.064 401.843 101.12H399.809C399.557 101.966 398.765 102.434 397.559 102.434C396.101 102.434 395.273 101.642 395.111 100.076L401.807 100.058V99.392C401.807 96.62 400.115 94.838 397.451 94.838C394.841 94.838 393.023 96.764 393.023 99.554C393.023 102.308 394.877 104.234 397.523 104.234ZM397.469 96.638C398.783 96.638 399.629 97.448 399.629 98.672H395.165C395.381 97.34 396.173 96.638 397.469 96.638ZM408.895 95.072C408.535 94.982 408.229 94.946 407.923 94.946C406.735 94.946 405.889 95.54 405.511 96.422L405.385 95.126H403.315V104H405.511V99.68C405.511 97.952 406.501 97.106 408.085 97.106H408.895V95.072ZM414.523 100.634V100.22C414.523 99.302 415.207 98.762 416.089 98.132C417.133 97.394 418.375 96.476 418.375 94.55C418.375 92.156 416.755 90.608 414.073 90.608C411.463 90.608 409.573 92.426 409.573 95H411.859C411.859 93.614 412.741 92.66 414.019 92.66C415.279 92.66 416.035 93.47 416.035 94.694C416.035 95.738 415.297 96.35 414.487 96.998C413.533 97.736 412.525 98.582 412.525 100.22V100.634H414.523ZM413.605 104.234C414.397 104.234 415.063 103.568 415.063 102.812C415.063 102.02 414.397 101.372 413.605 101.372C412.795 101.372 412.147 102.02 412.147 102.812C412.147 103.586 412.795 104.234 413.605 104.234Z"/><rect width="331.959" height="47.836" x="111.397" y="73.397" stroke="#1684F8" stroke-width="2.795" rx="23.918"/><rect width="299.355" height="47.836" x="36.844" y="140.61" fill="#1684F8" rx="23.918"/><path fill="#fff" d="M64.6855 166.028V171.212H66.9895V166.028L71.4175 158.054H68.9155L66.3415 162.842C66.1075 163.274 66.0355 163.49 65.8735 163.814C65.7295 163.49 65.6035 163.202 65.4055 162.842L62.8135 158.054H60.2395L64.6855 166.028ZM80.9707 171.212V169.088H75.1027V165.596H80.3587V163.562H75.1027V160.178H80.9707V158.054H72.7987V171.212H80.9707ZM82.4627 161.726C82.4627 163.742 83.6327 165.02 85.8647 165.506L87.9527 165.974C89.0327 166.208 89.4827 166.73 89.4827 167.612C89.4827 168.71 88.5107 169.376 86.9807 169.376C85.5047 169.376 84.6047 168.71 84.5867 167.594H82.2827C82.3367 169.952 84.1727 171.446 86.9807 171.446C89.8787 171.446 91.7867 169.862 91.7867 167.414C91.7867 165.452 90.6887 164.3 88.4387 163.814L86.3687 163.364C85.2707 163.112 84.7667 162.59 84.7667 161.654C84.7667 160.556 85.6847 159.872 87.1067 159.872C88.4027 159.872 89.2127 160.538 89.2667 161.672H91.5707C91.4987 159.296 89.8067 157.82 87.1427 157.82C84.3707 157.82 82.4627 159.422 82.4627 161.726ZM95.907 167.27C96.159 165.884 96.339 163.472 96.339 161.078V158.054H93.747V161.078C93.747 163.418 93.909 165.83 94.143 167.27H95.907ZM95.043 171.446C95.817 171.446 96.483 170.798 96.483 170.024C96.483 169.232 95.817 168.584 95.043 168.584C94.233 168.584 93.567 169.232 93.567 170.024C93.567 170.798 94.233 171.446 95.043 171.446ZM111.91 171.212V169.088H106.042V165.596H111.298V163.562H106.042V160.178H111.91V158.054H103.738V171.212H111.91ZM116.03 171.212V166.424C116.03 164.984 116.858 164.048 118.208 164.048C119.342 164.048 120.08 164.768 120.08 166.262V171.212H122.276V165.74C122.276 163.436 121.124 162.05 118.892 162.05C117.686 162.05 116.606 162.572 116.048 163.472L115.868 162.32H113.834V171.212H116.03ZM123.68 166.568C123.68 169.142 125.336 171.032 127.856 171.032C129.134 171.032 130.232 170.51 130.79 169.682V171.158C130.79 172.634 129.818 173.588 128.306 173.588C126.956 173.588 126.074 172.904 125.93 171.752H123.734C124.004 174.128 125.75 175.586 128.306 175.586C131.186 175.586 132.968 173.732 132.968 170.762V162.32H130.934L130.808 163.544C130.286 162.59 129.242 162.032 127.91 162.032C125.372 162.032 123.68 163.976 123.68 166.568ZM125.894 166.514C125.894 165.056 126.83 163.958 128.288 163.958C129.818 163.958 130.736 165.002 130.736 166.514C130.736 168.062 129.8 169.124 128.288 169.124C126.848 169.124 125.894 168.008 125.894 166.514ZM136.088 160.538C136.808 160.538 137.402 159.944 137.402 159.206C137.402 158.468 136.808 157.892 136.088 157.892C135.332 157.892 134.738 158.468 134.738 159.206C134.738 159.944 135.332 160.538 136.088 160.538ZM134.99 171.212H137.186V162.32H134.99V171.212ZM141.401 171.212V166.424C141.401 164.984 142.229 164.048 143.579 164.048C144.713 164.048 145.451 164.768 145.451 166.262V171.212H147.647V165.74C147.647 163.436 146.495 162.05 144.263 162.05C143.057 162.05 141.977 162.572 141.419 163.472L141.239 162.32H139.205V171.212H141.401ZM153.533 171.446C155.855 171.446 157.475 170.276 157.853 168.332H155.819C155.567 169.178 154.775 169.646 153.569 169.646C152.111 169.646 151.283 168.854 151.121 167.288L157.817 167.27V166.604C157.817 163.832 156.125 162.05 153.461 162.05C150.851 162.05 149.033 163.976 149.033 166.766C149.033 169.52 150.887 171.446 153.533 171.446ZM153.479 163.85C154.793 163.85 155.639 164.66 155.639 165.884H151.175C151.391 164.552 152.183 163.85 153.479 163.85ZM163.302 171.446C165.624 171.446 167.244 170.276 167.622 168.332H165.588C165.336 169.178 164.544 169.646 163.338 169.646C161.88 169.646 161.052 168.854 160.89 167.288L167.586 167.27V166.604C167.586 163.832 165.894 162.05 163.23 162.05C160.62 162.05 158.802 163.976 158.802 166.766C158.802 169.52 160.656 171.446 163.302 171.446ZM163.248 163.85C164.562 163.85 165.408 164.66 165.408 165.884H160.944C161.16 164.552 161.952 163.85 163.248 163.85ZM174.674 162.284C174.314 162.194 174.008 162.158 173.702 162.158C172.514 162.158 171.668 162.752 171.29 163.634L171.164 162.338H169.094V171.212H171.29V166.892C171.29 165.164 172.28 164.318 173.864 164.318H174.674V162.284ZM177.008 160.538C177.728 160.538 178.322 159.944 178.322 159.206C178.322 158.468 177.728 157.892 177.008 157.892C176.252 157.892 175.658 158.468 175.658 159.206C175.658 159.944 176.252 160.538 177.008 160.538ZM175.91 171.212H178.106V162.32H175.91V171.212ZM182.321 171.212V166.424C182.321 164.984 183.149 164.048 184.499 164.048C185.633 164.048 186.371 164.768 186.371 166.262V171.212H188.567V165.74C188.567 163.436 187.415 162.05 185.183 162.05C183.977 162.05 182.897 162.572 182.339 163.472L182.159 162.32H180.125V171.212H182.321ZM189.971 166.568C189.971 169.142 191.627 171.032 194.147 171.032C195.425 171.032 196.523 170.51 197.081 169.682V171.158C197.081 172.634 196.109 173.588 194.597 173.588C193.247 173.588 192.365 172.904 192.221 171.752H190.025C190.295 174.128 192.041 175.586 194.597 175.586C197.477 175.586 199.259 173.732 199.259 170.762V162.32H197.225L197.099 163.544C196.577 162.59 195.533 162.032 194.201 162.032C191.663 162.032 189.971 163.976 189.971 166.568ZM192.185 166.514C192.185 165.056 193.121 163.958 194.579 163.958C196.109 163.958 197.027 165.002 197.027 166.514C197.027 168.062 196.091 169.124 194.579 169.124C193.139 169.124 192.185 168.008 192.185 166.514ZM206.981 160.538C207.701 160.538 208.295 159.944 208.295 159.206C208.295 158.468 207.701 157.892 206.981 157.892C206.225 157.892 205.631 158.468 205.631 159.206C205.631 159.944 206.225 160.538 206.981 160.538ZM205.883 171.212H208.079V162.32H205.883V171.212ZM209.414 168.512C209.414 170.258 210.818 171.446 213.032 171.446C215.228 171.446 216.758 170.33 216.758 168.53C216.758 167.162 216.002 166.478 214.508 166.136L212.906 165.758C212.15 165.578 211.754 165.254 211.754 164.75C211.754 164.084 212.258 163.688 213.122 163.688C213.968 163.688 214.472 164.174 214.49 164.93H216.578C216.56 163.202 215.21 162.05 213.212 162.05C211.16 162.05 209.684 163.094 209.684 164.84C209.684 166.262 210.458 167.018 212.06 167.378L213.662 167.756C214.454 167.936 214.688 168.26 214.688 168.71C214.688 169.358 214.13 169.772 213.104 169.772C212.096 169.772 211.52 169.286 211.502 168.512H209.414ZM224.977 171.212V166.172C224.977 164.732 225.823 164.048 226.867 164.048C227.911 164.048 228.577 164.714 228.577 165.956V171.212H230.773V166.172C230.773 164.714 231.583 164.03 232.645 164.03C233.689 164.03 234.373 164.696 234.373 165.974V171.212H236.551V165.398C236.551 163.346 235.363 162.05 233.203 162.05C231.853 162.05 230.809 162.716 230.359 163.742C229.891 162.716 228.955 162.05 227.605 162.05C226.327 162.05 225.427 162.626 224.977 163.364L224.797 162.32H222.781V171.212H224.977ZM237.507 175.334C237.993 175.46 238.533 175.532 239.145 175.532C240.603 175.532 241.539 174.848 242.205 173.192L246.561 162.32H244.293L241.881 168.8L239.595 162.32H237.273L240.855 171.59L240.603 172.256C240.225 173.3 239.685 173.498 238.821 173.498H237.507V175.334ZM252.16 175.334H254.356V170.024C254.914 170.924 256.066 171.446 257.398 171.446C260.044 171.446 261.556 169.43 261.556 166.658C261.556 163.868 259.9 162.05 257.398 162.05C256.048 162.05 254.878 162.644 254.338 163.67L254.194 162.32H252.16V175.334ZM254.374 166.766C254.374 165.164 255.364 164.048 256.876 164.048C258.424 164.048 259.342 165.182 259.342 166.766C259.342 168.35 258.424 169.466 256.876 169.466C255.364 169.466 254.374 168.368 254.374 166.766ZM265.701 171.446C267.087 171.446 268.293 170.816 268.671 169.898L268.833 171.212H270.759V165.812C270.759 163.346 269.283 162.05 266.889 162.05C264.477 162.05 262.893 163.31 262.893 165.236H264.765C264.765 164.3 265.485 163.76 266.781 163.76C267.897 163.76 268.617 164.246 268.617 165.452V165.65L265.953 165.848C263.847 166.01 262.659 167.036 262.659 168.674C262.659 170.348 263.811 171.446 265.701 171.446ZM266.421 169.79C265.431 169.79 264.891 169.394 264.891 168.584C264.891 167.864 265.413 167.414 266.781 167.288L268.635 167.144V167.612C268.635 168.98 267.771 169.79 266.421 169.79ZM271.982 168.512C271.982 170.258 273.386 171.446 275.6 171.446C277.796 171.446 279.326 170.33 279.326 168.53C279.326 167.162 278.57 166.478 277.076 166.136L275.474 165.758C274.718 165.578 274.322 165.254 274.322 164.75C274.322 164.084 274.826 163.688 275.69 163.688C276.536 163.688 277.04 164.174 277.058 164.93H279.146C279.128 163.202 277.778 162.05 275.78 162.05C273.728 162.05 272.252 163.094 272.252 164.84C272.252 166.262 273.026 167.018 274.628 167.378L276.23 167.756C277.022 167.936 277.256 168.26 277.256 168.71C277.256 169.358 276.698 169.772 275.672 169.772C274.664 169.772 274.088 169.286 274.07 168.512H271.982ZM280.064 168.512C280.064 170.258 281.468 171.446 283.682 171.446C285.878 171.446 287.408 170.33 287.408 168.53C287.408 167.162 286.652 166.478 285.158 166.136L283.556 165.758C282.8 165.578 282.404 165.254 282.404 164.75C282.404 164.084 282.908 163.688 283.772 163.688C284.618 163.688 285.122 164.174 285.14 164.93H287.228C287.21 163.202 285.86 162.05 283.862 162.05C281.81 162.05 280.334 163.094 280.334 164.84C280.334 166.262 281.108 167.018 282.71 167.378L284.312 167.756C285.104 167.936 285.338 168.26 285.338 168.71C285.338 169.358 284.78 169.772 283.754 169.772C282.746 169.772 282.17 169.286 282.152 168.512H280.064ZM289.928 160.538C290.648 160.538 291.242 159.944 291.242 159.206C291.242 158.468 290.648 157.892 289.928 157.892C289.172 157.892 288.578 158.468 288.578 159.206C288.578 159.944 289.172 160.538 289.928 160.538ZM288.83 171.212H291.026V162.32H288.83V171.212ZM292.523 166.748C292.523 169.52 294.521 171.428 297.275 171.428C300.029 171.428 302.027 169.52 302.027 166.748C302.027 163.976 300.029 162.068 297.275 162.068C294.521 162.068 292.523 163.976 292.523 166.748ZM294.719 166.748C294.719 165.128 295.763 164.03 297.275 164.03C298.787 164.03 299.831 165.128 299.831 166.748C299.831 168.368 298.787 169.466 297.275 169.466C295.763 169.466 294.719 168.368 294.719 166.748ZM305.714 171.212V166.424C305.714 164.984 306.542 164.048 307.892 164.048C309.026 164.048 309.764 164.768 309.764 166.262V171.212H311.96V165.74C311.96 163.436 310.808 162.05 308.576 162.05C307.37 162.05 306.29 162.572 305.732 163.472L305.552 162.32H303.518V171.212H305.714Z"/><rect width="299.355" height="47.836" x="36.844" y="140.61" stroke="#1684F8" stroke-width="2.795" rx="23.918"/><path stroke="#1684F8" stroke-width="2.795" d="M365.223 262.763C365.223 269.183 359.965 274.411 353.449 274.411C346.934 274.411 341.675 269.183 341.675 262.763C341.675 256.342 346.934 251.115 353.449 251.115C359.965 251.115 365.223 256.342 365.223 262.763Z"/><path stroke="#1684F8" stroke-width="2.795" d="M332.455 276.126C332.455 280.086 329.21 283.32 325.178 283.32C321.147 283.32 317.902 280.086 317.902 276.126C317.902 272.166 321.147 268.933 325.178 268.933C329.21 268.933 332.455 272.166 332.455 276.126Z"/><rect width="270.477" height="47.836" x="349.397" y="191.397" fill="#1684F8" rx="23.918"/><path fill="#fff" d="M375.625 222V212.676L381.817 222H384.085V208.842H381.817V218.166L375.643 208.842H373.357V222H375.625ZM385.901 217.536C385.901 220.308 387.899 222.216 390.653 222.216C393.407 222.216 395.405 220.308 395.405 217.536C395.405 214.764 393.407 212.856 390.653 212.856C387.899 212.856 385.901 214.764 385.901 217.536ZM388.097 217.536C388.097 215.916 389.141 214.818 390.653 214.818C392.165 214.818 393.209 215.916 393.209 217.536C393.209 219.156 392.165 220.254 390.653 220.254C389.141 220.254 388.097 219.156 388.097 217.536ZM399.506 218.058C399.758 216.672 399.938 214.26 399.938 211.866V208.842H397.346V211.866C397.346 214.206 397.508 216.618 397.742 218.058H399.506ZM398.642 222.234C399.416 222.234 400.082 221.586 400.082 220.812C400.082 220.02 399.416 219.372 398.642 219.372C397.832 219.372 397.166 220.02 397.166 220.812C397.166 221.586 397.832 222.234 398.642 222.234ZM409.641 208.842H407.337V222H409.641V208.842ZM418.547 222H420.689L421.913 218.184C422.363 216.726 422.525 216.096 422.615 215.682C422.687 216.132 422.885 216.978 423.245 218.148L424.469 222H426.521L429.599 213.108H427.277L426.089 216.924C425.927 217.482 425.639 218.544 425.495 219.21C425.387 218.616 425.027 217.284 424.919 216.924L423.731 213.108H421.499L420.275 216.924C419.987 217.806 419.825 218.364 419.663 219.228C419.501 218.4 419.321 217.626 419.123 216.924L417.953 213.108H415.667L418.547 222ZM432.886 222.234C434.272 222.234 435.478 221.604 435.856 220.686L436.018 222H437.944V216.6C437.944 214.134 436.468 212.838 434.074 212.838C431.662 212.838 430.078 214.098 430.078 216.024H431.95C431.95 215.088 432.67 214.548 433.966 214.548C435.082 214.548 435.802 215.034 435.802 216.24V216.438L433.138 216.636C431.032 216.798 429.844 217.824 429.844 219.462C429.844 221.136 430.996 222.234 432.886 222.234ZM433.606 220.578C432.616 220.578 432.076 220.182 432.076 219.372C432.076 218.652 432.598 218.202 433.966 218.076L435.82 217.932V218.4C435.82 219.768 434.956 220.578 433.606 220.578ZM442.047 222V217.212C442.047 215.772 442.875 214.836 444.225 214.836C445.359 214.836 446.097 215.556 446.097 217.05V222H448.293V216.528C448.293 214.224 447.141 212.838 444.909 212.838C443.703 212.838 442.623 213.36 442.065 214.26L441.885 213.108H439.851V222H442.047ZM453.224 222V214.944H454.952V213.108H453.224V210.336H451.028V213.108H449.318V214.944H451.028V222H453.224ZM463.693 222V214.944H465.421V213.108H463.693V210.336H461.497V213.108H459.787V214.944H461.497V222H463.693ZM465.927 217.536C465.927 220.308 467.925 222.216 470.679 222.216C473.433 222.216 475.431 220.308 475.431 217.536C475.431 214.764 473.433 212.856 470.679 212.856C467.925 212.856 465.927 214.764 465.927 217.536ZM468.123 217.536C468.123 215.916 469.167 214.818 470.679 214.818C472.191 214.818 473.235 215.916 473.235 217.536C473.235 219.156 472.191 220.254 470.679 220.254C469.167 220.254 468.123 219.156 468.123 217.536ZM480.839 219.3C480.839 221.046 482.243 222.234 484.457 222.234C486.653 222.234 488.183 221.118 488.183 219.318C488.183 217.95 487.427 217.266 485.933 216.924L484.331 216.546C483.575 216.366 483.179 216.042 483.179 215.538C483.179 214.872 483.683 214.476 484.547 214.476C485.393 214.476 485.897 214.962 485.915 215.718H488.003C487.985 213.99 486.635 212.838 484.637 212.838C482.585 212.838 481.109 213.882 481.109 215.628C481.109 217.05 481.883 217.806 483.485 218.166L485.087 218.544C485.879 218.724 486.113 219.048 486.113 219.498C486.113 220.146 485.555 220.56 484.529 220.56C483.521 220.56 482.945 220.074 482.927 219.3H480.839ZM491.321 222H493.463L494.687 218.184C495.137 216.726 495.299 216.096 495.389 215.682C495.461 216.132 495.659 216.978 496.019 218.148L497.243 222H499.295L502.373 213.108H500.051L498.863 216.924C498.701 217.482 498.413 218.544 498.269 219.21C498.161 218.616 497.801 217.284 497.693 216.924L496.505 213.108H494.273L493.049 216.924C492.761 217.806 492.599 218.364 492.437 219.228C492.275 218.4 492.095 217.626 491.897 216.924L490.727 213.108H488.441L491.321 222ZM504.55 211.326C505.27 211.326 505.864 210.732 505.864 209.994C505.864 209.256 505.27 208.68 504.55 208.68C503.794 208.68 503.2 209.256 503.2 209.994C503.2 210.732 503.794 211.326 504.55 211.326ZM503.452 222H505.648V213.108H503.452V222ZM510.691 222V214.944H512.419V213.108H510.691V210.336H508.495V213.108H506.785V214.944H508.495V222H510.691ZM512.925 217.536C512.925 220.362 514.689 222.234 517.389 222.234C519.711 222.234 521.439 220.812 521.709 218.742H519.495C519.261 219.714 518.487 220.254 517.389 220.254C515.985 220.254 515.121 219.21 515.121 217.536C515.121 215.862 516.057 214.8 517.461 214.8C518.505 214.8 519.243 215.322 519.495 216.33H521.691C521.457 214.188 519.801 212.838 517.371 212.838C514.743 212.838 512.925 214.782 512.925 217.536ZM525.289 222V217.14C525.289 215.808 526.099 214.836 527.485 214.836C528.601 214.836 529.339 215.556 529.339 217.05V222H531.535V216.528C531.535 214.224 530.383 212.838 528.187 212.838C526.909 212.838 525.865 213.396 525.307 214.26V208.608H523.093V222H525.289ZM537.522 217.536C537.522 220.362 539.286 222.234 541.986 222.234C544.308 222.234 546.036 220.812 546.306 218.742H544.092C543.858 219.714 543.084 220.254 541.986 220.254C540.582 220.254 539.718 219.21 539.718 217.536C539.718 215.862 540.654 214.8 542.058 214.8C543.102 214.8 543.84 215.322 544.092 216.33H546.288C546.054 214.188 544.398 212.838 541.968 212.838C539.34 212.838 537.522 214.782 537.522 217.536ZM550.337 222.234C551.723 222.234 552.929 221.604 553.307 220.686L553.469 222H555.395V216.6C555.395 214.134 553.919 212.838 551.525 212.838C549.113 212.838 547.529 214.098 547.529 216.024H549.401C549.401 215.088 550.121 214.548 551.417 214.548C552.533 214.548 553.253 215.034 553.253 216.24V216.438L550.589 216.636C548.483 216.798 547.295 217.824 547.295 219.462C547.295 221.136 548.447 222.234 550.337 222.234ZM551.057 220.578C550.067 220.578 549.527 220.182 549.527 219.372C549.527 218.652 550.049 218.202 551.417 218.076L553.271 217.932V218.4C553.271 219.768 552.407 220.578 551.057 220.578ZM562.882 213.072C562.522 212.982 562.216 212.946 561.91 212.946C560.722 212.946 559.876 213.54 559.498 214.422L559.372 213.126H557.302V222H559.498V217.68C559.498 215.952 560.488 215.106 562.072 215.106H562.882V213.072ZM567.798 222.234C570.12 222.234 571.74 221.064 572.118 219.12H570.084C569.832 219.966 569.04 220.434 567.834 220.434C566.376 220.434 565.548 219.642 565.386 218.076L572.082 218.058V217.392C572.082 214.62 570.39 212.838 567.726 212.838C565.116 212.838 563.298 214.764 563.298 217.554C563.298 220.308 565.152 222.234 567.798 222.234ZM567.744 214.638C569.058 214.638 569.904 215.448 569.904 216.672H565.44C565.656 215.34 566.448 214.638 567.744 214.638ZM577.567 222.234C579.889 222.234 581.509 221.064 581.887 219.12H579.853C579.601 219.966 578.809 220.434 577.603 220.434C576.145 220.434 575.317 219.642 575.155 218.076L581.851 218.058V217.392C581.851 214.62 580.159 212.838 577.495 212.838C574.885 212.838 573.067 214.764 573.067 217.554C573.067 220.308 574.921 222.234 577.567 222.234ZM577.513 214.638C578.827 214.638 579.673 215.448 579.673 216.672H575.209C575.425 215.34 576.217 214.638 577.513 214.638ZM588.939 213.072C588.579 212.982 588.273 212.946 587.967 212.946C586.779 212.946 585.933 213.54 585.555 214.422L585.429 213.126H583.359V222H585.555V217.68C585.555 215.952 586.545 215.106 588.129 215.106H588.939V213.072ZM589.491 219.3C589.491 221.046 590.895 222.234 593.109 222.234C595.305 222.234 596.835 221.118 596.835 219.318C596.835 217.95 596.079 217.266 594.585 216.924L592.983 216.546C592.227 216.366 591.831 216.042 591.831 215.538C591.831 214.872 592.335 214.476 593.199 214.476C594.045 214.476 594.549 214.962 594.567 215.718H596.655C596.637 213.99 595.287 212.838 593.289 212.838C591.237 212.838 589.761 213.882 589.761 215.628C589.761 217.05 590.535 217.806 592.137 218.166L593.739 218.544C594.531 218.724 594.765 219.048 594.765 219.498C594.765 220.146 594.207 220.56 593.181 220.56C592.173 220.56 591.597 220.074 591.579 219.3H589.491Z"/><rect width="270.477" height="47.836" x="349.397" y="191.397" stroke="#1684F8" stroke-width="2.795" rx="23.918"/><rect width="260.23" height="47.836" x="362.755" y="131.397" fill="#fff" rx="23.918"/><path fill="#1684F8" d="M388.594 148.842H386.29V162H388.594V148.842ZM397.501 162H399.643L400.867 158.184C401.317 156.726 401.479 156.096 401.569 155.682C401.641 156.132 401.839 156.978 402.199 158.148L403.423 162H405.475L408.553 153.108H406.231L405.043 156.924C404.881 157.482 404.593 158.544 404.449 159.21C404.341 158.616 403.981 157.284 403.873 156.924L402.685 153.108H400.453L399.229 156.924C398.941 157.806 398.779 158.364 398.617 159.228C398.455 158.4 398.275 157.626 398.077 156.924L396.907 153.108H394.621L397.501 162ZM411.839 162.234C413.225 162.234 414.431 161.604 414.809 160.686L414.971 162H416.897V156.6C416.897 154.134 415.421 152.838 413.027 152.838C410.615 152.838 409.031 154.098 409.031 156.024H410.903C410.903 155.088 411.623 154.548 412.919 154.548C414.035 154.548 414.755 155.034 414.755 156.24V156.438L412.091 156.636C409.985 156.798 408.797 157.824 408.797 159.462C408.797 161.136 409.949 162.234 411.839 162.234ZM412.559 160.578C411.569 160.578 411.029 160.182 411.029 159.372C411.029 158.652 411.551 158.202 412.919 158.076L414.773 157.932V158.4C414.773 159.768 413.909 160.578 412.559 160.578ZM421 162V157.212C421 155.772 421.828 154.836 423.178 154.836C424.312 154.836 425.05 155.556 425.05 157.05V162H427.246V156.528C427.246 154.224 426.094 152.838 423.862 152.838C422.656 152.838 421.576 153.36 421.018 154.26L420.838 153.108H418.804V162H421ZM432.178 162V154.944H433.906V153.108H432.178V150.336H429.982V153.108H428.272V154.944H429.982V162H432.178ZM441.657 162L441.801 160.614C442.323 161.64 443.457 162.234 444.789 162.234C447.345 162.234 449.019 160.344 449.019 157.608C449.019 154.8 447.471 152.82 444.933 152.82C443.583 152.82 442.395 153.414 441.819 154.404V148.608H439.623V162H441.657ZM441.837 157.518C441.837 155.916 442.827 154.8 444.339 154.8C445.887 154.8 446.805 155.934 446.805 157.518C446.805 159.102 445.887 160.218 444.339 160.218C442.827 160.218 441.837 159.12 441.837 157.518ZM454.495 162.234C456.817 162.234 458.437 161.064 458.815 159.12H456.781C456.529 159.966 455.737 160.434 454.531 160.434C453.073 160.434 452.245 159.642 452.083 158.076L458.779 158.058V157.392C458.779 154.62 457.087 152.838 454.423 152.838C451.813 152.838 449.995 154.764 449.995 157.554C449.995 160.308 451.849 162.234 454.495 162.234ZM454.441 154.638C455.755 154.638 456.601 155.448 456.601 156.672H452.137C452.353 155.34 453.145 154.638 454.441 154.638ZM463.223 162V154.944H464.951V153.108H463.223V150.336H461.027V153.108H459.317V154.944H461.027V162H463.223ZM469.336 162V154.944H471.064V153.108H469.336V150.336H467.14V153.108H465.43V154.944H467.14V162H469.336ZM476.069 162.234C478.391 162.234 480.011 161.064 480.389 159.12H478.355C478.103 159.966 477.311 160.434 476.105 160.434C474.647 160.434 473.819 159.642 473.657 158.076L480.353 158.058V157.392C480.353 154.62 478.661 152.838 475.997 152.838C473.387 152.838 471.569 154.764 471.569 157.554C471.569 160.308 473.423 162.234 476.069 162.234ZM476.015 154.638C477.329 154.638 478.175 155.448 478.175 156.672H473.711C473.927 155.34 474.719 154.638 476.015 154.638ZM487.441 153.072C487.081 152.982 486.775 152.946 486.469 152.946C485.281 152.946 484.435 153.54 484.057 154.422L483.931 153.126H481.861V162H484.057V157.68C484.057 155.952 485.047 155.106 486.631 155.106H487.441V153.072ZM492.757 157.536C492.757 160.308 494.755 162.216 497.509 162.216C500.263 162.216 502.261 160.308 502.261 157.536C502.261 154.764 500.263 152.856 497.509 152.856C494.755 152.856 492.757 154.764 492.757 157.536ZM494.953 157.536C494.953 155.916 495.997 154.818 497.509 154.818C499.021 154.818 500.065 155.916 500.065 157.536C500.065 159.156 499.021 160.254 497.509 160.254C495.997 160.254 494.953 159.156 494.953 157.536ZM503.752 166.122H505.948V160.812C506.506 161.712 507.658 162.234 508.99 162.234C511.636 162.234 513.148 160.218 513.148 157.446C513.148 154.656 511.492 152.838 508.99 152.838C507.64 152.838 506.47 153.432 505.93 154.458L505.786 153.108H503.752V166.122ZM505.966 157.554C505.966 155.952 506.956 154.836 508.468 154.836C510.016 154.836 510.934 155.97 510.934 157.554C510.934 159.138 510.016 160.254 508.468 160.254C506.956 160.254 505.966 159.156 505.966 157.554ZM514.646 166.122H516.842V160.812C517.4 161.712 518.552 162.234 519.884 162.234C522.53 162.234 524.042 160.218 524.042 157.446C524.042 154.656 522.386 152.838 519.884 152.838C518.534 152.838 517.364 153.432 516.824 154.458L516.68 153.108H514.646V166.122ZM516.86 157.554C516.86 155.952 517.85 154.836 519.362 154.836C520.91 154.836 521.828 155.97 521.828 157.554C521.828 159.138 520.91 160.254 519.362 160.254C517.85 160.254 516.86 159.156 516.86 157.554ZM525.019 157.536C525.019 160.308 527.017 162.216 529.771 162.216C532.525 162.216 534.523 160.308 534.523 157.536C534.523 154.764 532.525 152.856 529.771 152.856C527.017 152.856 525.019 154.764 525.019 157.536ZM527.215 157.536C527.215 155.916 528.259 154.818 529.771 154.818C531.283 154.818 532.327 155.916 532.327 157.536C532.327 159.156 531.283 160.254 529.771 160.254C528.259 160.254 527.215 159.156 527.215 157.536ZM541.593 153.072C541.233 152.982 540.927 152.946 540.621 152.946C539.433 152.946 538.587 153.54 538.209 154.422L538.083 153.126H536.013V162H538.209V157.68C538.209 155.952 539.199 155.106 540.783 155.106H541.593V153.072ZM546.205 162V154.944H547.933V153.108H546.205V150.336H544.009V153.108H542.299V154.944H544.009V162H546.205ZM555.078 153.108V157.77C555.078 159.462 554.412 160.272 553.026 160.272C551.802 160.272 551.136 159.588 551.136 157.896V153.108H548.94V158.67C548.94 160.848 550.146 162.234 552.198 162.234C553.386 162.234 554.538 161.658 555.078 160.812L555.24 162H557.274V153.108H555.078ZM561.489 162V157.212C561.489 155.772 562.317 154.836 563.667 154.836C564.801 154.836 565.539 155.556 565.539 157.05V162H567.735V156.528C567.735 154.224 566.583 152.838 564.351 152.838C563.145 152.838 562.065 153.36 561.507 154.26L561.327 153.108H559.293V162H561.489ZM570.74 151.326C571.46 151.326 572.054 150.732 572.054 149.994C572.054 149.256 571.46 148.68 570.74 148.68C569.984 148.68 569.39 149.256 569.39 149.994C569.39 150.732 569.984 151.326 570.74 151.326ZM569.642 162H571.838V153.108H569.642V162ZM576.881 162V154.944H578.609V153.108H576.881V150.336H574.685V153.108H572.975V154.944H574.685V162H576.881ZM580.822 151.326C581.542 151.326 582.136 150.732 582.136 149.994C582.136 149.256 581.542 148.68 580.822 148.68C580.066 148.68 579.472 149.256 579.472 149.994C579.472 150.732 580.066 151.326 580.822 151.326ZM579.724 162H581.92V153.108H579.724V162ZM587.917 162.234C590.239 162.234 591.859 161.064 592.237 159.12H590.203C589.951 159.966 589.159 160.434 587.953 160.434C586.495 160.434 585.667 159.642 585.505 158.076L592.201 158.058V157.392C592.201 154.62 590.509 152.838 587.845 152.838C585.235 152.838 583.417 154.764 583.417 157.554C583.417 160.308 585.271 162.234 587.917 162.234ZM587.863 154.638C589.177 154.638 590.023 155.448 590.023 156.672H585.559C585.775 155.34 586.567 154.638 587.863 154.638ZM593.025 159.3C593.025 161.046 594.429 162.234 596.643 162.234C598.839 162.234 600.369 161.118 600.369 159.318C600.369 157.95 599.613 157.266 598.119 156.924L596.517 156.546C595.761 156.366 595.365 156.042 595.365 155.538C595.365 154.872 595.869 154.476 596.733 154.476C597.579 154.476 598.083 154.962 598.101 155.718H600.189C600.171 153.99 598.821 152.838 596.823 152.838C594.771 152.838 593.295 153.882 593.295 155.628C593.295 157.05 594.069 157.806 595.671 158.166L597.273 158.544C598.065 158.724 598.299 159.048 598.299 159.498C598.299 160.146 597.741 160.56 596.715 160.56C595.707 160.56 595.131 160.074 595.113 159.3H593.025Z"/><rect width="260.23" height="47.836" x="362.755" y="131.397" stroke="#1684F8" stroke-width="2.795" rx="23.918"/><defs><filter id="filter0_d_1007_14144" width="669.698" height="742.396" x="0" y="-49.797" color-interpolation-filters="sRGB" filterUnits="userSpaceOnUse"><feFlood flood-opacity="0" result="BackgroundImageFix"/><feColorMatrix in="SourceAlpha" result="hardAlpha" type="matrix" values="0 0 0 0 0 0 0 0 0 0 0 0 0 0 0 0 0 0 127 0"/><feOffset/><feGaussianBlur stdDeviation="75"/><feColorMatrix type="matrix" values="0 0 0 0 0 0 0 0 0 0.279824 0 0 0 0 0.483333 0 0 0 0.1 0"/><feBlend in2="BackgroundImageFix" mode="normal" result="effect1_dropShadow_1007_14144"/><feBlend in="SourceGraphic" in2="effect1_dropShadow_1007_14144" mode="normal" result="shape"/></filter></defs></svg>