<svg xmlns="http://www.w3.org/2000/svg" width="259" height="259" fill="none" viewBox="0 0 259 259"><g clip-path="url(#clip0_1592_30467)"><path fill="#1684F8" d="M67.0644 246.564C67.0946 246.595 67.1282 246.625 67.1584 246.655H67.0173C67.0341 246.625 67.0476 246.595 67.0644 246.564Z" opacity=".1"/><path fill="#1684F8" d="M229.166 174.883C229.206 200.863 220.626 226.116 204.781 246.655H122.556C130.615 238.736 135.661 227.401 135.661 214.818C135.661 194.275 122.217 177.068 104.167 172.589L120.278 123.218L96.1959 105.474L67.3163 135.379C58.3821 131.81 48.5264 131.291 39.2695 133.903C30.0125 136.515 21.8687 142.112 16.0942 149.831C11.6988 145.468 6.08578 142.549 0 141.463C14.3373 92.8775 59.1365 57.4357 112.176 57.4357C176.788 57.4357 229.166 110.017 229.166 174.883Z" opacity=".1"/><path fill="#212426" d="M179.434 131.718C179.434 131.718 174.701 127.605 174.046 118.826C173.539 112.029 179.434 116.807 179.434 116.807C179.434 116.807 179.116 111.909 182.606 112.628C186.095 113.346 187.729 118.579 187.729 118.579"/><path fill="#212426" d="M200.778 114.421C200.778 114.421 218.132 117.478 210.226 140.834H205.52"/><path fill="#ED9882" d="M181.232 165.116C181.309 165.106 182.164 179.345 198.64 178.104C210.047 177.246 214.114 165.096 214.375 165.096C213.146 164.834 211.075 164.452 210.528 164.159C208.732 163.19 206.51 162.182 205.931 158.68C205.597 156.662 206.163 146.337 205.989 144.294L188.48 148.217C188.725 152.53 190.437 162.529 184.436 164.298C183.437 164.591 182.362 164.86 181.232 165.116Z"/><path fill="#212426" d="M188.235 160.212C188.509 159.325 188.686 158.41 188.761 157.484C188.954 155.371 188.916 153.243 188.647 151.138C192.206 150.656 195.558 149.182 198.324 146.882C198.649 148.088 200.437 153.355 199.942 154.501C199.006 156.666 194.609 160.212 188.235 160.212Z" opacity=".52"/><path fill="#ED9882" d="M191.344 156.772C198.277 156.615 206.818 152.798 207.564 143.413L208.236 134.946C208.981 125.561 204.675 117.56 195.876 116.855C187.074 116.15 179.891 123.229 179.146 132.615L178.848 136.364C178.768 137.653 178.776 138.946 178.871 140.234C179.098 143.64 179.456 148.818 181.506 152.443C183.441 155.866 186.913 156.872 191.344 156.772Z"/><path fill="#212426" d="M181.756 138.371C182.357 138.371 182.844 137.883 182.844 137.28C182.844 136.677 182.357 136.188 181.756 136.188C181.156 136.188 180.669 136.677 180.669 137.28C180.669 137.883 181.156 138.371 181.756 138.371Z"/><path fill="#212426" d="M191.741 138.44C192.342 138.44 192.828 137.951 192.828 137.348C192.828 136.746 192.342 136.257 191.741 136.257C191.141 136.257 190.654 136.746 190.654 137.348C190.654 137.951 191.141 138.44 191.741 138.44Z"/><path fill="#ED9882" d="M206.789 146.229C209.463 146.443 211.861 143.744 212.073 141.059C212.286 138.373 210.236 136.719 207.562 136.506L206.04 138.195L204.489 146.046L206.789 146.229Z"/><path fill="#212426" d="M204.414 141.731C204.414 141.731 204.397 128.38 200.438 127.289C197.801 126.563 191.064 129.933 185.135 128.38C182.542 127.7 180.004 128.185 179.667 129.414C179.533 129.9 178.371 122.702 182.843 117.598C186.404 113.535 197.205 113.045 201.988 114.779C215.231 119.577 208.075 137.127 208.075 137.127L207.168 141.669L204.414 141.731Z"/><g opacity=".52"><path fill="#212426" d="M187.134 144.952H187.117C186.255 144.885 184.816 144.677 184.866 144.029C184.908 143.493 186.815 137.815 187.033 137.169C187.053 137.116 187.094 137.072 187.145 137.048C187.197 137.024 187.256 137.02 187.31 137.038C187.364 137.057 187.409 137.095 187.435 137.146C187.461 137.197 187.467 137.256 187.45 137.311C186.603 139.825 185.334 143.698 185.305 144.063C185.379 144.223 186.259 144.442 187.153 144.511C187.21 144.515 187.263 144.542 187.3 144.584C187.338 144.627 187.358 144.683 187.356 144.74C187.354 144.797 187.33 144.851 187.289 144.89C187.248 144.93 187.194 144.952 187.137 144.953L187.134 144.952Z" opacity=".52"/></g><path fill="#212426" d="M185.206 131.637C184.327 131.327 183.381 131.261 182.469 131.446C182.02 131.534 181.586 131.689 181.183 131.906C180.784 132.119 180.413 132.381 180.079 132.687C180.026 132.735 179.993 132.802 179.987 132.874C179.981 132.946 180.003 133.018 180.048 133.074C180.094 133.13 180.159 133.167 180.23 133.176C180.302 133.185 180.374 133.166 180.432 133.123L180.449 133.109C180.759 132.856 181.099 132.642 181.461 132.473C181.818 132.305 182.199 132.192 182.589 132.138C183.362 132.025 184.15 132.119 184.874 132.411L184.901 132.422C185.002 132.459 185.114 132.455 185.212 132.412C185.31 132.369 185.389 132.289 185.43 132.19C185.472 132.091 185.475 131.979 185.437 131.878C185.4 131.777 185.325 131.694 185.229 131.647C185.221 131.643 185.213 131.639 185.206 131.637Z"/><path fill="#212426" d="M191.589 132.502C192.313 132.21 193.101 132.116 193.873 132.23C194.264 132.284 194.644 132.398 195.001 132.567C195.364 132.736 195.704 132.949 196.013 133.203L196.03 133.216C196.088 133.26 196.161 133.281 196.233 133.272C196.305 133.264 196.371 133.227 196.417 133.171C196.463 133.114 196.485 133.042 196.479 132.969C196.472 132.896 196.438 132.829 196.383 132.781C196.049 132.475 195.679 132.212 195.28 131.999C194.877 131.782 194.443 131.627 193.994 131.539C193.081 131.354 192.136 131.42 191.257 131.73C191.152 131.768 191.067 131.846 191.019 131.947C190.971 132.048 190.966 132.164 191.003 132.269C191.041 132.375 191.119 132.461 191.22 132.508C191.32 132.556 191.436 132.562 191.541 132.524L191.561 132.516L191.589 132.502Z"/><path fill="#fff" d="M186.078 147.151C188.586 147.441 191.119 146.885 193.277 145.569C193.351 145.524 193.438 145.501 193.525 145.503C193.612 145.505 193.697 145.532 193.77 145.581C193.842 145.629 193.9 145.698 193.935 145.778C193.97 145.858 193.982 145.947 193.969 146.034C193.728 147.518 192.86 150.226 189.726 150.422C187.702 150.55 186.318 148.926 185.633 147.859C185.585 147.785 185.559 147.699 185.559 147.611C185.558 147.523 185.583 147.436 185.629 147.362C185.676 147.287 185.743 147.228 185.823 147.19C185.902 147.153 185.991 147.139 186.078 147.151Z"/><path fill="#212426" d="M192.126 118.284C192.93 115.397 191.999 112.612 190.045 112.063C188.092 111.514 185.855 113.409 185.051 116.296C184.246 119.183 185.177 121.969 187.131 122.518C189.085 123.066 191.321 121.171 192.126 118.284Z"/><path fill="#1684F8" d="M198.968 174.553C210.42 174.011 210.902 164.252 210.902 164.252C210.902 164.252 216.576 164.62 220.349 165.132C226.525 165.971 230.599 168.074 233.841 171.329C236.857 174.357 238.693 177.633 236.75 198.549C235.343 213.692 236.333 247.007 236.333 247.007H167.216C167.216 247.007 163.071 203.343 162.494 196.526C161.391 183.511 160.496 172.173 163.187 169.471C168.72 163.916 179.58 164.252 184.336 164.253C184.414 164.253 183.371 175.291 198.968 174.553Z"/><path fill="#1684F8" d="M98.0965 246.558L148.015 246.805C150.41 246.632 152.706 245.774 154.631 244.334C156.557 242.894 158.033 240.931 158.885 238.677L183.505 183.839C184.69 180.703 184.586 177.222 183.216 174.163C181.845 171.104 179.321 168.717 176.197 167.527C169.692 165.048 163.27 166.715 160.801 173.245L138.18 222.158L97.0844 222.829C97.0844 222.829 97.7881 246.58 98.0965 246.558Z"/><path fill="#212426" d="M163.471 199.568C163.468 199.524 163.448 199.482 163.414 199.452C163.381 199.422 163.337 199.407 163.292 199.41C163.248 199.413 163.206 199.434 163.177 199.467C163.147 199.501 163.132 199.545 163.135 199.589L164.54 222.128C164.543 222.169 164.56 222.207 164.588 222.236C164.616 222.265 164.654 222.283 164.695 222.286H164.718C164.763 222.283 164.804 222.263 164.834 222.229C164.863 222.196 164.878 222.152 164.875 222.107"/><path fill="#ED9882" d="M154.958 223.739L165.081 220.177L163.627 220.076C163.159 220.034 162.724 219.815 162.41 219.464C162.096 219.112 161.927 218.654 161.937 218.182C161.95 217.938 162.013 217.7 162.121 217.481C162.229 217.263 162.38 217.069 162.565 216.911C162.751 216.753 162.966 216.635 163.198 216.563C163.431 216.492 163.675 216.469 163.917 216.495L181.826 218.406L181.361 224.184C181.216 225.979 180.541 227.69 179.422 229.097C178.303 230.504 176.79 231.543 175.079 232.081L167.325 234.508C166.924 234.642 166.49 234.632 166.095 234.482C165.701 234.331 165.37 234.048 165.16 233.681C164.976 233.345 164.905 232.959 164.955 232.58C165.006 232.201 165.176 231.848 165.44 231.572C165.423 231.56 165.409 231.544 165.398 231.526C165.387 231.508 165.38 231.488 165.377 231.467C165.374 231.446 165.376 231.425 165.381 231.405C165.387 231.384 165.396 231.365 165.409 231.349L163.98 231.799C163.534 231.949 163.048 231.924 162.62 231.728C162.191 231.532 161.853 231.181 161.674 230.744C161.527 230.349 161.523 229.914 161.664 229.516C161.805 229.118 162.081 228.783 162.444 228.569C162.427 228.56 162.412 228.548 162.4 228.534L161.812 228.719C161.412 228.853 160.977 228.844 160.583 228.693C160.188 228.542 159.857 228.259 159.647 227.892C159.424 227.485 159.368 227.007 159.489 226.558C159.609 226.11 159.899 225.726 160.295 225.487C160.292 225.475 160.29 225.463 160.29 225.45L156.075 226.934C155.652 227.083 155.189 227.057 154.786 226.862C154.383 226.668 154.073 226.32 153.925 225.897C153.777 225.473 153.803 225.007 153.997 224.603C154.191 224.198 154.537 223.887 154.959 223.739L154.958 223.739Z"/><path fill="#212426" d="M160.455 225.616C160.475 225.616 160.494 225.613 160.512 225.606L164.59 224.117C164.632 224.102 164.666 224.071 164.685 224.03C164.704 223.989 164.706 223.943 164.691 223.901C164.675 223.859 164.644 223.825 164.604 223.806C164.563 223.787 164.517 223.785 164.475 223.8L160.398 225.289C160.36 225.302 160.329 225.329 160.309 225.363C160.29 225.397 160.283 225.438 160.289 225.477C160.296 225.516 160.317 225.551 160.347 225.577C160.377 225.602 160.415 225.616 160.455 225.616Z" opacity=".2"/><path fill="#212426" d="M162.516 228.593C162.535 228.593 162.554 228.589 162.572 228.583L165.787 227.438C165.829 227.423 165.863 227.392 165.882 227.351C165.902 227.311 165.904 227.265 165.889 227.223C165.874 227.18 165.843 227.146 165.803 227.127C165.763 227.107 165.717 227.105 165.675 227.12L162.46 228.265C162.423 228.278 162.391 228.304 162.371 228.338C162.351 228.373 162.343 228.413 162.35 228.453C162.357 228.492 162.377 228.528 162.408 228.553C162.438 228.579 162.476 228.593 162.516 228.593Z" opacity=".2"/><path fill="#212426" d="M165.545 231.613C165.565 231.613 165.585 231.609 165.604 231.602L167.108 231.024C167.129 231.017 167.148 231.005 167.165 230.99C167.181 230.974 167.194 230.956 167.203 230.936C167.213 230.916 167.218 230.894 167.218 230.871C167.219 230.849 167.215 230.827 167.207 230.806C167.199 230.785 167.187 230.766 167.172 230.75C167.157 230.733 167.138 230.721 167.118 230.712C167.098 230.703 167.076 230.698 167.053 230.697C167.031 230.697 167.009 230.701 166.988 230.709L165.483 231.286C165.446 231.3 165.416 231.326 165.397 231.361C165.377 231.395 165.371 231.435 165.378 231.474C165.385 231.512 165.405 231.547 165.436 231.573C165.466 231.598 165.504 231.612 165.543 231.612L165.545 231.613Z" opacity=".2"/><path fill="#1684F8" d="M174.323 236.319L237.087 246.764C239.022 246.976 240.979 246.734 242.805 246.058C244.632 245.383 246.277 244.291 247.613 242.87C248.949 241.449 249.938 239.736 250.504 237.866C251.069 235.996 251.195 234.02 250.873 232.093L237.489 178.266C237.214 176.629 236.621 175.061 235.743 173.653C234.865 172.246 233.72 171.025 232.372 170.062C229.651 168.116 226.271 167.336 222.976 167.893C219.681 168.449 216.742 170.297 214.804 173.029C212.866 175.762 212.089 179.155 212.643 182.463L222.908 219.979L177.302 213.723L174.323 236.319Z"/><path fill="#212426" d="M231.089 221.154C231.131 221.154 231.172 221.138 231.203 221.109C231.233 221.08 231.252 221.04 231.255 220.998C231.259 220.956 231.246 220.914 231.219 220.881C231.193 220.848 231.156 220.826 231.114 220.819L223.29 219.643C223.269 219.639 223.246 219.64 223.225 219.645C223.203 219.65 223.183 219.66 223.165 219.673C223.147 219.686 223.132 219.703 223.121 219.722C223.11 219.741 223.102 219.762 223.099 219.784C223.096 219.806 223.097 219.829 223.102 219.85C223.108 219.872 223.117 219.892 223.13 219.91C223.144 219.928 223.16 219.943 223.179 219.954C223.198 219.965 223.219 219.973 223.241 219.976L231.064 221.152C231.072 221.154 231.081 221.154 231.089 221.154Z"/><path fill="#212426" d="M235.34 247.007C235.362 247.008 235.384 247.005 235.405 246.998C235.426 246.991 235.445 246.98 235.462 246.965C235.478 246.95 235.492 246.933 235.501 246.913C235.511 246.893 235.517 246.871 235.518 246.849C235.52 246.827 235.517 246.805 235.51 246.784C235.503 246.763 235.491 246.743 235.477 246.727C235.462 246.71 235.444 246.696 235.425 246.687C235.405 246.677 235.383 246.671 235.361 246.67L174.675 236.19L177.616 213.931L222.908 219.977C222.934 219.98 222.96 219.978 222.985 219.969C223.01 219.96 223.032 219.946 223.05 219.927C223.069 219.908 223.082 219.885 223.09 219.86C223.098 219.834 223.1 219.808 223.095 219.782L218.195 198.554C218.191 198.532 218.183 198.511 218.172 198.492C218.16 198.473 218.145 198.457 218.127 198.444C218.109 198.431 218.088 198.422 218.067 198.417C218.045 198.412 218.023 198.412 218.001 198.416C217.957 198.423 217.918 198.448 217.892 198.484C217.866 198.521 217.856 198.566 217.863 198.61L222.726 219.613L177.49 213.573C177.468 213.57 177.445 213.571 177.424 213.577C177.402 213.583 177.382 213.593 177.364 213.607C177.347 213.621 177.332 213.639 177.321 213.658C177.31 213.678 177.303 213.7 177.301 213.722L174.323 236.319C174.318 236.362 174.331 236.406 174.358 236.441C174.385 236.475 174.425 236.498 174.468 236.504L235.316 247.005C235.324 247.006 235.332 247.007 235.34 247.007Z"/><path fill="#212426" d="M1.30101 247.344H258.663C258.752 247.344 258.838 247.309 258.901 247.245C258.964 247.182 258.999 247.096 258.999 247.007C258.999 246.917 258.964 246.832 258.901 246.768C258.838 246.705 258.752 246.67 258.663 246.67H1.30101C1.21192 246.67 1.12648 246.705 1.06348 246.768C1.00048 246.832 0.965088 246.917 0.965088 247.007C0.965088 247.096 1.00048 247.182 1.06348 247.245C1.12648 247.309 1.21192 247.344 1.30101 247.344Z"/><path fill="#fff" d="M122.556 246.655C115.283 253.812 105.551 258.183 94.8556 258.183C84.1597 258.183 74.4346 253.809 67.1584 246.655H122.556Z"/><path fill="#31D0AA" d="M112.638 107.389C109.616 105.453 106.244 104.134 102.714 103.507C99.1838 102.88 95.5655 102.957 92.0652 103.733C88.565 104.51 85.2514 105.971 82.3137 108.034C79.3759 110.096 76.8715 112.719 74.9435 115.753L74.9176 115.794C74.6976 116.146 74.3791 116.425 74.0021 116.597C73.625 116.768 73.206 116.825 72.7973 116.758C72.3886 116.692 72.0083 116.507 71.7039 116.225C71.3994 115.944 71.1843 115.578 71.0854 115.175C69.3285 108.126 70.5499 99.3435 74.75 92.7335C82.8321 80.0143 103.849 70.625 116.51 78.7506"/><path fill="#31D0AA" d="M111.703 106.791C114.725 108.726 117.338 111.24 119.393 114.19C121.447 117.139 122.903 120.466 123.677 123.98C124.451 127.494 124.527 131.127 123.903 134.671C123.278 138.215 121.964 141.6 120.037 144.634L120.011 144.675C119.785 145.024 119.667 145.431 119.672 145.847C119.676 146.263 119.801 146.668 120.034 147.012C120.266 147.357 120.593 147.625 120.976 147.783C121.359 147.941 121.78 147.983 122.186 147.903C129.295 146.53 136.711 141.717 140.911 135.107C148.993 122.388 148.616 99.2959 135.94 91.1932"/><path fill="#212426" d="M179.488 35.2776C176.952 47.761 172.137 59.6657 165.288 70.3909C151.914 91.4404 135.269 107.141 122.04 120.099L96.1973 103.547C102.594 86.2156 109.489 64.2706 122.864 43.2221C129.665 32.4654 138.389 23.0643 148.596 15.4935"/><path fill="#31D0AA" d="M147.697 66.364C156.089 66.364 162.892 59.5338 162.892 51.1083C162.892 42.6828 156.089 35.8526 147.697 35.8526C139.305 35.8526 132.502 42.6828 132.502 51.1083C132.502 59.5338 139.305 66.364 147.697 66.364Z"/><path fill="#fff" d="M147.697 63.1917C154.344 63.1917 159.732 57.7818 159.732 51.1083C159.732 44.4348 154.344 39.0249 147.697 39.0249C141.05 39.0249 135.661 44.4348 135.661 51.1083C135.661 57.7818 141.05 63.1917 147.697 63.1917Z"/><path fill="#212426" d="M122.448 119.806L96.3882 103.116L94.2198 106.528L120.28 123.219L122.448 119.806Z"/><path fill="#31D0AA" d="M179.488 35.2776L148.594 15.4918C165.288 3.12709 180.173 0 180.173 0C180.173 0 183.62 14.8689 179.488 35.2776Z"/><path fill="#31D0AA" d="M118.554 104.69C110.612 117.187 98.7166 133.218 97.424 132.39C96.1314 131.561 105.596 113.975 113.537 101.476C121.478 88.9774 124.888 86.3033 126.182 87.1319C127.476 87.9606 126.495 92.1922 118.554 104.69Z"/><path fill="#212426" d="M128.586 241.277L113.382 194.355C113.115 193.53 112.595 192.812 111.896 192.302C111.197 191.793 110.356 191.518 109.492 191.518H47.5497C46.904 191.518 46.2675 191.672 45.6922 191.966C45.1169 192.261 44.6191 192.687 44.2397 193.212C43.8602 193.737 43.6098 194.344 43.509 194.984C43.4081 195.624 43.4596 196.28 43.6594 196.896L58.8634 243.818C59.1306 244.643 59.6509 245.361 60.3497 245.871C61.0486 246.381 61.8901 246.655 62.7538 246.655H124.696C125.342 246.655 125.978 246.502 126.554 246.207C127.129 245.913 127.627 245.486 128.006 244.961C128.385 244.437 128.636 243.829 128.737 243.189C128.838 242.549 128.786 241.894 128.586 241.277Z"/><path fill="#212426" d="M157.623 242.85H116.208C115.161 242.85 114.313 243.702 114.313 244.753C114.313 245.803 115.161 246.655 116.208 246.655H157.623C158.67 246.655 159.518 245.803 159.518 244.753C159.518 243.702 158.67 242.85 157.623 242.85Z"/><path fill="#fff" d="M86.1228 227.898C89.7107 227.898 92.6193 224.978 92.6193 221.376C92.6193 217.773 89.7107 214.853 86.1228 214.853C82.5349 214.853 79.6263 217.773 79.6263 221.376C79.6263 224.978 82.5349 227.898 86.1228 227.898Z"/></g><defs><clipPath id="clip0_1592_30467"><rect width="259" height="258.183" fill="#fff"/></clipPath></defs></svg>