<svg xmlns="http://www.w3.org/2000/svg" width="341" height="288" fill="none" viewBox="0 0 341 288"><g clip-path="url(#clip0_323:4619)"><path fill="#F2F2F2" d="M239.106 287.028C238.75 287.354 238.381 287.677 238.006 288H195.311C194.96 287.685 194.614 287.363 194.267 287.028C194.253 287.015 194.239 286.999 194.225 286.987C189.587 282.502 186.666 275.983 184.845 269.109C184.728 268.693 184.626 268.272 184.522 267.847C184.045 265.915 183.657 263.963 183.338 262.027C183.282 261.692 183.226 261.357 183.179 261.022C182.749 258.241 182.458 255.504 182.271 252.935C182.248 252.604 182.224 252.282 182.201 251.959C181.858 246.844 181.855 241.717 182.192 236.602C182.192 236.602 182.248 236.602 182.355 236.606C182.669 236.618 183.423 236.646 184.532 236.704C187.588 236.867 193.355 237.275 200.136 238.239C200.506 238.293 200.881 238.35 201.255 238.407C206.991 239.234 212.65 240.43 218.184 241.985C218.531 242.087 218.872 242.189 219.219 242.291L219.224 242.312L223.469 260.9L225.229 244.354C226.628 244.905 227.99 245.493 229.296 246.122C229.661 246.298 230.017 246.474 230.368 246.653C233.353 248.13 236.063 249.994 238.404 252.184C252.328 265.65 249.347 277.687 239.106 287.028Z"/><path fill="#fff" d="M221.266 263.458L222.006 264.174C230.561 272.53 235.667 280.286 237.24 287.34C237.265 287.442 237.282 287.545 237.307 287.647L236.76 287.738L236.233 287.819C234.627 280.128 228.65 272.177 221.189 264.887C220.952 264.65 220.71 264.41 220.461 264.176C217.271 261.114 213.842 258.177 210.375 255.43C210.109 255.216 209.835 255.001 209.561 254.786C204.963 251.181 200.337 247.921 196.212 245.172C195.921 244.976 195.627 244.784 195.336 244.596C188.331 239.968 182.897 236.901 181.685 236.229C181.539 236.144 181.457 236.1 181.438 236.089L181.725 235.69L181.725 235.683L182.016 235.28C182.035 235.291 182.312 235.439 182.815 235.725C184.7 236.785 189.768 239.704 196.072 243.855C196.356 244.043 196.65 244.235 196.941 244.431C200.291 246.658 203.956 249.211 207.656 252.004C208.587 252.705 209.495 253.404 210.379 254.103C210.657 254.314 210.931 254.529 211.198 254.744C214.946 257.712 218.302 260.617 221.266 263.458Z"/><path fill="#fff" d="M200.54 237.447C200.414 237.713 200.278 237.978 200.137 238.24C199.068 240.259 197.701 242.147 196.07 243.856C195.832 244.101 195.588 244.35 195.335 244.595C194.652 245.253 193.925 245.888 193.154 246.502C190.001 248.994 186.263 250.856 182.202 251.959C182.071 251.996 181.945 252.033 181.813 252.065C181.837 252.388 181.86 252.707 181.884 253.037C182.015 253.005 182.141 252.972 182.272 252.935C186.582 251.802 190.548 249.846 193.884 247.209C194.7 246.566 195.477 245.885 196.211 245.171C196.463 244.93 196.707 244.681 196.941 244.432C198.685 242.603 200.136 240.576 201.256 238.407C201.387 238.146 201.518 237.884 201.645 237.619C201.27 237.562 200.901 237.504 200.54 237.447Z"/><path fill="#fff" d="M218.378 241.262C218.322 241.503 218.256 241.744 218.186 241.985C216.917 246.576 214.215 250.771 210.379 254.103C210.112 254.336 209.84 254.565 209.56 254.785C209.48 254.855 209.391 254.928 209.307 254.994C205.818 257.742 201.626 259.724 197.081 260.772C192.537 261.821 187.771 261.907 183.181 261.022C183.073 261.006 182.961 260.981 182.853 260.961C182.909 261.296 182.961 261.635 183.021 261.97C183.129 261.99 183.232 262.011 183.34 262.027C188.046 262.877 192.916 262.747 197.555 261.647C202.193 260.548 206.469 258.511 210.037 255.7C210.149 255.61 210.266 255.524 210.374 255.431C210.655 255.202 210.926 254.973 211.198 254.744C215.123 251.317 217.899 247.017 219.225 242.311C219.295 242.066 219.361 241.821 219.422 241.576C219.075 241.47 218.729 241.364 218.378 241.262Z"/><path fill="#fff" d="M229.296 245.433C229.301 245.661 229.301 245.894 229.296 246.123C229.218 252.578 226.35 258.769 221.265 263.457C221.003 263.702 220.731 263.939 220.46 264.176C220.165 264.425 219.87 264.674 219.566 264.911C214.857 268.614 208.909 270.899 202.6 271.428C196.29 271.956 189.953 270.701 184.523 267.848C184.43 267.806 184.339 267.759 184.251 267.709C184.364 268.142 184.476 268.567 184.598 268.991C184.682 269.032 184.762 269.073 184.846 269.11C190.433 271.829 196.855 272.954 203.212 272.329C209.569 271.703 215.543 269.358 220.296 265.622C220.6 265.381 220.904 265.14 221.19 264.887C221.471 264.654 221.737 264.417 222.004 264.172C227.161 259.426 230.138 253.191 230.368 246.654C230.378 246.433 230.382 246.213 230.382 245.992C230.027 245.8 229.661 245.616 229.296 245.433Z"/><path fill="#fff" d="M134.674 67.6286H52.3984C51.7137 67.6279 51.0573 67.3903 50.5732 66.9678C50.089 66.5453 49.8167 65.9725 49.8159 65.375V10.8583C49.8167 10.2608 50.089 9.68794 50.5731 9.26541C51.0573 8.84289 51.7137 8.6052 52.3984 8.60449H153.388C154.073 8.6052 154.729 8.84289 155.213 9.26541C155.697 9.68794 155.97 10.2608 155.971 10.8583V49.0445C155.964 53.9716 153.718 58.6953 149.726 62.1793C145.734 65.6633 140.32 67.623 134.674 67.6286Z"/><path fill="#CCC" d="M134.674 67.8329H52.3985C51.6518 67.8322 50.9359 67.573 50.4079 67.1122C49.8799 66.6514 49.5829 66.0267 49.582 65.3751V10.8584C49.5829 10.2068 49.8799 9.58201 50.4079 9.1212C50.9359 8.6604 51.6518 8.40117 52.3985 8.40039H153.388C154.135 8.40114 154.851 8.66035 155.379 9.12117C155.907 9.58198 156.204 10.2068 156.205 10.8584V49.0447C156.198 54.0259 153.928 58.8015 149.891 62.3237C145.855 65.846 140.383 67.8273 134.674 67.8329ZM52.3985 9.21727C51.9 9.21781 51.422 9.39089 51.0695 9.69855C50.717 10.0062 50.5187 10.4233 50.5181 10.8584V65.3751C50.5187 65.8102 50.717 66.2273 51.0695 66.5349C51.422 66.8425 51.9 67.0156 52.3985 67.016H134.674C140.134 67.0107 145.369 65.1155 149.23 61.7464C153.091 58.3773 155.262 53.8093 155.269 49.0447V10.8584C155.268 10.4233 155.07 10.0062 154.717 9.69855C154.365 9.39089 153.887 9.21781 153.388 9.21727H52.3985Z"/><path fill="#CCC" d="M133.423 27.0162H72.3598C71.7992 27.0162 71.2616 26.8219 70.8652 26.476C70.4688 26.1301 70.2461 25.6609 70.2461 25.1717C70.2461 24.6825 70.4688 24.2133 70.8652 23.8674C71.2616 23.5215 71.7992 23.3271 72.3598 23.3271H133.423C133.983 23.3279 134.52 23.5225 134.916 23.8684C135.312 24.2142 135.534 24.683 135.534 25.1717C135.534 25.6604 135.312 26.1292 134.916 26.475C134.52 26.8209 133.983 27.0155 133.423 27.0162Z"/><path fill="#CCC" d="M133.423 39.7233H72.3598C71.7992 39.7233 71.2616 39.5289 70.8652 39.183C70.4688 38.8371 70.2461 38.3679 70.2461 37.8787C70.2461 37.3895 70.4688 36.9204 70.8652 36.5744C71.2616 36.2285 71.7992 36.0342 72.3598 36.0342H133.423C133.984 36.0342 134.522 36.2285 134.918 36.5744C135.314 36.9204 135.537 37.3895 135.537 37.8787C135.537 38.3679 135.314 38.8371 134.918 39.183C134.522 39.5289 133.984 39.7233 133.423 39.7233Z"/><path fill="#CCC" d="M133.423 52.7936H72.3598C71.7992 52.7936 71.2616 52.5993 70.8652 52.2533C70.4688 51.9074 70.2461 51.4382 70.2461 50.949C70.2461 50.4598 70.4688 49.9907 70.8652 49.6447C71.2616 49.2988 71.7992 49.1045 72.3598 49.1045H133.423C133.984 49.1045 134.522 49.2988 134.918 49.6447C135.314 49.9907 135.537 50.4598 135.537 50.949C135.537 51.4382 135.314 51.9074 134.918 52.2533C134.522 52.5993 133.984 52.7936 133.423 52.7936Z"/><path fill="#2F91F9" d="M152.629 22.0301C159.6 22.0301 165.251 17.0985 165.251 11.015C165.251 4.9316 159.6 0 152.629 0C145.658 0 140.006 4.9316 140.006 11.015C140.006 17.0985 145.658 22.0301 152.629 22.0301Z"/><path fill="#fff" d="M150.908 16.7481C150.69 16.7481 150.475 16.7038 150.28 16.6187C150.085 16.5336 149.916 16.4101 149.785 16.2579L146.341 12.251C146.231 12.1223 146.15 11.9758 146.104 11.82C146.059 11.6641 146.049 11.5019 146.075 11.3426C146.101 11.1833 146.163 11.0301 146.256 10.8916C146.35 10.7532 146.475 10.6322 146.622 10.5357C146.77 10.4392 146.938 10.3689 147.116 10.329C147.295 10.2891 147.481 10.2802 147.663 10.303C147.846 10.3258 148.021 10.3797 148.18 10.4616C148.339 10.5436 148.477 10.6521 148.588 10.7808L150.841 13.402L156.627 5.82785C156.834 5.55746 157.155 5.36976 157.52 5.30603C157.885 5.24229 158.264 5.30776 158.574 5.48802C158.884 5.66828 159.099 5.94857 159.172 6.26723C159.245 6.58588 159.17 6.91681 158.964 7.1872L152.077 16.2024C151.952 16.3655 151.784 16.5001 151.588 16.5949C151.391 16.6898 151.172 16.7422 150.947 16.7477C150.934 16.7479 150.921 16.7481 150.908 16.7481Z"/><path fill="#fff" d="M104.312 114.979H22.0364C16.3902 114.974 10.9772 113.014 6.98477 109.53C2.99235 106.046 0.746604 101.322 0.740234 96.3953V58.2089C0.741038 57.6114 1.0134 57.0385 1.49758 56.616C1.98176 56.1935 2.63822 55.9558 3.32295 55.9551H104.312C104.997 55.9558 105.654 56.1935 106.138 56.616C106.622 57.0385 106.894 57.6114 106.895 58.2089V112.726C106.894 113.323 106.622 113.896 106.138 114.318C105.654 114.741 104.997 114.979 104.312 114.979Z"/><path fill="#CCC" d="M104.306 115.184H22.0302C16.322 115.178 10.8495 113.197 6.81321 109.675C2.77692 106.152 0.50649 101.377 0.5 96.3954V58.209C0.500846 57.5573 0.797882 56.9325 1.32594 56.4717C1.854 56.0109 2.56995 55.7517 3.31674 55.751H104.306C105.053 55.7517 105.769 56.0109 106.297 56.4717C106.825 56.9325 107.122 57.5573 107.123 58.209V112.726C107.122 113.377 106.825 114.002 106.297 114.463C105.769 114.924 105.053 115.183 104.306 115.184ZM3.31674 56.5679C2.81815 56.5684 2.34014 56.7415 1.98759 57.0491C1.63503 57.3568 1.43669 57.7739 1.43609 58.209V96.3954C1.44226 101.16 3.61397 105.728 7.47477 109.097C11.3356 112.466 16.5702 114.361 22.0302 114.367H104.306C104.805 114.366 105.283 114.193 105.635 113.886C105.988 113.578 106.186 113.161 106.187 112.726V58.209C106.186 57.7739 105.988 57.3568 105.635 57.0491C105.283 56.7415 104.805 56.5684 104.306 56.5679H3.31674Z"/><path fill="#CCC" d="M84.3437 74.3659H23.2802C22.7196 74.3659 22.182 74.1715 21.7856 73.8256C21.3892 73.4797 21.1665 73.0105 21.1665 72.5213C21.1665 72.0321 21.3892 71.5629 21.7856 71.217C22.182 70.8711 22.7196 70.6768 23.2802 70.6768H84.3437C84.9043 70.6768 85.4419 70.8711 85.8383 71.217C86.2347 71.5629 86.4574 72.0321 86.4574 72.5213C86.4574 73.0105 86.2347 73.4797 85.8383 73.8256C85.4419 74.1715 84.9043 74.3659 84.3437 74.3659Z"/><path fill="#CCC" d="M84.3437 87.0729H23.2802C22.7196 87.0729 22.182 86.8785 21.7856 86.5326C21.3892 86.1867 21.1665 85.7175 21.1665 85.2283C21.1665 84.7391 21.3892 84.27 21.7856 83.924C22.182 83.5781 22.7196 83.3838 23.2802 83.3838H84.3437C84.9043 83.3838 85.4419 83.5781 85.8383 83.924C86.2347 84.27 86.4574 84.7391 86.4574 85.2283C86.4574 85.7175 86.2347 86.1867 85.8383 86.5326C85.4419 86.8785 84.9043 87.0729 84.3437 87.0729Z"/><path fill="#CCC" d="M84.3437 100.143H23.2802C22.7196 100.143 22.182 99.9489 21.7856 99.6029C21.3892 99.257 21.1665 98.7879 21.1665 98.2987C21.1665 97.8095 21.3892 97.3403 21.7856 96.9944C22.182 96.6484 22.7196 96.4541 23.2802 96.4541H84.3437C84.9043 96.4541 85.4419 96.6484 85.8383 96.9944C86.2347 97.3403 86.4574 97.8095 86.4574 98.2987C86.4574 98.7879 86.2347 99.257 85.8383 99.6029C85.4419 99.9489 84.9043 100.143 84.3437 100.143Z"/><path fill="#2F91F9" d="M104.42 69.8172C111.391 69.8172 117.042 64.8856 117.042 58.8022C117.042 52.7187 111.391 47.7871 104.42 47.7871C97.4487 47.7871 91.7974 52.7187 91.7974 58.8022C91.7974 64.8856 97.4487 69.8172 104.42 69.8172Z"/><path fill="#fff" d="M102.699 64.5352C102.481 64.5352 102.266 64.4909 102.071 64.4058C101.876 64.3207 101.707 64.1972 101.576 64.045L98.1324 60.0381C98.0217 59.9094 97.9412 59.7629 97.8955 59.6071C97.8497 59.4512 97.8396 59.289 97.8657 59.1297C97.8918 58.9704 97.9535 58.8172 98.0475 58.6787C98.1414 58.5403 98.2657 58.4193 98.4132 58.3228C98.5607 58.2263 98.7286 58.156 98.9072 58.1161C99.0858 58.0762 99.2717 58.0673 99.4542 58.0901C99.6367 58.1129 99.8124 58.1668 99.971 58.2488C100.13 58.3307 100.268 58.4392 100.379 58.5679L102.632 61.1891L108.418 53.615C108.625 53.3446 108.946 53.1569 109.311 53.0931C109.676 53.0294 110.055 53.0949 110.365 53.2751C110.675 53.4554 110.89 53.7357 110.963 54.0543C111.036 54.373 110.961 54.7039 110.755 54.9743L103.868 63.9895C103.743 64.1526 103.575 64.2872 103.379 64.382C103.182 64.4769 102.963 64.5293 102.738 64.5348C102.725 64.535 102.712 64.5352 102.699 64.5352Z"/><path fill="#fff" d="M206.819 165.794H91.6965C86.0504 165.789 80.6373 163.829 76.6449 160.345C72.6525 156.861 70.4068 152.137 70.4004 147.21V91.0438C70.4014 90.2736 70.7525 89.5352 71.3766 88.9906C72.0007 88.4459 72.8469 88.1396 73.7295 88.1387H206.819C207.702 88.1396 208.548 88.4459 209.172 88.9906C209.796 89.5352 210.147 90.2736 210.148 91.0438V162.889C210.147 163.659 209.796 164.397 209.172 164.942C208.548 165.487 207.702 165.793 206.819 165.794Z"/><path fill="#CCC" d="M206.819 165.998H91.6967C85.9885 165.993 80.516 164.011 76.4797 160.489C72.4434 156.967 70.173 152.191 70.1665 147.21V91.0439C70.1676 90.2196 70.5433 89.4292 71.2113 88.8463C71.8793 88.2634 72.785 87.9355 73.7296 87.9346H206.819C207.764 87.9355 208.67 88.2635 209.337 88.8464C210.005 89.4293 210.381 90.2196 210.382 91.0439V162.889C210.381 163.713 210.006 164.504 209.338 165.087C208.67 165.67 207.764 165.997 206.819 165.998ZM73.7296 88.7515C73.0332 88.7522 72.3654 88.9939 71.8729 89.4237C71.3805 89.8535 71.1034 90.4362 71.1026 91.0439V147.21C71.1088 151.975 73.2805 156.543 77.1413 159.912C81.0021 163.281 86.2367 165.176 91.6967 165.182H206.819C207.516 165.181 208.183 164.939 208.676 164.509C209.168 164.079 209.445 163.497 209.446 162.889V91.0439C209.445 90.4362 209.168 89.8535 208.676 89.4237C208.183 88.9939 207.516 88.7522 206.819 88.7515H73.7296Z"/><path fill="#CCC" d="M180.512 112.337H100.039C99.6731 112.338 99.3105 112.275 98.9721 112.153C98.6337 112.031 98.3262 111.852 98.0672 111.626C97.8081 111.401 97.6026 111.133 97.4624 110.837C97.3222 110.542 97.25 110.226 97.25 109.906C97.25 109.587 97.3222 109.271 97.4624 108.975C97.6026 108.68 97.8081 108.412 98.0672 108.186C98.3262 107.961 98.6337 107.782 98.9721 107.66C99.3105 107.538 99.6731 107.475 100.039 107.476H180.512C180.878 107.475 181.241 107.538 181.579 107.66C181.918 107.782 182.225 107.961 182.484 108.186C182.743 108.412 182.949 108.68 183.089 108.975C183.229 109.271 183.301 109.587 183.301 109.906C183.301 110.226 183.229 110.542 183.089 110.837C182.949 111.133 182.743 111.401 182.484 111.626C182.225 111.852 181.918 112.031 181.579 112.153C181.241 112.275 180.878 112.338 180.512 112.337Z"/><path fill="#CCC" d="M180.512 129.083H100.039C99.6731 129.084 99.3105 129.021 98.9721 128.899C98.6337 128.777 98.3262 128.598 98.0672 128.373C97.8081 128.147 97.6026 127.879 97.4624 127.584C97.3222 127.288 97.25 126.972 97.25 126.653C97.25 126.333 97.3222 126.017 97.4624 125.722C97.6026 125.426 97.8081 125.158 98.0672 124.933C98.3262 124.707 98.6337 124.528 98.9721 124.406C99.3105 124.284 99.6731 124.221 100.039 124.222H180.512C181.251 124.222 181.959 124.478 182.482 124.934C183.004 125.39 183.298 126.008 183.298 126.653C183.298 127.297 183.004 127.916 182.482 128.371C181.959 128.827 181.251 129.083 180.512 129.083Z"/><path fill="#CCC" d="M180.512 146.308H100.039C99.3002 146.308 98.5917 146.052 98.0693 145.596C97.5469 145.14 97.2534 144.522 97.2534 143.877C97.2534 143.232 97.5469 142.614 98.0693 142.158C98.5917 141.702 99.3002 141.446 100.039 141.446H180.512C180.878 141.446 181.241 141.508 181.579 141.63C181.917 141.752 182.225 141.931 182.484 142.157C182.743 142.383 182.948 142.651 183.089 142.946C183.229 143.241 183.301 143.558 183.301 143.877C183.301 144.197 183.229 144.513 183.089 144.808C182.948 145.103 182.743 145.371 182.484 145.597C182.225 145.823 181.917 146.002 181.579 146.124C181.241 146.246 180.878 146.308 180.512 146.308Z"/><path fill="#2F91F9" d="M207.237 106.48C216.062 106.48 223.215 100.237 223.215 92.5365C223.215 84.8356 216.062 78.5928 207.237 78.5928C198.412 78.5928 191.258 84.8356 191.258 92.5365C191.258 100.237 198.412 106.48 207.237 106.48Z"/><path fill="#fff" d="M205.059 99.793C204.783 99.793 204.511 99.7369 204.264 99.6292C204.018 99.5215 203.803 99.3651 203.638 99.1725L199.278 94.1003C199.138 93.9373 199.036 93.7519 198.978 93.5546C198.921 93.3573 198.908 93.152 198.941 92.9503C198.974 92.7487 199.052 92.5547 199.171 92.3795C199.29 92.2042 199.447 92.0511 199.634 91.9289C199.821 91.8067 200.033 91.7178 200.259 91.6672C200.485 91.6167 200.721 91.6055 200.952 91.6343C201.183 91.6631 201.405 91.7314 201.606 91.8352C201.807 91.9389 201.982 92.0762 202.122 92.2392L204.974 95.5572L212.299 85.9693C212.561 85.6276 212.967 85.3906 213.429 85.3102C213.891 85.2299 214.371 85.3128 214.763 85.5408C215.154 85.7688 215.427 86.1232 215.519 86.5262C215.612 86.9292 215.518 87.3478 215.257 87.6901L206.538 99.1022C206.381 99.3086 206.168 99.479 205.92 99.5991C205.671 99.7192 205.393 99.7855 205.109 99.7925C205.092 99.7927 205.076 99.793 205.059 99.793Z"/><path fill="#FFB6B6" d="M248.632 276.868L242.131 278.765L230.651 257.787L240.246 254.986L248.632 276.868Z"/><path fill="#2F2E41" d="M252.398 281.883L231.437 286.775L231.348 286.543C230.619 284.642 230.783 283.831 231.808 282.037C232.31 281.153 233.008 280.365 233.861 279.718C234.714 279.071 235.705 278.578 236.778 278.268L236.778 278.268L239.636 274.615L247.751 275.065L249.581 274.531L252.398 281.883Z"/><path fill="#FFB6B6" d="M264.694 282.202H257.84L254.579 259.129L264.696 259.129L264.694 282.202Z"/><path fill="#2F2E41" d="M266.443 286.776L244.34 286.775V286.531C244.34 284.526 245.235 283.866 246.86 282.448C247.657 281.749 248.605 281.194 249.649 280.817C250.693 280.439 251.813 280.246 252.943 280.249H252.943L256.981 277.576L264.514 280.249L266.443 280.25L266.443 286.776Z"/><path fill="#FFB6B6" d="M212.524 97.3378C212.665 97.9645 212.962 98.5566 213.394 99.0723C213.826 99.5881 214.382 100.015 215.023 100.323C215.664 100.631 216.375 100.812 217.105 100.854C217.836 100.897 218.568 100.799 219.25 100.567L227.163 107.777L233.357 104.649L222.018 94.6046C221.496 93.6302 220.584 92.8566 219.452 92.4303C218.321 92.004 217.05 91.9546 215.88 92.2915C214.71 92.6284 213.722 93.3282 213.103 94.2582C212.485 95.1883 212.279 96.2841 212.524 97.3378Z"/><path fill="#E4E4E4" d="M263.739 133.59L267.306 130.369L246.675 113.695L225.912 97.5156L220.161 104.607L241.92 122.331L263.739 133.59Z"/><path fill="#2F2E41" d="M251.064 243.011C251.064 238.964 251.156 236.076 251.229 233.756C251.445 226.967 251.503 225.142 248.526 213.449L247.761 210.446L243.251 222.252C241.811 226.018 241.075 229.961 241.072 233.931L248.025 270.337H233.814L223.406 230.979L223.401 218.94C222.484 218.112 221.971 217.006 221.971 215.854C221.971 214.702 222.484 213.596 223.401 212.768L226.859 194.731L230.359 170.424H268.695C268.695 170.424 275.461 182.661 268.737 194.801L268.737 243.026L265.263 276.372H254.538L251.064 243.011Z"/><path fill="#E4E4E4" d="M266.351 173.366L230.493 170.759L230.307 170.745L233.168 125.795C233.337 122.969 234.473 120.251 236.43 117.995C238.388 115.739 241.077 114.047 244.148 113.139V109.993C244.149 109.215 244.504 108.468 245.135 107.918C245.766 107.367 246.621 107.058 247.513 107.057H252.753C253.378 107.055 253.992 107.206 254.524 107.493C255.056 107.78 255.485 108.191 255.763 108.68L258.325 113.151L268.013 119.915C272.797 123.255 268.946 156.746 268.739 158.514L271.082 168.737C271.211 169.3 271.196 169.88 271.037 170.436C270.878 170.993 270.58 171.512 270.164 171.956C269.748 172.4 269.224 172.758 268.631 173.004C268.037 173.25 267.388 173.379 266.731 173.38C266.605 173.38 266.479 173.375 266.351 173.366Z"/><path fill="#FFB6B6" d="M228.377 185.235C228.944 184.831 229.402 184.323 229.72 183.748C230.038 183.173 230.207 182.544 230.216 181.905C230.225 181.266 230.074 180.634 229.772 180.052C229.471 179.47 229.027 178.952 228.471 178.536L232.029 169.048L225.949 165.755L221.14 179.216C220.401 180.076 220.049 181.144 220.152 182.215C220.254 183.287 220.803 184.288 221.695 185.03C222.587 185.772 223.76 186.203 224.991 186.241C226.223 186.278 227.427 185.92 228.377 185.235Z"/><path fill="#E4E4E4" d="M240.882 120.73L235.945 119.294L228.815 147.055L222.248 174.663L232.125 175.931L239.785 146.576L240.882 120.73Z"/><path fill="#FFB6B6" d="M246.273 104.183C252.777 104.183 258.05 99.5821 258.05 93.9062C258.05 88.2302 252.777 83.6289 246.273 83.6289C239.768 83.6289 234.496 88.2302 234.496 93.9062C234.496 99.5821 239.768 104.183 246.273 104.183Z"/><path fill="#2F2E41" d="M230.426 88.8732C230.535 87.8992 230.855 86.9521 231.369 86.0825C231.92 87.1272 233.637 87.3085 234.812 86.7885C235.988 86.2685 236.775 85.2809 237.615 84.3949C239.832 82.0569 242.88 80.1604 246.334 79.815C249.789 79.4696 253.597 80.9913 254.902 83.8038C255.488 83.094 256.737 83.0151 257.621 83.4275C258.475 83.8974 259.142 84.5863 259.529 85.3998C260.399 86.9565 260.89 88.6531 260.972 90.3833C261.055 92.1135 260.726 93.84 260.008 95.4542C258.553 98.6665 254.961 102.994 251.255 104.207C249.005 104.943 246.732 104.001 244.339 104.207C244.465 101.928 244.971 99.1158 245.096 96.8367C245.165 95.5886 245.175 94.1923 244.198 93.2787C243.898 93.0304 243.54 92.8427 243.148 92.7287C242.756 92.6147 242.34 92.5773 241.929 92.6191C241.519 92.6609 241.124 92.7809 240.773 92.9706C240.421 93.1603 240.122 93.4151 239.896 93.7169C239.775 93.0083 239.501 92.3262 239.088 91.707C238.876 91.3999 238.57 91.1506 238.205 90.9872C237.839 90.8238 237.429 90.7528 237.019 90.7822C236.02 90.9251 235.403 91.8201 234.486 92.195C233.965 92.3771 233.393 92.4161 232.846 92.3066C232.299 92.1972 231.804 91.9446 231.426 91.5826C231.059 91.213 230.781 90.7825 230.61 90.3169C230.438 89.8513 230.375 89.3603 230.426 88.8732Z"/><path fill="#000" d="M247.798 146.452L233.966 170.592H244.34L247.798 146.452Z" opacity=".1"/><path fill="#CACACA" d="M340.499 287.514C340.499 287.578 340.485 287.642 340.457 287.701C340.429 287.76 340.388 287.813 340.337 287.858C340.285 287.904 340.223 287.939 340.156 287.964C340.088 287.988 340.015 288.001 339.942 288H75.828C75.6803 288 75.5386 287.949 75.4341 287.858C75.3297 287.767 75.271 287.643 75.271 287.514C75.271 287.385 75.3297 287.262 75.4341 287.171C75.5386 287.08 75.6803 287.028 75.828 287.028H339.942C340.015 287.028 340.088 287.041 340.156 287.065C340.223 287.089 340.285 287.125 340.337 287.17C340.388 287.215 340.429 287.269 340.457 287.328C340.485 287.387 340.499 287.45 340.499 287.514Z"/></g><defs><clipPath id="clip0_323:4619"><rect width="340" height="288" fill="#fff" transform="translate(0.5)"/></clipPath></defs></svg>