<svg xmlns="http://www.w3.org/2000/svg" width="349" height="288" fill="none" viewBox="0 0 349 288"><g clip-path="url(#clip0_323:4553)"><path fill="#F2F2F2" d="M236.865 287.081C236.525 287.393 236.174 287.698 235.819 287.998H192.751C192.504 287.698 192.257 287.393 192.013 287.081C190.025 284.514 188.274 281.743 186.786 278.81C183.25 271.954 182.032 262.966 182.032 253.812C182.032 253.253 182.036 252.694 182.047 252.134C182.086 249.566 182.219 246.995 182.416 244.465C182.452 244.026 182.487 243.59 182.527 243.154C182.846 239.526 183.293 235.994 183.802 232.693C183.866 232.273 183.931 231.856 183.999 231.444C185.036 224.888 186.426 218.403 188.162 212.021C188.162 212.021 188.219 212.037 188.33 212.068C188.649 212.164 189.412 212.392 190.534 212.75C193.622 213.737 199.422 215.727 206.11 218.685C206.476 218.843 206.844 219.008 207.217 219.178C212.876 221.689 218.353 224.649 223.603 228.035C223.929 228.247 224.252 228.463 224.574 228.679V228.71L223.868 253.299L230.173 232.828C231.459 233.881 232.688 234.972 233.86 236.102C234.182 236.41 234.505 236.726 234.816 237.054C237.478 239.68 239.749 242.729 241.551 246.096C250.984 264.4 247.025 277.857 236.865 287.081Z"/><path fill="#fff" d="M230.795 287.997H229.648C229.641 287.693 229.63 287.388 229.612 287.08C229.15 277.829 225.464 267.615 220.445 257.755C220.266 257.397 220.083 257.031 219.89 256.672C217.453 251.983 214.738 247.395 211.933 243.034C211.718 242.694 211.496 242.351 211.274 242.012C207.541 236.278 203.686 230.972 200.204 226.442C199.96 226.118 199.71 225.802 199.462 225.489C194.3 218.826 190.041 213.972 188.332 212.067C188.077 211.785 187.88 211.569 187.744 211.419C187.619 211.273 187.544 211.195 187.529 211.18L187.931 210.748L187.934 210.737L188.343 210.305C188.357 210.324 188.604 210.578 189.041 211.068C189.41 211.473 189.915 212.04 190.535 212.749C192.699 215.217 196.278 219.416 200.419 224.741C200.659 225.05 200.906 225.37 201.153 225.69C203.98 229.364 207.043 233.529 210.077 238.006C210.84 239.131 211.581 240.248 212.298 241.356C212.524 241.696 212.746 242.035 212.961 242.374C215.995 247.086 218.645 251.618 220.911 255.97L221.477 257.061C227.252 268.398 230.361 278.439 230.762 287.08C230.777 287.388 230.787 287.693 230.795 287.997Z"/><path fill="#fff" d="M206.741 217.782C206.537 218.087 206.329 218.388 206.111 218.685C204.468 220.963 202.554 223 200.418 224.742C200.107 224.989 199.788 225.243 199.462 225.49C198.573 226.158 197.652 226.776 196.703 227.341C192.795 229.684 188.461 231.084 184 231.444C183.857 231.459 183.71 231.471 183.567 231.478C183.502 231.891 183.441 232.304 183.373 232.724C183.516 232.716 183.66 232.708 183.803 232.693C188.528 232.362 193.125 230.904 197.262 228.425C198.274 227.82 199.256 227.159 200.203 226.443C200.526 226.2 200.841 225.945 201.153 225.691C203.437 223.823 205.477 221.632 207.218 219.178C207.426 218.881 207.63 218.58 207.83 218.28C207.458 218.11 207.096 217.944 206.741 217.782Z"/><path fill="#fff" d="M223.994 227.163C223.869 227.456 223.736 227.745 223.604 228.035C221.049 233.513 217.136 238.124 212.298 241.357C211.961 241.584 211.621 241.804 211.273 242.012C211.169 242.078 211.058 242.147 210.954 242.209C206.629 244.792 201.792 246.226 196.847 246.39C191.903 246.555 186.993 245.445 182.528 243.154C182.42 243.1 182.316 243.046 182.212 242.992C182.173 243.431 182.137 243.871 182.108 244.314C182.209 244.364 182.313 244.418 182.416 244.465C187.01 246.744 192.038 247.826 197.093 247.622C202.148 247.418 207.087 245.935 211.51 243.292C211.653 243.207 211.793 243.123 211.932 243.034C212.28 242.818 212.624 242.598 212.96 242.375C217.919 239.047 221.936 234.321 224.575 228.709C224.714 228.42 224.847 228.127 224.976 227.83C224.65 227.607 224.324 227.383 223.994 227.163Z"/><path fill="#fff" d="M234.052 235.227C233.991 235.52 233.93 235.813 233.862 236.102C232.019 244.242 227.395 251.336 220.911 255.971C220.578 256.214 220.234 256.446 219.89 256.673C219.521 256.912 219.152 257.151 218.772 257.375C212.937 260.851 206.219 262.218 199.607 261.275C192.996 260.332 186.841 257.127 182.048 252.135C181.966 252.054 181.887 251.969 181.808 251.884C181.808 252.459 181.805 253.025 181.812 253.596C181.884 253.669 181.959 253.743 182.034 253.812C187.024 258.677 193.302 261.741 199.99 262.574C206.678 263.408 213.441 261.968 219.331 258.458C219.711 258.235 220.084 258.003 220.445 257.757C220.796 257.533 221.137 257.302 221.477 257.063C228.053 252.38 232.801 245.259 234.818 237.054C234.886 236.777 234.954 236.499 235.015 236.218C234.704 235.878 234.378 235.558 234.052 235.227Z"/><path fill="#fff" d="M204.015 172.436H0V7.68848H204.015V172.436Z"/><path fill="#E6E6E6" d="M49.4372 42.0722C53.9223 42.0722 57.5581 38.1589 57.5581 33.3315C57.5581 28.5042 53.9223 24.5908 49.4372 24.5908C44.9522 24.5908 41.3164 28.5042 41.3164 33.3315C41.3164 38.1589 44.9522 42.0722 49.4372 42.0722Z"/><path fill="#E6E6E6" d="M68.1924 27.5049C67.8338 27.5056 67.4902 27.6594 67.2369 27.9325C66.9836 28.2056 66.8413 28.5758 66.8413 28.9617C66.8413 29.3476 66.9836 29.7177 67.2369 29.9908C67.4902 30.264 67.8338 30.4178 68.1924 30.4184H167.012C167.37 30.4178 167.714 30.264 167.967 29.9908C168.22 29.7177 168.363 29.3476 168.363 28.9617C168.363 28.5758 168.22 28.2056 167.967 27.9325C167.714 27.6594 167.37 27.5056 167.012 27.5049H68.1924Z"/><path fill="#E6E6E6" d="M68.1923 36.2461C67.8333 36.2453 67.4887 36.398 67.2344 36.6706C66.98 36.9432 66.8367 37.3134 66.8359 37.6998C66.8352 38.0862 66.9771 38.457 67.2303 38.7308C67.4836 39.0046 67.8276 39.1589 68.1866 39.1597H130.661C130.839 39.16 131.015 39.1226 131.18 39.0495C131.344 38.9765 131.494 38.8692 131.62 38.7339C131.746 38.5986 131.846 38.4379 131.914 38.261C131.982 38.0841 132.017 37.8944 132.017 37.7029C132.017 37.5113 131.982 37.3217 131.914 37.1448C131.846 36.9679 131.746 36.8072 131.62 36.6719C131.494 36.5365 131.344 36.4293 131.18 36.3562C131.015 36.2832 130.839 36.2458 130.661 36.2461H68.1923Z"/><path fill="#E6E6E6" d="M204.015 172.436H0V7.68848H204.015V172.436ZM2.28343 169.978H201.731V10.1462H2.28343V169.978Z"/><path fill="#E4E4E4" d="M11.4038 57.9297V155.919H192.613V57.9297H11.4038ZM191.741 82.1925H147.528V58.8674H191.741V82.1925ZM102.444 82.1925V58.8674H146.657V82.1925H102.444ZM146.657 83.1302V106.455H102.444V83.1302H146.657ZM101.573 82.1925H57.3594V58.8674H101.573V82.1925ZM101.573 83.1302V106.455H57.3594V83.1302H101.573ZM56.4882 106.455H12.275V83.1302H56.4882V106.455ZM56.4882 107.393V130.718H12.275V107.393H56.4882ZM57.3594 107.393H101.573V130.718H57.3594V107.393ZM101.573 131.656V154.981H57.3594V131.656H101.573ZM102.444 131.656H146.657V154.981H102.444V131.656ZM102.444 130.718V107.393H146.657V130.718H102.444ZM147.528 107.393H191.741V130.718H147.528V107.393ZM147.528 106.455V83.1302H191.741V106.455H147.528ZM56.4882 58.8674V82.1925H12.275V58.8674H56.4882ZM12.275 131.656H56.4882V154.981H12.275V131.656ZM147.528 154.981V131.656H191.741V154.981H147.528Z"/><path fill="#2F91F9" d="M85.7916 84.292L67.761 83.8526C65.9575 76.3329 66.7694 69.173 68.2087 62.5752L86.2392 63.0146C84.4154 69.9513 84.2614 77.2735 85.7916 84.292Z"/><path fill="#fff" d="M71.2969 67.2775L71.3065 66.5391L80.6479 66.8982L80.6378 67.6366L71.2969 67.2775Z"/><path fill="#fff" d="M71.2578 70.2316L71.2674 69.4932L80.6084 69.8528L80.5988 70.5912L71.2578 70.2316Z"/><path fill="#fff" d="M71.2173 73.1847L71.2273 72.4463L80.5683 72.8059L80.5587 73.5443L71.2173 73.1847Z"/><path fill="#fff" d="M71.1782 76.1388L71.1878 75.4004L80.5292 75.76L80.5192 76.4984L71.1782 76.1388Z"/><path fill="#fff" d="M71.1387 79.0929L71.1483 78.3545L80.4897 78.7141L80.4796 79.4525L71.1387 79.0929Z"/><path fill="#F0F0F0" d="M46.588 138.679L28.5574 138.239C26.7539 130.72 27.5658 123.56 29.0051 116.962L47.0356 117.401C45.2118 124.338 45.0578 131.66 46.588 138.679Z"/><path fill="#fff" d="M32.0933 121.664L32.1028 120.926L41.4442 121.285L41.4342 122.023L32.0933 121.664Z"/><path fill="#fff" d="M32.0542 124.618L32.0638 123.88L41.4047 124.239L41.3952 124.978L32.0542 124.618Z"/><path fill="#fff" d="M32.0137 127.571L32.0237 126.833L41.3647 127.193L41.3551 127.931L32.0137 127.571Z"/><path fill="#fff" d="M31.9746 130.526L31.9842 129.787L41.3256 130.147L41.3156 130.885L31.9746 130.526Z"/><path fill="#fff" d="M31.9351 133.479L31.9446 132.74L41.286 133.1L41.276 133.838L31.9351 133.479Z"/><path fill="#F0F0F0" d="M140.677 113.829L122.647 113.39C120.843 105.87 121.655 98.7101 123.094 92.1123L141.125 92.5517C139.301 99.4884 139.147 106.811 140.677 113.829Z"/><path fill="#fff" d="M126.183 96.8156L126.192 96.0771L135.534 96.4363L135.524 97.1747L126.183 96.8156Z"/><path fill="#fff" d="M126.143 99.7687L126.153 99.0303L135.494 99.3899L135.484 100.128L126.143 99.7687Z"/><path fill="#fff" d="M126.103 102.723L126.113 101.984L135.454 102.344L135.444 103.082L126.103 102.723Z"/><path fill="#fff" d="M126.063 105.676L126.073 104.938L135.414 105.297L135.404 106.036L126.063 105.676Z"/><path fill="#fff" d="M126.024 108.63L126.034 107.892L135.375 108.251L135.365 108.99L126.024 108.63Z"/><path fill="#2F91F9" d="M132.837 109.141L114.806 108.701C113.002 101.181 113.814 94.0216 115.254 87.4238L133.284 87.8632C131.46 94.8 131.306 102.122 132.837 109.141Z"/><path fill="#fff" d="M118.342 92.1271L118.351 91.3887L127.693 91.7478L127.683 92.4862L118.342 92.1271Z"/><path fill="#fff" d="M118.302 95.0802L118.312 94.3418L127.653 94.7014L127.643 95.4398L118.302 95.0802Z"/><path fill="#fff" d="M118.262 98.0343L118.272 97.2959L127.613 97.6555L127.604 98.3939L118.262 98.0343Z"/><path fill="#fff" d="M118.223 100.987L118.232 100.249L127.574 100.609L127.564 101.347L118.223 100.987Z"/><path fill="#fff" d="M118.184 103.942L118.193 103.203L127.535 103.563L127.525 104.301L118.184 103.942Z"/><path fill="#2F91F9" d="M199.337 151.97L181.306 151.53C179.502 144.011 180.314 136.851 181.754 130.253L199.784 130.692C197.96 137.629 197.806 144.951 199.337 151.97Z"/><path fill="#fff" d="M184.842 134.955L184.852 134.217L194.193 134.576L194.183 135.315L184.842 134.955Z"/><path fill="#fff" d="M184.802 137.909L184.812 137.171L194.153 137.531L194.143 138.269L184.802 137.909Z"/><path fill="#fff" d="M184.764 140.863L184.774 140.125L194.115 140.484L194.106 141.223L184.764 140.863Z"/><path fill="#fff" d="M184.725 143.817L184.735 143.078L194.076 143.437L194.066 144.176L184.725 143.817Z"/><path fill="#fff" d="M184.686 146.771L184.695 146.032L194.037 146.392L194.027 147.13L184.686 146.771Z"/><path fill="#F0F0F0" d="M179.881 88.0429L161.85 87.6035C160.047 80.0838 160.859 72.924 162.298 66.3262L180.329 66.7656C178.505 73.7023 178.351 81.0244 179.881 88.0429Z"/><path fill="#fff" d="M165.386 71.0285L165.396 70.29L174.737 70.6492L174.727 71.3876L165.386 71.0285Z"/><path fill="#fff" d="M165.347 73.9826L165.357 73.2441L174.698 73.6038L174.688 74.3422L165.347 73.9826Z"/><path fill="#fff" d="M165.307 76.9357L165.317 76.1973L174.658 76.5569L174.648 77.2953L165.307 76.9357Z"/><path fill="#fff" d="M165.268 79.8898L165.277 79.1514L174.619 79.511L174.609 80.2494L165.268 79.8898Z"/><path fill="#fff" d="M165.228 82.8439L165.238 82.1055L174.579 82.4651L174.569 83.2035L165.228 82.8439Z"/><path fill="#FFB6B6" d="M198.364 136.29C198.986 136.125 199.566 135.815 200.065 135.383C200.564 134.95 200.968 134.405 201.25 133.787C201.532 133.168 201.684 132.49 201.696 131.801C201.708 131.112 201.58 130.428 201.32 129.798L212.689 118.354L204.824 116.319L195.234 127.499C194.279 128.039 193.542 128.937 193.162 130.023C192.782 131.109 192.785 132.307 193.171 133.391C193.557 134.474 194.299 135.368 195.256 135.902C196.213 136.436 197.319 136.574 198.364 136.29H198.364Z"/><path fill="#E4E4E4" d="M204.237 127.071L198.935 119.025L218.849 96.8543L223.474 61.9086C223.702 60.1812 224.281 58.5292 225.17 57.0699C226.058 55.6105 227.234 54.3795 228.615 53.4644C229.995 52.5493 231.545 51.9724 233.156 51.7748C234.766 51.5771 236.398 51.7635 237.934 52.3207C240.707 53.3305 242.996 55.4833 244.296 58.3068C245.597 61.1302 245.804 64.3937 244.872 67.3811L233.074 105.057L204.237 127.071Z"/><path fill="#FFB6B6" d="M241.629 275.971L235.743 275.971L232.943 251.536L241.63 251.537L241.629 275.971Z"/><path fill="#2F2E41" d="M244.797 287.999H240.62L239.875 283.755L237.965 287.999H226.889C226.358 288 225.841 287.817 225.413 287.478C224.985 287.14 224.669 286.663 224.511 286.117C224.353 285.571 224.361 284.986 224.535 284.445C224.708 283.905 225.037 283.439 225.474 283.114L234.319 276.539V272.248L243.623 272.846L244.797 287.999Z"/><path fill="#FFB6B6" d="M277.941 269.525L272.771 272.553L259.46 252.53L267.09 248.062L277.941 269.525Z"/><path fill="#2F2E41" d="M286.064 278.461L282.396 280.61L279.857 277.265L280.064 281.975L270.335 287.674C269.868 287.947 269.333 288.053 268.807 287.975C268.281 287.898 267.792 287.641 267.41 287.243C267.029 286.845 266.776 286.327 266.689 285.763C266.601 285.2 266.683 284.62 266.922 284.111L271.772 273.784L269.867 270.015L278.305 265.754L286.064 278.461Z"/><path fill="#2F2E41" d="M244.109 267.271H231.946V220.651L224.415 190.258C219.011 168.522 217.575 145.864 220.186 123.54L220.197 123.449L220.262 123.39C220.456 123.215 239.729 106.062 251.919 119.184C260.137 128.028 252.415 159.831 251.983 161.576V216.401L244.109 267.271Z"/><path fill="#E4E4E4" d="M216.482 132.007L220.403 89.8112C219.894 88.6606 212.562 81.3719 220.228 68.5571L228.508 47.6383L244.014 47.3789L244.079 47.4492C247.727 51.3671 250.417 56.1955 251.911 61.5042C253.404 66.8129 253.654 72.4368 252.638 77.8746L248.069 102.464L252.028 119.509L216.482 132.007Z"/><path fill="#2F2E41" d="M236.853 220.891L261.841 258.721L271.426 251.386L250.557 205.228L236.853 220.891Z"/><path fill="#FFB6B6" d="M234.811 43.3865C242.718 43.3865 249.129 36.4867 249.129 27.9755C249.129 19.4642 242.718 12.5645 234.811 12.5645C226.903 12.5645 220.493 19.4642 220.493 27.9755C220.493 36.4867 226.903 43.3865 234.811 43.3865Z"/><path fill="#000" d="M231.293 83.7168L235.213 109.035L231.293 130.133H223.452L227.016 109.035L231.293 83.7168Z" opacity=".1"/><path fill="#FFB6B6" d="M235.034 151.871C235.51 151.41 235.887 150.843 236.138 150.209C236.388 149.575 236.507 148.889 236.485 148.2C236.463 147.511 236.301 146.836 236.01 146.222C235.719 145.608 235.307 145.07 234.802 144.646L239.825 128.788L231.997 130.979L228.426 145.702C227.821 146.662 227.563 147.828 227.703 148.979C227.843 150.129 228.37 151.185 229.184 151.945C229.999 152.706 231.044 153.118 232.122 153.104C233.2 153.091 234.236 152.652 235.034 151.871Z"/><path fill="#E4E4E4" d="M236.182 140.762L227.985 136.35L235.856 106.699L224.648 73.5256C224.094 71.8859 223.882 70.135 224.028 68.3972C224.173 66.6595 224.672 64.9775 225.49 63.4707C226.307 61.9639 227.423 60.6693 228.757 59.6787C230.091 58.6881 231.612 58.0258 233.211 57.7389C236.1 57.2242 239.06 57.9639 241.443 59.7957C243.825 61.6274 245.435 64.4016 245.92 67.5096L251.993 106.727L236.182 140.762Z"/><path fill="#CACACA" d="M349 287.44C349 287.513 348.987 287.586 348.961 287.653C348.935 287.721 348.897 287.783 348.848 287.835C348.8 287.887 348.743 287.928 348.68 287.956C348.617 287.984 348.55 287.998 348.482 287.998H66.5232C66.3858 287.998 66.2539 287.939 66.1567 287.834C66.0595 287.73 66.0049 287.588 66.0049 287.44C66.0049 287.292 66.0595 287.15 66.1567 287.045C66.2539 286.941 66.3858 286.882 66.5232 286.882H348.482C348.619 286.882 348.751 286.941 348.848 287.046C348.945 287.15 349 287.292 349 287.44Z"/><path fill="#2F2E41" d="M290.498 27.2218C288.692 30.3782 284.866 31.7696 281.472 31.1376C278.078 30.5056 275.129 28.148 272.951 25.2763C270.773 22.4047 269.266 19.0245 267.783 15.6785C266.3 12.3324 264.801 8.94966 262.633 6.0685C260.466 3.18731 257.533 0.811506 254.144 0.14977C252.299 -0.210361 250.21 0.0273991 248.865 1.4318C247.937 2.48444 247.43 3.8872 247.454 5.33792C246.868 5.11565 246.239 5.05209 245.625 5.15284C245.01 5.25359 244.428 5.51555 243.929 5.91564C243.431 6.31573 243.031 6.84165 242.766 7.44706C242.501 8.05247 242.378 8.71878 242.409 9.38725C242.359 9.38621 242.309 9.38263 242.259 9.38263C235.945 5.51856 226.36 7.76327 226.36 11.9829C222.895 11.9829 218.661 15.6658 218.661 21.2584V21.2584C225.826 21.2584 230.042 31.1392 225.859 38.2239C224.78 40.031 223.589 41.7587 222.296 43.3957H231.256C232.008 42.2348 232.461 40.8809 232.571 39.4708C232.9 40.7518 233.096 42.0681 233.157 43.3957C233.157 43.3957 257.631 46.79 251.314 20.5333C251.732 20.5108 252.139 20.3782 252.498 20.1471C253.452 19.5283 253.971 18.2197 254.062 16.8917C254.298 16.9597 254.534 17.0274 254.769 17.0951C256.452 17.5843 258.201 18.2183 259.357 19.6242C261.311 22.0004 260.9 25.607 261.609 28.6866C262.464 32.4004 265.023 35.4042 267.866 37.7018C270.92 40.1704 274.487 42.0458 278.29 42.4351C282.092 42.8244 286.138 41.5799 288.772 38.6036C291.407 35.6273 292.324 30.8326 290.498 27.2218Z"/></g><defs><clipPath id="clip0_323:4553"><rect width="349" height="288" fill="#fff"/></clipPath></defs></svg>