<svg xmlns="http://www.w3.org/2000/svg" width="349" height="288" fill="none" viewBox="0 0 349 288"><g clip-path="url(#clip0_323:4495)"><path fill="#3F3D56" d="M160.944 61.4403H74.8497C74.427 61.4397 74.0218 61.256 73.7229 60.9293C73.424 60.6026 73.2559 60.1597 73.2554 59.6977V36.3558C73.2559 35.8939 73.424 35.4509 73.7229 35.1243C74.0218 34.7976 74.427 34.6138 74.8497 34.6133H160.944C161.366 34.6138 161.772 34.7976 162.07 35.1243C162.369 35.4509 162.537 35.8939 162.538 36.3558V59.6977C162.537 60.1597 162.369 60.6026 162.07 60.9293C161.772 61.256 161.366 61.4397 160.944 61.4403V61.4403ZM74.8497 35.3103C74.5961 35.3106 74.3529 35.4209 74.1736 35.6169C73.9943 35.8129 73.8934 36.0786 73.8931 36.3558V59.6977C73.8934 59.9749 73.9943 60.2407 74.1736 60.4367C74.3529 60.6327 74.5961 60.7429 74.8497 60.7432H160.944C161.197 60.7429 161.44 60.6327 161.62 60.4367C161.799 60.2407 161.9 59.9749 161.9 59.6977V36.3558C161.9 36.0786 161.799 35.8129 161.62 35.6169C161.44 35.4209 161.197 35.3106 160.944 35.3103L74.8497 35.3103Z"/><path fill="#2F91F9" d="M88.2262 54.2288C91.8129 54.2288 94.7206 51.0508 94.7206 47.1305C94.7206 43.2102 91.8129 40.0322 88.2262 40.0322C84.6394 40.0322 81.7317 43.2102 81.7317 47.1305C81.7317 51.0508 84.6394 54.2288 88.2262 54.2288Z"/><path fill="#E6E6E6" d="M103.224 42.3984C102.936 42.3984 102.661 42.5231 102.458 42.7449C102.255 42.9668 102.141 43.2677 102.141 43.5815C102.141 43.8953 102.255 44.1962 102.458 44.418C102.661 44.6399 102.936 44.7645 103.224 44.7645H154.251C154.538 44.7645 154.814 44.6399 155.017 44.418C155.22 44.1962 155.334 43.8953 155.334 43.5815C155.334 43.2677 155.22 42.9668 155.017 42.7449C154.814 42.5231 154.538 42.3984 154.251 42.3984H103.224Z"/><path fill="#E6E6E6" d="M103.224 49.4961C102.936 49.4961 102.661 49.6207 102.458 49.8426C102.255 50.0645 102.141 50.3654 102.141 50.6791C102.141 50.9929 102.255 51.2938 102.458 51.5157C102.661 51.7375 102.936 51.8622 103.224 51.8622H125.181C125.323 51.8625 125.464 51.8321 125.596 51.7728C125.727 51.7134 125.847 51.6263 125.948 51.5164C126.048 51.4066 126.128 51.2761 126.183 51.1324C126.237 50.9887 126.265 50.8347 126.265 50.6791C126.265 50.5236 126.237 50.3696 126.183 50.2259C126.128 50.0822 126.048 49.9517 125.948 49.8418C125.847 49.732 125.727 49.6449 125.596 49.5855C125.464 49.5262 125.323 49.4958 125.181 49.4961H103.224Z"/><path fill="#3F3D56" d="M123.566 144.643H85.3016C84.8789 144.643 84.4737 144.459 84.1748 144.132C83.8759 143.806 83.7078 143.363 83.7073 142.901V99.3451C83.7078 98.8831 83.8759 98.4402 84.1748 98.1135C84.4737 97.7869 84.8789 97.6031 85.3016 97.6025H123.566C123.988 97.6031 124.394 97.7869 124.692 98.1135C124.991 98.4402 125.16 98.8831 125.16 99.3451V142.901C125.16 143.363 124.991 143.806 124.692 144.132C124.394 144.459 123.988 144.643 123.566 144.643ZM85.3016 98.2996C85.048 98.2999 84.8048 98.4101 84.6255 98.6061C84.4462 98.8021 84.3453 99.0679 84.345 99.3451V142.901C84.3453 143.178 84.4462 143.444 84.6255 143.64C84.8048 143.836 85.048 143.946 85.3016 143.946H123.566C123.819 143.946 124.062 143.836 124.242 143.64C124.421 143.444 124.522 143.178 124.522 142.901V99.3451C124.522 99.0679 124.421 98.8021 124.242 98.6061C124.062 98.4101 123.819 98.2999 123.566 98.2996H85.3016Z"/><path fill="#E6E6E6" d="M93.4547 106.584C93.1677 106.584 92.8923 106.709 92.6894 106.93C92.4864 107.152 92.3723 107.453 92.3723 107.767C92.3723 108.081 92.4864 108.382 92.6894 108.604C92.8923 108.825 93.1677 108.95 93.4547 108.95H115.412C115.699 108.95 115.975 108.825 116.178 108.604C116.381 108.382 116.495 108.081 116.495 107.767C116.495 107.453 116.381 107.152 116.178 106.93C115.975 106.709 115.699 106.584 115.412 106.584H93.4547Z"/><path fill="#E6E6E6" d="M93.4535 113.554C93.3112 113.553 93.1702 113.584 93.0387 113.643C92.9071 113.702 92.7876 113.79 92.6869 113.899C92.5862 114.009 92.5062 114.14 92.4517 114.284C92.3972 114.427 92.3691 114.581 92.3691 114.737C92.3691 114.892 92.3972 115.046 92.4517 115.19C92.5062 115.334 92.5862 115.464 92.6869 115.574C92.7876 115.684 92.9071 115.771 93.0387 115.83C93.1702 115.89 93.3112 115.92 93.4535 115.92H115.411C115.698 115.92 115.973 115.795 116.176 115.573C116.379 115.351 116.493 115.051 116.493 114.737C116.493 114.423 116.379 114.122 116.176 113.9C115.973 113.678 115.698 113.554 115.411 113.554H93.4535Z"/><path fill="#2F91F9" d="M104.433 135.661C103.086 135.661 101.769 135.224 100.648 134.406C99.5277 133.588 98.6544 132.425 98.1387 131.064C97.6231 129.703 97.4881 128.206 97.751 126.762C98.0139 125.317 98.6628 123.99 99.6157 122.949C100.569 121.907 101.783 121.198 103.104 120.911C104.426 120.623 105.796 120.771 107.041 121.334C108.286 121.898 109.35 122.853 110.098 124.077C110.847 125.302 111.247 126.742 111.247 128.214C111.245 130.189 110.526 132.081 109.249 133.477C107.972 134.874 106.24 135.659 104.433 135.661V135.661Z"/><path fill="#3F3D56" d="M186.25 0H224.514C224.937 0.00054248 225.342 0.184307 225.641 0.510984C225.94 0.837661 226.108 1.28058 226.108 1.74257V45.2982C226.108 45.7602 225.94 46.2031 225.641 46.5298C225.342 46.8564 224.937 47.0402 224.514 47.0407H186.25C185.827 47.0402 185.422 46.8564 185.123 46.5298C184.824 46.2031 184.656 45.7602 184.656 45.2982V1.74257C184.656 1.28058 184.824 0.837661 185.123 0.510984C185.422 0.184307 185.827 0.00054248 186.25 0V0ZM224.514 46.3437C224.768 46.3434 225.011 46.2332 225.19 46.0372C225.369 45.8411 225.47 45.5754 225.471 45.2982V1.74257C225.47 1.46536 225.369 1.1996 225.19 1.00359C225.011 0.80758 224.768 0.697328 224.514 0.697025H186.25C185.996 0.697328 185.753 0.80758 185.574 1.00359C185.394 1.1996 185.294 1.46536 185.293 1.74257V45.2982C185.294 45.5754 185.394 45.8411 185.574 46.0372C185.753 46.2332 185.996 46.3434 186.25 46.3437H224.514Z"/><path fill="#E6E6E6" d="M216.36 38.0585C216.647 38.0585 216.923 37.9338 217.126 37.712C217.329 37.4901 217.443 37.1892 217.443 36.8754C217.443 36.5617 217.329 36.2608 217.126 36.0389C216.923 35.817 216.647 35.6924 216.36 35.6924H194.403C194.116 35.6924 193.841 35.817 193.638 36.0389C193.435 36.2608 193.321 36.5617 193.321 36.8754C193.321 37.1892 193.435 37.4901 193.638 37.712C193.841 37.9338 194.116 38.0585 194.403 38.0585H216.36Z"/><path fill="#E6E6E6" d="M216.36 31.0888C216.647 31.0888 216.923 30.9641 217.126 30.7423C217.329 30.5204 217.443 30.2195 217.443 29.9057C217.443 29.5919 217.329 29.291 217.126 29.0692C216.923 28.8473 216.647 28.7227 216.36 28.7227H194.403C194.116 28.7227 193.841 28.8473 193.638 29.0692C193.435 29.291 193.321 29.5919 193.321 29.9057C193.321 30.2195 193.435 30.5204 193.638 30.7423C193.841 30.9641 194.116 31.0888 194.403 31.0888H216.36Z"/><path fill="#2F91F9" d="M205.381 8.98242C206.729 8.98242 208.046 9.41917 209.166 10.2374C210.287 11.0557 211.16 12.2187 211.676 13.5794C212.191 14.9401 212.326 16.4374 212.064 17.882C211.801 19.3265 211.152 20.6534 210.199 21.6948C209.246 22.7363 208.032 23.4455 206.71 23.7328C205.389 24.0202 204.019 23.8727 202.774 23.3091C201.529 22.7454 200.465 21.791 199.716 20.5664C198.967 19.3417 198.568 17.902 198.568 16.4292C198.57 14.4549 199.288 12.562 200.566 11.166C201.843 9.76994 203.575 8.98465 205.381 8.98242Z"/><path fill="#3F3D56" d="M73.7467 90.1102C80.5178 84.3784 88.4286 80.4697 96.8387 78.7007C105.316 76.9352 114.057 77.4261 122.324 80.132C126.479 81.4844 130.472 83.3752 134.217 85.7643C138.032 88.2021 141.48 91.2031 144.797 94.3806C148.157 97.5994 151.407 100.962 154.915 103.992C164.93 112.741 177.363 117.522 190.184 117.552C191.243 117.554 192.302 117.522 193.36 117.457C193.933 117.422 193.937 116.443 193.36 116.478C180.29 117.264 167.385 113.002 156.901 104.436C153.265 101.465 149.945 98.0672 146.556 94.7748C143.271 91.5828 139.897 88.4778 136.169 85.9133C127.051 79.6348 116.443 76.4298 105.669 76.6982C94.8948 76.9666 84.4315 80.6965 75.5845 87.4226C74.7433 88.0619 73.9216 88.73 73.1132 89.4178C72.6587 89.8044 73.2968 90.493 73.7467 90.1102V90.1102Z"/><path fill="#3F3D56" d="M73.2703 94.8434C75.8419 94.8434 77.9265 92.5649 77.9265 89.7542C77.9265 86.9435 75.8419 84.665 73.2703 84.665C70.6987 84.665 68.614 86.9435 68.614 89.7542C68.614 92.5649 70.6987 94.8434 73.2703 94.8434Z"/><path fill="#3F3D56" d="M246.492 162.414C249.063 162.414 251.148 160.135 251.148 157.325C251.148 154.514 249.063 152.235 246.492 152.235C243.92 152.235 241.835 154.514 241.835 157.325C241.835 160.135 243.92 162.414 246.492 162.414Z"/><path fill="#3F3D56" d="M270.885 128.334H194.909C194.486 128.333 194.081 128.15 193.782 127.823C193.483 127.496 193.315 127.053 193.314 126.591V83.3842C193.315 82.9222 193.483 82.4793 193.782 82.1526C194.081 81.8259 194.486 81.6421 194.909 81.6416H270.885C271.307 81.6421 271.713 81.8259 272.012 82.1526C272.31 82.4793 272.479 82.9222 272.479 83.3842V126.591C272.479 127.053 272.31 127.496 272.012 127.823C271.713 128.15 271.307 128.333 270.885 128.334ZM194.909 82.3387C194.655 82.339 194.412 82.4492 194.232 82.6452C194.053 82.8412 193.952 83.107 193.952 83.3842V126.591C193.952 126.868 194.053 127.134 194.232 127.33C194.412 127.526 194.655 127.636 194.909 127.637H270.885C271.138 127.636 271.381 127.526 271.561 127.33C271.74 127.134 271.841 126.868 271.841 126.591V83.3842C271.841 83.107 271.74 82.8412 271.561 82.6452C271.381 82.4492 271.138 82.339 270.885 82.3387H194.909Z"/><path fill="#2F91F9" d="M207.65 104.046C211.237 104.046 214.145 100.868 214.145 96.9479C214.145 93.0276 211.237 89.8496 207.65 89.8496C204.063 89.8496 201.156 93.0276 201.156 96.9479C201.156 100.868 204.063 104.046 207.65 104.046Z"/><path fill="#E6E6E6" d="M222.649 92.2158C222.507 92.2155 222.366 92.2459 222.235 92.3053C222.103 92.3646 221.983 92.4517 221.883 92.5616C221.782 92.6715 221.702 92.802 221.648 92.9456C221.593 93.0893 221.565 93.2433 221.565 93.3989C221.565 93.5544 221.593 93.7084 221.648 93.8521C221.702 93.9958 221.782 94.1263 221.883 94.2362C221.983 94.346 222.103 94.4331 222.235 94.4925C222.366 94.5518 222.507 94.5822 222.649 94.5819H263.559C263.847 94.5819 264.122 94.4573 264.325 94.2354C264.528 94.0135 264.642 93.7126 264.642 93.3989C264.642 93.0851 264.528 92.7842 264.325 92.5623C264.122 92.3405 263.847 92.2158 263.559 92.2158H222.649Z"/><path fill="#E6E6E6" d="M222.649 99.3135C222.507 99.3132 222.366 99.3436 222.235 99.4029C222.103 99.4622 221.983 99.5493 221.883 99.6592C221.782 99.7691 221.702 99.8996 221.648 100.043C221.593 100.187 221.565 100.341 221.565 100.497C221.565 100.652 221.593 100.806 221.648 100.95C221.702 101.093 221.782 101.224 221.883 101.334C221.983 101.444 222.103 101.531 222.235 101.59C222.366 101.649 222.507 101.68 222.649 101.68H244.607C244.894 101.68 245.169 101.555 245.372 101.333C245.575 101.111 245.689 100.81 245.689 100.497C245.689 100.183 245.575 99.8819 245.372 99.66C245.169 99.4381 244.894 99.3135 244.607 99.3135H222.649Z"/><path fill="#E6E6E6" d="M202.669 110.662C201.845 110.662 201.175 111.193 201.175 111.845C201.175 112.497 201.845 113.028 202.669 113.028H262.954C263.777 113.028 264.447 112.497 264.447 111.845C264.447 111.193 263.777 110.662 262.954 110.662H202.669Z"/><path fill="#E6E6E6" d="M202.669 117.761C201.845 117.761 201.175 118.292 201.175 118.944C201.175 119.596 201.845 120.127 202.669 120.127H262.954C263.777 120.127 264.447 119.596 264.447 118.944C264.447 118.292 263.777 117.761 262.954 117.761H202.669Z"/><path fill="#3F3D56" d="M188.802 162.063C193.088 160.031 197.874 161.803 201.914 163.676C203.994 164.64 206.053 165.67 208.206 166.432C210.018 167.071 211.873 167.551 213.754 167.869C217.529 168.501 221.369 168.526 225.151 167.945C228.952 167.366 232.657 166.188 236.149 164.45C239.623 162.729 242.833 160.435 245.668 157.648C246.029 157.291 246.383 156.927 246.729 156.555C247.142 156.113 246.508 155.421 246.096 155.862C243.366 158.771 240.232 161.189 236.81 163.027C233.402 164.859 229.767 166.135 226.021 166.815C222.263 167.508 218.43 167.58 214.652 167.03C212.768 166.751 210.906 166.309 209.086 165.707C206.995 164.964 204.944 164.093 202.942 163.099C198.864 161.185 194.334 159.311 189.853 160.631C189.339 160.786 188.837 160.982 188.35 161.217C187.822 161.468 188.278 162.312 188.802 162.063V162.063Z"/><path fill="#2F91F9" d="M187.146 174.073H151.251L159.699 158.082C159.85 157.795 160.068 157.557 160.33 157.392C160.592 157.226 160.89 157.139 161.192 157.139C161.495 157.139 161.793 157.226 162.055 157.392C162.317 157.557 162.535 157.795 162.686 158.082L166.295 164.913L172.431 153.297C172.62 152.939 172.893 152.641 173.221 152.433C173.55 152.226 173.922 152.117 174.301 152.117C174.68 152.117 175.053 152.226 175.381 152.433C175.709 152.641 175.982 152.939 176.172 153.297L187.146 174.073Z"/><path fill="#3F3D56" d="M187.18 174.069H148.916C148.494 174.069 148.088 173.885 147.79 173.558C147.491 173.232 147.323 172.789 147.322 172.327V148.985C147.323 148.523 147.491 148.08 147.79 147.753C148.088 147.427 148.494 147.243 148.916 147.242H187.18C187.603 147.243 188.008 147.427 188.307 147.753C188.606 148.08 188.774 148.523 188.775 148.985V172.327C188.774 172.789 188.606 173.232 188.307 173.558C188.008 173.885 187.603 174.069 187.18 174.069ZM148.916 147.939C148.663 147.94 148.42 148.05 148.24 148.246C148.061 148.442 147.96 148.708 147.96 148.985V172.327C147.96 172.604 148.061 172.87 148.24 173.066C148.42 173.262 148.663 173.372 148.916 173.372H187.18C187.434 173.372 187.677 173.262 187.857 173.066C188.036 172.87 188.137 172.604 188.137 172.327V148.985C188.137 148.708 188.036 148.442 187.857 148.246C187.677 148.05 187.434 147.94 187.18 147.939H148.916Z"/><path fill="#FFB8B8" d="M262.23 153.526L255.409 157.311C252.975 158.662 250.625 158.431 249.726 155.614C249.511 154.944 249.432 154.23 249.494 153.524C249.555 152.817 249.756 152.133 250.081 151.518C250.407 150.904 250.851 150.373 251.381 149.964C251.912 149.554 252.517 149.274 253.156 149.144L259.638 147.821L287.4 137.754L304.218 124.721L310.382 135.456L290.951 146.916L262.23 153.526Z"/><path fill="#FFB8B8" d="M294.068 279.176L288.849 278.225L289.429 267.452H294.938L294.068 279.176Z"/><path fill="#FFB8B8" d="M344.714 268.654L339.664 270.376L335.739 260.473L340.656 257.76L344.714 268.654Z"/><path fill="#2F2E41" d="M341.903 259.215L335.526 262.066L305.085 218.34L295.519 269.671L289.141 268.403C285.049 224.149 281.713 179.01 285.807 157.661L309.434 156.552L320.161 193.941L325.379 219.29L341.903 259.215Z"/><path fill="#2F2E41" d="M293.781 287.889C292.827 288.113 291.832 287.997 290.942 287.56L287.842 286.035C285.243 285.889 283.473 286.455 282.026 284.391C281.618 283.801 281.361 283.102 281.283 282.367C281.206 281.632 281.309 280.888 281.583 280.212V280.212C281.855 279.533 282.287 278.945 282.835 278.509C283.383 278.074 284.028 277.805 284.702 277.731L288.96 274.799L289.183 276.997C291.129 278.202 293.44 277.682 295.888 276.509L297.224 281.621C297.396 282.28 297.443 282.971 297.361 283.65C297.279 284.33 297.07 284.984 296.747 285.572C296.424 286.16 295.994 286.669 295.484 287.067C294.974 287.466 294.394 287.746 293.781 287.889Z"/><path fill="#2F2E41" d="M346.781 277.402C345.945 277.952 344.97 278.196 343.998 278.098L340.613 277.756C338.111 278.541 336.606 279.704 334.624 278.265C334.062 277.852 333.612 277.282 333.32 276.615C333.028 275.948 332.905 275.207 332.963 274.47C333.018 273.731 333.253 273.022 333.641 272.416C334.03 271.809 334.56 271.326 335.176 271.017L338.332 266.732L339.196 268.732C341.395 269.181 343.425 267.869 345.392 265.891L348.175 270.251C348.534 270.814 348.783 271.451 348.907 272.122C349.032 272.794 349.028 273.487 348.898 274.158C348.767 274.828 348.512 275.462 348.147 276.02C347.783 276.578 347.318 277.049 346.781 277.402V277.402Z"/><path fill="#FFB8B8" d="M300.736 111.557C306.5 111.557 311.172 106.45 311.172 100.15C311.172 93.8502 306.5 88.7432 300.736 88.7432C294.972 88.7432 290.299 93.8502 290.299 100.15C290.299 106.45 294.972 111.557 300.736 111.557Z"/><path fill="#FFB8B8" d="M313.493 124.231L299.867 121.063L298.128 108.705L307.695 106.487L313.493 124.231Z"/><path fill="#2F91F9" d="M309.724 158.135H285.372L290.861 143.073C290.462 137.89 292.472 134.078 295.348 130.759L298.997 120.746C304.894 116.504 309.339 116.821 314.073 122.33C319.685 131.015 315.8 144.071 309.724 158.135Z"/><path fill="#FFB8B8" d="M298.706 190.138L298.014 198.465C297.767 201.436 296.339 203.489 293.677 202.824C293.044 202.665 292.449 202.359 291.934 201.927C291.419 201.494 290.995 200.945 290.692 200.317C290.389 199.688 290.214 198.996 290.179 198.287C290.143 197.578 290.249 196.869 290.487 196.208L292.908 189.504L299.866 158.452L298.706 135.955H310.303L308.853 160.036L298.706 190.138Z"/><path fill="#2F91F9" d="M311.173 136.589H297.837L298.772 127.081C298.833 125.436 299.455 123.876 300.515 122.707C301.575 121.538 302.996 120.844 304.5 120.762V120.762C305.297 120.719 306.094 120.848 306.845 121.144C307.596 121.439 308.286 121.894 308.874 122.483C309.463 123.071 309.939 123.782 310.275 124.573C310.611 125.364 310.8 126.22 310.832 127.091L311.173 136.589Z"/><path fill="#2F2E41" d="M313.655 88.4209C315.821 88.4209 317.577 86.5013 317.577 84.1333C317.577 81.7653 315.821 79.8457 313.655 79.8457C311.488 79.8457 309.732 81.7653 309.732 84.1333C309.732 86.5013 311.488 88.4209 313.655 88.4209Z"/><path fill="#2F2E41" d="M309.611 83.0838C309.676 81.996 310.117 80.9759 310.846 80.2314C311.574 79.4869 312.535 79.0739 313.532 79.0765C313.451 79.0653 313.371 79.0516 313.288 79.0458C312.251 78.9735 311.229 79.3547 310.448 80.1055C309.667 80.8563 309.191 81.9152 309.124 83.0496C309.058 84.1839 309.406 85.3008 310.092 86.1548C310.779 87.0087 311.747 87.5297 312.785 87.6033C312.868 87.6091 312.949 87.6068 313.031 87.607C312.041 87.47 311.137 86.9259 310.501 86.0855C309.866 85.2452 309.548 84.1717 309.611 83.0838V83.0838Z"/><path fill="#2F2E41" d="M309.59 84.9148C306.091 81.7427 296.056 85.7743 295.409 87.907C290.678 88.6116 287.096 91.6285 287.096 96.9928V96.9928C289.909 98.2522 293.108 98.097 296.566 96.9928C302.078 101.903 302.456 108.075 299.104 115.165L303.228 115.255L308.34 107.088L308.585 115.372L318.039 115.165V103.294C318.069 99.3468 317.238 95.4487 315.614 91.9232C314.141 88.7949 311.855 86.9683 309.59 84.9148Z"/><path fill="#FFB8B8" d="M300.786 105.888C301.822 105.888 302.662 104.603 302.662 103.018C302.662 101.433 301.822 100.147 300.786 100.147C299.75 100.147 298.91 101.433 298.91 103.018C298.91 104.603 299.75 105.888 300.786 105.888Z"/><path fill="#FFB9B9" d="M64.7515 106.66C64.7515 106.66 65.8807 85.297 71.743 90.1512C77.6053 95.0053 69.1829 108.641 69.1829 108.641L64.7515 106.66Z"/><path fill="#FFB9B9" d="M42.9416 170.027C42.9416 170.027 55.9638 186.006 48.6781 187.104C41.3923 188.202 38.5264 172.051 38.5264 172.051L42.9416 170.027Z"/><path fill="#575A89" d="M25.9472 94.3932C27.5816 94.8633 29.0525 95.8507 30.1752 97.2315C31.2979 98.6122 32.0223 100.325 32.2574 102.154L36.3996 134.378L42.2066 160.083C42.2066 160.083 45.11 162.939 43.9486 164.526C42.7872 166.112 45.4003 172.776 45.4003 172.776L38.1417 175.315C38.1417 175.315 37.2707 168.651 35.819 168.334C34.5431 168.055 20.2612 126.355 16.8187 116.253C16.344 114.86 16.0754 114.068 16.0754 114.068C16.0754 114.068 16.6561 92.8065 25.9472 94.3932Z"/><path fill="#FFB9B9" d="M27.2746 262.438L31.733 271.074C35.1857 279.131 32.1175 280.594 23.6521 276.601L21.7224 266.404L27.2746 262.438Z"/><path fill="#2F2E41" d="M29.5229 273.916C29.5229 273.916 31.6394 270.15 32.4049 270.78C33.1704 271.411 36.3278 274.142 36.3278 274.142L40.4405 278.448C40.4405 278.448 54.3356 280.053 45.5064 285.374C36.6771 290.696 31.7978 286.284 31.7978 286.284C31.7978 286.284 19.4316 286.986 19.631 283.215C19.8305 279.445 23.8187 273.479 23.8187 273.479C23.8187 273.479 28.8452 277.162 29.5229 273.916Z"/><path fill="#2F2E41" d="M7.49048 164.826L11.6703 220.104C11.6703 220.104 11.8096 253.149 16.2681 259.545C20.7265 265.941 20.8658 269.139 20.8658 269.139L30.0614 263.961C30.0614 263.961 25.3243 255.334 26.2996 254.013C26.9008 253.175 27.3286 252.205 27.5535 251.169L25.0456 217.058L29.7828 157.669L7.49048 164.826Z"/><path fill="#FFB9B9" d="M18.9154 262.438L15.0143 273.707L6.16699 269.664L10.8345 261.22L18.9154 262.438Z"/><path fill="#2F2E41" d="M12.4063 269.911C12.4063 269.911 15.7245 267.645 16.1393 268.551C16.5541 269.458 18.2131 273.311 18.2131 273.311L20.0796 278.978C20.0796 278.978 31.4859 286.911 21.7387 287.365C11.9916 287.818 9.50292 281.698 9.50292 281.698C9.50292 281.698 -1.48854 276.485 0.170558 273.311C1.82966 270.138 7.63646 266.847 7.63646 266.847C7.63646 266.847 10.5399 272.405 12.4063 269.911Z"/><path fill="#2F2E41" d="M42.8795 164.979L45.1087 215.841C45.1087 215.841 24.767 261.83 22.5378 263.048C21.8735 263.423 21.2847 263.939 20.8061 264.567C20.3275 265.195 19.9688 265.921 19.7512 266.703L7.49048 263.352L13.0636 253.606L25.3243 221.018C25.3243 221.018 27.2749 220.105 27.8322 217.059C28.3895 214.013 29.5041 214.013 26.7176 213.404C23.9311 212.795 23.9311 209.749 23.9311 209.749L14.7355 163.456L42.8795 164.979Z"/><path fill="#FFB9B9" d="M43.8506 74.9529C44.8367 68.3115 40.7102 62.054 34.6338 60.9763C28.5575 59.8985 22.8323 64.4087 21.8462 71.05C20.8601 77.6913 24.9866 83.9489 31.063 85.0266C37.1394 86.1044 42.8646 81.5942 43.8506 74.9529Z"/><path fill="#FFB9B9" d="M22.9555 73.7617C22.9555 73.7617 22.1196 89.2944 21.005 90.8172C19.8904 92.34 32.7084 92.0354 32.7084 92.0354C32.7084 92.0354 31.8725 78.9393 32.7084 77.721C33.5444 76.5028 22.9555 73.7617 22.9555 73.7617Z"/><path fill="#575A89" d="M43.7134 168.33C43.7134 168.33 12.2255 165.285 6.37524 168.33C6.37524 168.33 8.52888 159.597 7.97241 158.685C7.5677 158.018 8.68426 133.144 8.33375 118.795C8.13501 110.699 6.42583 102.792 11.3944 96.7812C13.0855 94.7393 14.9717 93.0252 16.9628 92.1879C16.9628 92.1879 16.4063 86.402 19.1923 86.0979C19.1923 86.0979 29.7834 84.8775 33.6824 88.5347C34.929 89.6958 35.7132 93.2345 35.7963 96.2835C33.8667 106.655 34.5496 118.164 36.3202 130.103C36.4286 130.861 36.5479 131.623 36.6671 132.386C38.5461 144.226 41.3863 156.434 43.7134 168.33Z"/><path fill="#2F2E41" d="M27.0243 76.5901C27.967 76.5287 28.8874 76.8768 29.8235 77.0127C33.1725 77.4986 36.6566 74.8424 37.3961 71.2394C37.4554 70.7596 37.5862 70.2937 37.7834 69.8601C38.2988 68.9403 39.4727 68.765 40.4404 68.9765C41.4081 69.188 42.3254 69.683 43.3109 69.7395C44.8325 69.8268 46.2933 68.8029 47.1043 67.3929C47.8706 65.9384 48.1965 64.2562 48.0353 62.587L47.3059 63.4238C47.0095 62.7384 46.895 61.9758 46.9756 61.2229C46.589 61.1103 46.1825 61.1082 45.795 61.2166C45.4074 61.3249 45.0518 61.5402 44.7622 61.8419C44.119 61.9167 44.6045 60.5379 44.1266 60.0614C43.8942 59.9053 43.6172 59.8487 43.3489 59.9024C41.9805 59.9168 40.8736 58.7729 39.7953 57.852C37.927 56.26 35.7423 55.1708 33.4176 54.6724C31.8725 54.343 30.2294 54.2901 28.7641 54.9189C27.5812 55.4993 26.5136 56.327 25.6215 57.3554C23.3273 59.7665 21.2958 62.5994 20.3414 65.9179C19.5655 68.636 19.5436 71.5444 20.2783 74.2762C20.6628 75.6949 21.8219 80.5535 23.5186 80.6666C25.6506 80.8088 24.3706 76.7632 27.0243 76.5901Z"/><path fill="#575A89" d="M31.6383 95.8877L35.6316 96.3553C35.6316 96.3553 39.5516 104.667 39.2669 106.401C38.9823 108.135 38.3623 107.082 40.1267 109.856C41.891 112.63 46.8975 119.8 47.5174 120.853C48.1374 121.906 65.0388 107.811 63.988 103.588C63.988 103.588 69.3259 107.774 71.6128 108.331C71.6128 108.331 54.1946 133.299 51.7673 136.494C49.3401 139.689 47.3865 139.033 44.0508 137.138C40.715 135.244 23.8396 116.347 23.8396 116.347L31.6383 95.8877Z"/><path fill="#000" d="M36.6685 132.385L22.7891 117.215L26.3014 115.963L36.3216 130.102C36.43 130.86 36.5492 131.623 36.6685 132.385Z" opacity=".1"/></g><defs><clipPath id="clip0_323:4495"><rect width="349" height="288" fill="#fff"/></clipPath></defs></svg>