<svg xmlns="http://www.w3.org/2000/svg" width="349" height="288" fill="none" viewBox="0 0 349 288"><path fill="#F0F0F0" d="M343.084 249.345C341.618 236.763 334.308 224.365 323.059 220.271C327.495 233.222 327.494 247.429 323.056 260.379C321.328 265.367 318.918 270.723 320.544 275.75C321.556 278.878 324.031 281.271 326.797 282.767C329.563 284.264 332.634 284.977 335.665 285.676L336.262 286.202C341.075 274.609 344.551 261.928 343.084 249.345Z"/><path fill="#fff" d="M322.947 220.509C329.498 228.339 333.57 238.172 334.583 248.611C334.839 250.854 334.762 253.126 334.354 255.344C333.892 257.49 332.899 259.465 331.479 261.064C330.183 262.583 328.692 263.977 327.765 265.805C327.303 266.749 327.034 267.786 326.974 268.848C326.915 269.911 327.066 270.974 327.419 271.97C328.238 274.475 329.852 276.517 331.495 278.455C333.319 280.607 335.246 282.811 336.021 285.664C336.115 286.01 336.612 285.834 336.518 285.489C335.169 280.525 330.653 277.706 328.499 273.235C327.493 271.149 327.072 268.727 328.014 266.525C328.838 264.599 330.374 263.161 331.698 261.635C333.105 260.097 334.137 258.215 334.705 256.154C335.217 253.965 335.377 251.7 335.176 249.455C334.801 244.393 333.682 239.425 331.86 234.733C329.808 229.367 326.911 224.414 323.294 220.09C323.07 219.822 322.725 220.243 322.947 220.509H322.947Z"/><path fill="#fff" d="M334.441 245.229C336.059 244.81 337.486 243.79 338.465 242.353C339.444 240.915 339.912 239.153 339.786 237.381C339.76 237.023 339.236 237.05 339.263 237.409C339.383 239.059 338.947 240.7 338.033 242.037C337.118 243.374 335.786 244.318 334.277 244.698C333.949 244.782 334.115 245.312 334.441 245.229Z"/><path fill="#fff" d="M332.229 260.386C329.305 258.524 327.147 255.554 326.185 252.07C326.09 251.725 325.592 251.9 325.687 252.245C326.695 255.869 328.947 258.954 331.993 260.885C332.284 261.069 332.518 260.569 332.229 260.386Z"/><path fill="#fff" d="M329.321 229.896C328.727 230.197 328.071 230.336 327.414 230.301C326.756 230.265 326.117 230.056 325.554 229.692C325.266 229.504 325.032 230.004 325.319 230.191C325.942 230.59 326.648 230.82 327.375 230.861C328.101 230.902 328.826 230.753 329.485 230.426C329.55 230.401 329.603 230.351 329.634 230.285C329.665 230.22 329.672 230.144 329.652 230.074C329.63 230.003 329.583 229.945 329.521 229.912C329.459 229.879 329.387 229.873 329.321 229.896Z"/><path fill="#F0F0F0" d="M288.77 242.744C288.947 242.867 289.124 242.989 289.301 243.117C291.67 244.779 293.908 246.643 295.994 248.692C296.158 248.847 296.321 249.008 296.481 249.168C301.457 254.161 305.521 260.095 308.466 266.671C309.636 269.288 310.617 271.997 311.402 274.774C312.485 278.608 313.374 282.858 315.518 285.994C315.738 286.324 315.978 286.639 316.234 286.937H335.612C335.657 286.914 335.701 286.895 335.745 286.871L336.519 286.909C336.488 286.763 336.452 286.612 336.421 286.466C336.404 286.381 336.382 286.296 336.364 286.211C336.351 286.154 336.337 286.098 336.329 286.046C336.324 286.027 336.32 286.008 336.315 285.994C336.307 285.942 336.293 285.895 336.284 285.848C336.09 285.004 335.889 284.159 335.683 283.315C335.683 283.31 335.683 283.31 335.679 283.306C334.091 276.877 331.987 270.533 329.047 264.732C328.958 264.558 328.87 264.378 328.773 264.204C327.434 261.597 325.898 259.111 324.179 256.771C323.234 255.493 322.229 254.266 321.168 253.097C318.421 250.08 315.246 247.543 311.76 245.579C304.81 241.664 296.764 240.164 289.336 242.555C289.146 242.617 288.96 242.678 288.77 242.744Z"/><path fill="#fff" d="M288.815 243.007C298.465 245.051 307.265 250.287 313.966 257.971C315.436 259.598 316.657 261.462 317.583 263.494C318.425 265.505 318.747 267.72 318.516 269.908C318.338 271.953 317.935 274.023 318.226 276.079C318.39 277.129 318.76 278.13 319.312 279.016C319.864 279.903 320.586 280.655 321.429 281.223C323.497 282.698 325.937 283.291 328.343 283.784C331.014 284.33 333.797 284.853 336.026 286.633C336.296 286.848 336.594 286.389 336.324 286.173C332.446 283.077 327.248 283.726 323.005 281.54C321.025 280.52 319.322 278.858 318.831 276.494C318.402 274.427 318.817 272.292 319.013 270.223C319.268 268.092 319.031 265.926 318.32 263.915C317.494 261.839 316.343 259.928 314.916 258.264C311.759 254.463 308.062 251.216 303.959 248.64C299.292 245.673 294.184 243.579 288.855 242.449C288.526 242.38 288.488 242.937 288.815 243.007H288.815Z"/><path fill="#fff" d="M311.943 255.362C312.999 253.988 313.563 252.258 313.533 250.481C313.504 248.704 312.883 246.996 311.782 245.663C311.559 245.394 311.156 245.752 311.38 246.021C312.408 247.261 312.985 248.852 313.01 250.506C313.034 252.161 312.503 253.77 311.513 255.044C311.298 255.321 311.73 255.637 311.943 255.362Z"/><path fill="#fff" d="M318.733 268.884C315.348 269.275 311.949 268.29 309.214 266.126C308.943 265.911 308.645 266.371 308.915 266.585C311.765 268.832 315.305 269.849 318.827 269.434C319.162 269.394 319.067 268.844 318.733 268.884Z"/><path fill="#fff" d="M299.201 246.408C298.896 247.03 298.451 247.563 297.906 247.956C297.361 248.35 296.733 248.594 296.078 248.664C295.742 248.7 295.838 249.249 296.172 249.214C296.895 249.132 297.588 248.863 298.192 248.429C298.795 247.995 299.289 247.411 299.632 246.726C299.669 246.664 299.683 246.59 299.671 246.518C299.658 246.445 299.621 246.381 299.565 246.337C299.508 246.295 299.438 246.279 299.37 246.293C299.301 246.306 299.241 246.347 299.201 246.408Z"/><path fill="#9E616A" d="M193.959 15.3762C193.492 15.9977 193.158 16.7209 192.981 17.4949C192.804 18.2689 192.789 19.0749 192.936 19.856C193.082 20.6371 193.388 21.3743 193.831 22.0159C194.273 22.6574 194.843 23.1875 195.498 23.569L192.511 42.6698L201.133 38.5878L202.648 21.0752C203.176 19.8578 203.266 18.4762 202.903 17.1921C202.54 15.9081 201.747 14.8109 200.676 14.1084C199.605 13.406 198.33 13.147 197.092 13.3807C195.854 13.6143 194.739 14.3243 193.959 15.3762Z"/><path fill="#9E616A" d="M271.527 279.631L264.477 279.63L261.123 250.621L271.528 250.622L271.527 279.631Z"/><path fill="#2F2E41" d="M273.324 286.921L250.591 286.92V286.614C250.591 284.11 251.524 281.71 253.183 279.939C254.842 278.169 257.093 277.175 259.439 277.175H259.44L273.324 277.175L273.324 286.921Z"/><path fill="#9E616A" d="M224.22 279.631L217.17 279.63L213.816 250.621L224.221 250.622L224.22 279.631Z"/><path fill="#2F2E41" d="M226.017 286.921L203.285 286.92V286.614C203.285 284.11 204.217 281.71 205.876 279.939C207.536 278.169 209.786 277.175 212.133 277.175H212.133L226.017 277.175L226.017 286.921Z"/><path fill="#2F2E41" d="M221.28 144.265L218.645 147.962C218.645 147.962 218.406 149.689 214.409 163.755L212.217 269.487H225.48L243.209 184.889L261.609 271.184L273.107 271.907L272.566 173.824C272.566 173.824 274.019 153.646 268.871 149.899C263.723 146.151 221.28 144.265 221.28 144.265Z"/><path fill="#9E616A" d="M239.068 55.415C246.755 55.415 252.986 48.7675 252.986 40.5674C252.986 32.3672 246.755 25.7197 239.068 25.7197C231.381 25.7197 225.15 32.3672 225.15 40.5674C225.15 48.7675 231.381 55.415 239.068 55.415Z"/><path fill="#2F2E41" d="M253.07 42.8918L252.84 42.4015C252.484 41.6432 249.541 35.3386 249.172 33.7175L245.468 34.1823L235.823 34.1839L237.163 32.0394L233.62 32.5324C232.325 32.7003 231.086 33.1983 230.009 33.9842C229.349 34.4525 228.79 35.0668 228.372 35.7856C227.106 38.0978 225.172 41.8797 225.153 41.9177L224.968 42.2795L223.361 39.3959C223.34 39.284 221.348 28.2033 228.013 24.4454C228.357 23.7006 231.286 17.8423 238.209 18.2377C238.97 17.3123 240.042 16.7438 241.193 16.6554C242.774 16.5674 244.415 17.4533 246.063 19.2996C248.252 21.7518 251.25 25.11 253.064 28.8387L253.564 29.6001C254.275 30.6897 254.627 32 254.565 33.3258C254.95 35.4417 254.813 37.6282 254.167 39.6707L253.07 42.8918Z"/><path fill="#E4E4E4" d="M249.672 58.209L257.374 62.7499L272.502 67.2687L267.987 109.503L268.808 151.104C268.808 151.104 243.2 169.818 218.645 147.962V95.5983L220.098 67.2687C220.098 67.2687 225.974 65.488 228.933 68.5598L234.544 60.7838L249.672 58.209Z"/><path fill="#E4E4E4" d="M223.491 71.1602L220.097 67.2691L201.398 65.0095L203.153 34.3719L192.958 26.6133L185.469 69.7453L220.068 95.5985L223.491 71.1602Z"/><path fill="#9E616A" d="M261.394 164.851C261.254 164.068 261.277 163.263 261.461 162.491C261.645 161.719 261.986 160.999 262.459 160.382C262.932 159.766 263.526 159.268 264.199 158.922C264.872 158.577 265.608 158.394 266.354 158.385L272.111 140.02L277.933 147.938L271.573 164.164C271.504 165.503 270.977 166.769 270.092 167.721C269.206 168.673 268.024 169.246 266.77 169.331C265.515 169.416 264.274 169.006 263.284 168.181C262.293 167.355 261.62 166.17 261.394 164.851Z"/><path fill="#E4E4E4" d="M266.818 72.1031L272.502 67.2686C272.502 67.2686 278.313 70.6882 280.082 76.8196C281.85 82.951 284.945 117.853 284.945 117.853L276.545 162.659L267.151 155.709L271.682 120.211L263.723 94.2704L266.818 72.1031Z"/><path fill="#E6E6E6" d="M195.567 0H52.2317V37.1573H195.567V0Z"/><path fill="#fff" d="M55.9941 33.1447H191.808V4.01172H55.9941V33.1447Z"/><path fill="#2F91F9" d="M81.8631 29.6773C87.6091 29.6773 92.2671 24.7082 92.2671 18.5784C92.2671 12.4486 87.6091 7.47949 81.8631 7.47949C76.1171 7.47949 71.459 12.4486 71.459 18.5784C71.459 24.7082 76.1171 29.6773 81.8631 29.6773Z"/><path fill="#2F91F9" d="M176.343 14.2354H106.74V16.6482H176.343V14.2354Z"/><path fill="#2F91F9" d="M176.343 20.5088H106.74V22.9216H176.343V20.5088Z"/><path fill="#E6E6E6" d="M0 56.4756L121.279 65.9126V99.8826L0 97.4801V56.4756Z"/><path fill="#fff" d="M3.8208 93.153L118.632 96.1486V69.3912L3.8208 61.1768V93.153Z"/><path fill="#E6E6E6" d="M29.0199 66.6485C30.3454 66.7398 31.6362 67.1385 32.8024 67.8168C33.972 68.4989 35.0096 69.4117 35.86 70.5067C36.7437 71.6395 37.436 72.9278 37.9057 74.3138C38.4012 75.7721 38.6541 77.3115 38.6529 78.8626C38.6581 80.3903 38.405 81.9064 37.9057 83.3382C37.4425 84.6679 36.7485 85.8925 35.86 86.9478C35.0068 87.962 33.9657 88.7763 32.8024 89.3392C31.6147 89.9082 30.3212 90.1814 29.0199 90.1381C27.6881 90.093 26.382 89.735 25.1948 89.0896C23.9922 88.4336 22.9204 87.5348 22.0389 86.443C21.114 85.3018 20.3879 83.9933 19.8949 82.5793C19.3718 81.0859 19.1044 79.5044 19.1056 77.9101C19.0998 76.3396 19.3674 74.7816 19.8949 73.3153C20.3816 71.9612 21.1099 70.7207 22.0394 69.6624C22.9248 68.654 24.0003 67.8571 25.1953 67.3242C26.4051 66.7905 27.7134 66.5594 29.0199 66.6485Z"/><path fill="#E6E6E6" d="M51.6084 75.0537L107.487 78.1602V80.418L51.6084 77.5217V75.0537Z"/><path fill="#E6E6E6" d="M51.6084 81.4717L107.487 84.0306V86.2884L51.6084 83.9397V81.4717Z"/><path fill="#E6E6E6" d="M0 125.483L121.279 123.081V157.051L0 166.488V125.483Z"/><path fill="#fff" d="M3.8208 161.787L118.632 153.573V126.818L3.8208 129.814V161.787Z"/><path fill="#E6E6E6" d="M19.114 144.512C19.1729 142.919 19.4999 141.35 20.0796 139.881C20.6239 138.496 21.3978 137.227 22.364 136.135C23.2836 135.092 24.3862 134.251 25.6093 133.661C26.819 133.08 28.1346 132.793 29.4609 132.821C30.7626 132.85 32.0412 133.193 33.2003 133.826C34.3399 134.453 35.3466 135.324 36.158 136.383C37.0042 137.487 37.6502 138.749 38.0628 140.105C38.5071 141.562 38.7031 143.093 38.6416 144.624C38.5858 146.173 38.2764 147.7 37.7274 149.136C37.2081 150.498 36.4689 151.751 35.5434 152.84C34.6545 153.89 33.5847 154.748 32.3922 155.368C31.2013 155.984 29.8978 156.313 28.5743 156.331C27.2638 156.348 25.967 156.044 24.7835 155.444C23.6107 154.843 22.5691 153.987 21.7259 152.93C20.8393 151.82 20.1606 150.538 19.7265 149.155C19.2565 147.66 19.0489 146.087 19.114 144.512Z"/><path fill="#E6E6E6" d="M51.6084 139.024L107.487 136.676V138.934L51.6084 141.492V139.024Z"/><path fill="#E6E6E6" d="M51.6084 145.442L107.487 142.546V144.804L51.6084 147.91V145.442Z"/><path fill="#CACACA" d="M348.557 287.409H180.11C179.993 287.409 179.881 287.359 179.798 287.271C179.715 287.182 179.668 287.063 179.668 286.937C179.668 286.812 179.715 286.692 179.798 286.604C179.881 286.516 179.993 286.466 180.11 286.466H348.557C348.675 286.466 348.787 286.516 348.87 286.604C348.953 286.692 348.999 286.812 348.999 286.937C348.999 287.063 348.953 287.182 348.87 287.271C348.787 287.359 348.675 287.409 348.557 287.409Z"/></svg>