<svg xmlns="http://www.w3.org/2000/svg" width="349" height="288" fill="none" viewBox="0 0 349 288"><g clip-path="url(#clip0_323:4456)"><path fill="#E4E4E4" d="M162.49 263.582C164.514 264.27 166.686 264.442 168.799 264.083C170.911 263.723 172.892 262.843 174.55 261.528C178.774 258.098 180.099 252.451 181.176 247.22L184.364 231.748L177.691 236.192C172.892 239.388 167.985 242.686 164.662 247.315C161.34 251.943 159.89 258.263 162.559 263.271"/><path fill="#F2F2F2" d="M163.52 283.391C162.681 277.473 161.816 271.479 162.407 265.497C162.93 260.185 164.606 254.997 168.018 250.742C169.829 248.488 172.032 246.557 174.529 245.035C175.18 244.638 175.779 245.635 175.131 246.031C170.811 248.672 167.469 252.572 165.587 257.168C163.509 262.279 163.176 267.851 163.534 273.28C163.75 276.564 164.21 279.826 164.671 283.084C164.708 283.231 164.685 283.386 164.608 283.518C164.53 283.65 164.404 283.748 164.255 283.793C164.102 283.833 163.94 283.813 163.802 283.738C163.665 283.662 163.564 283.537 163.521 283.39L163.52 283.391Z"/><path fill="#E4E4E4" d="M169.565 273.895C170.433 275.171 171.626 276.209 173.029 276.91C174.432 277.61 175.998 277.949 177.576 277.895C181.632 277.709 185.012 274.972 188.055 272.372L197.056 264.686L191.099 264.41C186.815 264.212 182.42 264.026 178.34 265.305C174.26 266.584 170.496 269.658 169.75 273.743"/><path fill="#F2F2F2" d="M161.146 286.793C165.19 279.874 169.88 272.183 178.26 269.725C180.59 269.044 183.033 268.8 185.458 269.007C186.222 269.07 186.031 270.21 185.269 270.146C181.204 269.82 177.147 270.858 173.781 273.085C170.542 275.218 168.02 278.182 165.886 281.326C164.579 283.251 163.408 285.259 162.236 287.263C161.862 287.904 160.768 287.441 161.146 286.793Z"/><path fill="#fff" d="M295.362 202.921H0V0H295.362V202.921Z"/><path fill="#2F91F9" d="M24.0585 83.3428C23.2953 83.3428 22.5633 83.636 22.0236 84.158C21.4839 84.68 21.1807 85.388 21.1807 86.1261C21.1807 86.8643 21.4839 87.5723 22.0236 88.0943C22.5633 88.6163 23.2953 88.9095 24.0585 88.9095H123.803C124.565 88.9081 125.296 88.6143 125.834 88.0924C126.373 87.5706 126.675 86.8634 126.675 86.1261C126.675 85.3889 126.373 84.6817 125.834 84.1599C125.296 83.638 124.565 83.3442 123.803 83.3428H24.0585Z"/><path fill="#2F91F9" d="M24.0607 100.044C23.2975 100.042 22.5648 100.334 22.024 100.855C21.4831 101.376 21.1784 102.083 21.1768 102.821C21.1752 103.56 21.4768 104.268 22.0154 104.791C22.554 105.314 23.2853 105.609 24.0486 105.611H123.879C124.642 105.611 125.374 105.317 125.914 104.795C126.453 104.273 126.757 103.566 126.757 102.827C126.757 102.089 126.453 101.381 125.914 100.859C125.374 100.337 124.642 100.044 123.879 100.044H24.0607Z"/><path fill="#2F91F9" d="M24.0607 116.505C23.2975 116.503 22.5648 116.795 22.024 117.316C21.4831 117.837 21.1784 118.544 21.1768 119.282C21.1752 120.021 21.4768 120.729 22.0154 121.252C22.554 121.775 23.2853 122.07 24.0486 122.072H46.5133C47.2766 122.072 48.0086 121.778 48.5483 121.256C49.088 120.734 49.3912 120.026 49.3912 119.288C49.3912 118.55 49.088 117.842 48.5483 117.32C48.0086 116.798 47.2766 116.505 46.5133 116.505H24.0607Z"/><path fill="#E5E5E5" d="M295.362 202.921H0V0H295.362V202.921ZM4.85527 198.225H290.507V4.69583H4.85527V198.225Z"/><path fill="#E4E4E4" d="M202.426 158.333C201.053 158.331 199.736 158.856 198.764 159.793C197.792 160.73 197.245 162.002 197.242 163.329C197.239 164.656 197.781 165.93 198.749 166.871C199.717 167.812 201.031 168.343 202.404 168.346H251.834C252.514 168.347 253.188 168.218 253.817 167.967C254.445 167.715 255.016 167.347 255.498 166.882C255.979 166.417 256.361 165.865 256.621 165.257C256.882 164.649 257.016 163.998 257.016 163.34C257.016 162.682 256.882 162.03 256.621 161.423C256.361 160.815 255.979 160.263 255.498 159.798C255.016 159.333 254.445 158.964 253.817 158.713C253.188 158.461 252.514 158.332 251.834 158.333H202.426Z"/><path fill="#E4E4E4" d="M202.426 97.7012C201.053 97.6993 199.736 98.2246 198.764 99.1614C197.792 100.098 197.245 101.37 197.242 102.697C197.239 104.025 197.781 105.299 198.749 106.239C199.717 107.18 201.031 107.711 202.404 107.715H251.834C252.514 107.715 253.188 107.586 253.817 107.335C254.445 107.084 255.016 106.715 255.498 106.25C255.979 105.785 256.361 105.233 256.621 104.625C256.882 104.017 257.016 103.366 257.016 102.708C257.016 102.05 256.882 101.399 256.621 100.791C256.361 100.183 255.979 99.6308 255.498 99.1658C255.016 98.7009 254.445 98.3322 253.817 98.0809C253.188 97.8295 252.514 97.7005 251.834 97.7012H202.426Z"/><path fill="#E4E4E4" d="M24.0607 160.651C23.6828 160.651 23.3084 160.722 22.9589 160.861C22.6095 161 22.2918 161.205 22.024 161.462C21.7562 161.72 21.5435 162.027 21.3981 162.364C21.2528 162.702 21.1776 163.063 21.1768 163.429C21.176 163.794 21.2496 164.156 21.3935 164.494C21.5374 164.832 21.7487 165.14 22.0154 165.399C22.2821 165.658 22.5989 165.863 22.9477 166.004C23.2966 166.145 23.6707 166.217 24.0486 166.218H123.879C124.642 166.218 125.374 165.925 125.914 165.403C126.453 164.881 126.757 164.173 126.757 163.435C126.757 162.697 126.453 161.989 125.914 161.467C125.374 160.945 124.642 160.651 123.879 160.651H24.0607Z"/><path fill="#E4E4E4" d="M24.0607 177.113C23.6828 177.113 23.3084 177.184 22.9589 177.323C22.6095 177.462 22.2918 177.666 22.024 177.924C21.7562 178.182 21.5435 178.489 21.3982 178.826C21.2528 179.164 21.1776 179.525 21.1768 179.891C21.176 180.256 21.2496 180.618 21.3935 180.956C21.5374 181.294 21.7487 181.602 22.0154 181.861C22.2821 182.12 22.5989 182.325 22.9477 182.466C23.2966 182.607 23.6707 182.679 24.0486 182.68H46.5133C47.2766 182.68 48.0086 182.387 48.5483 181.865C49.088 181.343 49.3912 180.635 49.3912 179.897C49.3912 179.158 49.088 178.451 48.5483 177.929C48.0086 177.407 47.2766 177.113 46.5133 177.113H24.0607Z"/><path fill="#E4E4E4" d="M24.0585 143.951C23.2953 143.951 22.5633 144.244 22.0236 144.766C21.4839 145.288 21.1807 145.996 21.1807 146.735C21.1807 147.473 21.4839 148.181 22.0236 148.703C22.5633 149.225 23.2953 149.518 24.0585 149.518H123.803C124.565 149.517 125.296 149.223 125.834 148.701C126.373 148.179 126.675 147.472 126.675 146.735C126.675 145.997 126.373 145.29 125.834 144.768C125.296 144.246 124.565 143.953 123.803 143.951H24.0585Z"/><path fill="#E4E4E4" d="M24.0585 22.7354C23.2953 22.7354 22.5633 23.0286 22.0236 23.5506C21.4839 24.0726 21.1807 24.7805 21.1807 25.5187C21.1807 26.2569 21.4839 26.9649 22.0236 27.4869C22.5633 28.0089 23.2953 28.3021 24.0585 28.3021H123.803C124.565 28.3007 125.296 28.0069 125.834 27.485C126.373 26.9632 126.675 26.256 126.675 25.5187C126.675 24.7814 126.373 24.0743 125.834 23.5524C125.296 23.0306 124.565 22.7367 123.803 22.7354H24.0585Z"/><path fill="#E4E4E4" d="M24.0607 39.4356C23.6828 39.4348 23.3084 39.506 22.9589 39.6452C22.6095 39.7843 22.2918 39.9887 22.024 40.2466C21.7562 40.5046 21.5435 40.811 21.3981 41.1484C21.2528 41.4858 21.1776 41.8475 21.1768 42.2131C21.176 42.5786 21.2496 42.9407 21.3935 43.2787C21.5374 43.6167 21.7487 43.9239 22.0154 44.1829C22.2821 44.4419 22.5989 44.6476 22.9477 44.7882C23.2966 44.9288 23.6707 45.0015 24.0486 45.0023H123.879C124.257 45.0023 124.631 44.9303 124.98 44.7904C125.329 44.6506 125.647 44.4455 125.914 44.1871C126.181 43.9286 126.393 43.6218 126.538 43.2841C126.682 42.9464 126.757 42.5845 126.757 42.2189C126.757 41.8534 126.682 41.4915 126.538 41.1538C126.393 40.8161 126.181 40.5092 125.914 40.2508C125.647 39.9923 125.329 39.7873 124.98 39.6474C124.631 39.5076 124.257 39.4356 123.879 39.4356H24.0607Z"/><path fill="#E4E4E4" d="M24.0607 55.8965C23.2975 55.8949 22.5648 56.1867 22.024 56.7076C21.4831 57.2284 21.1784 57.9358 21.1768 58.674C21.1752 59.4122 21.4768 60.1208 22.0154 60.6439C22.554 61.1669 23.2853 61.4617 24.0486 61.4632H46.5133C47.2766 61.4632 48.0086 61.17 48.5483 60.648C49.088 60.126 49.3912 59.4181 49.3912 58.6799C49.3912 57.9417 49.088 57.2337 48.5483 56.7117C48.0086 56.1897 47.2766 55.8965 46.5133 55.8965H24.0607Z"/><path fill="#E4E4E4" d="M202.426 37.1162C201.053 37.1144 199.736 37.6396 198.764 38.5765C197.792 39.5133 197.245 40.7852 197.242 42.1124C197.239 43.4396 197.781 44.7137 198.749 45.6545C199.717 46.5953 201.031 47.1259 202.404 47.1297H251.834C252.514 47.1303 253.188 47.0013 253.817 46.75C254.445 46.4987 255.016 46.13 255.498 45.665C255.979 45.2 256.361 44.6479 256.621 44.0401C256.882 43.4323 257.016 42.7809 257.016 42.123C257.016 41.465 256.882 40.8136 256.621 40.2058C256.361 39.598 255.979 39.0459 255.498 38.5809C255.016 38.1159 254.445 37.7472 253.817 37.4959C253.188 37.2446 252.514 37.1156 251.834 37.1162H202.426Z"/><path fill="#CACACA" d="M212.838 51.0547C217.965 51.0547 222.122 47.0346 222.122 42.0757C222.122 37.1167 217.965 33.0967 212.838 33.0967C207.711 33.0967 203.554 37.1167 203.554 42.0757C203.554 47.0346 207.711 51.0547 212.838 51.0547Z"/><path fill="#FFB6B6" d="M229.066 104.879C228.963 105.6 229.025 106.334 229.247 107.029C229.469 107.724 229.846 108.364 230.351 108.903C230.857 109.442 231.478 109.867 232.172 110.149C232.865 110.431 233.614 110.562 234.366 110.533L239.296 120.859L246.515 119.492L239.341 105.004C239.208 103.786 238.617 102.658 237.681 101.832C236.744 101.007 235.528 100.543 234.261 100.528C232.994 100.512 231.766 100.947 230.809 101.749C229.851 102.551 229.231 103.665 229.066 104.879V104.879Z"/><path fill="#3F3D56" d="M279.007 143.955L258.892 134.332L244.698 111.033L234.777 115.675L247.653 142.59L280.179 160.75L279.007 143.955Z"/><path fill="#FFB6B6" d="M233.597 281.689L227.273 281.688L224.265 264.056L233.598 264.056L233.597 281.689Z"/><path fill="#2F2E41" d="M235.208 287.617L214.819 287.616V287.367C214.819 285.331 215.656 283.379 217.144 281.939C218.632 280.5 220.651 279.692 222.755 279.691H222.756L235.208 279.692L235.208 287.617Z"/><path fill="#FFB6B6" d="M296.713 270.472L292.301 274.853L277.142 264.635L283.653 258.169L296.713 270.472Z"/><path fill="#2F2E41" d="M302.229 273.49L288.003 287.616L287.818 287.442C286.31 286.022 285.448 284.081 285.42 282.045C285.392 280.01 286.202 278.047 287.67 276.589L287.67 276.589L296.359 267.961L302.229 273.49Z"/><path fill="#2F2E41" d="M241.414 176.749H237.04C225.671 188.765 216.993 202.924 211.55 218.337L206.325 233.132L224.946 270.839L236.565 271.039L223.285 231.007L236.664 213.847L237.338 248.342L280.401 270.173L289.02 257.859L253.978 239.328L259.946 209.986C259.946 209.986 271.952 200.303 264.961 185.164L241.414 176.749Z"/><path fill="#3F3D56" d="M298.972 138.35L280.798 130.652L260.795 139.225C260.795 139.225 255.131 142.341 258.742 150.322L237.039 176.75C237.039 176.75 237.079 176.761 264.354 185.165L288.962 164.206C292.699 161.023 295.567 156.999 297.312 152.49C299.058 147.98 299.628 143.124 298.972 138.35V138.35Z"/><path fill="#FFB6B6" d="M295.923 130.425C302.919 130.425 308.591 124.939 308.591 118.173C308.591 111.406 302.919 105.921 295.923 105.921C288.926 105.921 283.255 111.406 283.255 118.173C283.255 124.939 288.926 130.425 295.923 130.425Z"/><path fill="#2F2E41" d="M312.327 101.914C309.42 99.6266 304.911 99.1271 301.909 101.298C296.675 98.6407 289.601 100.027 285.848 104.445C284.498 106.035 283.541 108.186 284.209 110.139C284.877 112.092 287.759 113.241 289.261 111.784L289.234 112.384C290.587 113.694 291.525 115.351 291.937 117.159C292.35 118.967 292.221 120.851 291.564 122.591C290.908 124.33 289.751 125.852 288.231 126.977C286.711 128.103 284.89 128.785 282.982 128.944C287.134 130.566 291.285 132.188 295.436 133.81C297.183 134.492 298.985 135.186 300.869 135.176C302.752 135.167 304.76 134.282 305.491 132.603C306.017 134.161 306.542 135.719 307.068 137.277C310.162 132.516 312.707 127.441 314.657 122.144C315.914 118.729 316.93 115.158 316.794 111.535C316.659 107.913 315.234 104.202 312.327 101.914Z"/><path fill="#CACACA" d="M212.838 172.27C217.965 172.27 222.122 168.25 222.122 163.291C222.122 158.333 217.965 154.312 212.838 154.312C207.711 154.312 203.554 158.333 203.554 163.291C203.554 168.25 207.711 172.27 212.838 172.27Z"/><path fill="#2F91F9" d="M241.721 111.686C246.848 111.686 251.005 107.666 251.005 102.707C251.005 97.7485 246.848 93.7285 241.721 93.7285C236.594 93.7285 232.437 97.7485 232.437 102.707C232.437 107.666 236.594 111.686 241.721 111.686Z"/><path fill="#FFB6B6" d="M241.96 99.8899C241.857 100.611 241.919 101.345 242.141 102.04C242.363 102.735 242.74 103.375 243.245 103.914C243.751 104.453 244.372 104.878 245.066 105.16C245.759 105.441 246.508 105.573 247.26 105.544L252.19 115.87L259.409 114.503L252.235 100.015C252.102 98.7969 251.511 97.6683 250.575 96.8432C249.638 96.0182 248.422 95.5539 247.155 95.5385C245.889 95.523 244.66 95.9575 243.703 96.7595C242.745 97.5615 242.125 98.6753 241.96 99.8899V99.8899Z"/><path fill="#3F3D56" d="M291.901 138.967L271.786 129.344L257.592 106.045L247.671 110.687L260.547 137.602L293.073 155.762L291.901 138.967Z"/><path fill="#CACACA" d="M348.483 288H151.975C151.838 288 151.707 287.947 151.61 287.854C151.513 287.76 151.459 287.633 151.459 287.501C151.459 287.368 151.513 287.242 151.61 287.148C151.707 287.054 151.838 287.002 151.975 287.002H348.483C348.62 287.002 348.751 287.054 348.848 287.148C348.945 287.242 348.999 287.368 348.999 287.501C348.999 287.633 348.945 287.76 348.848 287.854C348.751 287.947 348.62 288 348.483 288Z"/></g><defs><clipPath id="clip0_323:4456"><rect width="349" height="288" fill="#fff"/></clipPath></defs></svg>