<svg xmlns="http://www.w3.org/2000/svg" width="349" height="288" fill="none" viewBox="0 0 349 288"><g clip-path="url(#clip0_323:4370)"><path fill="#2F91F9" d="M343.475 193.62C335.38 212.873 318.944 225.746 301.911 234.236C278.98 245.67 253.727 250.205 228.822 248.287C224.457 247.952 220.106 247.417 215.768 246.681C200.701 244.147 186.012 239.215 172.12 232.027C168.111 229.945 164.183 227.673 160.336 225.209C153.911 221.103 147.755 216.461 141.917 211.32C140.449 210.028 139 208.702 137.573 207.344C136.583 206.403 135.602 205.44 134.605 204.506C132.503 202.535 130.34 200.663 127.927 199.262C127.199 198.838 126.453 198.459 125.691 198.124C118.051 194.773 109.24 196.037 101.286 198.65C95.2352 200.639 89.3371 203.361 83.2928 205.303C80.6043 206.194 77.8648 206.865 75.0946 207.312C68.9098 208.215 62.6291 207.579 56.6754 205.447L56.1666 205.265C55.3136 204.955 54.4677 204.617 53.6289 204.249L53.1201 204.025C52.3077 203.664 51.5126 203.276 50.7347 202.862L50.2259 202.595C49.4135 202.159 48.6184 201.699 47.8405 201.215C47.5602 201.046 47.283 200.863 47.0088 200.691C42.583 197.841 38.56 194.23 35.0786 189.981C34.9781 189.865 34.8836 189.746 34.774 189.63C34.2896 189.026 33.8143 188.411 33.3543 187.782C33.1837 187.551 33.0131 187.319 32.8455 187.08C32.2992 186.312 31.7721 185.526 31.2644 184.723C31.1882 184.607 31.1151 184.488 31.042 184.372C28.9617 181.054 27.237 177.458 25.9056 173.662C25.8629 173.546 25.8233 173.427 25.7867 173.311C25.3805 172.105 25.0099 170.879 24.6748 169.633C24.5377 169.113 24.4067 168.579 24.2909 168.059C24.2513 167.905 24.2147 167.747 24.1812 167.592C22.4995 159.959 22.3076 152.024 22.3076 144.135C22.3076 143.215 22.3076 142.296 22.3076 141.378C22.3564 128.617 22.527 115.638 24.1599 103.052C24.1599 102.964 24.1812 102.876 24.1934 102.792C24.7399 98.5551 25.4834 94.3551 26.4204 90.21C27.4011 85.8607 28.6545 81.5993 30.1707 77.4593C33.927 67.2729 39.3894 58.0032 45.4551 49.4114C60.7334 27.7914 80.7703 9.64194 104.222 2.84861C129.493 -4.46809 157.579 2.54302 177.963 21.2545C184.178 26.959 189.763 33.7137 196.742 38.0868C202.835 41.8945 209.967 43.4716 216.493 40.4754C221.885 37.999 225.395 36.7696 231.451 37.1454C243.989 37.9633 256.35 40.9483 268.119 46.0007C268.594 46.2009 269.07 46.4081 269.542 46.6154C300.223 60.1493 326.597 87.0382 340.306 121.591C340.67 122.505 341.022 123.425 341.363 124.352C349.537 146.366 352.492 172.166 343.475 193.62Z" opacity=".1"/><path fill="#2F91F9" d="M36.65 260.981C51.5036 260.981 63.5447 258.751 63.5447 256C63.5447 253.25 51.5036 251.02 36.65 251.02C21.7965 251.02 9.75537 253.25 9.75537 256C9.75537 258.751 21.7965 260.981 36.65 260.981Z" opacity=".1"/><path fill="#2F91F9" d="M277.922 288.001C304.258 288.001 325.609 285.61 325.609 282.661C325.609 279.713 304.258 277.322 277.922 277.322C251.585 277.322 230.234 279.713 230.234 282.661C230.234 285.61 251.585 288.001 277.922 288.001Z" opacity=".1"/><path fill="url(#paint0_linear_323:4370)" d="M321.097 37.8477H39.1869C37.0854 37.8477 35.3818 39.8119 35.3818 42.2349V222.553C35.3818 224.976 37.0854 226.94 39.1869 226.94H321.097C323.198 226.94 324.902 224.976 324.902 222.553V42.2349C324.902 39.8119 323.198 37.8477 321.097 37.8477Z"/><path fill="#fff" d="M320.671 40.5068H39.6484C37.5469 40.5068 35.8433 42.4711 35.8433 44.894V221.925C35.8433 224.348 37.5469 226.312 39.6484 226.312H320.671C322.773 226.312 324.476 224.348 324.476 221.925V44.894C324.476 42.4711 322.773 40.5068 320.671 40.5068Z"/><path fill="#fff" d="M320.671 40.5068H39.6484C37.5469 40.5068 35.8433 42.4711 35.8433 44.894V221.925C35.8433 224.348 37.5469 226.312 39.6484 226.312H320.671C322.773 226.312 324.476 224.348 324.476 221.925V44.894C324.476 42.4711 322.773 40.5068 320.671 40.5068Z"/><path fill="#fff" d="M320.671 40.5068H39.6484C37.5469 40.5068 35.8433 42.4711 35.8433 44.894V221.925C35.8433 224.348 37.5469 226.312 39.6484 226.312H320.671C322.773 226.312 324.476 224.348 324.476 221.925V44.894C324.476 42.4711 322.773 40.5068 320.671 40.5068Z" opacity=".04"/><path fill="#5A5773" d="M323.011 38.375H37.3086C36.92 38.375 36.5473 38.553 36.2725 38.8699C35.9977 39.1867 35.8433 39.6165 35.8433 40.0646V47.2056H324.464V40.0646C324.464 39.6189 324.312 39.1913 324.039 38.8748C323.767 38.5583 323.398 38.3787 323.011 38.375Z"/><path fill="#fff" d="M41.6062 45.0732C42.6999 45.0732 43.5864 44.051 43.5864 42.79C43.5864 41.5291 42.6999 40.5068 41.6062 40.5068C40.5126 40.5068 39.626 41.5291 39.626 42.79C39.626 44.051 40.5126 45.0732 41.6062 45.0732Z"/><path fill="#fff" d="M46.9378 45.0732C48.0314 45.0732 48.918 44.051 48.918 42.79C48.918 41.5291 48.0314 40.5068 46.9378 40.5068C45.8441 40.5068 44.9575 41.5291 44.9575 42.79C44.9575 44.051 45.8441 45.0732 46.9378 45.0732Z"/><path fill="#fff" d="M52.2693 45.0732C53.363 45.0732 54.2495 44.051 54.2495 42.79C54.2495 41.5291 53.363 40.5068 52.2693 40.5068C51.1756 40.5068 50.2891 41.5291 50.2891 42.79C50.2891 44.051 51.1756 45.0732 52.2693 45.0732Z"/><path fill="#2F91F9" d="M137.072 63.8135H59.6143V71.3936H137.072V63.8135Z" opacity=".2"/><path fill="#5A5773" d="M300.704 94.207H59.6143V210.811H300.704V94.207Z" opacity=".1"/><path fill="#000" d="M200.775 101.812H196.647V92.5668C196.647 82.1344 189.433 73.4619 180.384 73.3038C178.203 73.2774 176.038 73.749 174.015 74.6916C171.992 75.6342 170.151 77.0291 168.597 78.7959C167.044 80.5627 165.809 82.6664 164.964 84.9858C164.119 87.3053 163.681 89.7946 163.674 92.3104V101.812H159.555C157.735 101.818 155.991 102.655 154.704 104.139C153.417 105.623 152.691 107.634 152.686 109.733V147.746C152.691 149.845 153.417 151.856 154.704 153.34C155.991 154.824 157.735 155.66 159.555 155.667H200.775C202.595 155.66 204.339 154.824 205.625 153.339C206.912 151.855 207.637 149.844 207.642 147.746V109.733C207.637 107.634 206.912 105.623 205.625 104.139C204.339 102.655 202.595 101.818 200.775 101.812ZM182.572 126.523V140.138C182.576 140.859 182.342 141.554 181.918 142.084C181.494 142.613 180.911 142.937 180.287 142.99C179.961 143.007 179.636 142.949 179.331 142.817C179.026 142.686 178.747 142.484 178.511 142.225C178.275 141.965 178.087 141.653 177.959 141.308C177.831 140.963 177.765 140.591 177.764 140.215V126.516C176.65 125.889 175.753 124.846 175.219 123.555C174.685 122.265 174.546 120.804 174.825 119.411C175.104 118.018 175.784 116.775 176.754 115.885C177.725 114.995 178.928 114.51 180.168 114.51C181.408 114.51 182.612 114.995 183.582 115.885C184.552 116.775 185.232 118.018 185.511 119.411C185.79 120.804 185.651 122.265 185.118 123.555C184.584 124.846 183.686 125.889 182.572 126.516V126.523ZM191.845 101.812H168.482V92.3104C168.482 88.7396 169.712 85.315 171.902 82.7901C174.092 80.2651 177.062 78.8466 180.159 78.8466C183.256 78.8466 186.226 80.2651 188.416 82.7901C190.606 85.315 191.836 88.7396 191.836 92.3104L191.845 101.812Z" opacity=".1"/><path fill="#2F91F9" d="M200.775 101.11H196.647V91.8646C196.647 81.4323 189.433 72.7597 180.384 72.6016C178.203 72.5752 176.038 73.0469 174.015 73.9895C171.992 74.9321 170.151 76.327 168.597 78.0937C167.044 79.8605 165.809 81.9642 164.964 84.2837C164.119 86.6032 163.681 89.0925 163.674 91.6082V101.11H159.555C157.735 101.116 155.991 101.953 154.704 103.437C153.417 104.921 152.691 106.932 152.686 109.031V147.044C152.691 149.142 153.417 151.153 154.704 152.637C155.991 154.122 157.735 154.958 159.555 154.965H200.775C202.595 154.958 204.339 154.121 205.625 152.637C206.912 151.153 207.637 149.142 207.642 147.044V109.031C207.637 106.932 206.912 104.921 205.625 103.437C204.339 101.953 202.595 101.116 200.775 101.11ZM182.572 125.821V139.435C182.576 140.156 182.342 140.852 181.918 141.382C181.494 141.911 180.911 142.235 180.287 142.288C179.961 142.305 179.636 142.247 179.331 142.115C179.026 141.984 178.747 141.782 178.511 141.523C178.275 141.263 178.087 140.951 177.959 140.606C177.831 140.26 177.765 139.889 177.764 139.513V125.814C176.65 125.187 175.753 124.143 175.219 122.853C174.685 121.563 174.546 120.102 174.825 118.709C175.104 117.316 175.784 116.073 176.754 115.183C177.725 114.293 178.928 113.808 180.168 113.808C181.408 113.808 182.612 114.293 183.582 115.183C184.552 116.073 185.232 117.316 185.511 118.709C185.79 120.102 185.651 121.563 185.118 122.853C184.584 124.143 183.686 125.187 182.572 125.814V125.821ZM191.845 101.11H168.482V91.6082C168.482 88.0374 169.712 84.6129 171.902 82.0879C174.092 79.563 177.062 78.1445 180.159 78.1445C183.256 78.1445 186.226 79.563 188.416 82.0879C190.606 84.6129 191.836 88.0374 191.836 91.6082L191.845 101.11Z"/><path fill="#5A5773" d="M300.702 82.9844H276.3V89.6267H300.702V82.9844Z" opacity=".1"/><path fill="url(#paint1_linear_323:4370)" d="M309.009 284.27C308.849 283.339 308.574 282.439 308.193 281.597L304.537 275.302H304.558C304.558 275.302 303.983 272.141 304.558 270.588C305.134 269.036 302.505 265.218 302.505 265.218C302.505 265.218 302.185 264.259 303.02 263.079C303.855 261.898 302.505 258.442 302.505 258.442C302.505 258.442 301.865 251.224 301.801 250.121C301.737 249.018 301.222 242.906 301.222 242.906L300.004 229.948L297.835 195.605L297.795 194.963C298.063 194.812 298.206 194.717 298.206 194.717L297.774 175.728L298.149 175.338C301.421 171.924 308.967 164.02 308.891 163.848C308.814 163.676 307.977 150.651 307.879 147.392C307.795 145.075 307.356 142.794 306.581 140.655C306.392 140.223 305.847 137.374 305.622 136.169C305.561 135.839 305.521 135.632 305.521 135.632C305.521 135.632 303.309 130.77 303.501 128.561C303.693 126.351 304.077 124.697 299.361 123.924C299.361 123.924 295.401 123.243 293.043 121.385C291.648 120.272 290.124 119.392 288.515 118.771C288.515 118.771 287.193 115.961 286.273 116.913C285.884 115.91 285.592 114.861 285.405 113.783L285.378 113.587C287.124 112.182 288.381 110.108 288.924 107.735C288.954 107.601 288.979 107.464 289.006 107.331C289.097 107.366 289.193 107.387 289.289 107.39C290.091 107.39 290.584 106.361 291.333 106.035C291.638 105.898 292.013 105.877 292.247 105.599C292.325 105.492 292.382 105.368 292.417 105.235C292.452 105.101 292.462 104.961 292.449 104.823C292.456 104.727 292.456 104.631 292.449 104.535C292.45 104.501 292.45 104.467 292.449 104.433V104.468C292.244 103.189 291.385 102.055 291.48 100.755C291.571 99.5328 292.503 98.4579 292.427 97.2672C292.426 97.173 292.419 97.0791 292.406 96.9862V97.0283C292.292 96.5634 292.083 96.1369 291.797 95.7849C291.469 95.2697 291.038 94.8529 290.541 94.5695C290.118 94.3552 289.627 94.3061 289.231 94.0496C288.068 93.319 288.071 91.4152 287.379 90.1155C287.083 89.573 286.662 89.1353 286.164 88.8509C285.666 88.5664 285.109 88.4461 284.555 88.5033C283.69 88.6016 282.907 89.132 282.051 89.3041C280.881 89.543 279.69 89.1039 278.581 88.6016C277.472 88.0993 276.348 87.5479 275.157 87.5479C273.965 87.5479 272.677 88.2504 272.317 89.5465C272.125 90.249 272.22 91.0042 272.073 91.7173C271.811 92.9748 270.855 93.874 269.865 94.4993C269.255 94.8891 268.53 95.3352 268.341 96.0729C268.341 96.0518 268.341 96.0343 268.341 96.0167C268.328 96.0755 268.318 96.1354 268.311 96.1958C268.305 96.2741 268.305 96.3529 268.311 96.4312C268.311 96.937 268.543 97.4182 268.698 97.8994C268.987 98.8149 268.981 99.8201 268.68 100.731C268.454 101.398 268.07 101.985 267.851 102.648C267.748 102.958 267.68 103.281 267.65 103.611V103.555C267.642 103.704 267.642 103.855 267.65 104.004C267.646 104.517 267.751 105.024 267.955 105.48C268.094 105.794 268.287 106.074 268.522 106.301C268.757 106.529 269.029 106.7 269.322 106.804C269.932 106.965 270.313 106.277 270.955 106.453C271.07 106.485 271.183 106.526 271.294 106.576C271.315 106.734 271.336 106.892 271.361 107.046C271.749 109.41 272.842 111.543 274.45 113.077C274.45 113.162 274.474 113.246 274.483 113.334C274.678 114.734 274.762 116.152 274.736 117.57C274.736 117.57 273.776 115.951 272.46 119.077C272.46 119.077 269.027 121.36 267.842 121.62C266.657 121.88 262.449 123.569 262.449 123.569C261.815 124.098 261.051 124.382 260.268 124.381C258.955 124.381 257.864 127.693 258.023 129.495C258.181 131.297 257.928 132.625 256.707 132.699C255.485 132.772 256.152 135.628 256.161 135.677L256.049 136.292C255.811 137.549 255.293 140.247 255.11 140.669C254.336 142.808 253.895 145.089 253.81 147.406C253.715 150.665 252.896 163.641 252.801 163.862C252.737 164.006 257.907 169.454 261.542 173.262L262.069 173.81L260.396 191.822C260.445 192.516 260.624 193.19 260.92 193.796C261.217 194.403 261.624 194.928 262.114 195.335C262.114 195.546 262.114 195.76 262.096 195.981C262.023 198.089 261.877 200.639 261.584 201.306C261.072 202.487 261.2 208.816 261.2 208.816C261.2 208.816 260.686 221.7 260.046 223.102C259.406 224.503 259.275 227.443 259.467 228.019C259.659 228.596 258.824 244.068 258.824 244.068L258.184 250.992C258.184 250.992 258.376 257.616 257.797 257.764C257.219 257.912 256.899 262.478 256.899 262.478C256.899 262.478 254.848 265.716 255.744 266.893C256.64 268.07 255.613 268.59 255.519 268.881C255.424 269.173 253.563 270.286 254.909 274.403C254.922 274.444 254.936 274.484 254.952 274.523C253.691 276.542 249.694 283.058 249.937 284.049C250.117 284.679 250.499 285.206 251.004 285.524C251.945 286.174 253.56 286.476 256.128 285.524C260.393 283.94 260.088 282.798 260.088 282.798C260.11 282.264 260.309 281.761 260.643 281.391C260.978 281.021 261.422 280.813 261.886 280.81C263.65 280.662 264.966 278.787 264.966 278.787L264.759 277.898L264.475 276.669C264.509 276.317 264.725 275.703 265.694 275.362C267.172 274.846 266.785 271.607 266.785 271.607C266.785 271.607 266.657 268.221 267.296 267.778C267.936 267.336 267.683 261.74 267.683 261.74C267.683 261.74 268.39 257.69 269.414 254.964C270.437 252.239 271.662 236.046 271.662 236.046C271.662 236.046 272.494 228.093 273.265 225.81C274.035 223.527 274.742 217.123 274.742 217.123C274.742 217.123 279.492 206.519 279.553 204.162C279.553 204.162 280.162 201.953 280.771 204.383C281.381 206.814 283.093 212.631 283.093 212.631L284.759 219.772L286.748 230.447L288.034 239.432C288.034 239.432 287.839 242.818 288.339 243.998C288.838 245.178 289.557 247.897 289.174 248.414C288.79 248.93 289.941 251.361 290.264 251.873C290.587 252.386 290.264 263.286 290.264 263.286C290.264 263.286 291.739 272.563 293.856 274.175C294.004 274.287 294.161 274.381 294.325 274.456C294.295 275.46 294.264 276.806 294.304 277.508C294.299 277.665 294.322 277.822 294.371 277.968C294.563 278.263 296.744 280.252 297.195 280.252C297.646 280.252 299.245 281.541 299.312 282.166C299.379 282.791 304.001 285.44 304.656 285.517C305.311 285.594 308.485 286.251 308.921 285.222C309.029 284.921 309.059 284.59 309.009 284.27ZM297.655 151.593L297.984 151.919C297.984 151.919 298.322 154.958 298.563 155.868C298.804 156.777 298.514 158.548 298.514 158.548C298.536 159.208 298.65 159.861 298.852 160.48C299.139 161.143 298.273 162.587 298.273 162.587H297.503L297.262 151.213L297.655 151.593ZM274.736 117.633V117.566C274.73 117.587 274.727 117.612 274.727 117.633H274.736ZM262.9 161.417C262.782 161.123 262.764 160.788 262.852 160.48C262.92 160.313 262.974 160.139 263.013 159.96C263.108 159.498 263.167 159.028 263.19 158.555C263.19 158.549 263.19 158.543 263.19 158.537C263.162 158.369 262.916 156.739 263.144 155.875C263.373 155.01 263.72 151.926 263.72 151.926L263.939 151.712L264.448 151.203C264.448 151.203 264.448 151.013 264.485 150.701C264.591 153.37 264.676 156.321 264.539 156.468C264.283 156.76 263.351 159.63 263.577 159.742C263.65 159.781 263.549 160.929 263.379 162.475C263.187 162.143 263.027 161.788 262.9 161.417Z"/><path fill="#C37098" d="M287.454 120.439V124.809L279.679 129.315C279.679 129.315 271.959 123.93 273.863 121.788C275.082 120.432 274.847 116.709 274.518 114.148C274.326 112.659 274.104 111.566 274.104 111.566C274.104 111.566 287.972 107 285.876 110.467C285.175 111.626 285.12 113.126 285.355 114.612C285.83 117.559 287.454 120.439 287.454 120.439Z"/><path fill="#3F3D56" d="M266.155 163.17L265.153 177.403C265.153 177.403 263.651 175.832 261.707 173.788C258.103 169.998 252.985 164.578 253.046 164.434C253.14 164.213 253.96 151.301 254.048 148.055C254.132 145.751 254.567 143.482 255.334 141.353C255.517 140.931 256.032 138.248 256.248 136.994C256.321 136.604 256.367 136.351 256.367 136.351L258.048 135.571C258.048 135.571 265.055 144.585 265.055 144.75C265.055 144.915 264.577 151.838 264.577 151.838L264.08 152.337L263.864 152.551C263.864 152.551 263.529 155.575 263.291 156.482C263.054 157.388 263.31 158.962 263.337 159.13C263.315 159.603 263.257 160.074 263.163 160.535C263.124 160.713 263.07 160.886 263.002 161.052C262.916 161.359 262.933 161.693 263.051 161.986C263.186 162.393 263.362 162.781 263.575 163.142L266.155 163.17Z"/><path fill="#3F3D56" d="M308.621 164.434C308.694 164.606 301.221 172.471 297.982 175.868L296.514 177.403L295.521 163.17H298.095C298.095 163.17 298.954 161.74 298.668 161.08C298.468 160.464 298.356 159.815 298.335 159.158C298.335 159.158 298.619 157.402 298.381 156.492C298.144 155.583 297.808 152.562 297.808 152.562L297.482 152.239L297.096 151.849C297.096 151.849 296.617 144.925 296.617 144.76C296.617 144.595 303.624 135.582 303.624 135.582L305.294 136.351C305.294 136.351 305.33 136.559 305.391 136.889C305.617 138.087 306.156 140.921 306.342 141.353C307.109 143.483 307.544 145.751 307.627 148.055C307.707 151.301 308.523 164.213 308.621 164.434Z"/><path fill="#3F3D56" d="M308.653 285.246C308.205 286.272 305.061 285.597 304.412 285.541C303.763 285.485 299.181 282.826 299.117 282.204C299.053 281.582 297.466 280.3 297.021 280.3C296.577 280.3 294.417 278.319 294.225 278.028C294.176 277.882 294.154 277.727 294.161 277.571C294.094 276.366 294.225 273.265 294.225 273.265L303.44 273.851L307.919 281.618C308.296 282.455 308.569 283.351 308.729 284.277C308.783 284.602 308.757 284.938 308.653 285.246Z"/><path fill="#000" d="M308.653 285.246C308.205 286.272 305.061 285.597 304.412 285.541C303.763 285.485 299.181 282.826 299.117 282.204C299.053 281.582 297.466 280.3 297.021 280.3C296.577 280.3 294.417 278.319 294.225 278.028C294.176 277.882 294.154 277.727 294.161 277.571C294.094 276.366 294.225 273.265 294.225 273.265L303.44 273.851L307.919 281.618C308.296 282.455 308.569 283.351 308.729 284.277C308.783 284.602 308.757 284.938 308.653 285.246Z" opacity=".1"/><path fill="#000" d="M308.653 285.246C308.205 286.272 305.061 285.598 304.412 285.541C303.763 285.485 299.181 282.826 299.117 282.204C299.053 281.583 297.466 280.301 297.021 280.301C296.577 280.301 294.417 278.319 294.225 278.028C294.176 277.882 294.154 277.727 294.161 277.571L297.146 279.749C297.146 279.749 299.053 281.154 299.562 281.987C300.071 282.819 304.08 284.551 304.412 284.586C304.659 284.614 307.291 284.031 308.729 284.277C308.783 284.602 308.757 284.938 308.653 285.246Z" opacity=".1"/><path fill="#3F3D56" d="M265.086 278.836C265.086 278.836 263.782 280.704 262.039 280.848C261.579 280.852 261.138 281.06 260.807 281.428C260.476 281.796 260.28 282.296 260.26 282.826C260.26 282.826 260.565 283.964 256.351 285.541C253.807 286.486 252.208 286.187 251.276 285.541C250.775 285.223 250.398 284.698 250.219 284.073C249.932 282.903 255.556 273.999 255.556 273.999L260.674 273.647L264.33 275.551L264.891 277.964L265.086 278.836Z"/><path fill="#000" d="M265.086 278.836C265.086 278.836 263.782 280.704 262.039 280.848C261.579 280.852 261.138 281.06 260.807 281.428C260.476 281.796 260.28 282.296 260.26 282.826C260.26 282.826 260.565 283.964 256.351 285.541C253.807 286.486 252.208 286.187 251.276 285.541C250.775 285.223 250.398 284.698 250.219 284.073C249.932 282.903 255.556 273.999 255.556 273.999L260.674 273.647L264.33 275.551L264.891 277.964L265.086 278.836Z" opacity=".1"/><path fill="#000" d="M265.086 278.835C265.086 278.835 263.782 280.704 262.04 280.848C261.58 280.852 261.139 281.059 260.808 281.427C260.477 281.795 260.281 282.296 260.261 282.826C260.261 282.826 260.565 283.964 256.352 285.541C253.808 286.486 252.209 286.187 251.276 285.541C253.674 285.253 258.972 283.507 259.502 282.903C260.139 282.169 260.934 280.153 261.473 280.117C261.848 280.089 263.752 278.769 264.894 277.95L265.086 278.835Z" opacity=".1"/><path fill="#3F3D56" d="M304.328 270.666C303.755 272.204 304.328 275.355 304.328 275.355C304.328 275.355 295.798 275.868 293.714 274.256C291.63 272.643 290.155 263.409 290.155 263.409C290.155 263.409 290.46 252.566 290.155 252.053C289.851 251.54 288.693 249.123 289.074 248.61C289.455 248.098 288.769 245.386 288.248 244.213C287.727 243.039 287.944 239.671 287.944 239.671L286.67 230.728L284.702 220.106L283.03 212.996C283.03 212.996 281.314 207.208 280.733 204.791C280.151 202.374 279.535 204.57 279.535 204.57C279.474 206.916 274.771 217.468 274.771 217.468C274.771 217.468 274.07 223.843 273.308 226.112C272.547 228.381 271.718 236.299 271.718 236.299C271.718 236.299 270.499 252.418 269.494 255.13C268.489 257.841 267.797 261.87 267.797 261.87C267.797 261.87 268.053 267.441 267.416 267.88C266.779 268.319 266.883 271.692 266.883 271.692C266.883 271.692 267.264 274.913 265.802 275.429C264.339 275.945 264.583 277.041 264.583 277.041C264.583 277.041 256.449 278.58 255.114 274.473C253.78 270.367 255.623 269.275 255.724 268.98C255.824 268.685 256.839 268.175 255.949 266.999C255.059 265.822 257.092 262.604 257.092 262.604C257.092 262.604 257.411 258.063 257.981 257.915C258.551 257.768 258.365 251.175 258.365 251.175L258.999 244.286C258.999 244.286 259.827 228.898 259.635 228.311C259.443 227.725 259.571 224.799 260.208 223.394C260.845 221.988 261.351 209.175 261.351 209.175C261.351 209.175 261.223 202.877 261.731 201.703C262.036 201.039 262.164 198.486 262.237 196.403C262.292 194.812 262.304 193.494 262.304 193.494L269.421 190.417L278.56 187.049L286.25 191.299L297.501 193.789L297.641 196.027L299.789 230.208L301.007 243.103C301.007 243.103 301.516 249.183 301.58 250.282C301.644 251.382 302.278 258.565 302.278 258.565C302.278 258.565 303.612 262.007 302.786 263.181C301.961 264.354 302.278 265.288 302.278 265.288C302.278 265.288 304.901 269.127 304.328 270.666Z"/><path fill="#000" d="M285.882 110.468C285.181 111.627 285.127 113.127 285.361 114.613C283.76 115.915 281.832 116.575 279.874 116.49C277.917 116.406 276.037 115.582 274.525 114.145C274.333 112.656 274.11 111.564 274.11 111.564C274.11 111.564 287.978 107.004 285.882 110.468Z" opacity=".1"/><path fill="#C37098" d="M289.124 105.985C289.124 108.021 288.601 110.011 287.62 111.703C286.639 113.396 285.245 114.715 283.614 115.494C281.983 116.273 280.188 116.477 278.456 116.079C276.725 115.682 275.134 114.702 273.886 113.263C272.638 111.823 271.787 109.99 271.443 107.993C271.099 105.997 271.275 103.927 271.951 102.047C272.627 100.166 273.771 98.5589 275.239 97.428C276.707 96.2971 278.432 95.6935 280.198 95.6935C281.372 95.687 282.535 95.9487 283.62 96.4636C284.706 96.9785 285.692 97.7364 286.522 98.6934C287.352 99.6504 288.009 100.788 288.456 102.039C288.903 103.291 289.13 104.632 289.124 105.985Z"/><path fill="#000" d="M290.982 123.089L288.057 183.136L272.17 179.29L269.022 155.218L272.139 122.902L274.485 123.25L278.622 123.858L282.72 124.149L287.162 123.58L290.982 123.089Z" opacity=".1"/><path fill="#2F91F9" d="M290.982 123.526L288.057 183.574L272.17 179.728L269.022 155.656L272.139 123.344L274.485 123.688L278.622 124.296L282.72 124.587L287.162 124.018L290.982 123.526Z"/><path fill="#3F3D56" d="M277.92 125.14L283.642 125.361L282.033 127.957C282.033 127.957 282.146 133.201 282.911 134.704C283.675 136.208 283.45 159.433 283.45 159.433L281.927 162.766L279.322 159.029L279.355 128.364L277.92 125.14Z"/><path fill="#000" d="M277.92 125.14L283.642 125.361L282.033 127.957C282.033 127.957 282.146 133.201 282.911 134.704C283.675 136.208 283.45 159.433 283.45 159.433L281.927 162.766L279.322 159.029L279.355 128.364L277.92 125.14Z" opacity=".1"/><path fill="#000" d="M286.883 118.324L281.545 125.139L284.595 128.802L289.649 123.122L286.883 118.324Z" opacity=".1"/><path fill="#2F91F9" d="M286.883 117.886L281.545 124.7L284.595 128.364L289.649 122.684L286.883 117.886Z"/><path fill="#000" d="M279.29 124.809L273.885 118.581L273.376 121.841L275.856 128.985L279.29 124.809Z" opacity=".1"/><path fill="#2F91F9" d="M279.48 124.37L274.078 118.143L273.569 121.402L276.049 128.547L279.48 124.37Z"/><path fill="#000" d="M297.67 196.037C295.076 197.462 292.298 198.388 289.445 198.78C284.201 199.549 280.771 191.857 280.771 191.857L278.77 194.86C278.133 198.049 268.442 198.854 264.503 197.645C263.685 197.413 262.917 196.993 262.242 196.413C262.297 194.821 262.309 193.504 262.309 193.504L269.426 190.427L278.565 187.059L286.255 191.309L297.506 193.799L297.67 196.037Z" opacity=".1"/><path fill="#000" d="M290.982 123.53L288.06 183.574L272.169 179.728L269.016 155.66L272.13 123.344L274.475 123.695C274.416 124.872 274.301 126.045 274.131 127.208C273.75 129.262 276.102 143.843 276.102 143.843C276.102 143.843 280.572 160.194 282.582 157.837C284.593 155.48 287.457 143.035 287.457 143.035C289.397 138.42 287.49 125.472 287.347 125.212C287.247 124.83 287.186 124.435 287.164 124.036L290.982 123.53Z" opacity=".1"/><path fill="#000" d="M297.845 169.995L297.979 175.878L296.511 177.413L295.521 163.17H297.714L297.845 169.995Z" opacity=".1"/><path fill="#000" d="M263.342 159.142C263.319 159.615 263.261 160.085 263.168 160.547C263.168 160.417 263.168 160.343 263.144 160.332C263.053 160.304 263.162 159.767 263.342 159.142Z" opacity=".1"/><path fill="#000" d="M266.156 163.169L265.154 177.402C265.154 177.402 263.652 175.832 261.708 173.788L261.94 171.266C261.94 171.266 262.76 165.07 263.058 162.014C263.193 162.421 263.369 162.809 263.582 163.169H266.156Z" opacity=".1"/><path fill="#3F3D56" d="M274.775 118.36C274.775 118.36 273.825 116.748 272.521 119.86C272.521 119.86 269.121 122.133 267.951 122.389C266.781 122.646 262.62 124.332 262.62 124.332C261.991 124.855 261.235 125.137 260.46 125.136C259.156 125.136 258.074 128.434 258.233 130.229C258.391 132.024 258.138 133.345 256.932 133.419C255.725 133.492 256.389 136.383 256.389 136.383L264.429 147.009C264.429 147.009 264.938 156.791 264.685 157.086C264.432 157.381 263.509 160.248 263.732 160.346C263.954 160.444 262.513 171.263 262.513 171.263L260.575 192.258C260.575 192.258 260.575 195.77 264.517 196.982C268.46 198.194 278.157 197.393 278.781 194.204L280.783 191.197C280.783 191.197 284.213 198.893 289.456 198.124C294.699 197.355 298.038 195.156 298.038 195.156L297.466 169.995L297.085 151.86L305.271 136.352C305.271 136.352 303.077 131.515 303.269 129.326C303.461 127.138 303.839 125.48 299.169 124.711C299.169 124.711 295.229 124.033 292.908 122.182C291.528 121.077 290.021 120.202 288.43 119.583C288.43 119.583 287.12 116.773 286.209 117.735C286.209 117.735 287.123 121.708 287.046 122.301C286.97 122.895 287.19 125.579 287.333 125.856C287.476 126.134 289.383 139.063 287.442 143.679C287.442 143.679 284.594 156.124 282.568 158.481C280.542 160.838 276.088 144.487 276.088 144.487C276.088 144.487 273.736 129.903 274.117 127.851C274.498 125.8 274.775 118.36 274.775 118.36Z"/><path fill="#3F3D56" d="M281.574 166.394C282.346 166.394 282.973 165.673 282.973 164.782C282.973 163.892 282.346 163.17 281.574 163.17C280.802 163.17 280.176 163.892 280.176 164.782C280.176 165.673 280.802 166.394 281.574 166.394Z"/><path fill="#3F3D56" d="M281.574 173.996C282.346 173.996 282.973 173.274 282.973 172.384C282.973 171.493 282.346 170.771 281.574 170.771C280.802 170.771 280.176 171.493 280.176 172.384C280.176 173.274 280.802 173.996 281.574 173.996Z"/><path fill="#000" d="M281.574 166.394C282.346 166.394 282.973 165.673 282.973 164.782C282.973 163.892 282.346 163.17 281.574 163.17C280.802 163.17 280.176 163.892 280.176 164.782C280.176 165.673 280.802 166.394 281.574 166.394Z" opacity=".1"/><path fill="#000" d="M281.574 173.996C282.346 173.996 282.973 173.274 282.973 172.384C282.973 171.493 282.346 170.771 281.574 170.771C280.802 170.771 280.176 171.493 280.176 172.384C280.176 173.274 280.802 173.996 281.574 173.996Z" opacity=".1"/><path fill="#000" stroke="#2F91F9" stroke-miterlimit="10" d="M294.141 268.467C294.141 268.467 299.881 268.98 300.451 269.492C301.02 270.005 294.141 268.467 294.141 268.467Z" opacity=".1"/><path fill="#000" stroke="#2F91F9" stroke-miterlimit="10" d="M259.97 263.265C259.97 263.265 261.188 265.021 260.67 265.829C260.153 266.637 259.97 263.265 259.97 263.265Z" opacity=".1"/><path fill="#000" stroke="#2F91F9" stroke-miterlimit="10" d="M261.432 269.598C261.432 269.598 263.656 267.912 264.545 269.033C265.435 270.153 261.432 269.598 261.432 269.598Z" opacity=".1"/><path fill="#000" d="M289.124 105.985C289.126 106.863 289.03 107.737 288.838 108.587C288.65 108.489 288.493 108.326 288.387 108.121C288.282 107.917 288.233 107.68 288.247 107.442C288.287 107.024 288.527 106.641 288.475 106.227C288.399 105.588 287.729 105.328 287.376 104.822C286.94 104.211 287.034 103.322 287.071 102.532C287.108 101.741 286.934 100.775 286.291 100.505C286.099 100.424 285.889 100.417 285.703 100.326C285.197 100.08 285.042 99.3563 284.704 98.8575C284.027 97.8529 282.684 97.874 281.657 98.3517C281.21 98.5987 280.753 98.8191 280.286 99.0121C280.053 99.1071 279.805 99.1452 279.558 99.124C279.311 99.1028 279.07 99.0229 278.851 98.8891C278.65 98.7416 278.489 98.5379 278.282 98.3903C277.593 97.9126 276.691 98.3903 276.094 99.005C275.497 99.6197 275.019 100.445 274.266 100.821C273.928 100.997 273.511 101.102 273.352 101.481C273.274 101.688 273.241 101.913 273.255 102.138C273.255 103.505 273.395 104.892 273.148 106.23C272.99 107.091 272.466 108.067 271.707 107.962C271.613 107.946 271.52 107.919 271.43 107.881C271.202 106.475 271.23 105.028 271.514 103.635C271.798 102.242 272.331 100.932 273.079 99.7893C273.826 98.6468 274.772 97.6966 275.857 96.9995C276.941 96.3024 278.139 95.8737 279.375 95.7408C280.611 95.6078 281.857 95.7736 283.035 96.2275C284.212 96.6813 285.294 97.4133 286.212 98.3767C287.13 99.34 287.864 100.514 288.366 101.822C288.869 103.131 289.129 104.546 289.13 105.978L289.124 105.985Z" opacity=".1"/><path fill="#3F3D56" d="M271.031 107.299C271.26 107.358 271.476 107.495 271.71 107.53C272.469 107.636 272.993 106.659 273.151 105.799C273.398 104.46 273.27 103.073 273.261 101.707C273.244 101.482 273.277 101.256 273.356 101.05C273.529 100.67 273.947 100.565 274.269 100.389C275.007 100.01 275.488 99.2021 276.097 98.5733C276.707 97.9446 277.593 97.4809 278.282 97.9586C278.486 98.0991 278.65 98.3099 278.851 98.4574C279.071 98.5892 279.312 98.6681 279.559 98.6893C279.807 98.7104 280.055 98.6733 280.289 98.5803C280.762 98.4188 281.203 98.1342 281.657 97.92C282.675 97.4423 284.021 97.4247 284.704 98.4223C285.042 98.9246 285.197 99.6447 285.703 99.8905C285.889 99.9819 286.099 99.9924 286.291 100.073C286.934 100.351 287.098 101.31 287.071 102.1C287.044 102.89 286.952 103.779 287.376 104.39C287.729 104.889 288.399 105.149 288.475 105.795C288.524 106.21 288.287 106.596 288.247 107.011C288.238 107.165 288.255 107.319 288.299 107.465C288.342 107.612 288.41 107.746 288.498 107.862C288.587 107.978 288.695 108.072 288.815 108.139C288.936 108.207 289.067 108.246 289.2 108.254C289.993 108.254 290.483 107.232 291.223 106.905C291.528 106.768 291.897 106.747 292.137 106.47C292.227 106.336 292.29 106.182 292.323 106.018C292.355 105.853 292.356 105.683 292.326 105.518C292.177 104.172 291.242 103.003 291.342 101.654C291.437 100.361 292.475 99.2337 292.256 97.9621C292.144 97.4933 291.935 97.0629 291.647 96.7081C291.32 96.1978 290.895 95.7828 290.404 95.4963C289.98 95.2855 289.49 95.2364 289.103 94.9799C287.951 94.2528 287.954 92.3561 287.275 91.0634C286.983 90.5292 286.57 90.0978 286.08 89.8165C285.59 89.5353 285.042 89.4149 284.497 89.4687C283.641 89.5671 282.864 90.0904 282.017 90.2661C280.856 90.5049 279.68 90.0658 278.58 89.5635C277.481 89.0612 276.369 88.5098 275.19 88.5098C274.011 88.5098 272.734 89.2123 272.375 90.4979C272.186 91.2004 272.28 91.9521 272.134 92.6581C271.878 93.9121 270.915 94.8043 269.946 95.426C269.279 95.8546 268.478 96.3463 268.399 97.221C268.347 97.776 268.612 98.2748 268.78 98.8122C269.065 99.7214 269.058 100.718 268.761 101.622C268.539 102.286 268.167 102.869 267.942 103.53C267.782 103.978 267.706 104.46 267.72 104.944C267.733 105.429 267.836 105.904 268.021 106.34C268.163 106.657 268.36 106.938 268.599 107.164C268.839 107.391 269.116 107.558 269.413 107.657C270.013 107.822 270.391 107.137 271.031 107.299Z"/><g opacity=".1"><path fill="#000" d="M273.151 105.033C272.993 105.894 272.466 106.87 271.707 106.765C271.473 106.73 271.26 106.593 271.028 106.533C270.391 106.371 270.014 107.06 269.413 106.884C269.115 106.786 268.838 106.618 268.598 106.392C268.358 106.165 268.161 105.885 268.018 105.567C267.859 105.21 267.762 104.819 267.735 104.418C267.674 105.04 267.773 105.669 268.018 106.227C268.161 106.545 268.358 106.825 268.598 107.052C268.838 107.278 269.115 107.446 269.413 107.545C270.023 107.706 270.391 107.018 271.028 107.193C271.251 107.283 271.478 107.359 271.707 107.422C272.466 107.531 272.993 106.554 273.151 105.694C273.276 104.933 273.325 104.159 273.298 103.386C273.295 103.939 273.246 104.491 273.151 105.033Z" opacity=".1"/><path fill="#000" d="M268.977 99.7421C269.016 99.1665 268.947 98.588 268.776 98.0455C268.638 97.6848 268.521 97.314 268.426 96.9355C268.413 96.9945 268.402 97.0544 268.395 97.1147C268.343 97.6662 268.612 98.1685 268.776 98.7059C268.882 99.0395 268.95 99.388 268.977 99.7421Z" opacity=".1"/><path fill="#000" d="M292.253 97.8916C292.11 98.8892 291.409 99.827 291.339 100.877C291.322 101.057 291.322 101.238 291.339 101.418C291.491 100.192 292.433 99.107 292.253 97.8916Z" opacity=".1"/><path fill="#000" d="M292.304 105.304C292.278 105.451 292.218 105.587 292.13 105.697C291.905 105.975 291.521 105.996 291.216 106.133C290.476 106.459 289.998 107.492 289.194 107.482C288.988 107.468 288.79 107.383 288.627 107.238C288.464 107.092 288.343 106.893 288.28 106.667C288.261 106.743 288.247 106.82 288.237 106.898C288.228 107.052 288.246 107.206 288.29 107.352C288.333 107.498 288.401 107.632 288.489 107.748C288.578 107.863 288.686 107.957 288.806 108.024C288.926 108.091 289.057 108.13 289.191 108.138C289.986 108.138 290.473 107.116 291.213 106.793C291.518 106.656 291.89 106.635 292.127 106.357C292.217 106.224 292.28 106.07 292.313 105.906C292.345 105.741 292.346 105.571 292.316 105.406C292.313 105.363 292.307 105.335 292.304 105.304Z" opacity=".1"/><path fill="#000" d="M288.485 105.011C288.409 104.372 287.739 104.112 287.385 103.606C287.169 103.274 287.051 102.87 287.05 102.454C287.026 103.107 287.035 103.775 287.385 104.267C287.736 104.758 288.269 104.969 288.439 105.475C288.482 105.326 288.498 105.168 288.485 105.011Z" opacity=".1"/><path fill="#000" d="M287.069 101.334C287.094 100.544 286.929 99.5777 286.286 99.3072C286.097 99.2264 285.887 99.2159 285.701 99.1281C285.196 98.8822 285.037 98.1586 284.702 97.6598C284.023 96.6587 282.679 96.6763 281.656 97.154C281.199 97.3683 280.763 97.6528 280.288 97.8144C280.054 97.9094 279.806 97.9475 279.559 97.9263C279.312 97.9051 279.072 97.8252 278.853 97.6914C278.652 97.5439 278.487 97.3402 278.283 97.1926C277.591 96.7149 276.69 97.1926 276.096 97.8073C275.502 98.422 275.02 99.244 274.268 99.6233C273.927 99.799 273.512 99.9044 273.336 100.284C273.258 100.49 273.226 100.716 273.241 100.941C273.241 101.078 273.241 101.215 273.241 101.352C273.245 101.21 273.275 101.071 273.329 100.944C273.506 100.565 273.92 100.459 274.262 100.284C274.999 99.9044 275.48 99.0965 276.09 98.4677C276.699 97.8389 277.585 97.3753 278.277 97.853C278.481 97.9935 278.646 98.2043 278.847 98.3483C279.065 98.4828 279.306 98.5633 279.553 98.5845C279.8 98.6056 280.048 98.5671 280.282 98.4712C280.747 98.2801 281.204 98.0609 281.649 97.8144C282.67 97.3367 284.014 97.3156 284.696 98.3167C285.031 98.8154 285.189 99.539 285.695 99.7849C285.881 99.8762 286.091 99.8868 286.28 99.9676C286.801 100.192 287.008 100.867 287.054 101.534L287.069 101.334Z" opacity=".1"/></g><g opacity=".1"><path fill="#000" d="M272.063 105.013C272.081 104.43 272.262 103.869 272.579 103.415C272.897 102.96 273.334 102.637 273.824 102.494C275.183 102.111 276.608 102.186 277.931 102.708C280.822 103.811 277.565 107.78 277.565 107.78C277.565 107.78 275.399 110.239 273.379 108.522C272.783 108.002 272.365 107.255 272.2 106.414C272.102 105.956 272.055 105.485 272.063 105.013Z" opacity=".1"/><path fill="#000" d="M287.958 105.013C287.94 104.43 287.758 103.868 287.44 103.414C287.122 102.96 286.685 102.637 286.194 102.495C284.836 102.112 283.412 102.187 282.09 102.709C279.199 103.812 282.456 107.781 282.456 107.781C282.456 107.781 284.619 110.24 286.642 108.522C287.238 108.002 287.656 107.256 287.821 106.415C287.919 105.956 287.966 105.485 287.958 105.013Z" opacity=".1"/><path fill="#000" d="M277.386 102.385V102.55H282.665V102.354L277.386 102.385Z" opacity=".1"/><path fill="#000" d="M279.07 104.145H279.238V103.586C279.238 103.586 279.774 103.105 280.663 103.586V104.085H280.968V103.759H280.819C280.819 103.759 280.88 103.081 279.887 103.19C279.887 103.19 279.088 103.102 279.107 103.685H278.924L279.07 104.145Z" opacity=".1"/></g><path fill="#2F91F9" d="M272.063 104.784C272.08 104.201 272.262 103.64 272.579 103.186C272.897 102.732 273.333 102.409 273.824 102.266C275.183 101.885 276.607 101.96 277.931 102.48C280.822 103.586 277.565 107.552 277.565 107.552C277.565 107.552 275.399 110.011 273.379 108.293C272.781 107.775 272.363 107.027 272.2 106.186C272.101 105.728 272.055 105.256 272.063 104.784Z"/><path fill="#2F91F9" d="M287.958 104.783C287.94 104.2 287.759 103.639 287.44 103.184C287.122 102.73 286.685 102.407 286.194 102.265C284.836 101.884 283.412 101.959 282.09 102.479C279.199 103.585 282.456 107.551 282.456 107.551C282.456 107.551 284.619 110.01 286.642 108.292C287.239 107.774 287.657 107.027 287.821 106.185C287.92 105.727 287.966 105.255 287.958 104.783Z"/><path fill="#2F91F9" d="M277.386 102.163V102.332H282.665V102.132L277.386 102.163Z"/><path fill="#2F91F9" d="M279.07 103.923H279.237V103.364C279.237 103.364 279.773 102.886 280.663 103.364V103.866H280.968V103.536H280.818C280.818 103.536 280.879 102.862 279.886 102.967C279.886 102.967 279.088 102.883 279.106 103.463H278.923L279.07 103.923Z"/><path fill="#535461" d="M37.5141 160.592H35.7837V205.518H37.5141V160.592Z"/><path fill="#3F3D56" d="M48.3901 205.38L48.2804 207.403L48.1281 210.259L48.0641 211.45L47.9118 214.309L47.8448 215.5L47.6925 218.355L45.9468 250.836C45.8723 252.234 45.3383 253.547 44.4534 254.506C43.5686 255.466 42.3997 256 41.1851 256H32.1126C30.8982 256 29.7297 255.465 28.8454 254.506C27.961 253.546 27.4276 252.234 27.3539 250.836L25.5991 218.355L25.4468 215.5L25.3828 214.309L25.2335 211.443L25.1695 210.252L25.0172 207.396L24.9075 205.373C24.8867 204.985 24.9351 204.596 25.0498 204.23C25.1644 203.864 25.3428 203.529 25.574 203.245C25.8052 202.962 26.0843 202.736 26.3941 202.582C26.7039 202.428 27.0378 202.348 27.3752 202.349H45.9255C46.2633 202.348 46.5976 202.428 46.9077 202.583C47.2178 202.737 47.497 202.964 47.728 203.248C47.9591 203.532 48.1371 203.868 48.251 204.235C48.3649 204.601 48.4122 204.991 48.3901 205.38Z"/><path fill="#9D9CB5" d="M48.2814 207.404L48.1291 210.26H25.1675L25.0151 207.404H48.2814Z"/><path fill="#9D9CB5" d="M48.0646 211.45L47.9123 214.309H25.3863L25.231 211.45H48.0646Z"/><path fill="#9D9CB5" d="M47.8461 215.501L47.6938 218.357H25.6065L25.4512 215.501H47.8461Z"/><path fill="#2F91F9" d="M22.3724 177.431C32.4503 185.836 36.6484 198.987 36.6484 198.987C36.6484 198.987 24.5019 198.506 14.4088 190.101C4.31568 181.695 0.132812 168.544 0.132812 168.544C0.132812 168.544 12.2915 169.025 22.3724 177.431Z"/><path stroke="#535461" stroke-miterlimit="10" stroke-width="2" d="M0.150391 168.544C0.150391 168.544 12.7569 176.623 16.7996 183.297C20.8423 189.971 36.6507 198.991 36.6507 198.991"/><path fill="#2F91F9" d="M28.8779 160.511C34.3616 165.077 36.6496 172.243 36.6496 172.243C36.6496 172.243 30.0386 171.983 24.5518 167.406C19.065 162.829 16.7832 155.674 16.7832 155.674C16.7832 155.674 23.3941 155.916 28.8779 160.511Z"/><path stroke="#535461" stroke-miterlimit="10" stroke-width="2" d="M16.7832 155.657C16.7832 155.657 23.644 160.048 25.8436 163.683C28.0431 167.319 36.6496 172.226 36.6496 172.226"/><path fill="#2F91F9" d="M44.6224 171.863C38.3191 179.847 36.9878 190.28 36.9878 190.28C36.9878 190.28 45.8714 187.768 52.1716 179.784C58.4718 171.8 59.8062 161.364 59.8062 161.364C59.8062 161.364 50.9226 163.876 44.6224 171.863Z"/><path stroke="#535461" stroke-miterlimit="10" stroke-width="2" d="M59.8062 161.364C59.8062 161.364 51.5989 169.549 49.512 175.19C47.4252 180.831 36.9878 190.294 36.9878 190.294"/></g><defs><linearGradient id="paint0_linear_323:4370" x1="180.14" x2="180.14" y1="226.94" y2="37.848" gradientUnits="userSpaceOnUse"><stop stop-color="gray" stop-opacity=".25"/><stop offset=".54" stop-color="gray" stop-opacity=".12"/><stop offset="1" stop-color="gray" stop-opacity=".1"/></linearGradient><linearGradient id="paint1_linear_323:4370" x1="56066.1" x2="56066.1" y1="169810" y2="57535.3" gradientUnits="userSpaceOnUse"><stop stop-color="gray" stop-opacity=".25"/><stop offset=".54" stop-color="gray" stop-opacity=".12"/><stop offset="1" stop-color="gray" stop-opacity=".1"/></linearGradient><clipPath id="clip0_323:4370"><rect width="349" height="288" fill="#fff"/></clipPath></defs></svg>